<?xml version="1.0" encoding="utf-8"?>
<!-- Generator: Adobe Illustrator 21.1.0, SVG Export Plug-In . SVG Version: 6.00 Build 0)  -->
<svg version="1.1" id="Capa_1" xmlns="http://www.w3.org/2000/svg" xmlns:xlink="http://www.w3.org/1999/xlink" x="0px" y="0px"
	 viewBox="0 0 275 111" style="enable-background:new 0 0 275 111;" xml:space="preserve">
<style type="text/css">
	.st0{fill:#D68B1C;}
	.st1{fill:#B70031;}
	.st2{fill:#B99022;}
	.st3{fill:#E7B90F;}
	.st4{fill:#60AFC8;}
	.st5{fill:#0086AB;}
</style>
<g>
	<g>
		<g>
			<g>
				<path class="st0" d="M253.9,66.2h-33.1c-6.7,0-12.1-5.4-12.1-12.1c0-6.7,5.4-12.1,12.1-12.1h33.1c6.7,0,12.1,5.4,12.1,12.1
					C266,60.8,260.6,66.2,253.9,66.2z"/>
			</g>
		</g>
		<g>
			<path class="st1" d="M253.9,99.4c-25,0-45.3-20.3-45.3-45.3c0-25,20.3-45.3,45.3-45.3c6.7,0,12.1,5.4,12.1,12.1
				c0,6.7-5.4,12.1-12.1,12.1c-11.6,0-21,9.4-21,21c0,11.6,9.4,21,21,21c6.7,0,12.1,5.4,12.1,12.1C266,93.9,260.6,99.4,253.9,99.4z"
				/>
		</g>
	</g>
	<g>
		<g>
			<path class="st2" d="M21,99.4c-1.3,0-2.5-0.2-3.8-0.6c-6.4-2.1-9.8-8.9-7.7-15.3l21.9-66.3c2.1-6.3,9-9.8,15.3-7.7
				c6.4,2.1,9.8,9,7.7,15.3L32.5,91.1C30.8,96.1,26.1,99.4,21,99.4z"/>
		</g>
		<g>
			<path class="st3" d="M67.9,99.4c-4.9,0-9.5-3-11.3-7.9l-25-66.3c-2.4-6.3,0.8-13.3,7.1-15.6c6.3-2.4,13.3,0.8,15.6,7.1l25,66.3
				c2.4,6.3-0.8,13.3-7.1,15.6C70.7,99.1,69.3,99.4,67.9,99.4z"/>
		</g>
	</g>
	<g>
		<path class="st0" d="M163.3,99.4c-6.7,0-12.1-5.4-12.1-12.1c0-6.7,5.4-12.1,12.1-12.1c11.6,0,21-9.4,21-21c0-11.6-9.4-21-21-21
			c-6.7,0-12.1-5.4-12.1-12.1c0-6.7,5.4-12.1,12.1-12.1c25,0,45.3,20.3,45.3,45.3C208.6,79.1,188.3,99.4,163.3,99.4z"/>
	</g>
	<g>
		<g>
			<path class="st4" d="M92.1,99.4C85.4,99.4,80,94,80,87.2V20.9c0-6.7,5.4-12.1,12.1-12.1c6.7,0,12.1,5.4,12.1,12.1v66.3
				C104.3,94,98.8,99.4,92.1,99.4z"/>
		</g>
		<g>
			<path class="st4" d="M139,99.4c-6.7,0-12.1-5.4-12.1-12.1V20.9c0-6.7,5.4-12.1,12.1-12.1c6.7,0,12.1,5.4,12.1,12.1v66.3
				C151.2,94,145.7,99.4,139,99.4z"/>
		</g>
		<g>
			<path class="st5" d="M139,99.4c-3.8,0-7.5-1.8-9.9-5.1L82.2,27.9c-3.9-5.5-2.6-13,2.9-16.9c5.5-3.9,13-2.6,16.9,2.9l46.9,66.3
				c3.9,5.5,2.6,13-2.9,16.9C143.9,98.7,141.5,99.4,139,99.4z"/>
		</g>
	</g>
</g>
</svg>
