<?xml version="1.0" encoding="utf-8"?>
<!-- Generator: Adobe Illustrator 21.1.0, SVG Export Plug-In . SVG Version: 6.00 Build 0)  -->
<svg version="1.1" id="Layer_1" xmlns="http://www.w3.org/2000/svg" xmlns:xlink="http://www.w3.org/1999/xlink" x="0px" y="0px"
	 viewBox="0 0 1050 318.8" style="enable-background:new 0 0 1050 318.8;" xml:space="preserve">
<style type="text/css">
	.st0{fill:#B9BDBC;}
	.st1{font-family:'Montserrat-Light';}
	.st2{font-size:49.5225px;}
	.st3{display:none;}
	.st4{display:inline;fill:#FFFFFF;}
	.st5{fill:#36D7B7;}
</style>
<g id="Layer_1_1_">
	<g>
		<text transform="matrix(1 0 0 1 446.0938 150.1982)" class="st0 st1 st2">B</text>
		<text transform="matrix(1 0 0 1 490.7559 150.1982)" class="st0 st1 st2">O</text>
		<text transform="matrix(1 0 0 1 539.6758 150.1982)" class="st0 st1 st2">C</text>
		<text transform="matrix(1 0 0 1 582.5547 150.1982)" class="st0 st1 st2">H</text>
		<text transform="matrix(1 0 0 1 630.2871 150.1982)" class="st0 st1 st2">A</text>
		<text transform="matrix(1 0 0 1 672.6211 150.1982)" class="st0 st1 st2">R</text>
		<text transform="matrix(1 0 0 1 715.6992 150.1982)" class="st0 st1 st2">D</text>
		<text transform="matrix(1 0 0 1 764.0244 150.1982)" class="st0 st1 st2"> </text>
		<text transform="matrix(1 0 0 1 784.1777 150.1982)" class="st0 st1 st2">G</text>
		<text transform="matrix(1 0 0 1 829.8789 150.1982)" class="st0 st1 st2">R</text>
		<text transform="matrix(1 0 0 1 872.957 150.1982)" class="st0 st1 st2">O</text>
		<text transform="matrix(1 0 0 1 921.877 150.1982)" class="st0 st1 st2">U</text>
		<text transform="matrix(1 0 0 1 968.5684 150.1982)" class="st0 st1 st2">P</text>
		<polygon class="st0" points="596.4,202.4 583.3,202.4 583.3,192.6 595.3,192.6 595.3,191.5 583.3,191.5 583.3,181.7 596.1,181.7 
			596.1,180.7 582,180.7 582,203.4 596.4,203.4 		"/>
		<polygon class="st0" points="605.2,194.7 611.3,186 609.8,186 604.5,193.8 599.2,186 597.7,186 603.7,194.7 597.5,203.4 
			599,203.4 604.4,195.5 609.8,203.4 611.3,203.4 		"/>
		<path class="st0" d="M621.2,202.9c-2.7,0-5.8-1.7-5.8-7.1v-1.7c0-5.5,2.8-7.4,6.1-7.4c4.2,0,6.4,3.7,6.4,8.1
			C627.9,199.7,625.1,202.9,621.2,202.9z M621.6,185.6c-2.2,0-3.8,0.6-5.2,2.2l-1,1.9v-3.9h-1.3v24.1h1.3v-10l1,2
			c1.3,1.4,2.8,2,4.9,2c4.3,0,8.1-3.1,8.1-9.3C629.3,189.4,626.3,185.6,621.6,185.6z"/>
		<path class="st0" d="M639.1,186.6c2.9,0,5.9,2,6.1,7.4h-12.6C632.8,189,636,186.6,639.1,186.6z M646.5,194.3
			c0-4.5-2.4-8.7-7.3-8.7c-4.4,0-7.9,3.6-7.9,9.1c0,6.1,3.4,9.2,7.6,9.2c3.4,0,6.4-1.9,7.4-5.9H645c-0.9,3.3-3.4,4.8-6,4.8
			c-3,0-6.1-2.1-6.3-7.8h13.9C646.5,194.7,646.5,194.4,646.5,194.3z"/>
		<path class="st0" d="M655.8,185.6c-1.4,0-2.7,0.7-3.5,1.9l-0.9,2.1V186H650v17.4h1.3v-9.6c0-5.3,2.2-7.3,5.3-7.1v-1
			C656.4,185.6,656.1,185.6,655.8,185.6z"/>
		<path class="st0" d="M660.4,203.4V186h-1.3v17.4H660.4z M659.7,181.5c-0.5,0-1,0.4-1,1c0,0.5,0.4,1,1,1c0.5,0,1-0.4,1-1
			S660.3,181.5,659.7,181.5z"/>
		<path class="st0" d="M671.6,186.6c2.9,0,5.9,2,6.1,7.4h-12.6C665.3,189,668.6,186.6,671.6,186.6z M679,194.3
			c0-4.5-2.4-8.7-7.3-8.7c-4.4,0-7.9,3.6-7.9,9.1c0,6.1,3.4,9.2,7.6,9.2c3.4,0,6.4-1.9,7.4-5.9h-1.3c-0.9,3.3-3.4,4.8-6,4.8
			c-3,0-6.1-2.1-6.3-7.8H679C679,194.7,679,194.4,679,194.3z"/>
		<path class="st0" d="M695.9,190.9c-0.3-3.3-2.4-5.3-6-5.3c-2,0-3.9,0.7-5.2,2.4l-0.8,1.8V186h-1.3v17.4h1.3v-9.6
			c0-5,2.8-7.1,5.9-7.1c3.1,0,4.6,1.8,4.9,4.6c0.1,0.9,0.1,1.7,0.1,2.8v9.4h1.3v-9.7C696,192.3,696,191.8,695.9,190.9z"/>
		<path class="st0" d="M707.2,185.6c-4.4,0-8,3.5-8,9.2c0,5.9,3.4,9.1,7.7,9.1c3.6,0,6.5-2.1,7.2-5.7h-1.3c-0.6,3-3,4.7-5.8,4.7
			c-3.3,0-6.4-2.6-6.4-8.3c0-5.4,3.4-8,6.6-8c3.2,0,5.2,1.9,5.8,5h1.3C713.8,188,711.1,185.6,707.2,185.6z"/>
		<path class="st0" d="M724.2,186.6c2.9,0,5.9,2,6.1,7.4h-12.6C717.9,189,721.2,186.6,724.2,186.6z M731.6,194.3
			c0-4.5-2.4-8.7-7.3-8.7c-4.4,0-7.9,3.6-7.9,9.1c0,6.1,3.4,9.2,7.6,9.2c3.4,0,6.4-1.9,7.4-5.9H730c-0.9,3.3-3.4,4.8-6,4.8
			c-3,0-6.1-2.1-6.3-7.8h13.9C731.6,194.7,731.6,194.4,731.6,194.3z"/>
		<path class="st0" d="M763.5,180.7h-1.9l-8.6,21.7l-8.6-21.7h-2v22.8h1.3v-12.8c0-2.9,0-6.1-0.1-8.8c1,2.7,2.3,6,3.4,8.8l5.2,12.9
			h1.6l5.2-12.8c1.2-2.8,2.4-6.1,3.4-8.9c-0.1,2.8,0,6,0,8.9v12.8h1.2v-22.9H763.5z"/>
		<path class="st0" d="M773.1,202.9c-2.9,0-4.4-1.4-4.4-3.8c0-3.7,5.1-5.1,10.1-4.7v2.2C778.9,200,776.6,202.9,773.1,202.9z
			 M779.2,203.4h1.3c-0.2-2.2-0.3-3.5-0.3-5.3v-5.7c0-0.9,0-1.4-0.1-2.3c-0.3-2.9-2.1-4.6-5.7-4.6c-3.5,0-6.1,2.3-6.3,5.4h1.3
			c0.4-3,2.6-4.3,5-4.3c2.7,0,4.3,1.3,4.5,3.7c0.1,0.7,0.1,1.4,0.1,2.2v0.8h-1.1c-5.8,0-10.4,1.8-10.4,5.8c0,3.1,2.2,4.8,5.4,4.8
			c2.2,0,4.1-0.8,5.3-2.5l0.8-1.7L779.2,203.4z"/>
		<path class="st0" d="M790.6,185.6c-1.4,0-2.7,0.7-3.5,1.9l-0.9,2.1V186h-1.3v17.4h1.3v-9.6c0-5.3,2.2-7.3,5.3-7.1v-1
			C791.2,185.6,790.9,185.6,790.6,185.6z"/>
		<polygon class="st0" points="796.8,195.2 804.9,203.4 806.7,203.4 797.7,194.4 806.7,186 804.9,186 795.2,195.3 795.2,179.2 
			794,179.2 794,203.4 795.2,203.4 795.2,196.7 		"/>
		<path class="st0" d="M816.1,186.6c2.9,0,5.9,2,6.1,7.4h-12.6C809.8,189,813,186.6,816.1,186.6z M823.5,194.3
			c0-4.5-2.4-8.7-7.3-8.7c-4.4,0-7.9,3.6-7.9,9.1c0,6.1,3.4,9.2,7.6,9.2c3.4,0,6.4-1.9,7.4-5.9H822c-0.9,3.3-3.4,4.8-6,4.8
			c-3,0-6.1-2.1-6.3-7.8h13.9C823.5,194.7,823.5,194.4,823.5,194.3z"/>
		<path class="st0" d="M829,200.7c0-0.5,0-0.9,0-1.7v-11.8h3.4v-1H829v-3.7h-1.3v3.7h-2.1v1h2.1V199c0,1,0,1.6,0.1,2.3
			c0.1,1.7,1,2.4,2.7,2.4c0.6,0,1.3,0,1.8-0.1v-1C829.9,203,829.1,202.5,829,200.7z"/>
		<path class="st0" d="M836.7,203.4V186h-1.3v17.4H836.7z M836.1,181.5c-0.5,0-1,0.4-1,1c0,0.5,0.4,1,1,1c0.5,0,1-0.4,1-1
			C837,181.9,836.6,181.5,836.1,181.5z"/>
		<path class="st0" d="M854.8,190.9c-0.3-3.3-2.4-5.3-6-5.3c-2,0-3.9,0.7-5.2,2.4l-0.8,1.8V186h-1.3v17.4h1.3v-9.6
			c0-5,2.8-7.1,5.9-7.1c3.1,0,4.6,1.8,4.9,4.6c0.1,0.9,0.1,1.7,0.1,2.8v9.4h1.3v-9.7C854.9,192.3,854.9,191.8,854.8,190.9z"/>
		<path class="st0" d="M865.9,202.9c-4.2,0-6.4-3.7-6.4-8.1c0-4.9,2.8-8.1,6.7-8.1c2.7,0,5.8,1.7,5.8,7.1v1.7
			C872,200.9,869.2,202.9,865.9,202.9z M873.3,186H872v3.6l-1-2c-1.3-1.4-2.8-2-4.9-2c-4.3,0-8.1,3.1-8.1,9.3c0,5.2,2.9,9,7.6,9
			c2.2,0,3.8-0.6,5.2-2.2l1-2v0.6c0,1.4,0,2.1,0,3.2c-0.1,3.6-2.2,6-6.1,6c-2.9,0-5.3-1.3-5.7-4.3v-0.4h-1.3l0.1,0.4
			c0.5,3.9,3.3,5.4,6.9,5.4c4.6,0,7.3-2.7,7.4-7c0-1.1,0-2.4,0-4.8V186H873.3z"/>
	</g>
	<rect x="379.4" y="32.5" class="st0" width="1.9" height="253.7"/>
</g>
<g id="Layer_2">
	<g id="White" class="st3">
		<path class="st4" d="M55.3,245c0-64.5,0-129.1,0-193.6c90.7,0,181.3,0,272,0c0,64.5,0,129.1,0,193.6C236.6,245,146,245,55.3,245z
			 M255.8,229.4c-0.1-0.4-0.3-0.8-0.4-1.2c-0.2-1.7-1-3.2-2.1-4.5c-0.7-0.7-1.5-1.4-2.5-1.5c-0.3,0-0.7,0-0.8,0.2
			c-0.2,0.2-0.2,0.7-0.1,0.9c0.4,0.8,0.9,1.6,1.3,2.4c0.5,1,0.8,2,1.2,3c0.1,0.2,0.1,0.6,0,0.8c-0.3,0.8-0.6,1.6-0.9,2.4
			c-0.1,0.2-0.2,0.3-0.3,0.4c-1.4,1.3-3.2,1.7-5,1.6c-1.8-0.1-3.7-0.6-5.4-1.5c-0.7-0.4-0.9-0.9-0.6-1.7c0.1-0.3,0.2-0.6,0.3-0.9
			c0.5-2.5,0.5-5-0.7-7.3c-0.7-1.4-1.6-2.6-3-3.4c-0.6-0.4-1-0.2-1,0.5c0,0.3,0.1,0.6,0.2,0.9c1.5,2.3,1.9,4.9,1.4,7.6
			c-0.3,1.5-1,2.7-2.2,3.7c-1.8,1.5-3.8,1.8-6,1.4c-1-0.2-2-0.4-2.6-1.2c-1.2-1.4-1.6-3.2-2-4.9c-0.3-1.5-0.6-3-1-4.5
			c-0.1-0.3-0.2-0.5-0.4-0.7c-1.4-2.3-3.3-4.2-5.4-6c-1.6-1.4-2.3-3.1-2.3-5.2c0.1-3.1,0.1-6.2-0.2-9.4c-0.3-2.8-1.3-5.3-2.2-7.8
			c-0.2-0.6-0.5-1.2-0.9-1.8c-1.1-1.7-2.3-3.4-3.5-5c-0.9-1.2-1.8-2.3-2.8-3.3c-1.6-1.6-2.9-3.3-3.3-5.5c-0.1-0.5-0.2-1.1-0.1-1.6
			c0.4-1.8,0.9-3.6,1.6-5.4c0.9-2.2,1.7-4.4,2.5-6.6c0.9-2.5,1.6-5,3.1-7.2c0.2-0.3,0.4-0.5,0.5-0.8c0.1-0.2,0.1-0.5,0.1-0.8
			c-0.3,0-0.6-0.1-0.8,0c-0.4,0.2-0.7,0.5-1,0.8c-1.4,1.4-2.5,3.1-3.4,4.9c-0.4,0.8-0.9,1.6-1.3,2.5c-0.3,0.6-0.8,0.9-1.5,0.8
			c-0.8-0.1-1.6-0.4-2.4-0.6c-1.8-0.5-3.6-0.9-5.3-1.4c-2.8-0.9-5.6-1.9-8.2-3.3c-2-1.1-4.1-2.1-6-3.4c-2.1-1.4-4.1-3-6.1-4.5
			c-3-2.4-5.6-5.1-8.3-7.9c-0.6-0.6-1.2-1.3-1.9-1.9c-0.2-0.2-0.6-0.2-0.8-0.1c-0.2,0.1-0.3,0.5-0.4,0.7c-0.1,0.2,0,0.5,0.1,0.7
			c0.5,1.5,1.2,3,2.3,4.2c1,1.1,2,2.1,3.1,3.2c1.5,1.4,3,2.8,4.6,4.1c1.5,1.3,3.1,2.5,4.7,3.7c1.6,1.2,3.4,2.2,5.1,3.3
			c1.2,0.7,2.5,1.3,3.8,2c1.1,0.6,2.3,1.1,3.5,1.5c1.2,0.5,2.4,0.9,3.6,1.2c1.8,0.5,3.6,1,5.5,1.5c0.5,0.1,1.1,0.1,1.6,0.1
			c0.8,0.1,1.2,0.5,1.1,1.2c-0.2,1.2-0.9,1.8-2,1.8c-3.2-0.2-6.4,0.1-9.5-0.7c-2.1-0.5-4.2-0.8-6.3-1.4c-2.2-0.6-4.3-1.3-6.5-2.1
			c-2.8-1-5.5-2.2-8.2-3.3c-2.5-1-4.7-2.7-6.8-4.3c-2-1.5-4.1-3-6.5-4c-1.4-0.7-2.4-0.4-3.1,0.9c-0.6,1-1.1,2.1-1.7,3.2
			c-1.1,1.8-2.2,3.6-3.4,5.3c-1.5,2-3,3.9-4.8,5.7c-2.2,2.2-4.6,4.2-7.3,5.9c-2.5,1.6-5.2,3-8.1,4c-3.5,1.2-6.9,2.5-10.3,3.7
			c-2.4,0.9-4.8,1.6-7.2,2.5c-2.5,0.9-5,1.9-7.4,3c-1.7,0.8-3.3,1.7-5,2.6c-2.5,1.4-4.7,3.1-6.7,5.2c-0.8,0.8-1.6,1.7-2.1,2.6
			c-0.9,1.5-1.3,3.2-1.7,4.9c-0.6,2.6-0.2,5.1,0.6,7.6c0.5,1.4,1.6,2.3,3.2,2.4c1.4,0.1,2.8,0.3,4.1,0.6c1.9,0.4,3.7,0.8,5.5,1.2
			c3,0.7,5.8,1.8,8.2,3.8c0.4,0.3,0.5,0.6,0.2,1c-0.2,0.3-0.5,0.5-0.9,0.6c-1.2,0.4-1.9,1.3-2.6,2.2c-0.1,0.1-0.1,0.3-0.1,0.5
			c0.1,0.8,0.8,1,1.6,0.6c1.2-0.6,2.3-1.2,3.6-1.4c2.9-0.5,4.9,1.1,5.6,3.5c0.6,2,0.7,4.2-0.7,6.1c-0.5,0.8-1.2,0.8-1.7,0
			c-0.9-1.3-1.7-2.6-3.1-3.5c-0.6-0.4-1.6-0.4-1.9,0c-0.2,0.3,0.1,1.1,0.5,1.6c1.3,1.4,2,3.1,1.8,5.1c0,0.4-0.3,1.1-0.7,1.2
			c-0.6,0.3-1.4,0.6-2.1,0.6c-2.3,0-4.6-0.3-6.8-1.2c-1.2-0.5-1.3-0.6-1-1.9c0.1-0.8,0.2-1.6,0-2.4c-0.5-1.7-1.4-3.3-2.7-4.5
			c-0.6-0.6-1.2-1.2-2.3-1.1c0.1,0.4,0.1,0.8,0.3,1.1c0.8,1.3,1.5,2.5,1.6,4.1c0.1,1.2-0.2,2.3-0.8,3.2c-0.8,1.2-2,2-3.5,2.3
			c-3.9,0.7-7.5,0.2-10.7-2c-1.4-0.9-1.9-2.3-1.7-4c0.2-1.8,0.6-3.6,0.8-5.4c0.1-0.5,0.1-1.1,0-1.6c-0.5-1.6-1.5-3-2.7-4.1
			c-1.3-1.1-2.7-2.2-4-3.4c-0.8-0.7-1.5-1.4-2.3-2.1c-1.3-1.3-2.1-2.8-2.3-4.6c-0.2-1.9,0.2-3.7,0.8-5.5c0.7-2,1.5-4,2.3-6.1
			c0.7-1.8,1.5-3.6,1.7-5.6c0-0.2,0.1-0.4,0.1-0.6c0.1-0.9,0.3-1.7,0.3-2.6c0-2.3,0-4.5,0-6.8c0-1.4,0.1-2.8,0.3-4.2
			c0.2-1.7,1.2-2.8,2.5-3.7c2-1.4,4.4-1.5,6.7-1.8c1.6-0.3,3.3-0.3,4.9-0.5c1.6-0.3,3.2-0.9,4.5-1.8c1.2-0.9,2.3-2.1,3.1-3.4
			c1.1-1.7,1.9-3.5,2.4-5.3c0.5-1.7,0.8-3.4,1-5.1c0.4-2.8,0.9-5.5,1.8-8.1c0.4-1,1-1.9,1.8-2.6c1.8-1.5,3.6-2.8,5.4-4.2
			c0.5-0.3,0.7-0.8,0.5-1.3c-0.1-0.2-0.8-0.3-1.1-0.3c-0.5,0.1-1,0.4-1.6,0.5c-1.9,0.4-3.5,1.5-4.9,2.8c-1.9,1.6-3.1,3.6-3.8,5.9
			c-0.2,0.5-0.4,0.7-0.9,0.8c-4.4,0.8-8.8,1.3-13.2,1.2c-3.8-0.1-7.3-0.8-10.6-2.7c-2-1.1-3.6-2.6-5.1-4.3c-1.7-1.9-2.8-4.1-3.8-6.4
			c-1.2-2.6-1.8-5.3-2.1-8.1c-0.5-4.4-0.1-8.7,1.4-13c1-2.7,2.5-5.2,4.1-7.5c1.5-2.2,3.3-4.2,5.3-5.9c0.4-0.3,0.8-0.6,1.1-0.9
			c0.5-0.4,0.7-1.1,0.3-1.4c-0.5-0.4-0.9-0.8-1.4-1.1c-1.5-1-3.2-1.9-4.6-3.1c-1.3-1.1-2.5-2.3-3.7-3.6c-0.7-0.8-1.5-1.6-2-2.6
			c-1-1.9-2-3.9-2.2-6.1c0-0.6-0.5-0.6-0.9-0.6c-0.5,0-0.7,0.4-0.7,0.7c0,0.5,0.1,1,0.2,1.6c0.2,0.7,0.3,1.4,0.6,2.1
			c0.5,1.4,0.9,2.9,1.6,4.3c0.8,1.7,1.8,3.4,3,4.9c1.1,1.4,2.4,2.5,3.8,3.5c0.6,0.4,1.2,0.8,2.1,1.3c-0.5,0.4-0.9,0.7-1.3,1.1
			c-1.2,1.1-2.5,2.1-3.5,3.4c-1.6,2.1-3.3,4.2-4.1,6.7c-0.8,2.2-1.7,4.5-2.1,6.8c-0.8,4.7-1,9.4,0.4,14c0.6,1.9,1.2,3.8,1.9,5.7
			c0.3,0.8,0.8,1.4,1.1,2.2c0.9,2,2.4,3.8,3.9,5.4c1.5,1.5,3.1,3,5.1,4.1c1.6,0.9,3.4,1.7,5.1,2.2c1.2,0.4,2.5,0.6,3.8,0.8
			c0.5,0.1,1.1,0.2,1.6,0.2c3.8,0.3,7.6-0.3,11.4-0.7c0.7-0.1,1.3-0.3,2-0.4c1.1-0.2,1.5,0.3,1.3,1.4c-0.1,0.8-0.4,1.6-0.5,2.4
			c-0.5,3.4-1.6,6.6-4,9.2c-0.8,0.8-1.6,1.6-2.7,1.9c-1.6,0.4-3.3,0.7-5,1c-2.1,0.3-4.3,0.3-6.5,1c-1.6,0.5-3,1.2-4.2,2.3
			c-1.9,1.7-2.9,3.9-3,6.4c-0.1,2.9-0.1,5.9-0.1,8.8c0,2.4-0.6,4.7-1.2,7c-0.4,1.9-1.2,3.6-1.8,5.4c-0.4,1.1-0.8,2.2-1.2,3.3
			c-0.4,1.6-0.9,3.3-1.1,5c-0.2,1.8,0.4,3.5,1.2,5.2c0.9,1.7,2.2,3,3.7,4.2c2,1.5,4,3,5.6,5c0.8,0.9,1.3,1.9,1,3.2
			c-0.1,0.4-0.2,0.7-0.2,1.1c-0.2,1.9-0.3,3.9-0.4,5.8c-0.1,2,1.1,3.4,2.5,4.5c1.8,1.4,3.9,2.1,6.1,2.7c2.2,0.6,4.5,0.7,6.7,0.2
			c1.3-0.3,2.6-0.9,3.8-1.4c0.7-0.3,1.3-0.4,2.1-0.1c1.4,0.5,2.8,1.1,4.2,1.4c1.8,0.3,3.7,0.4,5.5,0.4s3.4-0.6,4.8-1.8
			c0.7-0.6,1.5-1.3,2.3-1.8c1.2-0.7,2.2-1.6,3.1-2.7c0.5-0.6,0.9-1.4,1.3-2.1c0.7-1.5,1.3-3,1.2-4.6c-0.1-1.6-0.6-3-1.6-4.3
			c-1.2-1.6-2.6-2.9-4.7-3.2c-0.8-0.1-1.4-0.6-1.7-1.2c-1.2-2-3-3.3-5-4.3c-1.9-0.9-3.9-1.6-6-2.3c-1.7-0.5-3.5-0.9-5.3-1.2
			c-1.5-0.3-3-0.4-4.5-0.6c-0.9-0.1-1.7-0.7-1.8-1.6c-0.1-1.4-0.2-2.9-0.1-4.4c0.2-1.8,1-3.3,2.2-4.6c1.1-1.2,2.4-2.2,3.7-3.3
			c2.1-1.7,4.4-3,6.8-4.2c1.6-0.8,3.4-1.5,5-2.3c0.7-0.3,1.5-0.6,2.2-0.9c1.3-0.5,2.6-1.1,4-1.6c1.2-0.5,2.5-0.8,3.7-1.3
			c1.4-0.5,2.8-1,4.2-1.5c1.1-0.4,2.3-0.8,3.4-1.2c2.2-0.8,4.4-1.6,6.6-2.4c0.9-0.3,1.8-0.6,2.7-0.9c1.1-0.3,2.2-0.5,3.3-0.7
			c1.2-0.3,2.3-0.3,3.5,0c0.6,0.2,1.3,0.3,2,0.5c1.2,0.4,2.4,0.7,3.5,1.3c2.1,1.1,3.9,2.7,5.2,4.7c1.5,2.2,2.1,4.6,1.9,7.3
			c-0.3,2.9-1.5,5.4-2.6,8c-1,2.3-2,4.6-2.4,7.1c-0.4,3,0.2,5.7,2.7,7.8c1.8,1.5,4.1,2.3,6.3,2.6c2.1,0.4,4.2,0.6,6.2,1.4
			c0.8,0.3,1.6,0.8,2.2,1.3c1.6,1.4,2.4,3.3,2.7,5.4c0.2,1.7,0.3,3.5,0.4,5.3c0,1.2,0.6,2.1,1.4,2.9c1.1,1.1,2.7,1.4,4.1,1.5
			c1.5,0.1,3-0.2,4.5-0.2c2.1-0.1,3.9-0.9,5.8-1.7c0.7-0.3,1.3-0.3,1.9,0.2c1.3,1.1,2.9,1.6,4.5,1.8c3.3,0.5,6.2-0.8,8.7-2.9
			c0.6-0.5,1.1-0.6,1.8-0.2c1,0.5,2,0.5,2.9,0c0.2-0.1,0.5-0.2,0.8-0.3c2.1-0.8,3.4-2.5,4.4-4.4c0.5-1.1,0.8-2.4,0.9-3.6
			c0.4-2.5-0.2-4.9-1.8-7c-1.6-1.9-3.7-3-6.2-3.1c-1-0.1-1.6-0.4-2.1-1.2c-0.1-0.2-0.2-0.4-0.4-0.5c-0.9-0.7-1.7-1.6-2.7-2.2
			c-1-0.6-2.1-1.1-3.3-1.4c-2.7-0.6-5.4-1.1-8.1-1.6c-2-0.4-4-0.8-5.9-1.3c-1.7-0.4-3.3-1.1-4.8-2.1c-1.4-0.9-2.4-2.1-2.2-3.9
			c0.2-1.8,1-3.4,1.8-5c0.5-0.9,1-1.8,1.6-2.6c0.7-1,1.4-2,2-3c1.1-1.8,2.4-3.6,3.3-5.4c0.8-1.5,1.2-3.2,1.8-4.9
			c0.2-0.5,0.4-0.8,1-0.8c3,0,6,0,9,0c1,0,2-0.2,2.9-0.4c1.6-0.3,1.8-0.3,2.4,1.2c0.5,1.2,1,2.4,1.9,3.3c1.8,2,3.7,4,5.4,6.1
			c1,1.3,1.8,2.8,2.6,4.3c0.6,1.1,1,2.3,1.4,3.4c0.6,1.8,1.2,3.6,1.2,5.5c0,2.9,0,5.9,0,8.8c-0.1,2.9,1.6,4.9,3.5,6.7
			c1,1,2.1,1.9,3,2.9c1.6,1.8,2.2,4,2.8,6.3c0.4,1.5,0.7,3.1,1.2,4.6c0.2,0.7,0.6,1.5,1.1,2.1c1.4,1.6,3.2,2.4,5.3,2.6
			c2.7,0.3,5.1-0.7,7.4-2c0.5-0.3,0.9-0.3,1.4-0.1s1,0.4,1.4,0.7c1.8,1,3.8,1.6,5.9,1.6c2.2,0.1,4.4,0,6.5-0.7c1.1-0.4,2-1,2.7-2
			c0.3-0.5,0.8-1.1,1.3-1.2c1.8-0.5,3.4-1.2,4.6-2.7c0.8-1,1.7-2,2.3-3.2c0.7-1.4,1.2-2.9,1.6-4.3c0.3-1,0.3-2.1,0.2-3.2
			c0-0.7-0.3-1.4-0.6-2.1c-0.8-2.2-2-4.1-4.2-5.2c-0.7-0.3-1.4-0.6-2-1c-2.3-1.6-4.5-3.2-6.8-4.9c-1.9-1.4-4-2.5-6.3-2.9
			s-4.6-0.5-7-0.8c-1-0.1-1.3-0.5-1.6-1.4c-0.6-2.4-0.4-5-1.1-7.4c-0.4-1.3-0.5-2.6-0.8-3.9c-0.2-0.7,0-1.3,0.6-1.7s1.2-0.7,1.8-1.2
			c1.4-1.1,2.7-2.2,4-3.4c1.2-1.1,2.3-2.2,3.3-3.5c1.1-1.3,2-2.8,3.1-4.1c0.3-0.3,0.8-0.6,1.2-0.7c0.9,0,1.9,0.1,2.8,0.3
			c1.7,0.4,3.4,0.9,5.2,1.4c0.2,0,0.3,0.1,0.5,0.1c2,0.3,3.8,1.2,5.6,2.2c1.9,1,3.5,2.5,4.5,4.5c0.5,0.9,0.9,2,0.8,3.1
			c0,2-0.8,3.9-1.6,5.7c-0.6,1.4-1.4,2.8-1.9,4.3c-0.8,2.3-1,4.7-0.4,7.2c0.3,1.4,1,2.6,2,3.6c1.1,1,2.4,1.8,3.9,2.2
			c0.8,0.2,1.4,0.7,1.4,1.6c0.1,1.7,0.7,3.2,1.7,4.5c1.7,2.2,4.1,3.1,6.8,3c2-0.1,3.9-0.7,5.8-1.6c1.7-0.8,3.1-1.8,4.3-3.2
			c1.3-1.5,2.2-3.2,3-5c1-2.3,1.4-4.8,2.8-7c0.3-0.5,0.7-1.1,0.9-1.6c0.5-1.4,1-2.8,1.3-4.2c0.3-1.6,0.4-3.2,0.2-4.8
			c-0.3-3.4-1.5-6.5-2.7-9.7c-0.3-0.8-0.6-1.5-0.9-2.3c-0.5-1.1-0.9-2.2-1.4-3.2c-0.5-1.2-0.9-2.4-1.4-3.6c-0.3-0.6-0.5-1.3-0.9-1.9
			c-1-1.5-2-3-3.3-4.4c-1.3-1.5-2.9-2.9-4.4-4.2c-1.4-1.2-2.9-2.2-4.4-3.3s-3-2.2-4.5-3.3c-1.3-1-2.6-1.9-3.8-3
			c-0.3-0.3-0.4-0.9-0.4-1.3c0.1-0.6,0.4-1.2,0.7-1.8c1.4-3.3,2.5-6.6,3-10.2c0-0.3,0.1-0.7,0.3-0.9c0.1-0.2,0.4-0.5,0.7-0.6
			c0.1,0,0.4,0.3,0.5,0.6c0.9,2.2,2.5,3.7,4.4,4.8c1.3,0.8,3.3,0.7,4.4-0.3c0.9-0.9,1.8-1.8,2.6-2.8c1.7-2.2,3-4.7,4-7.3
			c0.5-1.5,0.6-2.9,0.5-4.5c-0.1-0.7-0.7-1.1-1.3-0.8c-0.3,0.2-0.5,0.6-0.6,0.9c-0.2,1-0.6,1.8-1.1,2.6c-0.4,0.7-1.3,0.8-1.7,0.1
			c-1-1.6-1.4-3.5-1.5-5.4c-0.1-2.8,0.5-5.6,1.6-8.2c0.8-2.1,2-4,3.3-5.9c1.2-1.7,2.7-3.1,4.4-4.2c1.8-1.3,3.8-2.1,5.9-2.7
			c2.5-0.7,5.1-0.9,7.8-1.1c0.6,0,1.1,0,1.7,0.1c0.5,0,0.6,0.3,0.4,0.7c-0.3,0.6-0.6,1.2-1,1.7c-0.5,0.6-1.1,1.1-1.6,1.7
			c-0.2,0.2-0.2,0.6-0.3,0.9c0.4,0.1,0.7,0.2,1.1,0.3c0.1,0,0.2,0,0.3-0.1c0.7-0.4,1.5-0.7,2.1-1.2c1.6-1.3,2.9-2.9,3.8-4.9
			c0.3-0.7,0.7-1.4,1.2-2c0.8-1,1.8-1.9,2.7-2.8c0.6-0.6,1.2-1.3,2.1-1.4c0.7-0.1,1.3-0.3,1.9-0.5c1.1-0.4,2-1.1,2.2-2.3
			c0.2-1.1,0.1-2.2-0.4-3.3c-1.1-2.3-2.7-4.1-4.7-5.6c-1.8-1.3-3.6-2.5-5.7-3.3c-2.4-0.8-4.7-1.6-7.2-1.5c-1.3,0-2.3-0.4-3.3-1.1
			c-1.8-1.4-3.5-2.7-5.6-3.7s-4.2-2.3-6.4-3.2c-2-0.9-4.2-1.5-6.2-2.3c-2.4-0.9-5.1-0.9-7.6-1.4c-2.1-0.4-4.3-0.6-6.5-0.8
			c-2.6-0.2-5.3-0.4-8-0.5c-2.8-0.1-5.7,0-8.5-0.3c-2.1-0.2-4.1-1-6.1-1.3c-1.7-0.3-3.4-0.3-5.1-0.5c-0.6-0.1-0.8,0.3-0.9,0.7
			c0,0.2,0.4,0.5,0.7,0.6c0.2,0.1,0.4,0.1,0.6,0.2c0.6,0.4,1.2,0.7,1.9,1.1c0,0.1,0,0.2,0,0.3c-0.3,0.1-0.6,0.2-0.9,0.2
			c-0.6,0-1.2-0.2-1.8-0.3c-3.6-0.3-7.2,0.1-10.8,0.8c-2.2,0.4-4.4,0.7-6.6,1c-0.2,0-0.4,0-0.6,0.2c-0.2,0.2-0.5,0.4-0.5,0.6
			s0.3,0.5,0.5,0.6c1.2,0.6,2.4,1.1,3.6,1.8c0.7,0.4,1.2,0.8,1.9,1.3c0,0.1-0.1,0.1-0.1,0.2c-0.2,0-0.4,0.1-0.6,0.1
			c-3.8-0.6-7.3,0.2-10.8,1.6c-1.1,0.4-2.2,1-3.3,1.6c-1.5,0.8-2.9,1.7-4.3,2.6c-1.6,1-3.2,2.1-4.9,3.2s-3.4,2.4-5.3,3.3
			c-1.9,0.9-3.8,2-6,2.2c-1,0.1-1.9,0.4-2.9,0.6c-0.7,0.1-1.4,0.3-2.1,0.4c-0.6,0.1-0.5,0.6-0.5,1s0.3,0.5,0.6,0.5
			c0.9,0.2,1.7,0.3,2.6,0.5c0.4,0.1,0.6,0.2,0.7,0.7c0.1,0.4-0.2,0.6-0.5,0.7c-0.5,0.2-0.9,0.4-1.4,0.7c-1.7,1.1-3.2,2.3-4.4,4
			c-1.1,1.5-2.2,3-3.3,4.6s-2.1,3.3-3.2,4.9c-0.4,0.5-0.8,1-1.2,1.5c-1.4,1.4-2.9,2.5-4.6,3.4c-1.9,1-3.9,1.7-5.9,2.2
			c-2.3,0.6-4.7,0.9-7.1,1.3c-0.6,0.1-1.2,0.2-1.7,0.3c-1.7,0.1-3.4,0.2-5.2,0.2c-4.3,0.1-8.6,0.2-12.8,0.3c-2.7,0-5.4,0.1-8.1,0.6
			c-3.7,0.6-7.4,0.9-11,2c-2.3,0.7-4.6,1.5-6.7,2.7c-1.6,0.9-3.1,2.1-4.5,3.3c-1.3,1.1-2.6,2.2-3.9,3.2c-2.3,1.8-4.7,3.5-7,5.2
			c-2.4,1.7-5,3-7.6,4.2c-2,0.9-4.2,1.2-6.4,1.3c-1.4,0.1-2.9,0-4.2-0.4c-3.2-1-5.4-3.2-6.7-6.2c-0.6-1.5-0.9-3.2-1.1-4.8
			c-0.2-3.4-0.1-6.8,0.7-10.1c0.2-0.7,0.2-1.5,0.5-2.2c0.8-2.2,1.5-4.5,2.4-6.7c0.6-1.5,1.3-2.9,2.2-4.2c0.5-0.8,1.3-1.4,2-1.9
			c0.5-0.4,1.3-0.5,1.9-0.6c1.8-0.4,3.4-1.4,4.7-2.6c1-0.9,1.8-2,2.6-3c1.8-2.2,2.5-4.8,3.1-7.4c0.4-1.9,0-3.7-0.5-5.5
			c-0.7-2.6-2-4.9-3.8-6.8c-1.4-1.5-3.1-2.7-4.6-4c-1.4-1.2-2.8-2.1-4.6-2.7c-1-0.3-1.5,0-1.5,1c0,0.5,0,1-0.1,1.4
			c-0.1,0.3-0.3,0.6-0.5,0.7s-0.6,0-0.7-0.1c-1.2-1.1-2.1-2.5-2.1-4.2c-0.1-1.4,0-2.8,0.1-4.2c0.1-3-0.1-6-1.8-8.6
			C74,57,73.8,57,73.2,57.6c-0.2,0.2-0.4,0.5-0.5,0.7c-0.5,0.8-0.9,1.8-1.5,2.5c-1.4,1.9-2.9,3.7-4.4,5.5c-1.4,1.7-2.9,3.4-3.7,5.6
			c-1.4,3.6-0.9,7,1.1,10.3c0.5,0.9,1.1,1.9,2.2,2.3c0.1,0,0.1,0.2,0.2,0.3c-0.1,0.1-0.3,0.2-0.4,0.2c-0.6-0.2-1.1-0.4-1.7-0.6
			c-1.4-0.6-2.5-1.3-3.2-2.7c-0.2-0.5-0.7-0.4-1-0.3c-0.2,0.1-0.5,0.4-0.5,0.7c-0.1,0.6-0.1,1.3,0,1.9c0.1,1.2,0.4,1.3,1.5,1.4
			c0.3,0,0.7,0.1,1,0.3c0.8,0.5,1.6,1,2.4,1.4c1.6,0.9,3.3,1.7,4.1,3.5c0.1,0.3,0.4,0.5,0.6,0.8c1.1,1.4,2.7,2.1,4.2,3
			c1.6,1,3,2.3,3.9,4c0.3,0.6,0.7,0.6,1.3,0.5c-0.1-0.3-0.3-0.5-0.3-0.7c-0.5-2.3-1.9-4-3.5-5.6c-0.9-0.9-1.9-1.7-2.8-2.6
			c-1.2-1.2-2.1-2.7-2.2-4.4c-0.2-1.9-0.1-3.8,0-5.7c0-1,0.5-1.2,1.5-0.8c1.2,0.5,2.4,1,3.6,1.4c1.7,0.5,3.3,1,4.8,1.9
			c1.4,0.8,2.3,2.1,2.7,3.6c0.3,1.5,0.5,3,0.5,4.5s0,3.1-0.7,4.6c-0.1,0.3-0.1,0.7-0.1,1.1c0.7-0.2,1.2-0.3,1.5-0.9
			c0.4-0.9,0.9-1.9,1.4-2.8c1.6-3.4,0.8-6.7-0.8-9.8c-0.6-1.2-1.6-2.3-1.5-3.8c0-0.1,0-0.2,0-0.3c-0.2-0.9-0.5-1.7-0.6-2.6
			c0-0.2,0.1-0.5,0.2-0.7c0.2,0.1,0.5,0.1,0.6,0.2c1.4,1.1,2.7,2.2,4,3.3c1.4,1.2,2.5,2.8,3.3,4.5c0.5,1,0.7,2,1.1,3.1
			c0.8,2,0.9,4,0.4,6c-0.5,2.1-1.3,4.1-3.1,5.6c-1.9,1.5-4.1,2.4-6.2,3.4c-1.2,0.5-2.4,1.1-3.1,2.2c-0.9,1.3-1.8,2.7-2.6,4.1
			c-1.4,2.2-2.4,4.6-3.3,7.1c-0.4,1.2-0.8,2.4-1.1,3.6c-0.3,0.9-0.5,1.8-0.7,2.7c-0.2,0.6-0.2,1.3-0.4,1.9c-0.6,2.6-0.6,5.3-0.1,7.9
			c0.3,1.7,0.9,3.3,1.4,5c0.7,2.2,2.1,4.1,3.8,5.7c2,2,4.5,2.8,7.2,3.2c2.8,0.4,5.7,0,8.4-0.7c1.8-0.4,3.5-1.2,5.1-2.2
			c1.4-0.8,2.7-1.6,4.1-2.4c1.2-0.7,2.3-1.5,3.4-2.2c1-0.7,2-1.4,3-2.1c1.6-1.1,3.2-2.2,4.8-3.4c1.5-1.1,3-2.4,4.5-3.5
			c1.7-1.2,3.4-2.4,5.4-3c1.8-0.6,3.7-1.3,5.6-1.6c3.9-0.6,7.7-1.1,11.6-1.3c4.8-0.3,9.6-0.2,14.4-0.3c2.6-0.1,5.3-0.2,7.9-0.4
			c1.9-0.2,3.9-0.5,5.7-0.9c1.7-0.4,3.3-1,5-1.5c4-1.2,7.3-3.5,10-6.7c0.9-1,1.5-2.2,2.3-3.3c0.8-1.1,1.5-2.3,2.3-3.4
			c1-1.4,1.9-2.9,3-4.2c1.3-1.6,2.9-2.8,4.7-3.6c0.5-0.2,1.1-0.4,1.4-0.1c-0.4,0.5-0.7,1-1.1,1.4c-0.8,0.8-1.8,1.6-2.5,2.4
			c-0.8,0.9-1.5,2-2.2,3c-1.2,1.8-1.7,3.8-1.4,5.9c0,0.3,0.3,0.9,0.5,0.9c0.4,0,0.9-0.2,1.2-0.4c0.5-0.4,0.9-0.9,1.4-1.3
			c1.6-1.3,3.3-2.5,5.4-3c2.1-0.6,4.3-1.3,6.5-1.6c4.4-0.7,8.8-0.7,13.2-1.6c2.5-0.5,5-1,7.6-1.5c0.2,0,0.6,0.1,0.7,0.2
			c0.1,0.2,0.1,0.6,0,0.8c-1.1,1.5-2.4,2.8-4,3.7c-1.6,0.9-3.2,1.8-4.8,2.7c-2.2,1.2-4.3,2.5-6.5,3.8c-1.9,1.2-3.6,2.7-4.9,4.5
			c-0.9,1.3-1.6,2.7-2,4.2c-0.1,0.3,0,0.8,0.3,1.1c0.1,0.2,0.7,0.2,1,0.1s0.5-0.4,0.7-0.6c1.1-1.4,2.4-2.7,4.1-3.2
			c1.6-0.5,3.3-0.9,5-0.9c2.8,0,5.7,0.2,8.5,0.4c0.2,0,0.5,0.2,0.6,0.4c0.1,0.2,0,0.5-0.1,0.7c-0.9,0.9-1.8,1.8-2.9,2.6
			c-1.8,1.3-3.8,2.5-5.7,3.8s-3.3,3.1-4.4,5.1c-0.4,0.8-1,1.6-1.3,2.5c-0.5,1.3-0.9,2.6-1.3,4c-0.2,0.6,0.3,1,0.9,0.9
			c0.4-0.1,0.8-0.3,1.1-0.5c0.8-0.5,1.6-1.1,2.4-1.5c1.7-0.8,3.3-1.7,5.1-2.4c1.4-0.5,2.8-0.8,4.2-1.1c0.9-0.2,1.9-0.4,2.8-0.6
			c0.3,0,0.7-0.1,0.9,0.1c0.3,0.3,0.3,0.8,0.1,1.2c-0.2,0.3-0.5,0.7-0.7,1c-1.4,1.9-2.7,3.8-4.1,5.6c-1.5,1.9-3.2,3.7-4.5,5.8
			c-1.3,2.2-2.1,4.6-2.7,7.1c-0.1,0.4-0.2,0.7-0.3,1.1c-0.1,0.9-0.2,1.8-0.2,2.7c0,0.2,0.1,0.5,0.3,0.6c0.6,0.6,1.3,0.3,1.5-0.5
			c0.3-1.3,0.4-2.6,0.9-3.8c0.9-2.3,2.7-3.9,4.9-4.8c2-0.8,4-1.4,6-2c0.9-0.3,1.8-0.5,2.8-0.7c0.6-0.1,0.7,0.2,0.5,0.8
			c-0.3,0.6-0.5,1.1-0.8,1.7c-0.3,0.7-0.6,1.4-1.1,2.1c-0.7,1.1-1.5,2.2-2.3,3.3s-1.7,2.2-2.5,3.3c-0.6,0.8-1.3,1.6-1.9,2.5
			c-0.5,0.7-0.2,1.2,0.7,1.3c0.2,0,0.4,0,0.6-0.1c0.7-0.2,1.3-0.4,2-0.7c2.4-1,4.9-2,7.3-3.1c0.8-0.3,1.5-0.8,2.1-1.2
			c1.1-0.8,2.2-1.7,3.3-2.5c1.1-0.9,2.1-1.7,3.1-2.6c0.4-0.4,0.8-0.5,1.5-0.4c-0.2,0.7-0.3,1.4-0.5,2.1c-0.5,1.4-0.9,2.8-1.5,4.1
			c-0.6,1.4-1.4,2.8-2.2,4.1c-0.7,1.3-1.4,2.6-2.3,3.8c-1.1,1.6-2.3,3.1-3.5,4.6c-0.9,1.1-1.8,2.1-2.7,3.1c-1.1,1.3-2.3,2.6-3.4,4
			c-0.6,0.7-0.6,1.9,0.7,1.8c1.1-0.1,2.2-0.2,3.2-0.7c2.6-1.2,4.8-3,7-4.8c0.1-0.1,0.4-0.2,0.5-0.1c0.1,0.1,0.3,0.4,0.2,0.5
			c-0.1,0.6-0.3,1.2-0.5,1.8c-0.5,1.3-1,2.6-1.6,3.9c-0.2,0.4-0.2,0.9,0.2,1.1c0.3,0.2,0.8,0.3,1.1,0.2c1-0.5,2-1,2.9-1.6
			c1.3-0.9,2.6-1.9,3.9-2.9c0.3-0.2,0.8-0.1,1.2-0.2c0,0.3-0.1,0.6-0.1,1c0,0.1-0.1,0.2-0.1,0.2c-1.3,2.2-2.8,4.2-4.6,6
			c-1.1,1.1-2.2,2.3-3.4,3.3c-1.3,1.1-2.6,2.1-4,2.9c-1.4,0.8-3,1.4-4.6,2.1c-0.3,0.1-0.4,0.4-0.7,0.6c0.3,0.2,0.5,0.6,0.8,0.6
			c0.4,0.1,0.9,0,1.3,0c1.1,0,1.5,0.2,1.7,1.2c0.4,2,0.7,4.1,1.1,6.1c0.1,0.5,0.2,0.9,0.2,1.4c0.2,1.3,0.5,2.6,0.7,3.9
			c0.1,0.7-0.1,1-0.8,1.2c-0.8,0.3-1.5,0.5-2.3,0.8c-0.5,0.2-0.9,0.9-0.8,1.3c0.2,0.5,0.7,0.4,1.1,0.4c2.7,0,5.3-0.2,8,0
			c2.1,0.1,4.1,0.6,6.1,1.1c1.2,0.3,2.3,0.8,3.4,1.3c1.1,0.6,2.2,1.5,3.2,2.3c0.2,0.2,0.5,0.5,0.5,0.8c0,0.5-0.3,0.8-0.8,0.8
			c-0.9,0.1-1.5,0.5-2.1,1.2c-0.2,0.3-0.7,0.5-0.3,0.8c0.3,0.3,0.7,0.6,1.1,0.6c0.8-0.1,1.7-0.3,2.5-0.5c1.9-0.5,3.7-0.1,5.5,0.7
			c2.2,1.1,3.1,2.9,3.2,5.3c0.1,2.1-0.5,4.1-1.7,5.9C258.2,228,257.4,229.2,255.8,229.4z M107,173.6c1.7-0.2,3.4-0.4,5.1-0.7
			c1.8-0.3,3.6-0.7,5.4-1.2c1.3-0.3,2.5-0.8,3.8-1.3c1.4-0.5,2.8-1.1,4.2-1.7c0.9-0.4,1.7-0.8,2.6-1.2c0.7-0.4,1.5-0.7,2.2-1.2
			c1.4-0.9,2.7-1.8,4-2.6c0.6-0.4,1.2-0.8,1.8-1.2c1.3-1,2.5-2,3.8-3.1c0.7-0.6,1.4-1.3,2.1-1.9c0.2-0.2,0.5-0.6,0.1-1
			c-0.4-0.3-0.7-0.1-1,0.1c-0.4,0.3-0.8,0.6-1.2,0.8c-1.1,0.7-2.2,1.4-3.3,2c-1.9,1.1-3.7,2.2-5.7,3.2c-1.7,0.9-3.4,1.6-5.1,2.3
			c-1.5,0.6-2.9,1.3-4.4,1.8c-1.6,0.6-3.2,1.2-4.9,1.6c-1.6,0.4-3.3,0.7-5,1c-0.9,0.2-1.4-0.1-1.7-1c-0.4-1.2-0.8-2.5-1-3.7
			c-0.2-1.1-0.1-2.3,0-3.4c0.1-0.9,0.5-1.7,0.7-2.5s0.5-1.7,0.7-2.5c0.1-0.4,0.1-0.8,0.1-1.2c-0.1-0.4-0.4-0.7-0.8-0.3
			c-0.4,0.3-0.8,0.7-1.1,1.1c-0.5,0.7-0.9,1.5-1.3,2.2c-0.9,1.7-1.3,3.6-1.3,5.4c0,1.8,0.4,3.5,1.4,5c0.5,0.9,0.2,1.5-0.7,1.6
			c-0.7,0.1-1.4,0.1-2.1,0.2c-0.9,0.1-1.7,0.3-2.3,0.9c-0.3,0.3-0.4,0.6-0.1,0.9c0.5,0.4,1,0.9,1.6,1
			C104.5,173.4,105.7,173.4,107,173.6z M159.4,127.8L159.4,127.8c-1.1,0-2.2,0.1-3.2,0.2c-2.8,0.4-5.6,0.3-8.4,0.9
			c-1.8,0.4-3.7,0.6-5.5,1.1c-2.2,0.6-4.3,1.3-6.4,2.3c-0.7,0.3-1.4,0.7-2.1,1.1c-1.9,1.2-3.9,2.2-5.3,4c-0.7,1-1.4,2-2.1,3
			c-0.1,0.2-0.1,0.7,0,0.8c0.1,0.2,0.5,0.1,0.8,0.1c0.2,0,0.4-0.2,0.6-0.4c1.1-1,2.1-2.1,3.3-3c2.2-1.7,4.6-3.2,7.2-4.2
			c1.8-0.7,3.7-1.3,5.6-1.6c1-0.2,2-0.3,3-0.5c0.6-0.1,1.2-0.2,1.8-0.3c0.8-0.1,1.7-0.1,2.5-0.2c4.4-0.3,8.8-0.7,13.3-1
			c1.5-0.1,3-0.2,4.6-0.4c0.8-0.1,1.5-0.1,2.3-0.2c1.6-0.2,3.3-0.4,4.9-0.6c1.1-0.2,2.3-0.4,3.4-0.7c0.9-0.2,1.7-0.5,2.5-0.8
			c0.2-0.1,0.3-0.3,0.5-0.5c-0.2-0.1-0.4-0.3-0.5-0.4c-0.4-0.1-0.8-0.1-1.2-0.1c-2.3,0.2-4.6,0.5-7,0.6c-2.2,0.1-4.5,0-6.7,0.1
			C164.6,127.4,162,127.7,159.4,127.8z M191,120.9c0,0.2-0.1,0.5,0,0.6c0.2,0.4,0.3,0.9,0.6,1.1c0.5,0.2,1,0,1.3-0.5
			c0.6-0.8,1.3-1.6,1.8-2.5c1.3-2.5,2.3-5.1,4.1-7.3c1-1.3,2.1-2.5,3.3-3.6c0.8-0.7,1.7-1.2,2.7-1.7c0.6-0.3,0.6-0.8,0.5-1.3
			c-0.1-0.2-0.7-0.5-0.9-0.4c-1.1,0.3-2.3,0.5-3.3,1.1c-2.1,1.1-3.7,2.8-5.1,4.7c-1.2,1.6-2.2,3.3-3.3,5
			C191.7,117.5,191.2,119.2,191,120.9z M93,181.1c-0.4,0.2-0.8,0.4-1.1,0.6c-0.9,0.8-2,1.2-3.1,1.3c-1.5,0.3-3.1,0.4-4.7,0.5
			s-2.3,0.8-2.1,2.4c0.4,2.9,0.3,5.8-0.5,8.7c-0.3,1.2-0.6,2.5-1,3.6c-0.5,1.3-1.1,2.5-1.7,3.8c-0.1,0.3-0.2,0.6,0.2,0.7
			c0.3,0,0.8-0.1,1-0.3c0.7-0.9,1.5-1.9,2-2.9c1.1-2.1,1.9-4.3,2.3-6.7c0.2-1.7,0.6-3.5,0.8-5.2c0.1-0.9,0.5-1.3,1.3-1.6
			c2.4-0.8,4.8-1.7,6.6-3.6C93.5,181.9,93.6,181.7,93,181.1z"/>
		<path class="st4" d="M252.1,74.2c-0.5,0.3-1.1,0.6-1.6,0.8c-1.8,0.6-2.9,1.8-3.7,3.6c-0.9,2-1,4.1-0.5,6.1c0.9,3.9,2.8,7.3,6,10
			c1.4,1.1,3,1.9,4.7,2.4c1.1,0.3,2.1,0.8,3.2,0.5c0.8-0.2,1.6-0.5,2.4-0.9c0.6-0.3,0.4-1.2-0.3-1.6c-0.6-0.3-1.2-0.4-1.8-0.5
			c-2.1-0.4-4.1-1.2-5.9-2.4c-1.4-0.9-2.4-2.1-3.3-3.5c-1.4-2.3-2.5-4.7-2.6-7.4c-0.1-2.4,1.3-4.4,3.5-5.3c0.6-0.2,0.9-0.5,1.1-1.1
			c0.2-0.5,0.6-0.8,1.1-0.7c1,0.1,2,0.3,3,0.5c0.2,0,0.3,0.1,0.5,0.1c2.8,0.2,5.7,0.3,8.5,0.5c2.1,0.2,3.4-1.5,3.9-3
			c0.3-1,1-1.4,2-1.2c0.2,0.1,0.4,0,0.6,0.1c1.9,0.2,3.9,0.3,5.8,0.6c1.8,0.3,3.6,0.9,5.4,1.3c2.2,0.6,4.2,1.6,6.2,2.7
			c1.5,0.8,3,1.5,4.4,2.3c1.3,0.7,2.6,1.5,3.9,2.3s2.5,1.5,3.8,2.3c1.7,1.1,3.7,1.2,5.7,1.6c1.6,0.3,3.3,0.7,4.8,1.3
			c1.6,0.7,3.2,1.6,4.7,2.7c1.4,1.1,2.7,2.4,3.6,3.9c0.1,0.3,0.1,0.6,0.2,1c-0.6,0.1-1,0-1.3-0.4c-1.1-1.4-2.7-2.3-4.3-3
			c-1.1-0.5-2.2-0.9-3.5-0.6c-0.2,0-0.4,0.2-0.6,0.3c0.1,0.2,0.2,0.5,0.3,0.6c0.3,0.3,0.7,0.5,1,0.7c1.5,0.7,2.7,1.7,3.8,2.9
			c0.5,0.5,0.4,1.2-0.1,1.7c-1.4,1.5-2.9,3-4.3,4.4c-0.6,0.6-1.2,0.9-2.1,0.9c-2.5,0.1-5.1,0.3-7.6,0.5c-2.4,0.2-4.6,1-6.8,1.9
			c-1.4,0.6-2.8,1.5-4,2.4c-1.2,0.8-2.4,1.8-3.4,2.8c-0.9,0.9-1.6,2-2.3,3c-0.8,1.2-1.6,2.4-2.1,3.7c-0.7,1.5-1.2,3.2-1.7,4.8
			c-1,2.7-0.8,5.5-0.7,8.3c0,1.4,0.6,2.5,1.1,3.7c0.5,1,1.2,1.9,1.7,2.9c0.2,0.4,0.4,1,0.2,1.5c-0.5,1.7-1.4,3.2-2.7,4.4
			c-0.8,0.7-1.3,0.7-2.2,0.1c-1-0.7-1.8-1.6-2.3-2.6c-0.7-1.4-0.9-2.5,0-3.7c0.3-0.4,0.6-0.9,0.4-1.5c-0.2-0.4-0.4-0.5-0.8-0.3
			c-0.7,0.5-1.4,1-2.1,1.5c-0.6,0.4-1.2,0.3-1.7-0.2c-1.1-1.1-1.2-2.5-1.2-3.8c0-2.6,0.3-5.3,1.3-7.8c0.9-2.1,1.8-4.1,3.2-5.9
			c0.3-0.4,0.6-0.9,0.8-1.4c0.2-0.4,0.1-0.7-0.4-0.7c-0.3,0-0.5-0.1-0.8-0.1c-1.6,0.5-3.1,0.1-4.6-0.3c-1.1-0.3-1.8-1.2-2.2-2.3
			c-1.3-2.9-1.4-5.9-1.2-9.1c0.1-2.7,1.2-5.2,2.4-7.6c0.3-0.6,0.8-1,1.2-1.6c0.3-0.4,0.5-0.8,0.8-1.2c0.1-0.1,0-0.4-0.1-0.4
			c-0.3-0.1-0.7-0.2-0.9-0.1c-1.6,1.2-3.1,2.5-4.2,4.2c-0.9,1.4-1.8,2.9-2.1,4.5c-0.2,1-0.4,2.1-0.4,3.2c-0.1,1.2-0.1,2.5,0.1,3.7
			c0.2,1.7,0.7,3.4,1.5,5c0.7,1.3,1.5,2.4,2.7,3.2c1,0.6,2.1,1.1,3.4,1.1c0.3,0,0.5,0,0.8,0.1c0.5,0.2,0.5,0.5,0.2,0.9
			c-0.7,1.1-1.5,2.2-2.1,3.4c-0.6,1.3-1.1,2.6-1.6,3.9c-0.2,0.5-0.2,1-0.3,1.5c-0.1,0.5,0,1-0.1,1.4c-0.6,2-0.3,4.1,0.2,6.1
			c0.1,0.5,0.4,1,0.6,1.4c0.2,0.5,0.5,0.9,0.6,1.4c0.1,0.3-0.2,0.6-0.4,0.9c-0.3,0.4-0.6,0.8-0.9,1.3c-0.4,0.8-0.7,1.6-1.2,2.3
			c-1.2,2.2-2.4,4.3-3.6,6.5c-0.1,0.2-0.2,0.4-0.4,0.5c-0.3,0.1-0.6,0.1-0.9,0.2c0-0.3-0.1-0.6,0-0.9c0.3-1.4,0.6-2.7,0.8-4.1
			c0.3-2.2,0.4-4.3,0.6-6.5c0.1-1-0.2-1.9-0.7-2.8c-0.4-0.8-1.3-0.9-1.8-0.2c-1.6,1.9-3.1,3.9-4.8,5.8c-1.1,1.2-2.6,2.2-3.9,3.2
			c-0.2,0.2-0.6,0.2-0.9,0.2c-0.6,0.1-0.9-0.4-0.7-0.9c0.4-1,0.8-2,1.2-3c0-0.1,0.1-0.2,0.1-0.2c0.8-3.5,1.8-6.9,1.6-10.5
			c0-0.4-0.1-0.9-0.2-1.3c-0.1-0.3-0.4-0.7-0.6-0.7c-0.4,0-0.8,0.2-1.1,0.5c-0.4,0.4-0.6,1-0.9,1.4c-1,1.8-2.4,3.3-3.8,4.7
			c-1.1,1.1-2.4,1.9-3.9,2.4c-0.3,0.1-0.7,0.1-1,0c-0.4-0.1-0.6-0.4-0.4-0.8c0.8-2.1,1.7-4.2,1.5-6.5c0-0.2,0-0.4,0-0.6
			c-0.1-1-0.4-1.1-1.3-0.7c-1.3,0.6-2.6,1.2-4,1.6c-0.9,0.3-1.8,0.2-2.7,0.3c-0.4,0-0.5-0.2-0.3-0.6c0.2-0.3,0.3-0.6,0.6-0.7
			c2.7-1.7,5.1-3.7,6.9-6.5c1.3-2.1,2.1-4.4,1.9-6.9c-0.2-2-1.3-3.5-2.9-4.7c-2.2-1.6-4.7-2.1-7.2-2.4c-1.6-0.2-3.2-0.2-4.8-0.3
			c-0.2,0-0.4,0-0.6,0c-0.2-0.1-0.4-0.3-0.6-0.4c0.1-0.1,0.3-0.3,0.4-0.4c1.5-1.1,3-2.1,4.2-3.5s2.3-2.7,3.4-4.1
			c0.8-1.1,1.5-2.2,2.1-3.4c0.8-1.5,1.7-3.1,2.3-4.7c0.6-1.3,1-2.7,1.4-4.1c0.6-2.1,1.2-4.2,1.6-6.3c0.3-1.2,0.8-2.1,1.4-3.1
			c0.4-0.6,0.9-1.1,1.5-1.6c0.7-0.5,1.4-0.9,2.1-1.3c0.7-0.4,1.4-0.3,2.1,0C252.1,74,252.1,74.1,252.1,74.2z M258.7,80.1
			c0,0,0.1,0,0.2,0c0.4,0,1,0.1,1-0.4c0.1-0.4-0.2-0.8-0.4-1.2c0-0.1-0.2-0.1-0.2-0.2c-1.4-1.1-3.3-1-4.7,0.2
			c-1.4,1.2-2.3,2.8-2.4,4.7c0,1.1,0.2,2.3,0.7,3.3c0.6,1.4,1.7,2.5,3,3.4c2,1.4,4.1,2.6,6.6,2.8c0.9,0.1,1.8,0,2.7-0.2
			c1-0.2,1.2-1.2,0.5-1.9c-0.6-0.5-1.3-0.9-2-1.2c-1.7-0.7-3.4-1.3-5.1-2c-0.4-0.1-0.7-0.5-0.9-0.8c-0.1-0.2-0.1-0.5,0-0.7
			c0.3-0.4,0.7-0.8,1.1-1.2c0.3-0.3,0.5-0.5,0.7-0.8c0.3-0.4,0.2-0.8-0.3-1c-1-0.5-2-0.3-2.9,0.3c-0.6,0.4-0.9,0.3-1-0.5
			c0-0.2,0-0.4,0.1-0.6C255.8,80.7,257,80,258.7,80.1z M288.7,83.6c-0.7,0.1-1.6,0.3-2.6,0.5c-0.8,0.2-1.7,0.5-2.4,0.9
			c-0.4,0.2-0.9,0.8-0.8,1.1c0.1,0.6,0.8,0.6,1.3,0.6c1.1,0,2.2,0,3.3-0.1c1.8-0.1,3.4,0.7,4.9,1.4c1.3,0.7,2.6,1.5,3.9,2.2
			c1.2,0.6,2.5,1.1,3.9,0.9c0.9-0.2,1.7-0.8,1.8-1.5c0.2-1-0.3-1.8-1.2-2.3c-0.6-0.3-1.2-0.4-1.8-0.6c-1.5-0.5-2.9-0.9-4.4-1.5
			C292.8,84.4,291,83.8,288.7,83.6z"/>
		<path class="st4" d="M186.3,224.6c0.1,0.3,0.2,0.6,0.2,0.9c-0.2,2.4-1,4.5-2.6,6.3c-1.5,1.7-3.5,2.1-5.5,2.3
			c-1.6,0.1-3.4-0.2-4.6-1.6c-0.5-0.6-0.8-1.5-1-2.4c-0.3-1.5-0.3-3-0.5-4.5c-0.3-1.9-0.9-3.8-2.3-5.2c-0.4-0.4-0.6-0.9-1-1.4
			c0.3,0,0.5,0,0.7,0.1c1.2,0.6,2.4,1.2,3.1,2.5c0.3,0.4,0.4,0.9,0.6,1.4c0.5,1.5,0.7,3.2,1.9,4.4c1,1,2.1,1.7,3.5,1.8
			c0.5,0,1,0,1.5,0c1.4,0,2.3-0.8,3.2-1.7C184.6,226.6,185.3,225.6,186.3,224.6z"/>
		<path class="st4" d="M66.9,77.9c-0.1-0.1-0.2-0.2-0.2-0.4c-0.8-2.4-0.9-4.8,0.4-7.2c1-1.9,2.4-3.5,3.7-5.2
			c0.9-1.1,1.7-2.2,2.5-3.3c0.3-0.4,0.6-0.5,0.9-0.3c0.2,0.1,0.3,0.5,0.2,0.7c-0.2,2.5-0.6,5.1-0.7,7.6c-0.1,1.8,0.8,3.3,1.8,4.8
			c0.2,0.2,0.1,0.6,0.1,1c-0.2,0-0.5,0.1-0.6,0c-1.4-0.6-2.8-1.2-4.2-1.8c-0.4-0.2-0.9-0.4-1.3-0.5c-0.8-0.1-1.2,0.2-1.4,1
			c-0.2,0.9-0.3,1.8-0.4,2.6c-0.1,0.3-0.3,0.6-0.4,1C67,77.9,67,77.9,66.9,77.9z"/>
		<path class="st4" d="M232.6,85.7c0.3,0.8,0.4,1.3-0.1,1.8c-0.1,0.1-0.2,0.2-0.3,0.4c-0.4,1.2-0.8,2.5-1.1,3.8
			c-0.4,1.5-1,2.8-2,3.8c-0.5,0.5-1.3,0.8-2,1.1c-1.7,0.7-3.3,1.4-5.1,1.9c-2.3,0.7-4.8,1.2-7.2,1.3c-0.1,0-0.2,0-0.3,0
			c-2.4,0.4-4.8,0.8-7.1,1.1c-1.4,0.2-2.7,0.3-4.1,0.6c-1.8,0.4-3.7,0.9-5.5,1.5c-1,0.3-2,0.8-3,1.1c-0.2,0.1-0.5,0-0.8-0.1
			c0.1-0.2,0.1-0.5,0.2-0.7c0.7-1.1,2-1.6,3.2-1.9c2.4-0.7,4.8-1.2,7.2-1.7c0.9-0.2,1.9-0.2,2.9-0.4c1.6-0.2,3.2-0.4,4.8-0.6
			c1.4-0.1,2.7-0.2,4.1-0.4c1.4-0.3,2.8-0.7,4.2-1.1c0.5-0.1,1.1-0.2,1.6-0.5c1.3-0.5,2.7-1,4-1.6c0.9-0.4,1.7-0.8,2.5-1.3
			c0.3-0.2,0.5-0.5,0.7-0.8c0.6-1,1-2.1,1.2-3.3c0.2-0.9,0.6-1.9,0.9-2.8C231.7,86.6,232.2,86.2,232.6,85.7z"/>
		<path class="st4" d="M279.3,204.1c-1.7,2-3.8,3.1-6.3,3.1c-1.8,0-3.6-0.4-4.9-1.8c-1-1.1-1.3-2.6-1.1-4c0.2-2.3,1.1-4.3,2.1-6.4
			c0.6-1.2,1-2.5,1.5-3.8c0.1-0.2,0.3-0.6,0.5-0.6c0.4,0,0.6,0.4,0.5,0.8c-0.2,1.1-0.2,2.3-0.5,3.4c-0.2,1.2-0.8,2.3-0.9,3.5
			c-0.2,1.4-0.2,2.8-0.1,4.2c0.1,1.5,1.2,2.3,2.6,2.7c1.8,0.5,3.5,0.2,5.2-0.5c0.2-0.1,0.4-0.3,0.6-0.4
			C278.7,204.2,279,204.1,279.3,204.1z"/>
		<path class="st4" d="M189.8,222.1c1,1.9,1.9,3.7,1.8,6c0,0.2,0,0.3,0,0.5c-0.1,1.2,0.4,1.6,1.7,1.4c1.3-0.2,2.5-1,3.7-1.5
			c1.1-0.5,2.6,0.7,2.4,1.6c-0.2,0.6-0.5,1.2-0.9,1.6c-0.6,0.6-1.3,1-2,1.5c-0.3,0.2-0.7,0.4-1,0.4c-1.8,0.1-3.6,0.2-5.2-0.7
			c-0.5-0.3-0.8-0.7-0.7-1.3c0.1-0.9,0.3-1.9,0.5-2.8c0.3-1.2,0.1-2.4-0.1-3.6c-0.1-0.7-0.2-1.5-0.3-2.3c0-0.3,0.1-0.6,0.2-0.9
			C189.6,222.1,189.7,222.1,189.8,222.1z"/>
		<path class="st4" d="M259.5,144.1c0.1,0.4,0.3,0.7,0.3,0.8c-0.4,1-0.9,2-1.3,3c-0.4,0.8-0.8,1.6-1.2,2.3c-0.6,1.1-1.1,2.1-1.7,3.2
			c-0.4,0.8-0.8,1.6-1.2,2.4c-0.5,0.9-1,1.8-1.5,2.6c-0.7,1.2-1.4,2.4-2.2,3.6c-1.1,1.5-2.2,3-3.3,4.5c-1,1.2-2,2.3-3.1,3.4
			c-1.2,1.1-2.4,2.2-3.6,3.2c0,0-0.1,0-0.1,0.1c-0.2,0.2-0.5,0.7-0.8,0.3c-0.2-0.1-0.1-0.6,0-0.9c0.2-0.5,0.5-1,0.9-1.3
			c1.1-1,2.3-2,3.3-3c1.4-1.5,2.8-3.1,4.2-4.8c0.9-1.1,1.7-2.2,2.5-3.4c0.5-0.7,0.9-1.5,1.3-2.3c0.5-0.8,1-1.6,1.4-2.4
			c0.4-0.7,0.8-1.4,1.2-2.1c0.5-1,1-2,1.5-3c0.5-1,0.9-2.1,1.4-3.2c0.4-0.8,0.7-1.7,1.1-2.5C258.6,144.5,259.1,144.4,259.5,144.1z"
			/>
		<path class="st4" d="M281.9,205.6c0.4,0.4,0.3,0.7,0.1,1c-0.5,0.8-0.9,1.6-1.4,2.2c-1,1.2-2.3,2-3.8,2.3c-0.4,0.1-0.8,0.1-0.9,0.6
			s-0.1,1,0.4,1.4c2,1.4,4.1,1.3,6.3,0.6c1.1-0.4,2.2-0.9,3.3-1.5c0.4-0.2,0.8-0.5,1.2-0.7c0.2-0.1,0.6-0.1,0.8-0.1
			c-0.1,0.2-0.1,0.5-0.3,0.7c-1.4,1.4-3,2.4-4.8,3.2c-1.7,0.8-3.5,1.1-5.3,0.8c-1.5-0.3-2.5-1.2-2.9-2.6c-0.1-0.3-0.2-0.5-0.3-0.8
			c-0.3-1.1,0.2-1.8,1.2-2.2c1.5-0.5,2.9-1.4,4-2.5c0.5-0.5,1-0.9,1.5-1.4C281.4,206.3,281.7,206,281.9,205.6z"/>
		<path class="st4" d="M212,132.4c-0.4-0.4-0.4-0.7,0-1.2c0.8-1,1.8-1.6,3-2c2-0.6,4-1.2,5.9-1.9c2.1-0.8,4.3-1.4,6-2.9
			c1-0.8,1.6-1.8,2.2-2.9c0.2-0.3,0.3-0.8,0.8-0.6c0.5,0.2,0.5,0.6,0.4,1.1c-0.4,2-1.7,3.4-3.4,4.4c-1.1,0.7-2.3,1.3-3.6,1.7
			c-1.2,0.4-2.4,0.7-3.6,1c-1.7,0.6-3.5,1.2-5.1,1.9C213.9,131.4,213,132,212,132.4z"/>
		<path class="st4" d="M227.8,154.7c0.1-0.4,0.1-0.7,0.2-0.8c1-1.4,2.3-2.3,3.7-3.2c1.1-0.7,2.1-1.5,3.1-2.4
			c1.7-1.4,3.3-2.9,5.1-4.2c1.5-1.1,3.1-2.1,4.7-3.1c0.5-0.3,1.2-0.5,1.8-0.7c0.2,0,0.5,0.2,0.7,0.4c0.1,0.1,0,0.5-0.1,0.6
			c-0.4,0.3-0.8,0.7-1.2,0.9c-1.5,0.9-2.9,1.8-4.4,2.7c-0.9,0.6-1.8,1.3-2.7,2c-1,0.8-1.9,1.7-2.9,2.6c-0.8,0.7-1.7,1.4-2.6,2.1
			c-1.3,0.9-2.6,1.8-3.9,2.6C228.9,154.4,228.4,154.5,227.8,154.7z"/>
		<path class="st4" d="M211.4,114c1.2-0.8,2.3-1.6,3.8-1.6c1.3,0,2.6-0.2,3.9-0.2c0.6,0,1.3,0,1.9,0c1.2,0.1,2.5,0.2,3.7,0.2
			c2,0.1,3.9,0.5,5.7,1.5c0.9,0.5,1.7,1.1,2.4,1.8c0.2,0.1,0.1,0.5,0.2,0.7c-0.2,0-0.5,0.1-0.7,0c-0.8-0.5-1.6-1-2.4-1.5
			c-0.2-0.1-0.5-0.2-0.8-0.3c-3-0.7-6.1-0.8-9.2-0.8c-2.4,0-4.7,0.1-7,0.6C212.1,114.6,211.8,114.5,211.4,114z"/>
		<path class="st4" d="M271.9,138.4c-0.1,0.3-0.2,0.6-0.2,0.8c-0.2,0.6-0.4,1.3-0.6,1.9c-0.2,0.5-0.4,1-0.6,1.5
			c0,0.1-0.1,0.2-0.1,0.3c-0.4,1.3-0.7,2.6-1.2,3.9c-0.4,1-0.9,1.9-1.4,2.9c-0.1,0.1-0.2,0.3-0.2,0.4c-0.6,1.2-1.2,2.3-1.8,3.5
			c-0.3,0.6-0.6,1.1-0.9,1.7c-1.3,2.4-3.2,4.4-5.2,6.2l0,0c-0.4,0.1-0.9,0.4-1.1,0.3c-0.5-0.3-0.1-0.8,0.1-1.1
			c0.8-0.9,1.7-1.7,2.4-2.6c0.9-1.1,1.9-2.2,2.7-3.3c0.9-1.4,1.7-2.9,2.5-4.4c0.5-1,1-1.9,1.4-2.9c0.4-0.8,0.6-1.8,1.1-2.5
			c0.6-0.7,0.4-1.7,0.8-2.3c0.6-1,0.5-2.1,0.9-3.1c0.2-0.5,0.5-1,0.8-1.4c0.1-0.1,0.3-0.2,0.4-0.1
			C271.8,138.1,271.9,138.3,271.9,138.4z"/>
		<path class="st4" d="M236.2,136.5c-0.2,0.4-0.4,0.8-0.6,1c-0.9,0.7-1.9,1.3-2.9,1.9c-0.9,0.5-1.8,0.9-2.8,1.3
			c-1.6,0.6-3.3,1.2-4.9,1.7c-1.4,0.5-2.7,1-4.1,1.5c-0.3,0.1-0.6,0.2-0.9,0.3c-0.2,0-0.4-0.1-0.6-0.1c0.1-0.2,0.1-0.4,0.2-0.6
			c0.8-1.2,2.1-1.5,3.3-2c1.6-0.6,3.2-1,4.8-1.6c1.8-0.7,3.5-1.5,5.2-2.3c0.7-0.3,1.3-0.8,1.9-1.3c0.4-0.3,0.8-0.4,1.3-0.1
			C236.1,136.2,236.2,136.4,236.2,136.5z"/>
		<path class="st4" d="M200.5,90.5c0.6-0.1,1.1-0.3,1.7-0.4c1-0.1,1.9,0.1,2.9,0s2-0.2,3-0.4c1.3-0.2,2.7-0.5,4-0.6
			c0.3,0,0.7,0.1,1,0.2c0.5,0.2,0.4,0.8-0.2,1c-0.9,0.3-1.8,0.6-2.8,0.8c-1.6,0.2-3.2,0.3-4.8,0.5c-1.4,0.2-2.8-0.2-4.1-0.4
			c-0.2,0-0.5-0.3-0.7-0.4C200.5,90.7,200.5,90.6,200.5,90.5z"/>
		<path class="st4" d="M252.6,70.3c0.6-0.6,1.3-0.5,1.8-0.2c1.4,0.9,3.1,0.8,4.7,1.4c0.7,0.2,1.5,0.1,2.2,0.2c1,0.1,2,0.2,3,0.4
			c0.4,0.1,0.9,0.4,1.2,0.7c0.1,0.1,0.3,0.4,0.2,0.5c-0.1,0.2-0.4,0.4-0.6,0.4c-1.7-0.2-3.4-0.5-5.1-0.7c-0.2,0-0.3-0.1-0.5-0.1
			c-1.6-0.1-3.2-0.6-4.6-1.2C254.1,71.2,253.4,70.7,252.6,70.3z"/>
		<path class="st4" d="M203.7,226c0,0.4,0.1,0.8,0.1,1.2c0,0.9,0.6,1.4,1.4,1c0.9-0.4,1.5-1.1,1.9-2c0.1-0.3,0.2-0.6,0.3-1
			c0.1,0,0.1,0,0.2-0.1c0.1,0.2,0.3,0.4,0.3,0.7c0.2,1.7-0.4,3.1-1.7,4.2c-1,0.9-2,0.9-3.2,0.6c-0.2-0.1-0.5-0.3-0.5-0.4
			c-0.1-1.4-0.1-2.9,0.8-4.1C203.4,226,203.5,226,203.7,226z"/>
		<path class="st4" d="M232.6,72.1c0.9,0.7,1.7,1.5,2.6,2.1c0.8,0.6,1.6,1,2.4,1.5c1.4,0.9,3,1.2,4.7,1.2c0.4,0,0.8,0,1.1,0.1
			s0.7,0.4,0.8,0.7c0.1,0.4-0.4,0.6-0.8,0.6c-1.6,0.1-3.3,0-4.7-1c-0.7-0.5-1.5-0.9-2.3-1.4c-0.5-0.4-0.9-0.8-1.4-1.2
			c-0.6-0.5-1.3-1.1-2-1.4C232.3,73.1,232.3,72.8,232.6,72.1z"/>
	</g>
	<g id="Black">
		<path class="st5" d="M255.8,240.2c1.6-0.2,2.4-1.4,3.2-2.5c1.2-1.8,1.8-3.7,1.7-5.9c-0.1-2.3-1.1-4.2-3.2-5.3
			c-1.7-0.9-3.5-1.2-5.5-0.7c-0.8,0.2-1.7,0.4-2.5,0.5c-0.3,0-0.8-0.3-1.1-0.6c-0.4-0.4,0.1-0.6,0.3-0.8c0.6-0.7,1.2-1.1,2.1-1.2
			c0.5,0,0.8-0.3,0.8-0.8c0-0.3-0.3-0.6-0.5-0.8c-1-0.8-2.1-1.6-3.2-2.3c-1.1-0.6-2.2-1.1-3.4-1.3c-2-0.5-4.1-0.9-6.1-1.1
			c-2.7-0.2-5.3,0-8,0c-0.4,0-0.9,0.1-1.1-0.4c-0.2-0.4,0.2-1.1,0.8-1.3c0.7-0.3,1.5-0.6,2.3-0.8c0.7-0.2,0.9-0.5,0.8-1.2
			c-0.2-1.3-0.5-2.6-0.7-3.9c-0.1-0.5-0.2-0.9-0.2-1.4c-0.3-2-0.7-4.1-1.1-6.1c-0.2-1.1-0.6-1.3-1.7-1.2c-0.4,0-0.9,0.1-1.3,0
			c-0.3-0.1-0.6-0.4-0.8-0.6c0.2-0.2,0.4-0.5,0.7-0.6c1.5-0.7,3.1-1.3,4.6-2.1c1.4-0.8,2.7-1.9,4-2.9c1.2-1,2.4-2.1,3.4-3.3
			c1.7-1.8,3.3-3.8,4.6-6c0-0.1,0.1-0.1,0.1-0.2c0.1-0.3,0.1-0.6,0.1-1c-0.4,0.1-0.9,0-1.2,0.2c-1.3,0.9-2.6,2-3.9,2.9
			c-0.9,0.6-1.9,1.1-2.9,1.6c-0.3,0.1-0.8,0-1.1-0.2c-0.4-0.2-0.4-0.7-0.2-1.1c0.5-1.3,1.1-2.6,1.6-3.9c0.2-0.6,0.4-1.2,0.5-1.8
			c0-0.2-0.1-0.4-0.2-0.5c-0.1-0.1-0.4,0-0.5,0.1c-2.2,1.8-4.4,3.7-7,4.8c-1,0.4-2.1,0.6-3.2,0.7c-1.3,0.1-1.3-1.1-0.7-1.8
			c1.1-1.4,2.3-2.7,3.4-4c0.9-1,1.8-2.1,2.7-3.1c1.2-1.5,2.4-3,3.5-4.6c0.8-1.2,1.6-2.5,2.3-3.8c0.8-1.3,1.5-2.7,2.2-4.1
			c0.6-1.3,1-2.7,1.5-4.1c0.2-0.7,0.4-1.3,0.5-2.1c-0.7-0.1-1.1,0-1.5,0.4c-1,0.9-2.1,1.8-3.1,2.6c-1.1,0.9-2.2,1.7-3.3,2.5
			c-0.7,0.5-1.4,0.9-2.1,1.2c-2.4,1.1-4.8,2.1-7.3,3.1c-0.6,0.3-1.3,0.5-2,0.7c-0.2,0.1-0.4,0.1-0.6,0.1c-0.9-0.1-1.1-0.5-0.7-1.3
			c0.5-0.9,1.2-1.7,1.9-2.5c0.8-1.1,1.7-2.2,2.5-3.3s1.6-2.2,2.3-3.3c0.4-0.7,0.7-1.4,1.1-2.1c0.3-0.5,0.5-1.1,0.8-1.7
			c0.2-0.5,0.1-0.9-0.5-0.8c-0.9,0.1-1.9,0.4-2.8,0.7c-2,0.6-4,1.3-6,2c-2.3,0.9-4,2.5-4.9,4.8c-0.5,1.2-0.6,2.5-0.9,3.8
			c-0.2,0.8-0.9,1.1-1.5,0.5c-0.2-0.1-0.3-0.4-0.3-0.6c0-0.9,0.1-1.8,0.2-2.7c0-0.4,0.2-0.7,0.3-1.1c0.5-2.5,1.4-4.9,2.7-7.1
			c1.3-2.1,2.9-3.9,4.5-5.8c1.4-1.8,2.8-3.7,4.1-5.6c0.2-0.3,0.5-0.7,0.7-1c0.3-0.4,0.3-0.9-0.1-1.2c-0.2-0.2-0.6-0.1-0.9-0.1
			c-0.9,0.2-1.9,0.3-2.8,0.6c-1.4,0.3-2.9,0.6-4.2,1.1c-1.7,0.7-3.4,1.5-5.1,2.4c-0.8,0.4-1.6,1-2.4,1.5c-0.3,0.2-0.7,0.4-1.1,0.5
			c-0.6,0.2-1.1-0.2-0.9-0.9c0.4-1.3,0.8-2.7,1.3-4c0.3-0.9,0.9-1.7,1.3-2.5c1.1-2,2.5-3.8,4.4-5.1s3.8-2.5,5.7-3.8
			c1-0.7,1.9-1.7,2.9-2.6c0.1-0.1,0.2-0.5,0.1-0.7c-0.1-0.2-0.4-0.4-0.6-0.4c-2.8-0.2-5.7-0.5-8.5-0.4c-1.7,0-3.4,0.4-5,0.9
			c-1.7,0.6-3,1.9-4.1,3.2c-0.2,0.2-0.4,0.6-0.7,0.6c-0.3,0.1-0.8,0.1-1-0.1c-0.2-0.3-0.4-0.8-0.3-1.1c0.4-1.5,1.1-2.9,2-4.2
			c1.3-1.9,3-3.3,4.9-4.5c2.1-1.3,4.3-2.5,6.5-3.8c1.6-0.9,3.2-1.8,4.8-2.7c1.6-1,2.9-2.2,4-3.7c0.1-0.2,0.1-0.6,0-0.8
			c-0.1-0.1-0.4-0.2-0.7-0.2c-2.5,0.5-5,1-7.6,1.5c-4.3,0.9-8.8,0.9-13.2,1.6c-2.2,0.4-4.3,1-6.5,1.6c-2,0.6-3.7,1.8-5.4,3
			c-0.5,0.4-0.9,0.9-1.4,1.3c-0.3,0.2-0.8,0.4-1.2,0.4c-0.2,0-0.5-0.6-0.5-0.9c-0.2-2.1,0.2-4.1,1.4-5.9c0.7-1,1.4-2.1,2.2-3
			s1.7-1.6,2.5-2.4c0.4-0.4,0.7-0.9,1.1-1.4c-0.3-0.3-0.9-0.1-1.4,0.1c-1.9,0.8-3.5,2-4.7,3.6c-1.1,1.3-2,2.8-3,4.2
			c-0.8,1.1-1.5,2.3-2.3,3.4c-0.7,1.1-1.4,2.3-2.3,3.3c-2.7,3.2-6,5.4-10,6.7c-1.7,0.5-3.3,1.1-5,1.5c-1.9,0.4-3.8,0.7-5.7,0.9
			c-2.6,0.2-5.3,0.4-7.9,0.4c-4.8,0.1-9.6,0-14.4,0.3c-3.9,0.2-7.8,0.7-11.6,1.3c-1.9,0.3-3.7,1-5.6,1.6c-2,0.6-3.7,1.8-5.4,3
			c-1.5,1.1-3,2.4-4.5,3.5c-1.6,1.2-3.2,2.2-4.8,3.4c-1,0.7-2,1.4-3,2.1c-1.1,0.8-2.3,1.5-3.4,2.2c-1.4,0.8-2.7,1.6-4.1,2.4
			c-1.6,1-3.3,1.8-5.1,2.2c-2.8,0.7-5.6,1.1-8.4,0.7c-2.7-0.4-5.2-1.3-7.2-3.2c-1.7-1.6-3-3.5-3.8-5.7c-0.5-1.6-1.1-3.3-1.4-5
			c-0.4-2.6-0.4-5.3,0.1-7.9c0.1-0.6,0.2-1.3,0.4-1.9c0.2-0.9,0.4-1.8,0.7-2.7c0.4-1.2,0.7-2.4,1.1-3.6c0.9-2.4,1.9-4.9,3.3-7.1
			c0.9-1.4,1.7-2.8,2.6-4.1c0.8-1.1,1.9-1.6,3.1-2.2c2.2-0.9,4.4-1.8,6.2-3.4c1.7-1.5,2.6-3.4,3.1-5.6c0.5-2,0.4-4-0.4-6
			c-0.4-1-0.7-2.1-1.1-3.1c-0.8-1.7-1.9-3.2-3.3-4.5c-1.3-1.1-2.7-2.2-4-3.3c-0.2-0.1-0.4-0.1-0.6-0.2c-0.1,0.2-0.2,0.5-0.2,0.7
			c0.2,0.9,0.4,1.7,0.6,2.6c0,0.1,0.1,0.2,0,0.3c-0.1,1.5,0.9,2.5,1.5,3.8c1.6,3.1,2.4,6.4,0.8,9.8c-0.4,0.9-0.9,1.9-1.4,2.8
			c-0.3,0.6-0.8,0.7-1.5,0.9c0-0.4,0-0.8,0.1-1.1c0.7-1.5,0.7-3,0.7-4.6c0-1.5-0.2-3-0.5-4.5c-0.4-1.5-1.3-2.8-2.7-3.6
			c-1.5-0.9-3.2-1.4-4.8-1.9c-1.2-0.4-2.4-0.9-3.6-1.4c-1-0.4-1.4-0.3-1.5,0.8c-0.1,1.9-0.2,3.8,0,5.7c0.2,1.7,1,3.2,2.2,4.4
			c0.9,0.9,1.9,1.7,2.8,2.6c1.6,1.6,3,3.3,3.5,5.6c0.1,0.2,0.2,0.4,0.3,0.7c-0.6,0.1-0.9,0.1-1.3-0.5c-0.9-1.7-2.3-3-3.9-4
			c-1.5-0.9-3.1-1.6-4.2-3c-0.2-0.3-0.5-0.5-0.6-0.8c-0.8-1.8-2.5-2.6-4.1-3.5c-0.8-0.4-1.6-1-2.4-1.4c-0.3-0.2-0.6-0.3-1-0.3
			c-1.2-0.1-1.4-0.2-1.5-1.4c-0.1-0.6-0.1-1.3,0-1.9c0-0.3,0.3-0.6,0.5-0.7c0.3-0.1,0.8-0.2,1,0.3c0.7,1.4,1.9,2.1,3.2,2.7
			c0.6,0.2,1.1,0.4,1.7,0.6c0.1,0,0.2-0.1,0.4-0.2c-0.1-0.1-0.1-0.3-0.2-0.3c-1.1-0.4-1.7-1.4-2.2-2.3c-1.9-3.2-2.4-6.7-1.1-10.3
			c0.8-2.1,2.2-3.9,3.7-5.6c1.5-1.8,3-3.6,4.4-5.5c0.6-0.8,1-1.7,1.5-2.5c0.2-0.3,0.3-0.6,0.5-0.7c0.7-0.6,0.9-0.5,1.3,0.2
			c1.6,2.7,1.8,5.6,1.8,8.6c0,1.4-0.1,2.8-0.1,4.2c0.1,1.7,0.9,3.1,2.1,4.2c0.2,0.1,0.6,0.2,0.7,0.1c0.2-0.1,0.4-0.4,0.5-0.7
			c0.1-0.5,0-1,0.1-1.4c0.1-1,0.6-1.3,1.5-1c1.7,0.6,3.2,1.5,4.6,2.7c1.6,1.3,3.2,2.5,4.6,4c1.8,1.9,3.1,4.1,3.8,6.8
			c0.5,1.9,0.9,3.7,0.5,5.5c-0.6,2.6-1.4,5.2-3.1,7.4c-0.8,1-1.6,2.1-2.6,3c-1.3,1.2-2.9,2.2-4.7,2.6c-0.7,0.1-1.4,0.3-1.9,0.6
			c-0.8,0.5-1.5,1.1-2,1.9c-0.9,1.3-1.6,2.7-2.2,4.2c-0.9,2.2-1.6,4.5-2.4,6.7c-0.2,0.7-0.3,1.5-0.5,2.2c-0.8,3.3-1,6.7-0.7,10.1
			c0.1,1.6,0.4,3.3,1.1,4.8c1.2,3.1,3.5,5.3,6.7,6.2c1.3,0.4,2.8,0.5,4.2,0.4c2.2-0.1,4.3-0.5,6.4-1.3c2.7-1.2,5.3-2.5,7.6-4.2
			c2.3-1.7,4.7-3.4,7-5.2c1.3-1,2.6-2.1,3.9-3.2c1.4-1.2,2.9-2.4,4.5-3.3c2.1-1.2,4.4-2,6.7-2.7c3.6-1.1,7.3-1.4,11-2
			c2.7-0.4,5.4-0.5,8.1-0.6c4.3-0.1,8.6-0.2,12.8-0.3c1.7,0,3.4-0.1,5.2-0.2c0.6,0,1.2-0.2,1.7-0.3c2.4-0.4,4.8-0.8,7.1-1.3
			c2-0.5,4-1.2,5.9-2.2c1.7-0.9,3.3-2,4.6-3.4c0.5-0.5,0.9-1,1.2-1.5c1.1-1.6,2.1-3.3,3.2-4.9c1.1-1.6,2.2-3.1,3.3-4.6
			c1.2-1.6,2.7-2.9,4.4-4c0.4-0.3,0.9-0.5,1.4-0.7c0.3-0.2,0.6-0.3,0.5-0.7c-0.1-0.4-0.3-0.6-0.7-0.7c-0.9-0.1-1.7-0.3-2.6-0.5
			c-0.3-0.1-0.6-0.1-0.6-0.5s0-0.9,0.5-1c0.7-0.1,1.4-0.3,2.1-0.4c1-0.2,1.9-0.5,2.9-0.6c2.2-0.2,4.1-1.3,6-2.2
			c1.9-0.9,3.5-2.2,5.3-3.3c1.6-1.1,3.2-2.1,4.9-3.2c1.4-0.9,2.8-1.8,4.3-2.6c1.1-0.6,2.2-1.1,3.3-1.6c3.5-1.4,7-2.1,10.8-1.6
			c0.2,0,0.4,0,0.6-0.1c0-0.1,0.1-0.1,0.1-0.2c-0.6-0.4-1.2-0.9-1.9-1.3c-1.2-0.6-2.4-1.2-3.6-1.8c-0.2-0.1-0.6-0.4-0.5-0.6
			c0-0.2,0.3-0.5,0.5-0.6c0.1-0.1,0.4-0.1,0.6-0.2c2.2-0.3,4.5-0.5,6.6-1c3.6-0.7,7.2-1.1,10.8-0.8c0.6,0,1.2,0.2,1.8,0.3
			c0.3,0,0.6-0.1,0.9-0.2c0-0.1,0-0.2,0-0.3c-0.6-0.4-1.2-0.8-1.9-1.1c-0.2-0.1-0.4-0.1-0.6-0.2c-0.3-0.2-0.7-0.5-0.7-0.6
			c0.1-0.4,0.4-0.8,0.9-0.7c1.7,0.2,3.4,0.2,5.1,0.5c2.1,0.4,4.1,1.1,6.1,1.3c2.8,0.3,5.7,0.2,8.5,0.3c2.7,0.1,5.3,0.3,8,0.5
			c2.2,0.2,4.4,0.4,6.5,0.8c2.5,0.5,5.1,0.5,7.6,1.4c2.1,0.7,4.2,1.4,6.2,2.3c2.2,1,4.3,2.2,6.4,3.2c2,1,3.8,2.4,5.6,3.7
			c0.9,0.7,2,1.2,3.3,1.1c2.5-0.1,4.9,0.7,7.2,1.5c2.1,0.8,4,2,5.7,3.3c2,1.5,3.6,3.3,4.7,5.6c0.5,1,0.6,2.2,0.4,3.3
			c-0.2,1.2-1.1,1.9-2.2,2.3c-0.6,0.2-1.3,0.4-1.9,0.5c-0.9,0.2-1.5,0.8-2.1,1.4c-0.9,0.9-1.9,1.8-2.7,2.8c-0.5,0.6-0.9,1.3-1.2,2
			c-0.9,2-2.2,3.6-3.8,4.9c-0.6,0.5-1.4,0.8-2.1,1.2c-0.1,0.1-0.2,0.1-0.3,0.1c-0.4-0.1-0.7-0.2-1.1-0.3c0.1-0.3,0.1-0.7,0.3-0.9
			c0.5-0.6,1.1-1.1,1.6-1.7c0.4-0.5,0.7-1.1,1-1.7c0.2-0.4,0-0.7-0.4-0.7c-0.6,0-1.1-0.1-1.7-0.1c-2.6,0.2-5.2,0.4-7.8,1.1
			c-2.1,0.6-4.1,1.4-5.9,2.7c-1.7,1.2-3.2,2.5-4.4,4.2c-1.3,1.8-2.5,3.8-3.3,5.9c-1,2.6-1.7,5.3-1.6,8.2c0.1,1.9,0.4,3.7,1.5,5.4
			c0.4,0.6,1.2,0.6,1.7-0.1c0.5-0.8,0.9-1.6,1.1-2.6c0.1-0.3,0.3-0.8,0.6-0.9c0.6-0.3,1.2,0.1,1.3,0.8c0.1,1.5,0.1,3-0.5,4.5
			c-0.9,2.6-2.3,5.1-4,7.3c-0.8,1-1.6,2-2.6,2.8c-1.1,1-3.1,1.1-4.4,0.3c-1.9-1.2-3.5-2.7-4.4-4.8c-0.1-0.2-0.4-0.6-0.5-0.6
			c-0.2,0.1-0.5,0.3-0.7,0.6s-0.2,0.6-0.3,0.9c-0.5,3.6-1.6,6.9-3,10.2c-0.3,0.6-0.6,1.1-0.7,1.8c-0.1,0.4,0.1,1,0.4,1.3
			c1.2,1.1,2.5,2,3.8,3c1.5,1.1,3,2.2,4.5,3.3s3,2.1,4.4,3.3c1.5,1.3,3,2.7,4.4,4.2c1.2,1.3,2.2,2.9,3.3,4.4
			c0.4,0.6,0.6,1.2,0.9,1.9c0.5,1.2,0.9,2.4,1.4,3.6c0.4,1.1,0.9,2.2,1.4,3.2c0.3,0.8,0.6,1.5,0.9,2.3c1.2,3.1,2.4,6.3,2.7,9.7
			c0.2,1.6,0.1,3.2-0.2,4.8c-0.2,1.4-0.8,2.8-1.3,4.2c-0.2,0.6-0.6,1.1-0.9,1.6c-1.3,2.2-1.8,4.7-2.8,7c-0.7,1.8-1.7,3.5-3,5
			c-1.2,1.4-2.6,2.4-4.3,3.2c-1.8,0.9-3.7,1.4-5.8,1.6c-2.8,0.2-5.1-0.7-6.8-3c-1-1.3-1.6-2.8-1.7-4.5c-0.1-0.9-0.6-1.4-1.4-1.6
			c-1.5-0.4-2.8-1.2-3.9-2.2s-1.7-2.2-2-3.6c-0.6-2.4-0.4-4.8,0.4-7.2c0.5-1.5,1.3-2.8,1.9-4.3c0.8-1.8,1.6-3.7,1.6-5.7
			c0-1-0.4-2.1-0.8-3.1c-1-2-2.6-3.5-4.5-4.5c-1.7-1-3.6-1.8-5.6-2.2c-0.2,0-0.3-0.1-0.5-0.1c-1.7-0.5-3.4-1-5.2-1.4
			c-0.9-0.2-1.9-0.3-2.8-0.3c-0.4,0-0.9,0.3-1.2,0.7c-1.1,1.3-2,2.8-3.1,4.1c-1,1.2-2.2,2.4-3.3,3.5c-1.3,1.2-2.6,2.3-4,3.4
			c-0.6,0.5-1.2,0.8-1.8,1.2s-0.8,1-0.6,1.7c0.3,1.3,0.4,2.6,0.8,3.9c0.8,2.4,0.5,4.9,1.1,7.4c0.2,0.9,0.6,1.3,1.6,1.4
			c2.3,0.2,4.7,0.4,7,0.8c2.3,0.4,4.4,1.4,6.3,2.9c2.2,1.7,4.5,3.3,6.8,4.9c0.6,0.4,1.3,0.7,2,1c2.2,1.1,3.4,3,4.2,5.2
			c0.2,0.7,0.5,1.4,0.6,2.1c0,1.1,0,2.2-0.2,3.2c-0.4,1.5-0.9,3-1.6,4.3c-0.6,1.2-1.5,2.2-2.3,3.2c-1.2,1.5-2.8,2.2-4.6,2.7
			c-0.5,0.1-0.9,0.7-1.3,1.2c-0.7,1-1.5,1.6-2.7,2c-2.1,0.7-4.3,0.8-6.5,0.7c-2.1-0.1-4-0.6-5.9-1.6c-0.5-0.3-0.9-0.5-1.4-0.7
			s-0.9-0.2-1.4,0.1c-2.3,1.3-4.7,2.3-7.4,2c-2.1-0.2-3.9-1-5.3-2.6c-0.5-0.6-0.9-1.3-1.1-2.1c-0.5-1.5-0.8-3.1-1.2-4.6
			c-0.6-2.3-1.2-4.5-2.8-6.3c-0.9-1-2-1.9-3-2.9c-1.9-1.8-3.5-3.8-3.5-6.7c0.1-2.9,0-5.9,0-8.8c0-1.9-0.6-3.7-1.2-5.5
			c-0.4-1.2-0.8-2.3-1.4-3.4c-0.8-1.5-1.6-3-2.6-4.3c-1.7-2.1-3.6-4.1-5.4-6.1c-0.9-1-1.4-2.1-1.9-3.3c-0.6-1.5-0.9-1.6-2.4-1.2
			c-0.9,0.2-1.9,0.4-2.9,0.4c-3,0-6,0-9,0c-0.6,0-0.8,0.3-1,0.8c-0.6,1.6-1,3.3-1.8,4.9c-1,1.9-2.2,3.6-3.3,5.4c-0.6,1-1.3,2-2,3
			c-0.6,0.9-1.1,1.7-1.6,2.6c-0.8,1.6-1.6,3.2-1.8,5s0.8,3,2.2,3.9c1.5,1,3.1,1.7,4.8,2.1c2,0.5,3.9,0.9,5.9,1.3
			c2.7,0.5,5.4,1,8.1,1.6c1.1,0.3,2.3,0.8,3.3,1.4c1,0.6,1.8,1.4,2.7,2.2c0.2,0.1,0.3,0.3,0.4,0.5c0.5,0.8,1.1,1.2,2.1,1.2
			c2.5,0.1,4.7,1.2,6.2,3.1c1.6,2,2.2,4.4,1.8,7c-0.2,1.2-0.4,2.5-0.9,3.6c-0.9,1.9-2.3,3.6-4.4,4.4c-0.3,0.1-0.5,0.2-0.8,0.3
			c-1,0.5-2,0.5-2.9,0c-0.7-0.3-1.2-0.2-1.8,0.2c-2.5,2.1-5.4,3.3-8.7,2.9c-1.6-0.2-3.2-0.8-4.5-1.8c-0.6-0.5-1.2-0.5-1.9-0.2
			c-1.9,0.8-3.7,1.6-5.8,1.7c-1.5,0.1-3,0.4-4.5,0.2c-1.4-0.1-3-0.4-4.1-1.5c-0.8-0.8-1.3-1.7-1.4-2.9c-0.1-1.8-0.1-3.5-0.4-5.3
			c-0.3-2.1-1.1-4-2.7-5.4c-0.6-0.6-1.4-1-2.2-1.3c-2-0.8-4.1-1-6.2-1.4c-2.3-0.4-4.5-1.1-6.3-2.6c-2.5-2-3.1-4.8-2.7-7.8
			c0.4-2.5,1.4-4.8,2.4-7.1c1.2-2.6,2.4-5.1,2.6-8c0.2-2.7-0.4-5-1.9-7.3c-1.3-2-3.1-3.6-5.2-4.7c-1.1-0.6-2.3-0.9-3.5-1.3
			c-0.6-0.2-1.3-0.3-2-0.5c-1.2-0.3-2.3-0.3-3.5,0c-1.1,0.2-2.2,0.5-3.3,0.7c-0.9,0.2-1.8,0.5-2.7,0.9c-2.2,0.8-4.4,1.6-6.6,2.4
			c-1.1,0.4-2.3,0.8-3.4,1.2c-1.4,0.5-2.8,1-4.2,1.5c-1.2,0.4-2.5,0.8-3.7,1.3c-1.3,0.5-2.7,1.1-4,1.6c-0.7,0.3-1.5,0.6-2.2,0.9
			c-1.7,0.7-3.4,1.4-5,2.3c-2.4,1.2-4.8,2.5-6.8,4.2c-1.3,1.1-2.6,2.1-3.7,3.3c-1.2,1.3-2,2.8-2.2,4.6c-0.1,1.4,0,2.9,0.1,4.4
			c0.1,0.9,0.8,1.5,1.8,1.6c1.5,0.2,3,0.3,4.5,0.6c1.8,0.3,3.6,0.7,5.3,1.2c2,0.6,4.1,1.3,6,2.3c2,1,3.8,2.3,5,4.3
			c0.4,0.7,0.9,1.1,1.7,1.2c2.1,0.4,3.5,1.6,4.7,3.2c1,1.3,1.5,2.8,1.6,4.3c0.1,1.6-0.4,3.2-1.2,4.6c-0.4,0.7-0.8,1.5-1.3,2.1
			c-0.9,1-1.9,2-3.1,2.7c-0.8,0.5-1.6,1.1-2.3,1.8c-1.4,1.2-3,1.9-4.8,1.8c-1.8,0-3.7-0.1-5.5-0.4c-1.4-0.3-2.8-0.9-4.2-1.4
			c-0.7-0.3-1.4-0.2-2.1,0.1c-1.2,0.6-2.5,1.1-3.8,1.4c-2.2,0.5-4.5,0.4-6.7-0.2c-2.2-0.6-4.3-1.3-6.1-2.7c-1.4-1.1-2.6-2.5-2.5-4.5
			c0.1-1.9,0.3-3.9,0.4-5.8c0-0.4,0.1-0.7,0.2-1.1c0.3-1.3-0.2-2.3-1-3.2c-1.6-1.9-3.6-3.4-5.6-5c-1.5-1.1-2.8-2.5-3.7-4.2
			c-0.8-1.7-1.5-3.4-1.2-5.2c0.2-1.7,0.7-3.3,1.1-5c0.3-1.1,0.8-2.2,1.2-3.3c0.6-1.8,1.4-3.6,1.8-5.4c0.5-2.3,1.2-4.6,1.2-7
			c0-2.9,0-5.9,0.1-8.8c0.1-2.5,1-4.7,3-6.4c1.2-1,2.7-1.8,4.2-2.3c2.1-0.7,4.3-0.7,6.5-1c1.7-0.3,3.4-0.6,5-1
			c1.1-0.3,1.9-1.1,2.7-1.9c2.4-2.6,3.5-5.7,4-9.2c0.1-0.8,0.3-1.6,0.5-2.4c0.2-1.1-0.2-1.5-1.3-1.4c-0.7,0.1-1.3,0.3-2,0.4
			c-3.8,0.4-7.6,1-11.4,0.7c-0.5,0-1.1-0.1-1.6-0.2c-1.3-0.2-2.5-0.4-3.8-0.8c-1.8-0.5-3.5-1.3-5.1-2.2c-1.9-1.1-3.5-2.5-5.1-4.1
			c-1.5-1.6-3-3.3-3.9-5.4c-0.3-0.7-0.9-1.4-1.1-2.2c-0.7-1.9-1.3-3.8-1.9-5.7c-1.4-4.6-1.2-9.3-0.4-14c0.4-2.3,1.3-4.5,2.1-6.8
			c0.9-2.5,2.5-4.6,4.1-6.7c1-1.3,2.3-2.3,3.5-3.4c0.4-0.3,0.8-0.6,1.3-1.1c-0.9-0.5-1.5-0.9-2.1-1.3c-1.4-1-2.7-2.1-3.8-3.5
			c-1.2-1.5-2.2-3.1-3-4.9c-0.6-1.4-1.1-2.8-1.6-4.3c-0.2-0.7-0.4-1.4-0.6-2.1c-0.1-0.5-0.2-1-0.2-1.6c0-0.4,0.1-0.7,0.7-0.7
			c0.5,0,0.9,0,0.9,0.6c0.2,2.2,1.2,4.2,2.2,6.1c0.5,0.9,1.3,1.8,2,2.6c1.2,1.3,2.3,2.5,3.7,3.6c1.4,1.1,3.1,2.1,4.6,3.1
			c0.5,0.3,1,0.7,1.4,1.1c0.3,0.3,0.2,0.9-0.3,1.4c-0.4,0.3-0.8,0.6-1.1,0.9c-2,1.7-3.8,3.8-5.3,5.9c-1.7,2.3-3.2,4.8-4.1,7.5
			c-1.5,4.2-1.9,8.5-1.4,13c0.3,2.8,0.9,5.5,2.1,8.1c1,2.3,2.2,4.5,3.8,6.4c1.5,1.7,3.1,3.1,5.1,4.3c3.3,1.9,6.8,2.6,10.6,2.7
			c4.5,0.1,8.8-0.4,13.2-1.2c0.5-0.1,0.8-0.3,0.9-0.8c0.8-2.3,2-4.3,3.8-5.9c1.5-1.2,3-2.3,4.9-2.8c0.5-0.1,1-0.4,1.6-0.5
			c0.4,0,1.1,0.1,1.1,0.3c0.2,0.4-0.1,0.9-0.5,1.3c-1.8,1.4-3.7,2.7-5.4,4.2c-0.8,0.7-1.4,1.6-1.8,2.6c-0.9,2.6-1.5,5.4-1.8,8.1
			c-0.2,1.7-0.5,3.5-1,5.1c-0.5,1.9-1.3,3.7-2.4,5.3c-0.9,1.3-1.9,2.5-3.1,3.4c-1.3,1-2.9,1.6-4.5,1.8c-1.6,0.3-3.3,0.3-4.9,0.5
			c-2.3,0.4-4.7,0.4-6.7,1.8c-1.3,0.9-2.4,2-2.5,3.7c-0.2,1.4-0.3,2.8-0.3,4.2c0,2.3,0,4.5,0,6.8c0,0.9-0.2,1.7-0.3,2.6
			c0,0.2-0.1,0.4-0.1,0.6c-0.1,2-1,3.8-1.7,5.6c-0.8,2-1.6,4-2.3,6.1c-0.6,1.8-1.1,3.6-0.8,5.5c0.2,1.8,1,3.4,2.3,4.6
			c0.8,0.7,1.5,1.5,2.3,2.1c1.3,1.1,2.7,2.2,4,3.4c1.3,1.1,2.3,2.4,2.7,4.1c0.1,0.5,0.1,1.1,0,1.6c-0.3,1.8-0.6,3.6-0.8,5.4
			c-0.2,1.6,0.3,3.1,1.7,4c3.3,2.2,6.9,2.7,10.7,2c1.5-0.3,2.7-1.1,3.5-2.3c0.7-0.9,0.9-2.1,0.8-3.2c-0.1-1.5-0.9-2.8-1.6-4.1
			c-0.2-0.3-0.2-0.7-0.3-1.1c1.1-0.1,1.7,0.5,2.3,1.1c1.3,1.3,2.3,2.8,2.7,4.5c0.2,0.7,0.1,1.6,0,2.4c-0.3,1.3-0.2,1.4,1,1.9
			c2.2,0.8,4.5,1.1,6.8,1.2c0.7,0,1.5-0.2,2.1-0.6c0.4-0.2,0.6-0.8,0.7-1.2c0.2-1.9-0.4-3.7-1.8-5.1c-0.5-0.5-0.8-1.3-0.5-1.6
			c0.3-0.4,1.3-0.4,1.9,0c1.4,0.8,2.2,2.2,3.1,3.5c0.5,0.8,1.2,0.8,1.7,0c1.4-1.9,1.4-4.1,0.7-6.1c-0.7-2.3-2.7-4-5.6-3.5
			c-1.3,0.2-2.5,0.8-3.6,1.4c-0.8,0.4-1.5,0.2-1.6-0.6c0-0.2,0-0.4,0.1-0.5c0.7-0.9,1.4-1.8,2.6-2.2c0.3-0.1,0.6-0.4,0.9-0.6
			c0.3-0.4,0.2-0.7-0.2-1c-2.4-2-5.3-3-8.2-3.8c-1.8-0.5-3.7-0.9-5.5-1.2c-1.4-0.3-2.8-0.5-4.1-0.6c-1.6-0.1-2.7-0.9-3.2-2.4
			c-0.8-2.5-1.2-5-0.6-7.6c0.4-1.7,0.9-3.4,1.7-4.9c0.6-1,1.4-1.8,2.1-2.6c2-2,4.2-3.8,6.7-5.2c1.6-0.9,3.3-1.9,5-2.6
			c2.4-1.1,4.9-2.1,7.4-3c2.4-0.9,4.8-1.7,7.2-2.5c3.4-1.2,6.9-2.5,10.3-3.7c2.9-1,5.5-2.4,8.1-4c2.7-1.7,5.1-3.7,7.3-5.9
			c1.8-1.8,3.3-3.7,4.8-5.7c1.2-1.7,2.3-3.5,3.4-5.3c0.6-1,1.1-2.1,1.7-3.2c0.7-1.3,1.6-1.6,3.1-0.9c2.3,1.1,4.4,2.5,6.5,4
			c2.2,1.6,4.3,3.2,6.8,4.3c2.7,1.1,5.5,2.3,8.2,3.3c2.1,0.8,4.3,1.5,6.5,2.1c2.1,0.6,4.2,0.9,6.3,1.4c3.1,0.8,6.3,0.5,9.5,0.7
			c1.2,0.1,1.9-0.6,2-1.8c0.1-0.7-0.2-1.1-1.1-1.2c-0.5,0-1.1,0-1.6-0.1c-1.8-0.5-3.7-0.9-5.5-1.5c-1.2-0.4-2.4-0.8-3.6-1.2
			c-1.2-0.5-2.4-1-3.5-1.5c-1.3-0.6-2.5-1.2-3.8-2c-1.7-1-3.5-2.1-5.1-3.3c-1.6-1.1-3.2-2.4-4.7-3.7c-1.6-1.3-3.1-2.7-4.6-4.1
			c-1.1-1-2.1-2.1-3.1-3.2c-1.1-1.2-1.8-2.6-2.3-4.2c-0.1-0.2-0.1-0.5-0.1-0.7c0.1-0.3,0.2-0.6,0.4-0.7c0.2-0.1,0.6-0.1,0.8,0.1
			c0.7,0.6,1.3,1.2,1.9,1.9c2.7,2.7,5.3,5.5,8.3,7.9c2,1.6,4,3.1,6.1,4.5c1.9,1.3,4,2.3,6,3.4c2.6,1.4,5.4,2.4,8.2,3.3
			c1.7,0.6,3.5,1,5.3,1.4c0.8,0.2,1.6,0.5,2.4,0.6c0.7,0.1,1.2-0.2,1.5-0.8c0.4-0.8,0.9-1.7,1.3-2.5c0.9-1.8,2-3.4,3.4-4.9
			c0.3-0.3,0.7-0.6,1-0.8c0.2-0.1,0.5,0,0.8,0c0,0.3,0,0.5-0.1,0.8s-0.3,0.5-0.5,0.8c-1.5,2.2-2.2,4.7-3.1,7.2
			c-0.8,2.2-1.5,4.4-2.5,6.6c-0.7,1.7-1.2,3.5-1.6,5.4c-0.1,0.5,0,1.1,0.1,1.6c0.4,2.2,1.6,4,3.3,5.5c1,1,2,2.2,2.8,3.3
			c1.2,1.6,2.3,3.3,3.5,5c0.4,0.6,0.7,1.2,0.9,1.8c1,2.5,2,5,2.2,7.8c0.3,3.1,0.2,6.2,0.2,9.4c0,2.1,0.7,3.8,2.3,5.2
			c2.1,1.8,3.9,3.7,5.4,6c0.1,0.2,0.3,0.5,0.4,0.7c0.3,1.5,0.7,3,1,4.5c0.4,1.8,0.8,3.5,2,4.9c0.7,0.8,1.6,1.1,2.6,1.2
			c2.2,0.4,4.3,0.1,6-1.4c1.2-1,1.9-2.2,2.2-3.7c0.5-2.7,0.1-5.3-1.4-7.6c-0.2-0.2-0.2-0.6-0.2-0.9c0-0.7,0.4-0.9,1-0.5
			c1.4,0.8,2.3,2.1,3,3.4c1.2,2.4,1.2,4.8,0.7,7.3c-0.1,0.3-0.2,0.6-0.3,0.9c-0.3,0.7-0.1,1.3,0.6,1.7c1.7,0.9,3.5,1.3,5.4,1.5
			c1.8,0.1,3.6-0.3,5-1.6c0.1-0.1,0.2-0.3,0.3-0.4c0.3-0.8,0.6-1.6,0.9-2.4c0.1-0.3,0.1-0.6,0-0.8c-0.4-1-0.8-2-1.2-3
			c-0.4-0.8-0.9-1.6-1.3-2.4c-0.1-0.3-0.1-0.7,0.1-0.9c0.1-0.2,0.6-0.3,0.8-0.2c1.1,0.1,1.9,0.8,2.5,1.5c1.1,1.3,1.9,2.8,2.1,4.5
			C255.5,239.4,255.6,239.8,255.8,240.2z M252.1,85c0-0.1-0.1-0.1-0.1-0.2c-0.7-0.3-1.4-0.3-2.1,0c-0.7,0.4-1.5,0.8-2.1,1.3
			c-0.6,0.4-1.1,1-1.5,1.6c-0.6,1-1.1,2-1.4,3.1c-0.5,2.1-1,4.2-1.6,6.3c-0.4,1.4-0.8,2.8-1.4,4.1c-0.7,1.6-1.5,3.1-2.3,4.7
			c-0.6,1.2-1.3,2.3-2.1,3.4c-1.1,1.4-2.3,2.8-3.4,4.1c-1.2,1.4-2.7,2.5-4.2,3.5c-0.2,0.1-0.3,0.3-0.4,0.4c0.2,0.1,0.4,0.3,0.6,0.4
			c0.2,0.1,0.4,0,0.6,0c1.6,0.1,3.2,0.1,4.8,0.3c2.6,0.3,5.1,0.8,7.2,2.4c1.6,1.2,2.7,2.7,2.9,4.7c0.2,2.5-0.5,4.7-1.9,6.9
			c-1.7,2.8-4.1,4.8-6.9,6.5c-0.3,0.2-0.4,0.5-0.6,0.7c-0.2,0.3-0.1,0.6,0.3,0.6c0.9-0.1,1.9,0,2.7-0.3c1.4-0.4,2.7-1,4-1.6
			c0.9-0.4,1.2-0.3,1.3,0.7c0,0.2,0,0.4,0,0.6c0.2,2.3-0.6,4.4-1.5,6.5c-0.2,0.5,0,0.7,0.4,0.8c0.3,0.1,0.7,0.1,1,0
			c1.5-0.5,2.8-1.3,3.9-2.4c1.4-1.4,2.8-2.9,3.8-4.7c0.3-0.5,0.5-1,0.9-1.4c0.2-0.3,0.7-0.5,1.1-0.5c0.2,0,0.5,0.4,0.6,0.7
			c0.1,0.4,0.2,0.8,0.2,1.3c0.2,3.6-0.8,7-1.6,10.5c0,0.1-0.1,0.2-0.1,0.2c-0.4,1-0.8,2-1.2,3c-0.2,0.6,0.1,1,0.7,0.9
			c0.3,0,0.6-0.1,0.9-0.2c1.3-1,2.8-2,3.9-3.2c1.7-1.8,3.2-3.8,4.8-5.8c0.6-0.7,1.4-0.6,1.8,0.2c0.5,0.9,0.7,1.8,0.7,2.8
			c-0.2,2.2-0.3,4.3-0.6,6.5c-0.2,1.4-0.5,2.7-0.8,4.1c-0.1,0.3,0,0.6,0,0.9c0.3-0.1,0.6-0.1,0.9-0.2c0.2-0.1,0.3-0.3,0.4-0.5
			c1.2-2.2,2.4-4.3,3.6-6.5c0.4-0.8,0.7-1.6,1.2-2.3c0.2-0.4,0.6-0.8,0.9-1.3c0.2-0.3,0.4-0.6,0.4-0.9c-0.1-0.5-0.4-0.9-0.6-1.4
			s-0.5-0.9-0.6-1.4c-0.4-2-0.7-4-0.2-6.1c0.1-0.5,0.1-1,0.1-1.4c0.1-0.5,0.1-1,0.3-1.5c0.5-1.3,0.9-2.7,1.6-3.9
			c0.6-1.2,1.4-2.3,2.1-3.4c0.3-0.4,0.3-0.7-0.2-0.9c-0.2-0.1-0.5-0.1-0.8-0.1c-1.2,0-2.3-0.5-3.4-1.1c-1.3-0.7-2.1-1.9-2.7-3.2
			c-0.8-1.6-1.2-3.3-1.5-5c-0.2-1.2-0.1-2.5-0.1-3.7c0.1-1.1,0.2-2.1,0.4-3.2c0.4-1.6,1.2-3.1,2.1-4.5c1.1-1.7,2.6-3,4.2-4.2
			c0.2-0.1,0.6,0,0.9,0.1c0.1,0,0.2,0.3,0.1,0.4c-0.2,0.4-0.5,0.8-0.8,1.2c-0.4,0.5-0.9,1-1.2,1.6c-1.1,2.4-2.2,4.8-2.4,7.6
			c-0.2,3.1,0,6.1,1.2,9.1c0.5,1,1.2,2,2.2,2.3c1.5,0.4,3,0.7,4.6,0.3c0.2-0.1,0.5,0,0.8,0.1c0.5,0.1,0.6,0.4,0.4,0.7
			c-0.2,0.5-0.5,1-0.8,1.4c-1.4,1.8-2.4,3.8-3.2,5.9c-1,2.5-1.3,5.1-1.3,7.8c0,1.3,0.1,2.8,1.2,3.8c0.5,0.5,1.1,0.6,1.7,0.2
			c0.7-0.5,1.4-1,2.1-1.5c0.4-0.3,0.6-0.1,0.8,0.3c0.3,0.6-0.1,1.1-0.4,1.5c-1,1.3-0.8,2.3,0,3.7c0.5,1,1.4,1.9,2.3,2.6
			c0.9,0.6,1.4,0.6,2.2-0.1c1.3-1.2,2.2-2.7,2.7-4.4c0.1-0.4,0-1-0.2-1.5c-0.5-1-1.2-1.9-1.7-2.9c-0.5-1.2-1.1-2.4-1.1-3.7
			c-0.1-2.8-0.4-5.6,0.7-8.3c0.6-1.6,1.1-3.2,1.7-4.8c0.6-1.3,1.4-2.5,2.1-3.7c0.7-1.1,1.4-2.1,2.3-3c1-1,2.2-2,3.4-2.8
			c1.3-0.9,2.6-1.8,4-2.4c2.2-0.9,4.4-1.8,6.8-1.9c2.5-0.2,5-0.4,7.6-0.5c0.9,0,1.5-0.3,2.1-0.9c1.4-1.5,2.9-3,4.3-4.4
			c0.5-0.5,0.6-1.2,0.1-1.7c-1.1-1.2-2.3-2.2-3.8-2.9c-0.4-0.2-0.7-0.4-1-0.7c-0.2-0.1-0.2-0.4-0.3-0.6c0.2-0.1,0.4-0.2,0.6-0.3
			c1.2-0.3,2.4,0.1,3.5,0.6c1.6,0.7,3.2,1.6,4.3,3c0.3,0.4,0.7,0.4,1.3,0.4c-0.1-0.4,0-0.7-0.2-1c-0.9-1.6-2.2-2.9-3.6-3.9
			c-1.4-1.1-3-2-4.7-2.7c-1.5-0.6-3.2-1-4.8-1.3c-1.9-0.4-3.9-0.5-5.7-1.6c-1.2-0.8-2.5-1.5-3.8-2.3s-2.5-1.6-3.9-2.3
			c-1.4-0.8-2.9-1.5-4.4-2.3c-2-1.1-4-2.1-6.2-2.7c-1.8-0.5-3.6-1-5.4-1.3c-1.9-0.3-3.9-0.4-5.8-0.6c-0.2,0-0.4,0-0.6-0.1
			c-1-0.3-1.7,0.2-2,1.2c-0.5,1.5-1.8,3.2-3.9,3c-2.8-0.2-5.7-0.4-8.5-0.5c-0.2,0-0.3-0.1-0.5-0.1c-1-0.2-2-0.4-3-0.5
			c-0.5-0.1-0.9,0.2-1.1,0.7c-0.2,0.6-0.6,0.9-1.1,1.1c-2.2,0.8-3.6,2.9-3.5,5.3c0.1,2.7,1.2,5.1,2.6,7.4c0.9,1.4,1.9,2.5,3.3,3.5
			c1.8,1.3,3.8,2,5.9,2.4c0.6,0.1,1.2,0.3,1.8,0.5c0.7,0.3,0.9,1.3,0.3,1.6c-0.7,0.4-1.6,0.7-2.4,0.9c-1.1,0.2-2.2-0.2-3.2-0.5
			c-1.7-0.5-3.3-1.3-4.7-2.4c-3.2-2.6-5.1-6-6-10c-0.5-2-0.3-4.1,0.5-6.1c0.8-1.8,1.9-3,3.7-3.6C251.1,85.6,251.6,85.3,252.1,85z
			 M186.3,235.4c-0.9,1-1.7,2-2.6,2.9c-0.9,0.9-1.9,1.7-3.2,1.7c-0.5,0-1,0-1.5,0c-1.5,0-2.5-0.8-3.5-1.8c-1.2-1.2-1.4-2.9-1.9-4.4
			c-0.2-0.5-0.4-1-0.6-1.4c-0.7-1.2-1.9-1.9-3.1-2.5c-0.2-0.1-0.5-0.1-0.7-0.1c0.4,0.6,0.7,1.1,1,1.4c1.4,1.5,2,3.3,2.3,5.2
			c0.2,1.5,0.2,3,0.5,4.5c0.1,0.8,0.5,1.7,1,2.4c1.2,1.4,2.9,1.7,4.6,1.6c2-0.1,4-0.6,5.5-2.3c1.6-1.8,2.4-3.9,2.6-6.3
			C186.5,236,186.3,235.7,186.3,235.4z M66.9,88.7c0.1,0,0.1,0,0.2,0c0.1-0.3,0.3-0.6,0.4-1c0.2-0.9,0.3-1.8,0.4-2.6
			c0.2-0.8,0.6-1.2,1.4-1c0.5,0.1,0.9,0.3,1.3,0.5c1.4,0.6,2.8,1.2,4.2,1.8c0.2,0.1,0.4,0,0.6,0c0-0.3,0.1-0.7-0.1-1
			c-0.9-1.5-1.8-3-1.8-4.8c0.1-2.5,0.5-5.1,0.7-7.6c0-0.2-0.1-0.6-0.2-0.7c-0.3-0.2-0.6-0.1-0.9,0.3c-0.8,1.1-1.6,2.3-2.5,3.3
			c-1.3,1.7-2.7,3.3-3.7,5.2c-1.3,2.4-1.1,4.7-0.4,7.2C66.7,88.5,66.8,88.6,66.9,88.7z M232.6,96.5c-0.4,0.5-0.9,0.9-1.1,1.3
			c-0.4,0.9-0.8,1.8-0.9,2.8c-0.2,1.2-0.7,2.2-1.2,3.3c-0.2,0.3-0.4,0.7-0.7,0.8c-0.8,0.5-1.6,0.9-2.5,1.3c-1.3,0.6-2.6,1.1-4,1.6
			c-0.5,0.2-1.1,0.3-1.6,0.5c-1.4,0.4-2.8,0.8-4.2,1.1c-1.3,0.2-2.7,0.3-4.1,0.4c-1.6,0.2-3.2,0.4-4.8,0.6c-1,0.1-1.9,0.1-2.9,0.4
			c-2.4,0.5-4.8,1.1-7.2,1.7c-1.2,0.3-2.4,0.8-3.2,1.9c-0.1,0.2-0.1,0.5-0.2,0.7c0.3,0,0.5,0.1,0.8,0.1c1-0.4,2-0.8,3-1.1
			c1.8-0.5,3.6-1.1,5.5-1.5c1.3-0.3,2.7-0.3,4.1-0.6c2.4-0.4,4.8-0.8,7.1-1.1c0.1,0,0.2,0,0.3,0c2.5-0.1,4.9-0.6,7.2-1.3
			c1.7-0.5,3.4-1.3,5.1-1.9c0.7-0.3,1.5-0.6,2-1.1c1-1.1,1.7-2.4,2-3.8c0.3-1.3,0.7-2.5,1.1-3.8c0-0.1,0.2-0.3,0.3-0.4
			C233,97.8,232.9,97.3,232.6,96.5z M279.3,214.9c-0.3,0.1-0.6,0.1-0.9,0.2c-0.2,0.1-0.4,0.3-0.6,0.4c-1.7,0.7-3.4,1-5.2,0.5
			c-1.4-0.4-2.5-1.2-2.6-2.7c-0.1-1.4-0.1-2.8,0.1-4.2c0.2-1.2,0.7-2.3,0.9-3.5c0.2-1.1,0.3-2.3,0.5-3.4c0.1-0.4-0.1-0.8-0.5-0.8
			c-0.1,0-0.4,0.4-0.5,0.6c-0.5,1.3-0.9,2.6-1.5,3.8c-1,2-1.9,4.1-2.1,6.4c-0.1,1.5,0.1,2.9,1.1,4c1.3,1.4,3.1,1.9,4.9,1.8
			C275.5,218,277.6,216.9,279.3,214.9z M189.8,232.9c-0.1,0-0.2,0-0.2,0c-0.1,0.3-0.2,0.6-0.2,0.9c0.1,0.8,0.2,1.5,0.3,2.3
			c0.2,1.2,0.4,2.4,0.1,3.6c-0.2,0.9-0.3,1.8-0.5,2.8c-0.1,0.6,0.2,1,0.7,1.3c1.7,0.9,3.5,0.8,5.2,0.7c0.4,0,0.7-0.2,1-0.4
			c0.7-0.5,1.4-0.9,2-1.5c0.4-0.4,0.8-1,0.9-1.6c0.3-1-1.3-2.1-2.4-1.6c-1.2,0.5-2.3,1.3-3.7,1.5c-1.2,0.2-1.7-0.2-1.7-1.4
			c0-0.2,0-0.3,0-0.5C191.7,236.7,190.8,234.8,189.8,232.9z M259.5,154.9c-0.5,0.3-0.9,0.4-1.1,0.7c-0.4,0.8-0.7,1.7-1.1,2.5
			c-0.5,1.1-0.9,2.1-1.4,3.2c-0.5,1-1,2-1.5,3c-0.4,0.7-0.8,1.4-1.2,2.1c-0.5,0.8-1,1.6-1.4,2.4c-0.4,0.7-0.8,1.5-1.3,2.3
			c-0.8,1.1-1.6,2.3-2.5,3.4c-1.3,1.6-2.7,3.2-4.2,4.8c-1,1.1-2.2,2-3.3,3c-0.4,0.4-0.7,0.8-0.9,1.3c-0.1,0.2-0.2,0.7,0,0.9
			c0.4,0.3,0.6-0.1,0.8-0.3c0,0,0.1,0,0.1-0.1c1.2-1.1,2.5-2.1,3.6-3.2c1.1-1.1,2.1-2.2,3.1-3.4c1.2-1.4,2.3-2.9,3.3-4.5
			c0.8-1.1,1.5-2.4,2.2-3.6c0.5-0.9,1-1.7,1.5-2.6c0.4-0.8,0.8-1.6,1.2-2.4c0.6-1.1,1.1-2.1,1.7-3.2c0.4-0.8,0.8-1.5,1.2-2.3
			c0.5-1,0.9-2,1.3-3C259.9,155.6,259.7,155.3,259.5,154.9z M281.9,216.4c-0.3,0.4-0.5,0.7-0.8,0.9c-0.5,0.5-1,0.9-1.5,1.4
			c-1.1,1.2-2.5,2-4,2.5c-1.1,0.4-1.5,1.1-1.2,2.2c0.1,0.3,0.2,0.5,0.3,0.8c0.4,1.5,1.4,2.4,2.9,2.6c1.9,0.4,3.6,0,5.3-0.8
			c1.8-0.8,3.4-1.8,4.8-3.2c0.2-0.2,0.2-0.5,0.3-0.7c-0.3,0-0.6,0-0.8,0.1c-0.4,0.2-0.8,0.5-1.2,0.7c-1.1,0.5-2.2,1.1-3.3,1.5
			c-2.2,0.7-4.3,0.8-6.3-0.6c-0.5-0.4-0.5-0.9-0.4-1.4s0.5-0.5,0.9-0.6c1.6-0.3,2.8-1.1,3.8-2.3c0.6-0.7,1-1.5,1.4-2.2
			C282.2,217.1,282.4,216.8,281.9,216.4z M212,143.2c0.9-0.5,1.8-1,2.7-1.4c1.7-0.7,3.4-1.3,5.1-1.9c1.2-0.4,2.4-0.6,3.6-1
			c1.2-0.5,2.4-1.1,3.6-1.7c1.7-1,3-2.4,3.4-4.4c0.1-0.5,0.1-0.9-0.4-1.1c-0.5-0.2-0.6,0.3-0.8,0.6c-0.6,1.1-1.3,2.1-2.2,2.9
			c-1.8,1.4-3.9,2.1-6,2.9c-2,0.7-4,1.3-5.9,1.9c-1.2,0.4-2.2,1-3,2C211.7,142.5,211.6,142.9,212,143.2z M227.8,165.5
			c0.6-0.2,1.1-0.3,1.5-0.5c1.3-0.8,2.6-1.7,3.9-2.6c0.9-0.6,1.8-1.3,2.6-2.1c1-0.8,1.9-1.7,2.9-2.6c0.9-0.7,1.8-1.4,2.7-2
			c1.4-0.9,2.9-1.8,4.4-2.7c0.4-0.3,0.9-0.6,1.2-0.9c0.1-0.1,0.2-0.5,0.1-0.6c-0.1-0.2-0.5-0.4-0.7-0.4c-0.6,0.2-1.2,0.3-1.8,0.7
			c-1.6,1-3.2,2-4.7,3.1c-1.8,1.3-3.4,2.8-5.1,4.2c-1,0.8-2,1.7-3.1,2.4c-1.4,0.9-2.8,1.8-3.7,3.2
			C227.9,164.9,227.9,165.1,227.8,165.5z M211.4,124.8c0.4,0.5,0.7,0.6,1.6,0.3c2.3-0.6,4.7-0.6,7-0.6c3.1-0.1,6.1,0.1,9.2,0.8
			c0.3,0.1,0.5,0.2,0.8,0.3c0.8,0.5,1.6,1,2.4,1.5c0.2,0.1,0.4,0,0.7,0c-0.1-0.2,0-0.6-0.2-0.7c-0.8-0.6-1.6-1.3-2.4-1.8
			c-1.8-1-3.7-1.4-5.7-1.5c-1.2,0-2.5-0.1-3.7-0.2c-0.6,0-1.3-0.1-1.9,0c-1.3,0.1-2.6,0.2-3.9,0.2
			C213.7,123.2,212.6,124,211.4,124.8z M271.9,149.2c-0.1-0.1-0.1-0.3-0.2-0.4c-0.1,0-0.3,0-0.4,0.1c-0.3,0.5-0.6,0.9-0.8,1.4
			c-0.3,1-0.3,2.1-0.9,3.1c-0.4,0.7-0.3,1.6-0.8,2.3s-0.7,1.7-1.1,2.5c-0.4,1-0.9,2-1.4,2.9c-0.8,1.5-1.6,3-2.5,4.4
			c-0.8,1.2-1.7,2.3-2.7,3.3c-0.8,0.9-1.7,1.7-2.4,2.6c-0.3,0.3-0.6,0.8-0.1,1.1c0.2,0.1,0.7-0.2,1.1-0.3l0,0c2-1.8,3.9-3.8,5.2-6.2
			c0.3-0.6,0.6-1.1,0.9-1.7c0.6-1.2,1.2-2.3,1.8-3.5c0.1-0.1,0.2-0.3,0.2-0.4c0.5-0.9,1-1.9,1.4-2.9c0.5-1.3,0.8-2.6,1.2-3.9
			c0-0.1,0.1-0.2,0.1-0.3c0.2-0.5,0.4-1,0.6-1.5c0.2-0.6,0.4-1.3,0.6-1.9C271.8,149.8,271.9,149.5,271.9,149.2z M236.2,147.3
			c-0.1-0.1-0.1-0.2-0.2-0.3c-0.4-0.3-0.8-0.3-1.3,0.1c-0.6,0.5-1.2,1-1.9,1.3c-1.7,0.8-3.5,1.6-5.2,2.3c-1.6,0.6-3.2,1.1-4.8,1.6
			c-1.2,0.4-2.5,0.8-3.3,2c-0.1,0.2-0.1,0.4-0.2,0.6c0.2,0.1,0.4,0.2,0.6,0.1c0.3,0,0.6-0.1,0.9-0.3c1.4-0.5,2.7-1,4.1-1.5
			c1.6-0.6,3.3-1.1,4.9-1.7c1-0.4,1.9-0.8,2.8-1.3c1-0.6,2-1.2,2.9-1.9C235.9,148.1,236,147.6,236.2,147.3z M200.5,101.3
			c0,0.1,0,0.2,0,0.3c0.2,0.1,0.4,0.4,0.7,0.4c1.4,0.2,2.7,0.6,4.1,0.4c1.6-0.2,3.2-0.3,4.8-0.5c0.9-0.1,1.9-0.4,2.8-0.8
			c0.6-0.2,0.7-0.8,0.2-1c-0.3-0.2-0.7-0.3-1-0.2c-1.3,0.2-2.7,0.4-4,0.6c-1,0.2-2,0.3-3,0.4s-1.9-0.1-2.9,0
			C201.6,101,201.1,101.2,200.5,101.3z M252.6,81.1c0.8,0.4,1.5,0.9,2.2,1.2c1.5,0.6,3,1.2,4.6,1.2c0.2,0,0.3,0.1,0.5,0.1
			c1.7,0.2,3.4,0.5,5.1,0.7c0.2,0,0.5-0.2,0.6-0.4c0.1-0.1-0.1-0.4-0.2-0.5c-0.4-0.3-0.8-0.6-1.2-0.7c-1-0.2-2-0.3-3-0.4
			c-0.7-0.1-1.5,0.1-2.2-0.2c-1.5-0.6-3.2-0.4-4.7-1.4C253.9,80.6,253.3,80.5,252.6,81.1z M203.7,236.8c-0.2,0.1-0.3,0.1-0.3,0.1
			c-0.9,1.2-0.9,2.7-0.8,4.1c0,0.2,0.3,0.4,0.5,0.4c1.2,0.3,2.2,0.3,3.2-0.6c1.3-1.2,1.9-2.5,1.7-4.2c0-0.2-0.2-0.4-0.3-0.7
			c-0.1,0-0.1,0-0.2,0.1c-0.1,0.3-0.2,0.7-0.3,1c-0.4,0.9-1,1.6-1.9,2s-1.4-0.1-1.4-1C203.8,237.6,203.8,237.2,203.7,236.8z
			 M232.6,82.9c-0.3,0.7-0.3,1,0.3,1.3c0.7,0.3,1.3,0.9,2,1.4c0.5,0.4,0.9,0.9,1.4,1.2c0.7,0.5,1.5,0.9,2.3,1.4c1.4,1,3.1,1,4.7,1
			c0.4,0,0.9-0.2,0.8-0.6c0-0.3-0.5-0.6-0.8-0.7s-0.7-0.1-1.1-0.1c-1.7,0-3.2-0.3-4.7-1.2c-0.8-0.5-1.6-1-2.4-1.5
			C234.4,84.3,233.5,83.6,232.6,82.9z"/>
		<path class="st5" d="M107,184.4c-1.2-0.1-2.5-0.1-3.6-0.4c-0.6-0.1-1.1-0.6-1.6-1c-0.3-0.3-0.2-0.6,0.1-0.9
			c0.7-0.6,1.5-0.8,2.3-0.9c0.7-0.1,1.4-0.1,2.1-0.2c1-0.1,1.3-0.8,0.7-1.6c-1-1.5-1.4-3.3-1.4-5c0-1.9,0.4-3.7,1.3-5.4
			c0.4-0.8,0.8-1.5,1.3-2.2c0.3-0.4,0.7-0.8,1.1-1.1s0.7-0.1,0.8,0.3c0.1,0.4,0,0.8-0.1,1.2c-0.2,0.8-0.5,1.7-0.7,2.5
			s-0.6,1.7-0.7,2.5c-0.1,1.1-0.2,2.3,0,3.4c0.2,1.3,0.6,2.5,1,3.7c0.3,0.9,0.8,1.2,1.7,1c1.7-0.3,3.3-0.6,5-1s3.3-1,4.9-1.6
			c1.5-0.5,3-1.2,4.4-1.8c1.7-0.7,3.4-1.5,5.1-2.3c1.9-1,3.8-2.1,5.7-3.2c1.1-0.6,2.2-1.3,3.3-2c0.4-0.3,0.8-0.5,1.2-0.8
			c0.3-0.3,0.7-0.5,1-0.1c0.4,0.3,0.2,0.7-0.1,1c-0.7,0.7-1.4,1.3-2.1,1.9c-1.2,1.1-2.5,2.1-3.8,3.1c-0.6,0.4-1.2,0.8-1.8,1.2
			c-1.3,0.9-2.7,1.8-4,2.6c-0.7,0.4-1.4,0.8-2.2,1.2c-0.9,0.4-1.7,0.9-2.6,1.2c-1.4,0.6-2.8,1.1-4.2,1.7c-1.2,0.5-2.5,0.9-3.8,1.3
			c-1.8,0.5-3.6,0.9-5.4,1.2C110.4,184,108.7,184.1,107,184.4z"/>
		<path class="st5" d="M159.4,138.6c2.6-0.2,5.2-0.4,7.8-0.5c2.2-0.1,4.5,0,6.7-0.1c2.3-0.1,4.6-0.4,7-0.6c0.4,0,0.8,0,1.2,0.1
			c0.2,0,0.4,0.2,0.5,0.4c-0.1,0.2-0.3,0.4-0.5,0.5c-0.8,0.3-1.7,0.6-2.5,0.8c-1.1,0.3-2.2,0.5-3.4,0.7c-1.6,0.3-3.3,0.4-4.9,0.6
			c-0.8,0.1-1.5,0.1-2.3,0.2c-1.5,0.1-3,0.3-4.6,0.4c-4.4,0.3-8.8,0.7-13.3,1c-0.8,0.1-1.7,0.1-2.5,0.2c-0.6,0.1-1.2,0.2-1.8,0.3
			c-1,0.2-2,0.3-3,0.5c-1.9,0.3-3.8,0.9-5.6,1.6c-2.6,1-5,2.5-7.2,4.2c-1.2,0.9-2.2,2-3.3,3c-0.2,0.2-0.4,0.3-0.6,0.4
			c-0.3,0-0.7,0.1-0.8-0.1c-0.1-0.2-0.2-0.6,0-0.8c0.7-1,1.3-2,2.1-3c1.4-1.8,3.4-2.9,5.3-4c0.7-0.4,1.4-0.7,2.1-1.1
			c2.1-0.9,4.2-1.7,6.4-2.3c1.8-0.5,3.7-0.7,5.5-1.1c2.8-0.7,5.6-0.5,8.4-0.9c1.1-0.2,2.2-0.2,3.2-0.3
			C159.3,138.6,159.4,138.6,159.4,138.6z"/>
		<path class="st5" d="M191,131.7c0.1-1.7,0.7-3.4,1.6-4.9c1.1-1.7,2.1-3.4,3.3-5c1.4-1.9,3.1-3.5,5.1-4.7c1-0.6,2.2-0.8,3.3-1.1
			c0.3-0.1,0.8,0.2,0.9,0.4c0.2,0.5,0.1,1-0.5,1.3c-0.9,0.5-1.9,1-2.7,1.7c-1.2,1.1-2.3,2.3-3.3,3.6c-1.8,2.2-2.8,4.9-4.1,7.3
			c-0.5,0.9-1.2,1.7-1.8,2.5c-0.3,0.5-0.9,0.7-1.3,0.5c-0.3-0.1-0.4-0.7-0.6-1.1C191,132.2,191,131.9,191,131.7z"/>
		<path class="st5" d="M93,191.9c0.6,0.6,0.5,0.8,0,1.3c-1.8,1.9-4.2,2.8-6.6,3.6c-0.8,0.3-1.2,0.7-1.3,1.6
			c-0.2,1.8-0.5,3.5-0.8,5.2c-0.3,2.4-1.2,4.6-2.3,6.7c-0.5,1.1-1.3,2-2,2.9c-0.2,0.2-0.7,0.3-1,0.3c-0.4,0-0.3-0.4-0.2-0.7
			c0.6-1.3,1.2-2.5,1.7-3.8c0.4-1.2,0.7-2.4,1-3.6c0.8-2.9,0.9-5.8,0.5-8.7c-0.2-1.6,0.4-2.2,2.1-2.4c1.6-0.1,3.1-0.2,4.7-0.5
			c1.1-0.2,2.2-0.6,3.1-1.3C92.2,192.3,92.6,192.2,93,191.9z"/>
		<path class="st5" d="M258.7,90.9c-1.7,0-2.9,0.7-3.2,1.9c-0.1,0.2-0.1,0.4-0.1,0.6c0.1,0.8,0.3,0.8,1,0.5c0.9-0.5,1.9-0.7,2.9-0.3
			c0.4,0.2,0.6,0.6,0.3,1c-0.2,0.3-0.5,0.6-0.7,0.8c-0.4,0.4-0.8,0.7-1.1,1.2c-0.1,0.1-0.1,0.5,0,0.7c0.2,0.3,0.5,0.7,0.9,0.8
			c1.7,0.7,3.4,1.3,5.1,2c0.7,0.3,1.4,0.7,2,1.2c0.8,0.7,0.5,1.7-0.5,1.9c-0.9,0.2-1.8,0.3-2.7,0.2c-2.5-0.2-4.6-1.4-6.6-2.8
			c-1.3-0.9-2.3-2-3-3.4c-0.5-1-0.7-2.2-0.7-3.3c0-1.9,0.9-3.4,2.4-4.7C256,88,258,88,259.4,89c0.1,0.1,0.2,0.1,0.2,0.2
			c0.2,0.4,0.5,0.8,0.4,1.2c-0.1,0.5-0.6,0.4-1,0.4C258.8,90.9,258.7,90.9,258.7,90.9z"/>
		<path class="st5" d="M288.7,94.4c2.3,0.2,4.1,0.8,6,1.5c1.4,0.6,2.9,1,4.4,1.5c0.6,0.2,1.2,0.4,1.8,0.6c1,0.4,1.4,1.2,1.2,2.3
			c-0.1,0.8-0.9,1.3-1.8,1.5c-1.5,0.3-2.7-0.2-3.9-0.9c-1.3-0.7-2.6-1.5-3.9-2.2c-1.5-0.8-3.1-1.5-4.9-1.4c-1.1,0-2.2,0-3.3,0.1
			c-0.5,0-1.2,0-1.3-0.6c-0.1-0.3,0.4-0.9,0.8-1.1c0.8-0.4,1.6-0.7,2.4-0.9C287,94.7,288,94.6,288.7,94.4z"/>
	</g>
</g>
</svg>
