<?xml version="1.0" encoding="utf-8"?>
<!-- Generator: Adobe Illustrator 21.1.0, SVG Export Plug-In . SVG Version: 6.00 Build 0)  -->
<svg version="1.1" id="Layer_1" xmlns="http://www.w3.org/2000/svg" xmlns:xlink="http://www.w3.org/1999/xlink" x="0px" y="0px"
	 viewBox="0 0 310 100" style="enable-background:new 0 0 310 100;" xml:space="preserve">
<style type="text/css">
	.st0{fill:#18893F;}
</style>
<g>
	<polygon class="st0" points="10.8,78.4 86.8,78.4 61,39.1 52.7,51.9 44.2,65.4 35.9,78.3 35.9,65.4 44.2,65.4 44.2,51.9 52.7,51.9 
		52.4,38.7 61,39 48.7,20.5 	"/>
	<path class="st0" d="M105.2,58L105.2,58c1.5,0.5,3.1,0.8,4.6,0.8c2.1,0,4-0.3,6-0.9c1.9-0.6,3.7-1.5,5.2-2.7
		c1.5-1.1,2.7-2.5,3.7-3.9c1-1.5,1.7-2.8,2.1-3.9c0.5-1.7,0.9-3.9,0.9-6.6c0-2.6-0.5-5.2-1.7-8c-0.7-1.9-2.1-3.7-4-5.4
		c-1.9-1.7-4.2-2.9-6.8-3.7s-5.4-1.2-8.5-1.2c-2.1,0-3.7,0.2-4.6,0.7c-0.1,0.1-0.3,0.3-0.4,0.4c-0.1,0.5-0.2,0.9-0.2,1.4
		c0,0.3,0,0.6,0.1,0.9c0.1,2.3,0.1,4.2,0.1,5.6v6.8c0,10,0.2,15.6,0.5,16.7C102.5,56.1,103.5,57.1,105.2,58 M89.8,59.3
		c0.7-0.3,1.6-0.5,2.6-0.7c1.5-0.1,2.5-0.5,3.2-1.1c0.5-1.1,0.8-3.9,0.8-8.4v-4.8l0.1-2.9l-0.1-2.1l0.1-3.9l-0.1-9.8
		c0-1.1-0.1-1.9-0.5-2.2c-0.5-0.5-1.7-0.9-3.7-1.4c-0.9-0.2-1.3-0.3-1.5-0.5c-0.2-0.1-0.3-0.4-0.3-0.8c0.5-0.1,0.8-0.1,1-0.1h2.1
		h1.1c0.7,0,1.6,0.1,2.5,0.3c1.9,0.1,3.8,0.2,5.7,0.2c0.5,0,1.4,0,2.4-0.1c2.8-0.1,4.8-0.3,6-0.3c2.5,0,4.7,0.3,6.9,0.7
		c2.2,0.5,4.4,1.4,6.7,2.7c1.4,0.8,2.9,2.1,4.4,3.9c1.5,1.8,2.7,3.7,3.4,5.8c0.8,2.1,1.2,4.4,1.2,7.1c0,2.3-0.4,4.6-1.3,7
		c-0.9,2.3-2.1,4.3-3.6,6s-3.1,3-4.6,3.9c-1.6,0.9-4,1.6-7.2,2.2c-1.3,0.3-3.7,0.3-7.2,0.3c-2.3,0-4.1-0.1-5.6-0.1
		c-0.6-0.1-1.2-0.1-1.8-0.1c-0.1,0-0.2,0-0.3,0l-12.3,0.2l-0.1-0.3c-0.1-0.1-0.1-0.2-0.1-0.3L89.8,59.3z"/>
	<path class="st0" d="M138.4,59.3c0.2-0.2,0.4-0.3,0.5-0.3c0.3-0.1,0.9-0.2,1.8-0.3c2-0.1,3.3-0.3,3.7-0.5c0.3-0.4,0.4-0.9,0.4-1.7
		v-2.1v-7.6l-0.1-3.6v-7.5l-0.1-8.6c0-2.1-0.1-3.2-0.4-3.5c-0.3-0.4-1.5-0.6-3.3-0.7c-0.8,0-1.5-0.1-2-0.2c-0.3-0.1-0.4-0.3-0.4-0.5
		c0-0.1,0.1-0.3,0.1-0.6c0.2-0.1,0.3-0.1,0.5-0.1c0.3,0,0.6,0,1,0c1.2,0.1,2.4,0.1,3.7,0.1l2.3-0.1l5.3,0.2c2.7,0,4.7-0.1,6.2-0.1
		c1.5-0.1,2.5-0.1,3-0.1s1.6,0,3.5,0.1l4.2-0.1l0.5,0.1l2.5-0.1l0.3,0.1c0.1,0.1,0.2,0.3,0.2,0.5c0,0.3-0.1,0.7-0.1,1.3
		c-0.1,0.6-0.1,0.9-0.1,1.1c0,2.1,0.1,3.9,0.2,5.4c0,0.1-0.1,0.2-0.2,0.3c-0.2,0-0.4,0-0.5-0.1c-0.2-0.4-0.5-1.1-0.9-2
		c-0.4-1-0.9-2.1-1.7-3.3c-0.5-0.9-0.9-1.3-1.2-1.5c-0.3-0.1-0.9-0.3-1.8-0.3c-0.2,0-1.1,0-2.7-0.1c-0.5,0-0.9,0-1.3,0l-8.6,0.2H152
		c-1.1,0-1.8,0.1-2,0.4c-0.3,0.5-0.5,1.9-0.5,4.2c0,0.3,0.1,2.7,0.1,7.2v4.2c0.2,0.1,0.5,0.1,0.7,0.1h0.5c0.3,0,0.9,0,1.5,0.1
		c1.1,0.1,1.7,0.1,2.1,0.1c0.3,0,0.5,0,0.7-0.1c2.2-0.1,5-0.1,8.4-0.1c1.1-0.2,1.7-0.4,1.9-0.7c0.3-0.3,0.5-1.3,0.7-2.9
		c0.1-1.5,0.5-2.4,1-2.6c0.3,0,0.5,0.1,0.7,0.1c0.1,0.1,0.1,0.3,0.1,0.5c0,0.1,0,0.4-0.1,0.7c-0.1,0.7-0.1,3.1-0.1,7
		c0,1.1,0.1,2.2,0.2,3.5c0.1,1.3,0.1,2,0.1,2.1c0,0.2,0,0.4-0.1,0.7c-0.2,0.1-0.3,0.1-0.4,0.1h-0.2c-0.3-0.5-0.7-1.4-0.9-2.6
		c-0.5-2-1.1-3.3-1.7-3.8c-0.6-0.5-1.5-0.8-2.8-0.8c-0.3,0-0.8,0-1.5,0.1c-0.7,0-1.9,0.1-3.3,0.1h-2c-2.8,0-4.6,0.1-5.5,0.2v1v5.5
		V51v3.4c0,2.1,0.1,3.3,0.4,3.6c0.3,0.5,1.1,0.7,2.3,0.7h1.9c0.1,0,0.8,0,1.9,0.1c1.1,0,2.5,0.1,4.1,0.1c3.9,0,6.5-0.2,7.8-0.5
		c1.3-0.3,2.4-0.9,3.2-1.8c0.9-0.9,1.9-2.7,3.2-5.4c0.4-0.8,0.8-1.3,1.1-1.3c0.2,0,0.4,0.1,0.6,0.3c-0.6,2-0.9,3.3-1,3.9
		c-0.2,1.4-0.3,2.9-0.4,4.3c0,0.7-0.1,1.2-0.5,1.7h-0.7L165,60l-3.8-0.1l-9.1,0.1h-3.7c-0.5,0-0.9,0-1.3,0c-3.7,0.1-6.3,0.1-8,0.1
		c-0.3,0-0.5-0.1-0.6-0.1c-0.1-0.1-0.2-0.3-0.2-0.5L138.4,59.3z"/>
	<path class="st0" d="M201.5,22.6c0.1,1.3,0.3,2.1,0.3,2.3l-0.1,2.7c-0.1,1.1-0.1,1.9-0.1,2.2c-0.2,0.1-0.3,0.1-0.5,0.1l-0.3-0.1
		c-0.7-2.8-1.7-4.8-3.3-6.1c-1.5-1.3-3.5-1.9-5.6-1.9c-2.3,0-4.2,0.7-5.6,1.9c-1.5,1.3-2.2,2.8-2.2,4.5c0,1.3,0.5,2.5,1.5,3.6
		c1.1,1.1,3.7,2.7,7.9,4.9c3.3,1.7,5.5,3.1,6.9,4.1c1.4,1.1,2.5,2.3,3.1,3.7c0.7,1.4,1.1,2.9,1.1,4.6c0,2.1-0.5,4.2-1.7,6
		c-1.1,1.9-2.7,3.3-4.5,4.2c-1.9,0.9-4.4,1.4-7.5,1.4c-2.7,0-5.3-0.5-7.8-1.3c-1.5-0.5-2.4-0.9-2.7-1.3c-0.3-0.3-0.5-0.7-0.5-1
		c0-0.2,0-0.5,0.1-0.9c0.3-2.4,0.5-4.3,0.5-5.8c0.1-0.9,0.1-1.5,0.2-1.7c0.1-0.1,0.2-0.2,0.5-0.2c0.2,0,0.3,0.1,0.5,0.2
		c0.1,0.1,0.2,0.4,0.2,0.7c0.2,2.5,1.4,4.7,3.5,6.6c2.1,1.9,4.4,2.9,7,2.9c1.6,0,3.1-0.3,4.4-1s2.4-1.6,3.1-2.9s1.1-2.5,1.1-3.7
		c0-1.7-0.6-3.1-1.7-4.4c-1.1-1.3-3.5-2.9-6.9-4.7c-3.5-1.8-5.7-3.1-6.8-3.9c-1.7-1.3-3-2.8-3.9-4.2c-0.6-1.2-0.9-2.5-0.9-4
		c0-2.8,1.1-5.2,3.3-7.1c2.2-1.9,5.2-2.9,9-2.9c2.1,0,3.9,0.3,5.3,0.7C199.2,21.2,200.4,21.8,201.5,22.6"/>
	<path class="st0" d="M208.5,59.3c0.2-0.2,0.4-0.3,0.5-0.3c0.3-0.1,0.9-0.2,1.8-0.3c2-0.1,3.2-0.3,3.7-0.5c0.3-0.4,0.5-0.9,0.5-1.7
		v-2.1v-7.6l-0.1-3.6v-7.5l-0.2-8.6c0-2.1-0.1-3.2-0.4-3.5c-0.3-0.4-1.5-0.6-3.3-0.7c-0.8,0-1.5-0.1-2-0.2c-0.3-0.1-0.4-0.3-0.4-0.5
		c0-0.1,0.1-0.3,0.1-0.6c0.2-0.1,0.3-0.1,0.5-0.1c0.3,0,0.6,0,1,0c1.2,0.1,2.4,0.1,3.7,0.1l2.3-0.1l5.3,0.2c2.7,0,4.7-0.1,6.2-0.1
		c1.5-0.1,2.5-0.1,3-0.1c0.5,0,1.6,0,3.5,0.1l4.2-0.1l0.5,0.1l2.5-0.1l0.3,0.1c0.1,0.1,0.2,0.3,0.2,0.5c0,0.3-0.1,0.7-0.1,1.3
		c-0.1,0.6-0.1,0.9-0.1,1.1c0,2.1,0.1,3.9,0.2,5.4c0,0.1-0.1,0.2-0.2,0.3c-0.2,0-0.4,0-0.5-0.1c-0.2-0.4-0.5-1.1-0.9-2
		c-0.4-1-0.9-2.1-1.7-3.3c-0.5-0.9-0.9-1.3-1.2-1.5c-0.3-0.1-0.9-0.3-1.8-0.3c-0.2,0-1.1,0-2.7-0.1c-0.5,0-0.9,0-1.3,0l-8.6,0.2
		h-0.7c-1.1,0-1.8,0.1-2,0.4c-0.3,0.5-0.5,1.9-0.5,4.2c0,0.3,0.1,2.7,0.1,7.2v4.2c0.2,0.1,0.5,0.1,0.7,0.1h0.5c0.3,0,0.9,0,1.5,0.1
		c1.1,0.1,1.7,0.1,2.1,0.1c0.3,0,0.5,0,0.7-0.1c2.2-0.1,5-0.1,8.4-0.1c1.1-0.2,1.7-0.4,1.9-0.7c0.3-0.3,0.5-1.3,0.7-2.9
		s0.5-2.4,1-2.6c0.3,0,0.5,0.1,0.7,0.1c0.1,0.1,0.1,0.3,0.1,0.5c0,0.1,0,0.4-0.1,0.7c-0.1,0.7-0.1,3.1-0.1,7c0,1.1,0.1,2.2,0.2,3.5
		c0.1,1.3,0.1,2,0.1,2.1c0,0.2-0.1,0.4-0.1,0.7c-0.2,0.1-0.3,0.1-0.4,0.1h-0.2c-0.3-0.5-0.7-1.4-0.9-2.6c-0.5-2-1.1-3.3-1.7-3.8
		c-0.6-0.5-1.5-0.8-2.8-0.8c-0.3,0-0.8,0-1.5,0.1c-0.7,0-1.9,0.1-3.3,0.1h-2c-2.8,0-4.6,0.1-5.5,0.2v1v5.5V51v3.4
		c0,2.1,0.1,3.3,0.4,3.6c0.3,0.5,1.1,0.7,2.3,0.7h1.9c0.1,0,0.8,0,1.9,0.1c1.1,0,2.5,0.1,4.1,0.1c3.9,0,6.5-0.2,7.8-0.5
		c1.3-0.3,2.4-0.9,3.2-1.8c0.9-0.9,1.9-2.7,3.2-5.4c0.4-0.8,0.8-1.3,1.1-1.3c0.2,0,0.4,0.1,0.6,0.3c-0.6,2-0.9,3.3-1,3.9
		c-0.2,1.4-0.3,2.9-0.4,4.3c0,0.7-0.1,1.2-0.5,1.7h-0.7l-8.5,0.1l-3.8-0.1l-9.1,0.1h-3.7c-0.5,0-0.9,0-1.3,0c-3.7,0.1-6.3,0.1-8,0.1
		c-0.3,0-0.5-0.1-0.6-0.1c-0.1-0.1-0.2-0.3-0.2-0.5L208.5,59.3z"/>
	<path class="st0" d="M248,59.3c0.6-0.4,1.7-0.7,3.4-0.9c1.3-0.1,2-0.2,2.3-0.3c0.1-0.1,0.3-0.3,0.3-0.5c0.3-0.7,0.5-2.8,0.7-6.2
		c0.2-4.2,0.5-10,0.9-17c0.3-5.4,0.5-8.8,0.5-10.1v-0.8c-1.5-0.3-3.7-0.5-6.8-0.8c-0.2-0.3-0.3-0.5-0.3-0.7c0-0.1,0.1-0.3,0.2-0.5
		c0.3-0.1,0.6-0.2,0.8-0.2c0.1,0,0.5,0,1.1,0.1c1,0.1,2.3,0.1,4,0.1c0.5,0,1.5-0.1,2.9-0.1c0.9-0.1,1.5-0.1,1.6-0.1
		c0.3,0,0.7,0.1,1.1,0.1c0.1,0.2,0.3,0.3,0.3,0.5l1.3,2.9l8.5,18.9l3.7,7.8c2.8-5.5,5-10.4,6.5-14.6c0.1-0.3,0.2-0.6,0.3-0.9
		c0.2-0.3,0.3-0.7,0.5-1.1c0.1-0.4,0.8-2,2-4.8c0.5-1.1,0.9-2.1,1.1-2.9c1.1-3.2,1.8-5,2-5.4c0.4-0.3,0.7-0.3,1-0.3
		c0.3,0,0.7,0.1,1.3,0.1c1.1,0.1,2.9,0.2,5.5,0.2c1.6,0,2.9,0,3.9-0.1c0.1,0.3,0.1,0.5,0.1,0.5c0,0.2,0,0.4-0.1,0.7
		c-0.7,0.3-1.4,0.5-2.3,0.5c-1.8,0.1-2.9,0.3-3.4,0.4c-0.5,0.2-0.8,0.4-0.9,0.7s-0.3,1.2-0.3,2.7v1.4v1.5c0,3,0.1,8,0.3,15V51v3.8
		c0,1.5,0.1,2.3,0.2,2.6s0.5,0.5,1.2,0.7c1.1,0.3,2.9,0.7,5.3,1.1c0.1,0.1,0.2,0.3,0.2,0.4c0,0.2,0,0.4,0,0.6h-1.4
		c-1.2,0-2.5-0.1-3.9-0.1c-1.4-0.1-2.1-0.1-2.2-0.1c-4.1,0-6.8,0.1-8.2,0.1c-0.8,0.1-1.3,0.1-1.6,0.1c-0.1,0-0.3-0.1-0.5-0.1v-0.5
		c0-0.2,0-0.4,0.1-0.7c0.7-0.3,1.6-0.5,2.7-0.6c1.3-0.3,2.2-0.7,2.8-1.1c0.2-0.7,0.3-2.3,0.3-4.6l-0.1-6c0-0.7,0-1.9,0.1-3.7
		c0.1-1.8,0.1-4.7,0.1-8.8c0-3.2-0.1-5.6-0.2-7.3c-0.3,0.7-1,2.3-2.1,4.6l-0.5,1.1l-0.1,0.2l-4.5,10.6l-1.6,4l-2.3,5
		c-0.9,2.3-1.7,4.2-2.3,6c-0.3,0.8-0.5,1.5-0.7,1.9l-0.4-0.1c-2.3-6.6-5-13.4-8.2-20.3c-3.2-7-5.4-11.6-6.7-13.7
		c-0.2,0.9-0.3,3.4-0.6,7.5c-0.3,5-0.4,10.6-0.4,16.7c0,1.9,0.1,4,0.4,6.4c0.1,0.7,0.4,1.2,0.9,1.5c0.5,0.3,1.8,0.5,3.9,0.5
		c0.8,0,1.6,0.1,2.3,0.2c0.1,0.3,0.2,0.5,0.2,0.7s-0.1,0.3-0.1,0.5l-9.4-0.2c-0.7,0-1.7,0.1-3.2,0.1c-0.8,0.1-1.9,0.1-3.5,0.1
		L248,59.3z"/>
	<path class="st0" d="M89.9,77.5c0.1-0.1,0.2-0.1,0.3-0.1c0.3,0,0.5,0.1,0.8,0.4c0.1,0.1,0.1,0.1,0.1,0.1l0.1,0.1
		c0.1,0.1,0.3,0.1,0.4,0.1c0.2,0,0.4-0.1,0.6-0.2c0.2-0.1,0.3-0.3,0.5-0.5c0.1-0.3,0.3-0.7,0.3-1.1c0.1-0.4,0.1-0.9,0.1-1.5v-1.2
		v-0.8c0-0.5,0-1.4-0.1-2.5L93,67.4v-1.5c0-0.1,0-0.3-0.1-0.3c0-0.1-0.1-0.1-0.1-0.1c-0.1-0.1-0.2-0.1-0.3-0.1l-0.5-0.1
		c-0.2,0-0.3,0-0.3-0.1c0-0.1-0.1-0.1-0.1-0.2V65c0.1,0,0.3,0,0.4,0c0.3,0,0.6,0,0.9,0c0.1,0,0.3,0,0.6,0c0.2,0,0.3-0.1,0.4-0.1H95
		c0.1,0,0.3,0,0.5,0c0,0.1,0,0.2,0,0.3c-0.5,0-0.7,0.1-0.8,0.1c-0.1,0.1-0.2,0.1-0.3,0.2c0,0.1-0.1,0.1-0.1,0.3l-0.1,0.8v0.2
		c0,0.1,0,0.3,0,0.5v0.3c0,0.2,0,0.3,0,0.5c0,0.2,0,0.3,0,0.3c0,0.1,0,0.2,0,0.3c0,0.1,0,0.1,0,0.1l0.1,2.1v1.4v0.9
		c0,0.5-0.1,1.2-0.3,2.1c-0.1,0.7-0.4,1.3-0.8,1.8c-0.4,0.5-0.7,0.9-1.1,1.1c-0.4,0.2-0.9,0.3-1.5,0.3c-0.3,0-0.6-0.1-0.8-0.2
		c-0.1-0.1-0.2-0.3-0.2-0.4C89.6,77.7,89.7,77.6,89.9,77.5"/>
	<path class="st0" d="M101.5,64L101.5,64l0.9-1.3c0.3-0.4,0.5-0.7,0.8-0.9c0.1-0.1,0.3-0.1,0.4-0.1c0.1,0,0.3,0.1,0.3,0.1
		c0.1,0.1,0.1,0.1,0.1,0.3c0,0.1-0.1,0.2-0.1,0.3c-0.1,0.1-0.3,0.3-0.5,0.4l-1.8,1.2H101.5L101.5,64z M102.1,74.5L102.1,74.5
		c0.4,0,0.9-0.1,1.3-0.2c0.5-0.1,0.9-0.3,1.2-0.6s0.7-0.6,0.8-0.9c0.2-0.3,0.4-0.8,0.5-1.3c0.1-0.5,0.2-1.1,0.2-1.7
		c0-0.7-0.1-1.4-0.3-2.1c-0.1-0.5-0.4-1-0.8-1.4c-0.3-0.4-0.8-0.7-1.3-0.9c-0.5-0.2-1.1-0.3-1.6-0.3c-0.5,0-0.9,0.1-1.3,0.2
		c-0.5,0.1-0.8,0.3-1.1,0.6c-0.3,0.3-0.5,0.6-0.8,1c-0.3,0.5-0.4,0.9-0.5,1.5c-0.1,0.5-0.2,1-0.2,1.4c0,0.4,0.1,0.9,0.2,1.5
		c0.1,0.5,0.3,1,0.5,1.4c0.2,0.4,0.5,0.7,0.8,1.1s0.7,0.5,1.1,0.7C101.3,74.5,101.7,74.5,102.1,74.5z M96.9,69.8
		c0-0.5,0.1-1,0.2-1.4c0.1-0.4,0.3-0.9,0.6-1.3c0.3-0.5,0.7-0.9,1.1-1.2s1-0.6,1.7-0.9c0.5-0.2,1.2-0.3,2-0.3c0.5,0,1.1,0.1,1.6,0.2
		c0.5,0.1,1,0.3,1.4,0.6s0.9,0.7,1.3,1.2c0.3,0.4,0.5,0.7,0.7,1.2c0.2,0.5,0.3,1.1,0.3,1.7c0,0.7-0.1,1.2-0.2,1.7
		c-0.1,0.5-0.3,0.9-0.7,1.3c-0.3,0.3-0.7,0.7-1.2,1.1c-0.4,0.3-0.9,0.5-1.5,0.7c-0.6,0.2-1.2,0.3-1.9,0.3s-1.3-0.1-1.8-0.3
		c-0.5-0.1-1-0.3-1.3-0.6c-0.3-0.2-0.7-0.5-1.1-1c-0.4-0.5-0.7-0.9-0.9-1.5C96.9,71,96.9,70.4,96.9,69.8z"/>
	<path class="st0" d="M108.2,65l0.1-0.1c0.4,0,0.8,0,1.3,0h0.3c0.1,0,0.1,0,0.3,0c0.3,0,0.9,0,1.8,0c0.2,0,0.3,0,0.5,0
		c0.1,0,0.3,0,0.5,0l0.1,0.1v0.1c0,0.1-0.1,0.1-0.2,0.1h-0.1c-0.1,0-0.4,0-0.7,0s-0.5,0.1-0.7,0.1c-0.1,0.1-0.1,0.1-0.1,0.2
		c0,0.2,0.1,0.5,0.3,0.9l1.1,2.7l0.4,0.9c0.4,0.9,0.8,1.9,1.1,2.9c0.1,0.1,0.1,0.2,0.1,0.3l0.5-1.3c0.3-0.6,0.5-1.3,0.8-2l0.5-1.4
		c0,0,0.1-0.1,0.1-0.3c0.5-1.3,0.7-2.2,0.7-2.5c0-0.1,0-0.1-0.1-0.2c-0.1-0.1-0.2-0.1-0.3-0.2c-0.1,0-0.3-0.1-0.6-0.1l-0.5-0.1
		c-0.1-0.1-0.1-0.1-0.1-0.1v-0.1h2.5h0.8c0.3,0,0.5,0,0.5,0.1v0.1c0,0.1,0,0.1-0.1,0.1c-0.1,0.1-0.2,0.1-0.3,0.1
		c-0.4,0.1-0.7,0.1-0.8,0.2c-0.1,0.1-0.2,0.2-0.3,0.5l-2,4.9c-0.6,1.5-1.1,2.7-1.3,3.5l-0.2,0.7c-0.1,0.1-0.1,0.1-0.2,0.1
		s-0.1,0-0.2,0c-0.6-1.5-1.1-2.7-1.5-3.6l-2.3-5.2c-0.2-0.3-0.3-0.5-0.4-0.6c-0.1-0.1-0.4-0.1-0.9-0.3
		C108.4,65.1,108.3,65.1,108.2,65C108.2,65.1,108.2,65.1,108.2,65"/>
	<path class="st0" d="M119.3,74.5c0.1-0.1,0.1-0.1,0.1-0.1c0.1,0,0.3-0.1,0.5-0.1c0.5,0,0.8-0.1,0.9-0.1c0.1-0.1,0.1-0.3,0.1-0.4
		v-0.5v-1.9v-0.9v-1.9l-0.1-2.2c0-0.5-0.1-0.8-0.1-0.9c-0.1-0.1-0.3-0.1-0.8-0.1c-0.2,0-0.3,0-0.5-0.1c-0.1-0.1-0.1-0.1-0.1-0.1
		c0-0.1,0-0.1,0.1-0.1c0.1,0,0.1-0.1,0.1-0.1c0.1,0,0.1,0,0.3,0c0.3,0,0.6,0,0.9,0h0.6l1.3,0.1c0.7,0,1.2,0,1.5,0c0.4,0,0.6,0,0.7,0
		c0.1,0,0.4,0,0.9,0h1.1h0.1h0.6l0.1,0.1c0,0.1,0.1,0.1,0.1,0.1c0,0.1,0,0.2-0.1,0.3c0,0.1-0.1,0.3-0.1,0.3c0,0.5,0,1,0.1,1.4
		c0,0,0,0.1-0.1,0.1s-0.1,0-0.1,0c-0.1-0.1-0.1-0.3-0.2-0.5c-0.1-0.3-0.3-0.5-0.4-0.9c-0.1-0.2-0.2-0.3-0.3-0.4
		c-0.1-0.1-0.2-0.1-0.5-0.1c-0.1,0-0.3,0-0.7,0c-0.1,0-0.2,0-0.3,0l-2.2,0.1h-0.2c-0.3,0-0.5,0.1-0.5,0.1c-0.1,0.1-0.1,0.5-0.1,1.1
		c0,0.1,0,0.7,0.1,1.8v1.1c0.1,0,0.1,0,0.2,0h0.1c0.1,0,0.2,0,0.4,0c0.3,0,0.5,0,0.5,0s0.1,0,0.1,0c0.5,0,1.3,0,2.1,0
		c0.3-0.1,0.4-0.1,0.5-0.1c0.1-0.1,0.1-0.3,0.2-0.7s0.1-0.6,0.3-0.7c0.1,0,0.1,0,0.2,0.1c0,0.1,0,0.1,0,0.1s0,0.1,0,0.2
		c0,0.2,0,0.8,0,1.7c0,0.3,0,0.5,0.1,0.9c0,0.3,0.1,0.5,0.1,0.5c0,0.1,0,0.1,0,0.2c-0.1,0-0.1,0-0.1,0h-0.3
		c-0.1-0.1-0.1-0.3-0.3-0.7c-0.1-0.5-0.3-0.8-0.4-0.9c-0.1-0.1-0.4-0.2-0.7-0.2c-0.1,0-0.2,0-0.4,0c-0.2,0-0.5,0-0.9,0h-0.5
		c-0.7,0-1.2,0-1.4,0.1v0.3v1.4v0.9v0.9c0,0.5,0.1,0.8,0.1,0.9c0.1,0.1,0.3,0.2,0.6,0.2h0.5c0.1,0,0.2,0,0.5,0s0.6,0,1,0
		c1,0,1.7-0.1,2-0.1c0.3-0.1,0.6-0.2,0.8-0.5c0.2-0.2,0.5-0.7,0.8-1.4c0.1-0.2,0.2-0.3,0.3-0.3c0.1,0,0.1,0,0.1,0.1
		c-0.1,0.5-0.3,0.9-0.3,1c-0.1,0.3-0.1,0.7-0.1,1.1c0,0.2-0.1,0.3-0.1,0.4h-0.1h-2.1h-0.9h-2.3h-0.9c-0.1,0-0.2,0-0.3,0
		c-0.9,0-1.6,0-2,0c-0.1,0-0.1,0-0.1-0.1C119.3,74.6,119.2,74.5,119.3,74.5L119.3,74.5z"/>
	<path class="st0" d="M129.3,65.4V65c0.8,0,1.3,0,1.7-0.1c0.1,0,0.3,0,0.3,0c0.1,0,0.1,0,0.2,0c0.2,0.2,0.4,0.4,0.6,0.6
		c0.1,0.1,0.1,0.1,0.1,0.1l1.6,1.8l0.2,0.3c0.3,0.4,0.6,0.7,0.9,1s0.8,0.8,1.5,1.7l1.8,2c0.2,0.2,0.4,0.5,0.7,0.7v-0.1
		c0-0.7-0.1-1.1-0.1-1.1v-0.5v-0.7v-0.3c0-0.2,0-0.9-0.1-1.9c0-0.1,0-0.4-0.1-0.9c-0.1-0.4-0.1-0.8-0.1-1.1c0-0.5,0-0.9-0.1-1
		c-0.1-0.1-0.3-0.1-0.7-0.2c-0.1,0-0.2,0-0.4-0.1c-0.2,0-0.3,0-0.4-0.1c-0.1,0-0.1-0.1-0.1-0.1c0-0.1,0.1-0.1,0.1-0.3
		c0.1-0.1,0.3-0.1,0.4-0.1c0.1,0,0.3,0,0.5,0.1c0.2,0.1,0.4,0.1,0.6,0.1c0.3,0,0.6,0,1.1-0.1c0.3,0,0.5,0,0.6,0h0.1V65
		c-0.1,0.1-0.2,0.1-0.3,0.1c-0.1,0-0.3,0-0.4,0.1c-0.2,0.1-0.3,0.1-0.3,0.1c-0.1,0.1-0.2,0.3-0.2,0.4l0.1,2.4l0.1,1.1v0.3l0.1,1.5
		c0,1.1,0.1,1.9,0.1,2.7c0,0.2,0,0.5,0,1.1h-0.4c-0.2-0.2-0.8-0.9-1.9-1.9c-0.3-0.3-0.4-0.4-0.5-0.5l-0.7-0.7
		c-0.3-0.3-0.4-0.5-0.5-0.5c-0.1-0.1-0.1-0.1-0.2-0.2c-0.5-0.6-1.3-1.4-2.1-2.4c-0.3-0.3-0.6-0.7-1.1-1.2c-0.3-0.3-0.5-0.5-0.5-0.6
		s-0.2-0.1-0.3-0.3v0.3c0,1,0,2.3,0.1,4.1l0.1,2.5c0,0.2,0,0.4,0.1,0.6l0.3,0.1c0.5,0.1,0.9,0.1,1.5,0.2l0.1,0.1v0.3
		c-0.1,0-0.1,0.1-0.2,0.1s-0.1,0-0.2,0c-0.5,0-1.1-0.1-1.8-0.1c-0.5,0-0.9,0-1.3,0.1h-0.1c-0.1,0-0.1,0-0.2,0v-0.2l0.2-0.1l0.3-0.1
		c0.3-0.1,0.5-0.1,0.7-0.1c0.1-0.1,0.2-0.1,0.3-0.1c0.1-0.3,0.1-0.9,0.1-1.5c0-0.3,0-0.9,0-1.7v-1.1v-2.2c0-0.9-0.1-1.5-0.1-1.7
		c0-0.1-0.1-0.2-0.2-0.3c-0.2-0.1-0.5-0.2-0.7-0.3C129.6,65.4,129.4,65.4,129.3,65.4"/>
	<path class="st0" d="M141.4,74.5c0.1-0.1,0.1-0.1,0.1-0.1c0.1,0,0.3-0.1,0.5-0.1c0.5,0,0.8-0.1,0.9-0.1c0.1-0.1,0.1-0.3,0.1-0.4
		v-0.5v-1.9v-0.9v-1.9l-0.1-2.2c0-0.5-0.1-0.8-0.1-0.9s-0.3-0.1-0.8-0.1c-0.2,0-0.3,0-0.5-0.1c-0.1-0.1-0.1-0.1-0.1-0.1
		c0-0.1,0-0.1,0.1-0.1c0.1,0,0.1-0.1,0.1-0.1c0.1,0,0.1,0,0.3,0c0.3,0,0.6,0,0.9,0h0.5l1.3,0.1c0.7,0,1.2,0,1.6,0s0.6,0,0.8,0
		c0.1,0,0.4,0,0.9,0h1.1h0.1h0.6l0.1,0.1c0,0.1,0.1,0.1,0.1,0.1c0,0.1,0,0.2-0.1,0.3c0,0.1-0.1,0.3-0.1,0.3c0,0.5,0,1,0.1,1.4
		c0,0,0,0.1-0.1,0.1s-0.1,0-0.1,0c-0.1-0.1-0.1-0.3-0.2-0.5c-0.1-0.3-0.3-0.5-0.4-0.9c-0.1-0.2-0.2-0.3-0.3-0.4
		c-0.1-0.1-0.2-0.1-0.5-0.1c-0.1,0-0.3,0-0.7,0c-0.1,0-0.2,0-0.3,0l-2.2,0.1h-0.2c-0.3,0-0.5,0.1-0.5,0.1c-0.1,0.1-0.1,0.5-0.1,1.1
		c0,0.1,0,0.7,0.1,1.8v1.1c0.1,0,0.1,0,0.2,0h0.1c0.1,0,0.2,0,0.4,0c0.3,0,0.5,0,0.5,0s0.1,0,0.1,0c0.5,0,1.3,0,2.1,0
		c0.3-0.1,0.4-0.1,0.5-0.1c0.1-0.1,0.1-0.3,0.2-0.7s0.1-0.6,0.3-0.7c0.1,0,0.1,0,0.2,0.1c0,0.1,0,0.1,0,0.1s0,0.1,0,0.2
		c0,0.2,0,0.8,0,1.7c0,0.3,0,0.5,0.1,0.9c0,0.3,0.1,0.5,0.1,0.5c0,0.1,0,0.1,0,0.2c-0.1,0-0.1,0-0.1,0h-0.1
		c-0.1-0.1-0.1-0.3-0.3-0.7c-0.1-0.5-0.3-0.8-0.4-0.9c-0.1-0.1-0.4-0.2-0.7-0.2c-0.1,0-0.2,0-0.4,0s-0.5,0-0.9,0h-0.5
		c-0.7,0-1.2,0-1.4,0.1v0.3v1.4v0.9v0.9c0,0.5,0.1,0.8,0.1,0.9c0.1,0.1,0.3,0.2,0.6,0.2h0.5c0.1,0,0.2,0,0.5,0c0.3,0,0.6,0,1,0
		c1,0,1.7-0.1,2-0.1c0.3-0.1,0.6-0.2,0.8-0.5c0.2-0.2,0.5-0.7,0.8-1.4c0.1-0.2,0.2-0.3,0.3-0.3c0.1,0,0.1,0,0.1,0.1
		c-0.1,0.5-0.3,0.9-0.3,1c-0.1,0.3-0.1,0.7-0.1,1.1c0,0.2-0.1,0.3-0.1,0.4h-0.2h-2.1h-0.9h-2.3h-0.9c-0.1,0-0.2,0-0.3,0
		c-0.9,0-1.6,0-2,0c-0.1,0-0.1,0-0.1-0.1C141.5,74.6,141.4,74.5,141.4,74.5L141.4,74.5z"/>
	<path class="st0" d="M157.4,65.3c0.1,0.3,0.1,0.5,0.1,0.6v0.7c0,0.3,0,0.5-0.1,0.5c-0.1,0-0.1,0-0.1,0h-0.1
		c-0.1-0.7-0.5-1.3-0.8-1.5c-0.4-0.3-0.9-0.5-1.4-0.5c-0.6,0-1.1,0.1-1.4,0.5c-0.4,0.3-0.5,0.7-0.5,1.1c0,0.3,0.1,0.6,0.4,0.9
		c0.3,0.3,0.9,0.7,2,1.3c0.8,0.4,1.4,0.7,1.7,1c0.3,0.3,0.6,0.6,0.8,0.9s0.3,0.7,0.3,1.2c0,0.5-0.1,1.1-0.4,1.5
		c-0.3,0.5-0.7,0.9-1.1,1.1c-0.5,0.3-1.1,0.3-1.9,0.3c-0.7,0-1.3-0.1-2-0.3c-0.4-0.1-0.6-0.3-0.7-0.3S152,74.1,152,74
		c0-0.1,0-0.1,0-0.2c0.1-0.6,0.1-1.1,0.1-1.5c0-0.3,0-0.4,0.1-0.4c0-0.1,0.1-0.1,0.1-0.1c0.1,0,0.1,0,0.1,0.1c0,0,0.1,0.1,0.1,0.2
		c0.1,0.6,0.3,1.2,0.9,1.7c0.5,0.5,1.1,0.7,1.7,0.7c0.4,0,0.8-0.1,1.1-0.3c0.3-0.2,0.6-0.4,0.8-0.7s0.3-0.6,0.3-0.9
		c0-0.4-0.1-0.8-0.5-1.1c-0.3-0.3-0.9-0.7-1.7-1.2c-0.9-0.5-1.5-0.8-1.7-1c-0.4-0.3-0.7-0.7-1-1.1c-0.1-0.3-0.3-0.7-0.3-1
		c0-0.7,0.3-1.3,0.9-1.8c0.5-0.5,1.3-0.7,2.3-0.7c0.5,0,1,0.1,1.3,0.2C156.8,64.9,157,65.1,157.4,65.3"/>
	<path class="st0" d="M163,74.5c0.1-0.1,0.1-0.1,0.1-0.1s0.3-0.1,0.5-0.1c0.5,0,0.8-0.1,0.9-0.1c0.1-0.1,0.1-0.3,0.1-0.4v-0.5v-1.9
		v-0.9v-1.9l-0.1-2.2c0-0.5-0.1-0.8-0.1-0.9c-0.1-0.1-0.3-0.1-0.8-0.1c-0.2,0-0.3,0-0.5-0.1c-0.1-0.1-0.1-0.1-0.1-0.1
		c0-0.1,0-0.1,0-0.1c0.1,0,0.1-0.1,0.1-0.1s0.1,0,0.3,0c0.3,0,0.6,0,0.9,0h0.5l1.3,0.1c0.7,0,1.2,0,1.6,0s0.6,0,0.7,0
		c0.1,0,0.4,0,0.9,0h1.1h0.1h0.6l0.1,0.1c0,0.1,0.1,0.1,0.1,0.1c0,0.1,0,0.2-0.1,0.3c0,0.1-0.1,0.3-0.1,0.3c0,0.5,0,1,0.1,1.4
		c0,0,0,0.1-0.1,0.1s-0.1,0-0.1,0c-0.1-0.1-0.1-0.3-0.2-0.5c-0.1-0.3-0.3-0.5-0.4-0.9c-0.1-0.2-0.2-0.3-0.3-0.4
		c-0.1-0.1-0.2-0.1-0.5-0.1c-0.1,0-0.3,0-0.7,0c-0.1,0-0.2,0-0.3,0l-2.2,0.1h-0.2c-0.3,0-0.5,0.1-0.5,0.1c-0.1,0.1-0.1,0.5-0.1,1.1
		c0,0.1,0,0.7,0.1,1.8v1.1c0.1,0,0.1,0,0.2,0h0.1c0.1,0,0.2,0,0.4,0c0.3,0,0.5,0,0.5,0s0.1,0,0.1,0c0.5,0,1.3,0,2.1,0
		c0.3-0.1,0.4-0.1,0.5-0.1c0.1-0.1,0.1-0.3,0.2-0.7s0.1-0.6,0.3-0.7c0.1,0,0.1,0,0.2,0.1c0,0.1,0,0.1,0,0.1s0,0.1,0,0.2
		c0,0.2,0,0.8,0,1.7c0,0.3,0,0.5,0.1,0.9c0,0.3,0.1,0.5,0.1,0.5c0,0.1,0,0.1,0,0.2c-0.1,0-0.1,0-0.1,0h-0.1
		c-0.1-0.1-0.1-0.3-0.3-0.7c-0.1-0.5-0.3-0.8-0.4-0.9c-0.1-0.1-0.4-0.2-0.7-0.2c-0.1,0-0.2,0-0.4,0s-0.5,0-0.9,0h-0.5
		c-0.7,0-1.1,0-1.4,0.1v0.3v1.4v0.9v0.9c0,0.5,0.1,0.8,0.1,0.9c0.1,0.1,0.3,0.2,0.6,0.2h0.5c0.1,0,0.2,0,0.5,0c0.3,0,0.6,0,1,0
		c1,0,1.7-0.1,2-0.1c0.3-0.1,0.6-0.2,0.8-0.5c0.2-0.2,0.5-0.7,0.8-1.4c0.1-0.2,0.2-0.3,0.3-0.3c0.1,0,0.1,0,0.1,0.1
		c-0.1,0.5-0.3,0.9-0.3,1c-0.1,0.3-0.1,0.7-0.1,1.1c0,0.2-0.1,0.3-0.1,0.4h-0.2h-2.1h-0.9h-2.3h-0.9c-0.1,0-0.3,0-0.3,0
		c-0.9,0-1.6,0-2,0c-0.1,0-0.1,0-0.1-0.1c0,0-0.1-0.1-0.1-0.1L163,74.5z"/>
	<path class="st0" d="M173,74.5c0.1-0.1,0.5-0.2,0.9-0.2c0.3,0,0.5-0.1,0.6-0.1c0.1,0,0.1-0.1,0.1-0.1c0.1-0.2,0.1-0.7,0.2-1.5
		c0.1-1.1,0.1-2.5,0.2-4.3c0.1-1.4,0.1-2.2,0.1-2.5v-0.2c-0.3-0.1-0.9-0.1-1.7-0.2c-0.1-0.1-0.1-0.1-0.1-0.2c0,0,0-0.1,0.1-0.1
		c0.1,0,0.1-0.1,0.2-0.1s0.1,0,0.3,0c0.3,0,0.6,0.1,1.1,0.1c0.1,0,0.4,0,0.7,0c0.3,0,0.4,0,0.4,0c0.1,0,0.2,0,0.3,0.1
		s0.1,0.1,0.1,0.1l0.3,0.7l2.1,4.8l0.9,2c0.7-1.4,1.3-2.6,1.7-3.7c0-0.1,0.1-0.1,0.1-0.2c0.1-0.1,0.1-0.2,0.1-0.3
		c0.1-0.1,0.2-0.5,0.5-1.2c0.1-0.3,0.2-0.5,0.3-0.7c0.3-0.8,0.5-1.3,0.5-1.4c0.1-0.1,0.2-0.1,0.3-0.1s0.2,0,0.3,0
		c0.3,0,0.7,0.1,1.4,0.1c0.4,0,0.7,0,1,0c0,0.1,0,0.1,0,0.1c0,0.1,0,0.1,0,0.1c-0.1,0.1-0.3,0.1-0.6,0.1c-0.5,0-0.7,0.1-0.9,0.1
		c-0.1,0.1-0.2,0.1-0.3,0.2c0,0.1-0.1,0.3-0.1,0.7V67v0.3c0,0.7,0,2,0.1,3.8v1.5v0.9c0,0.4,0,0.6,0.1,0.7c0,0.1,0.1,0.1,0.3,0.2
		c0.3,0.1,0.7,0.2,1.3,0.3c0.1,0,0.1,0.1,0.1,0.1c0,0.1,0,0.1,0,0.1h-0.3c-0.3,0-0.6,0-1,0c-0.3,0-0.5,0-0.5,0c-1.1,0-1.7,0-2.1,0.1
		c-0.2,0-0.3,0-0.4,0s-0.1,0-0.1-0.1v-0.1c0-0.1,0-0.1,0-0.1c0.1-0.1,0.4-0.1,0.7-0.1c0.3-0.1,0.5-0.2,0.7-0.3
		c0.1-0.2,0.1-0.6,0.1-1.2v-1.5c0-0.1,0-0.5,0-0.9s0-1.2,0-2.2c0-0.8,0-1.4-0.1-1.9c-0.1,0.2-0.3,0.5-0.5,1.1l-0.1,0.3v0.1l-1.1,2.7
		l-0.4,1l-0.5,1.3c-0.3,0.6-0.4,1.1-0.6,1.5c-0.1,0.2-0.1,0.3-0.2,0.5h-0.1c-0.6-1.7-1.3-3.4-2.1-5.1s-1.3-2.9-1.7-3.5
		c-0.1,0.2-0.1,0.9-0.1,1.9c-0.1,1.3-0.1,2.7-0.1,4.2c0,0.5,0.1,1,0.1,1.6c0,0.2,0.1,0.3,0.2,0.4c0.1,0.1,0.5,0.1,1,0.1
		c0.2,0,0.4,0,0.6,0.1c0.1,0.1,0.1,0.1,0.1,0.2c0,0,0,0.1-0.1,0.1l-2.3-0.1c-0.2,0-0.5,0-0.8,0.1c-0.2,0-0.5,0-0.9,0L173,74.5z"/>
	<path class="st0" d="M186.2,64.9c0.1,0,0.1,0,0.2,0c0.2,0,0.5,0,0.9,0.1c0.2,0,0.3,0,0.4,0c0.1,0,0.3,0,0.7,0l1.3-0.1
		c0.3,0,0.7-0.1,1.2-0.1c0.8,0,1.5,0.1,1.9,0.3c0.5,0.2,0.9,0.6,1.1,1.1c0.3,0.5,0.4,0.9,0.4,1.5c0,0.8-0.3,1.5-0.9,2.1
		c-0.5,0.6-1.3,0.9-2.3,0.9c-0.3,0-0.5,0-0.7-0.1c-0.2-0.1-0.4-0.1-0.6-0.3c-0.1-0.1-0.1-0.1-0.2-0.2c0-0.1,0.1-0.1,0.1-0.1
		c0.1,0,0.1,0,0.2,0.1c0.2,0.1,0.4,0.1,0.7,0.1c0.4,0,0.8-0.1,1.1-0.3c0.3-0.2,0.6-0.5,0.8-0.9c0.2-0.4,0.3-0.7,0.3-1.1
		c0-0.4-0.1-0.8-0.3-1.1c-0.2-0.4-0.5-0.7-0.7-0.9c-0.2-0.1-0.5-0.3-0.8-0.3c-0.4-0.1-0.7-0.1-0.9-0.1c-0.6,0-1,0.1-1.1,0.1v0.1v0.9
		v0.1c0,0.1,0,0.3,0,0.7c0,1.1,0,1.7,0.1,1.9v0.4l0.1,3.5c0,0.1,0,0.1,0,0.3c0,0.1,0,0.3,0,0.3c0,0.3,0,0.4,0.1,0.5
		c0.1,0.1,0.5,0.1,1.1,0.3c0.3,0.1,0.4,0.1,0.5,0.1s0.1,0.1,0.1,0.1c0,0.1-0.1,0.1-0.1,0.1s-0.1,0-0.2,0c-0.1,0-0.2,0-0.4-0.1
		c-0.5-0.1-0.8-0.1-1.1-0.1l-1.3,0.1H187c-0.1,0-0.2,0-0.5,0v-0.2l1-0.2c0.1-0.1,0.3-0.1,0.3-0.1c0.1-0.1,0.1-0.2,0.1-0.4
		c0-0.1,0-0.1,0-0.3s0-0.3,0-0.5c0-0.6,0-1.9-0.1-3.9c0-0.9,0-1.9,0-2.8v-0.1c0-0.3-0.1-0.6-0.2-0.7c-0.2-0.1-0.7-0.3-1.4-0.4
		C186.3,65,186.2,65,186.2,64.9C186.2,65,186.2,65,186.2,64.9"/>
	<path class="st0" d="M197.9,69.5L197.9,69.5c0.1,0,0.3,0,0.3,0c0.3,0,0.8-0.1,1.3-0.1c0.3-0.1,0.6-0.2,0.8-0.3
		c0.2-0.1,0.4-0.4,0.5-0.7c0.1-0.3,0.2-0.6,0.2-0.9s-0.1-0.7-0.3-1.1c-0.1-0.3-0.5-0.5-0.9-0.7c-0.4-0.2-0.9-0.3-1.4-0.3
		c-0.1,0-0.3,0-0.5,0c0,0.3,0,0.5,0,0.6l0.1,1.4v0.6C197.8,68.4,197.9,68.8,197.9,69.5 M195.1,74.4c0.7-0.1,1.1-0.1,1.3-0.2
		c0.1,0,0.1-0.1,0.2-0.2v-0.1c0-0.1,0-0.6,0.1-1.4c0-0.2,0-0.5,0-0.7v-0.9v-1V68v-1.4c0-0.6-0.1-0.9-0.1-1.1
		c-0.1-0.1-0.3-0.2-0.7-0.3c-0.4-0.1-0.6-0.1-0.7-0.1c-0.1,0-0.1-0.1-0.1-0.1s0-0.1,0-0.1c0.1-0.1,0.2-0.1,0.3-0.1c0,0,0.1,0,0.2,0
		c0.1,0,0.2,0,0.3,0h0.6h2c1.1,0,1.9,0.1,2.4,0.3c0.5,0.2,0.8,0.5,1.1,0.9c0.3,0.4,0.4,0.9,0.4,1.3c0,0.9-0.5,1.7-1.5,2.1
		c-0.2,0.1-0.3,0.1-0.4,0.2c0.2,0.3,0.4,0.8,0.7,1.3l1,1.7c0.4,0.6,0.7,1,0.8,1.1c0.1,0.1,0.3,0.3,0.5,0.4c0.2,0.1,0.5,0.2,1.1,0.3
		c0,0.1,0,0.1,0,0.1s0,0.1,0,0.1c-0.7,0-1.5,0-2.5,0c-0.1,0-0.1,0-0.3,0c-0.4-0.7-0.8-1.5-1.3-2.3l-1.1-2.1
		c-0.1-0.2-0.3-0.3-0.4-0.4c-0.1-0.1-0.2-0.1-0.4-0.1H198h-0.2c0,0.1,0,0.5,0,1v2.7c0,0.1,0,0.3,0.1,0.4c0.1,0.1,0.1,0.2,0.2,0.3
		c0.1,0.1,0.4,0.1,0.9,0.3l0.3,0.1c0.1,0.1,0.1,0.1,0.1,0.2c-0.1,0-0.3,0.1-0.3,0.1c-0.5,0-0.8,0-0.9-0.1c-0.1,0-0.2,0-0.3,0h-1h-1
		c-0.1,0-0.3,0-0.7,0.1l-0.1-0.1v-0.1C194.9,74.5,195,74.5,195.1,74.4z"/>
	<path class="st0" d="M204.7,74.5c0.1-0.1,0.1-0.1,0.1-0.1s0.3-0.1,0.5-0.1c0.5,0,0.8-0.1,0.9-0.1c0.1-0.1,0.1-0.3,0.1-0.4v-0.5
		v-1.9v-0.9v-1.9l-0.1-2.2c0-0.5-0.1-0.8-0.1-0.9c-0.1-0.1-0.3-0.1-0.8-0.1c-0.2,0-0.3,0-0.5-0.1c-0.1-0.1-0.1-0.1-0.1-0.1
		c0-0.1,0-0.1,0.1-0.1c0.1,0,0.1-0.1,0.1-0.1s0.1,0,0.3,0c0.3,0,0.6,0,0.9,0h0.5l1.3,0.1c0.7,0,1.2,0,1.6,0c0.4,0,0.6,0,0.7,0
		s0.4,0,0.9,0h1.1h0.1h0.6l0.1,0.1c0,0.1,0.1,0.1,0.1,0.1c0,0.1,0,0.2-0.1,0.3c0,0.1-0.1,0.3-0.1,0.3c0,0.5,0,1,0.1,1.4
		c0,0,0,0.1-0.1,0.1s-0.1,0-0.1,0c-0.1-0.1-0.1-0.3-0.2-0.5c-0.1-0.3-0.3-0.5-0.4-0.9c-0.1-0.2-0.2-0.3-0.3-0.4
		c-0.1-0.1-0.2-0.1-0.5-0.1c-0.1,0-0.3,0-0.7,0c-0.1,0-0.2,0-0.3,0l-2.2,0.1h-0.2c-0.3,0-0.5,0.1-0.5,0.1c-0.1,0.1-0.1,0.5-0.1,1.1
		c0,0.1,0,0.7,0.1,1.8v1.1c0.1,0,0.1,0,0.2,0h0.1c0.1,0,0.2,0,0.4,0c0.3,0,0.5,0,0.5,0c0.1,0,0.1,0,0.1,0c0.5,0,1.3,0,2.1,0
		c0.3-0.1,0.4-0.1,0.5-0.1c0.1-0.1,0.1-0.3,0.2-0.7c0.1-0.4,0.1-0.6,0.3-0.7c0.1,0,0.1,0,0.2,0.1c0,0.1,0,0.1,0,0.1s0,0.1,0,0.2
		c0,0.2,0,0.8,0,1.7c0,0.3,0,0.5,0.1,0.9c0,0.3,0.1,0.5,0.1,0.5c0,0.1,0,0.1,0,0.2c-0.1,0-0.1,0-0.1,0h-0.1
		c-0.1-0.1-0.1-0.3-0.3-0.7c-0.1-0.5-0.3-0.8-0.4-0.9c-0.1-0.1-0.4-0.2-0.7-0.2c-0.1,0-0.2,0-0.4,0c-0.2,0-0.5,0-0.9,0H209
		c-0.7,0-1.1,0-1.4,0.1v0.3v1.4v0.9v0.9c0,0.5,0.1,0.8,0.1,0.9s0.3,0.2,0.5,0.2h0.5c0.1,0,0.2,0,0.5,0c0.3,0,0.6,0,1,0
		c1,0,1.7-0.1,2-0.1c0.3-0.1,0.6-0.2,0.8-0.5c0.2-0.2,0.5-0.7,0.8-1.4c0.1-0.2,0.2-0.3,0.3-0.3s0.1,0,0.1,0.1
		c-0.1,0.5-0.3,0.9-0.3,1c-0.1,0.3-0.1,0.7-0.1,1.1c0,0.2-0.1,0.3-0.1,0.4h-0.1h-2.1h-0.9h-2.3h-0.9c-0.1,0-0.2,0-0.3,0
		c-0.9,0-1.6,0-2,0c-0.1,0-0.1,0-0.1-0.1C204.8,74.6,204.8,74.5,204.7,74.5L204.7,74.5z"/>
	<path class="st0" d="M214.8,65.4V65c0.8,0,1.3,0,1.7-0.1c0.1,0,0.3,0,0.3,0c0.1,0,0.1,0,0.2,0c0.2,0.2,0.4,0.4,0.6,0.6
		c0.1,0.1,0.1,0.1,0.1,0.1l1.6,1.8l0.2,0.3c0.3,0.4,0.6,0.7,0.9,1c0.3,0.3,0.8,0.8,1.5,1.7l1.8,2c0.2,0.2,0.4,0.5,0.7,0.7v-0.1
		c-0.1-0.7-0.1-1.1-0.1-1.1v-0.5v-0.7v-0.3c0-0.2,0-0.9-0.1-1.9c0-0.1,0-0.4-0.1-0.9c-0.1-0.4-0.1-0.8-0.1-1.1c0-0.5-0.1-0.9-0.1-1
		c-0.1-0.1-0.3-0.1-0.7-0.2c-0.1,0-0.3,0-0.4-0.1c-0.2,0-0.3,0-0.4-0.1c-0.1,0-0.1-0.1-0.1-0.1c0-0.1,0.1-0.1,0.1-0.3
		c0.1-0.1,0.3-0.1,0.4-0.1s0.3,0,0.5,0.1s0.4,0.1,0.6,0.1s0.6,0,1.1-0.1c0.3,0,0.5,0,0.6,0h0.1V65c-0.1,0.1-0.2,0.1-0.3,0.1
		s-0.3,0-0.4,0.1c-0.2,0.1-0.3,0.1-0.3,0.1c-0.1,0.1-0.2,0.3-0.2,0.4l0.1,2.4l0.1,1.1v0.3l0.1,1.5c0,1.1,0.1,1.9,0.1,2.7
		c0,0.2,0,0.5,0,1.1h-0.4c-0.2-0.2-0.8-0.9-1.9-1.9c-0.3-0.3-0.4-0.4-0.5-0.5l-0.7-0.7c-0.3-0.3-0.4-0.5-0.5-0.5
		c-0.1-0.1-0.1-0.1-0.1-0.2c-0.5-0.6-1.3-1.4-2.1-2.4c-0.3-0.3-0.6-0.7-1.1-1.2c-0.3-0.3-0.5-0.5-0.5-0.6c-0.1-0.1-0.2-0.1-0.3-0.3
		v0.3c0,1,0,2.3,0.1,4.1l0.1,2.5c0,0.2,0,0.4,0.1,0.6l0.3,0.1c0.5,0.1,0.9,0.1,1.4,0.2c0.1,0,0.1,0.1,0.1,0.1v0.3
		c-0.1,0-0.1,0.1-0.2,0.1c-0.1,0-0.1,0-0.2,0c-0.5,0-1.1-0.1-1.8-0.1c-0.5,0-0.9,0-1.3,0.1H215c-0.1,0-0.1,0-0.2,0v-0.2l0.2-0.1
		l0.3-0.1c0.3-0.1,0.5-0.1,0.7-0.1c0.1-0.1,0.2-0.1,0.3-0.1c0.1-0.3,0.1-0.9,0.1-1.5c0-0.3,0-0.9,0-1.7v-1.1v-2.2
		c0-0.9-0.1-1.5-0.1-1.7c0-0.1-0.1-0.2-0.2-0.3c-0.2-0.1-0.5-0.2-0.7-0.3C215.1,65.4,214.9,65.4,214.8,65.4"/>
	<path class="st0" d="M230.6,74.2L230.6,74.2c0.4,0.1,0.8,0.2,1.2,0.2c0.5,0,1-0.1,1.5-0.3c0.5-0.1,0.9-0.4,1.3-0.7
		c0.4-0.3,0.7-0.6,0.9-1c0.3-0.4,0.4-0.7,0.5-1c0.1-0.4,0.2-1,0.2-1.7s-0.1-1.3-0.4-2c-0.2-0.5-0.5-0.9-1-1.3
		c-0.5-0.4-1.1-0.7-1.7-0.9c-0.7-0.2-1.4-0.3-2.1-0.3c-0.5,0-0.9,0.1-1.2,0.2c0,0-0.1,0.1-0.1,0.1c0,0.1-0.1,0.3-0.1,0.3
		s0,0.1,0,0.3c0,0.6,0,1.1,0,1.4v1.7c0,2.5,0.1,3.9,0.1,4.2C229.9,73.7,230.2,73.9,230.6,74.2 M226.7,74.5c0.2-0.1,0.4-0.1,0.7-0.1
		c0.3-0.1,0.6-0.1,0.8-0.3c0.1-0.3,0.2-1,0.2-2.1v-1.2V70v-0.5v-1V66c0-0.3-0.1-0.5-0.1-0.5c-0.1-0.1-0.4-0.3-0.9-0.3
		c-0.2-0.1-0.3-0.1-0.4-0.1s-0.1-0.1-0.1-0.2c0.1,0,0.2-0.1,0.3-0.1h0.5h0.3c0.2,0,0.4,0,0.6,0.1c0.5,0,0.9,0.1,1.5,0.1
		c0.1,0,0.3,0,0.6,0c0.7-0.1,1.2-0.1,1.5-0.1c0.6,0,1.2,0.1,1.7,0.2c0.5,0.1,1.1,0.3,1.7,0.7c0.3,0.2,0.7,0.5,1.1,1
		c0.4,0.5,0.7,0.9,0.9,1.5c0.2,0.5,0.3,1.1,0.3,1.8c0,0.6-0.1,1.2-0.3,1.7c-0.2,0.6-0.5,1.1-0.9,1.5c-0.4,0.4-0.8,0.7-1.2,0.9
		c-0.4,0.2-1,0.4-1.8,0.5c-0.3,0.1-0.9,0.1-1.8,0.1c-0.6,0-1.1,0-1.4-0.1c-0.1,0-0.3,0-0.5,0h-0.1l-3.1,0.1v-0.1v-0.1L226.7,74.5z"
		/>
	<path class="st0" d="M238.9,74.5c0.1-0.1,0.1-0.1,0.1-0.1s0.3-0.1,0.5-0.1c0.5,0,0.8-0.1,0.9-0.1c0.1-0.1,0.1-0.3,0.1-0.4v-0.5
		v-1.9v-0.9v-1.9l-0.1-2.2c0-0.5-0.1-0.8-0.1-0.9c-0.1-0.1-0.3-0.1-0.8-0.1c-0.2,0-0.3,0-0.5-0.1c-0.1-0.1-0.1-0.1-0.1-0.1
		c0-0.1,0-0.1,0.1-0.1c0.1,0,0.1-0.1,0.1-0.1s0.1,0,0.3,0c0.3,0,0.6,0,0.9,0h0.5l1.3,0.1c0.7,0,1.2,0,1.6,0c0.4,0,0.6,0,0.7,0
		s0.4,0,0.9,0h1.1h0.1h0.6l0.1,0.1c0,0.1,0.1,0.1,0.1,0.1c0,0.1,0,0.2-0.1,0.3c0,0.1-0.1,0.3-0.1,0.3c0,0.5,0,1,0.1,1.4
		c0,0,0,0.1-0.1,0.1s-0.1,0-0.1,0c-0.1-0.1-0.1-0.3-0.2-0.5c-0.1-0.3-0.3-0.5-0.4-0.9c-0.1-0.2-0.2-0.3-0.3-0.4
		c-0.1-0.1-0.2-0.1-0.5-0.1c-0.1,0-0.3,0-0.7,0c-0.1,0-0.2,0-0.3,0l-2.2,0.1h-0.2c-0.3,0-0.5,0.1-0.5,0.1c-0.1,0.1-0.1,0.5-0.1,1.1
		c0,0.1,0,0.7,0.1,1.8v1.1c0.1,0,0.1,0,0.2,0h0.1c0.1,0,0.2,0,0.4,0c0.3,0,0.5,0,0.5,0c0.1,0,0.1,0,0.1,0c0.5,0,1.3,0,2.1,0
		c0.3-0.1,0.4-0.1,0.5-0.1c0.1-0.1,0.1-0.3,0.2-0.7c0.1-0.4,0.1-0.6,0.3-0.7c0.1,0,0.1,0,0.2,0.1c0,0.1,0,0.1,0,0.1s0,0.1,0,0.2
		c0,0.2,0,0.8,0,1.7c0,0.3,0,0.5,0.1,0.9c0,0.3,0.1,0.5,0.1,0.5c0,0.1,0,0.1,0,0.2c-0.1,0-0.1,0-0.1,0h-0.1
		c-0.1-0.1-0.1-0.3-0.3-0.7c-0.1-0.5-0.3-0.8-0.4-0.9c-0.1-0.1-0.4-0.2-0.7-0.2c-0.1,0-0.2,0-0.4,0c-0.2,0-0.5,0-0.9,0h-0.5
		c-0.7,0-1.1,0-1.4,0.1v0.3v1.4v0.9v0.9c0,0.5,0.1,0.8,0.1,0.9s0.3,0.2,0.5,0.2h0.5c0.1,0,0.2,0,0.5,0c0.3,0,0.6,0,1,0
		c1,0,1.7-0.1,2-0.1c0.3-0.1,0.6-0.2,0.8-0.5c0.2-0.2,0.5-0.7,0.8-1.4c0.1-0.2,0.2-0.3,0.3-0.3s0.1,0,0.1,0.1
		c-0.1,0.5-0.3,0.9-0.3,1c-0.1,0.3-0.1,0.7-0.1,1.1c0,0.2-0.1,0.3-0.1,0.4h-0.2h-2.1h-0.9h-2.3h-0.9c-0.1,0-0.2,0-0.3,0
		c-0.9,0-1.6,0-2,0c-0.1,0-0.1,0-0.1-0.1c0,0-0.1-0.1-0.1-0.1L238.9,74.5z"/>
	<path class="st0" d="M252.8,74.2L252.8,74.2c0.4,0.1,0.8,0.2,1.2,0.2c0.5,0,1-0.1,1.5-0.3c0.5-0.1,0.9-0.4,1.3-0.7s0.7-0.6,0.9-1
		c0.3-0.4,0.4-0.7,0.5-1c0.1-0.4,0.2-1,0.2-1.7s-0.1-1.3-0.4-2c-0.2-0.5-0.5-0.9-1-1.3c-0.5-0.4-1.1-0.7-1.7-0.9
		c-0.7-0.2-1.4-0.3-2.1-0.3c-0.5,0-0.9,0.1-1.2,0.2c0,0-0.1,0.1-0.1,0.1c0,0.1-0.1,0.3-0.1,0.3s0,0.1,0,0.3c0,0.6,0,1.1,0,1.4v1.7
		c0,2.5,0.1,3.9,0.1,4.2C252.2,73.7,252.4,73.9,252.8,74.2 M249,74.5c0.2-0.1,0.4-0.1,0.7-0.1c0.3-0.1,0.6-0.1,0.8-0.3
		c0.1-0.3,0.2-1,0.2-2.1v-1.2V70v-0.5v-1V66c0-0.3-0.1-0.5-0.1-0.5c-0.1-0.1-0.4-0.3-0.9-0.3c-0.2-0.1-0.3-0.1-0.4-0.1
		s-0.1-0.1-0.1-0.2c0.1,0,0.2-0.1,0.3-0.1h0.5h0.3c0.2,0,0.4,0,0.6,0.1c0.5,0,0.9,0.1,1.5,0.1c0.1,0,0.3,0,0.6,0
		c0.7-0.1,1.2-0.1,1.5-0.1c0.6,0,1.2,0.1,1.7,0.2c0.5,0.1,1.1,0.3,1.7,0.7c0.3,0.2,0.7,0.5,1.1,1c0.4,0.5,0.7,0.9,0.9,1.5
		c0.2,0.5,0.3,1.1,0.3,1.8c0,0.6-0.1,1.2-0.3,1.7c-0.2,0.6-0.5,1.1-0.9,1.5c-0.4,0.4-0.8,0.7-1.2,0.9c-0.4,0.2-1,0.4-1.8,0.5
		c-0.3,0.1-0.9,0.1-1.8,0.1c-0.6,0-1.1,0-1.4-0.1c-0.1,0-0.3,0-0.5,0H252l-3.1,0.1v-0.1v-0.1L249,74.5z"/>
	<path class="st0" d="M266.8,74.5L266.8,74.5c0.4,0,0.9-0.1,1.3-0.2s0.9-0.3,1.2-0.6s0.6-0.6,0.8-0.9s0.3-0.8,0.5-1.3
		c0.1-0.5,0.2-1.1,0.2-1.7c0-0.7-0.1-1.4-0.3-2.1c-0.1-0.5-0.4-1-0.8-1.4c-0.3-0.4-0.8-0.7-1.3-0.9c-0.5-0.2-1.1-0.3-1.6-0.3
		c-0.5,0-0.9,0.1-1.4,0.2c-0.5,0.1-0.8,0.3-1.1,0.6c-0.3,0.3-0.5,0.6-0.8,1c-0.3,0.5-0.4,0.9-0.5,1.5c-0.1,0.5-0.2,1-0.2,1.4
		c0,0.4,0.1,0.9,0.2,1.5s0.3,1,0.5,1.4s0.5,0.7,0.8,1.1c0.3,0.3,0.7,0.5,1.1,0.7C265.9,74.5,266.4,74.5,266.8,74.5 M261.5,69.8
		c0-0.5,0.1-1,0.2-1.4s0.3-0.9,0.7-1.3c0.3-0.5,0.7-0.9,1.1-1.2s1-0.6,1.7-0.9c0.5-0.2,1.2-0.3,2-0.3c0.5,0,1.1,0.1,1.6,0.2
		c0.5,0.1,1,0.3,1.4,0.6c0.4,0.3,0.8,0.7,1.3,1.2c0.3,0.4,0.5,0.7,0.7,1.2c0.2,0.5,0.3,1.1,0.3,1.7c0,0.7-0.1,1.2-0.2,1.7
		c-0.1,0.5-0.3,0.9-0.7,1.3c-0.3,0.3-0.7,0.7-1.2,1.1c-0.4,0.3-0.9,0.5-1.5,0.7c-0.6,0.2-1.2,0.3-1.9,0.3c-0.7,0-1.3-0.1-1.8-0.3
		c-0.5-0.1-1-0.3-1.3-0.6c-0.3-0.2-0.7-0.5-1.1-1c-0.4-0.5-0.7-0.9-0.9-1.5C261.6,71,261.5,70.4,261.5,69.8z"/>
	<path class="st0" d="M276.2,69.5L276.2,69.5c0.1,0,0.3,0,0.3,0c0.3,0,0.8-0.1,1.3-0.1c0.3-0.1,0.6-0.2,0.8-0.3
		c0.2-0.1,0.4-0.4,0.5-0.7c0.1-0.3,0.2-0.6,0.2-0.9s-0.1-0.7-0.3-1.1c-0.1-0.3-0.5-0.5-0.9-0.7c-0.4-0.2-0.9-0.3-1.4-0.3
		c-0.1,0-0.3,0-0.5,0c0,0.3,0,0.5,0,0.6l0.1,1.4v0.6C276.2,68.4,276.2,68.8,276.2,69.5 M273.4,74.4c0.7-0.1,1.1-0.1,1.3-0.2
		c0.1,0,0.1-0.1,0.2-0.2v-0.1c0-0.1,0-0.6,0.1-1.4c0-0.2,0-0.5,0-0.7v-0.9v-1V68v-1.4c0-0.6-0.1-0.9-0.1-1.1
		c-0.1-0.1-0.3-0.2-0.7-0.3s-0.6-0.1-0.7-0.1c-0.1,0-0.1-0.1-0.1-0.1s0-0.1,0-0.1c0.1-0.1,0.2-0.1,0.3-0.1c0,0,0.1,0,0.2,0
		s0.2,0,0.3,0h0.6h2c1.1,0,1.9,0.1,2.4,0.3c0.5,0.2,0.8,0.5,1.1,0.9c0.3,0.4,0.4,0.9,0.4,1.3c0,0.9-0.5,1.7-1.5,2.1
		c-0.2,0.1-0.3,0.1-0.4,0.2c0.2,0.3,0.4,0.8,0.7,1.3l1,1.7c0.4,0.6,0.7,1,0.8,1.1c0.1,0.1,0.3,0.3,0.5,0.4c0.2,0.1,0.5,0.2,1.1,0.3
		c0,0.1,0,0.1,0,0.1s0,0.1,0,0.1c-0.7,0-1.5,0-2.5,0c-0.1,0-0.1,0-0.3,0c-0.3-0.7-0.8-1.5-1.3-2.3l-1.1-2.1
		c-0.1-0.2-0.3-0.3-0.4-0.4c-0.1-0.1-0.2-0.1-0.4-0.1h-0.7h-0.2c0,0.1,0,0.5,0,1v2.7c0,0.1,0,0.3,0.1,0.4c0.1,0.1,0.1,0.2,0.2,0.3
		s0.4,0.1,0.9,0.3l0.3,0.1c0.1,0.1,0.1,0.1,0.1,0.2c-0.1,0-0.3,0.1-0.3,0.1c-0.5,0-0.8,0-0.9-0.1c-0.1,0-0.2,0-0.3,0h-1h-1
		c-0.1,0-0.3,0-0.7,0.1l-0.1-0.1v-0.1C273.3,74.5,273.3,74.5,273.4,74.4z"/>
	<path class="st0" d="M283.1,74.5c0.1-0.1,0.1-0.1,0.1-0.1c0.1,0,0.3-0.1,0.5-0.1c0.5,0,0.8-0.1,0.9-0.1c0.1-0.1,0.1-0.3,0.1-0.4
		v-0.5v-1.9v-0.9v-1.9l-0.1-2.2c0-0.5-0.1-0.8-0.1-0.9c-0.1-0.1-0.3-0.1-0.8-0.1c-0.2,0-0.3,0-0.5-0.1c-0.1-0.1-0.1-0.1-0.1-0.1
		c0-0.1,0-0.1,0.1-0.1c0.1,0,0.1-0.1,0.1-0.1c0.1,0,0.1,0,0.3,0c0.3,0,0.6,0,0.9,0h0.5l1.3,0.1c0.7,0,1.2,0,1.6,0c0.4,0,0.6,0,0.7,0
		s0.4,0,0.9,0h1.1h0.1h0.6l0.1,0.1c0,0.1,0.1,0.1,0.1,0.1c0,0.1,0,0.2-0.1,0.3c0,0.1-0.1,0.3-0.1,0.3c0,0.5,0,1,0.1,1.4
		c0,0,0,0.1-0.1,0.1c-0.1,0-0.1,0-0.1,0c-0.1-0.1-0.1-0.3-0.2-0.5c-0.1-0.3-0.3-0.5-0.4-0.9c-0.1-0.2-0.2-0.3-0.3-0.4
		c-0.1-0.1-0.2-0.1-0.5-0.1c-0.1,0-0.3,0-0.7,0c-0.1,0-0.2,0-0.3,0l-2.2,0.1h-0.2c-0.3,0-0.5,0.1-0.5,0.1c-0.1,0.1-0.1,0.5-0.1,1.1
		c0,0.1,0,0.7,0.1,1.8v1.1c0.1,0,0.1,0,0.2,0h0.1c0.1,0,0.2,0,0.4,0c0.3,0,0.5,0,0.5,0s0.1,0,0.1,0c0.5,0,1.3,0,2.1,0
		c0.3-0.1,0.4-0.1,0.5-0.1c0.1-0.1,0.1-0.3,0.2-0.7s0.1-0.6,0.3-0.7c0.1,0,0.1,0,0.2,0.1c0,0.1,0,0.1,0,0.1s0,0.1,0,0.2
		c0,0.2,0,0.8,0,1.7c0,0.3,0,0.5,0.1,0.9c0,0.3,0.1,0.5,0.1,0.5c0,0.1,0,0.1,0,0.2c-0.1,0-0.1,0-0.1,0h-0.1
		c-0.1-0.1-0.2-0.3-0.3-0.7c-0.1-0.5-0.3-0.8-0.4-0.9c-0.1-0.1-0.4-0.2-0.7-0.2c-0.1,0-0.2,0-0.4,0s-0.5,0-0.9,0h-0.5
		c-0.7,0-1.1,0-1.4,0.1v0.3v1.4v0.9v0.9c0,0.5,0.1,0.8,0.1,0.9c0.1,0.1,0.3,0.2,0.5,0.2h0.5c0.1,0,0.2,0,0.5,0s0.6,0,1,0
		c1,0,1.7-0.1,1.9-0.1c0.3-0.1,0.6-0.2,0.8-0.5c0.2-0.2,0.5-0.7,0.8-1.4c0.1-0.2,0.2-0.3,0.3-0.3c0.1,0,0.1,0,0.1,0.1
		c-0.1,0.5-0.3,0.9-0.3,1c-0.1,0.3-0.1,0.7-0.1,1.1c0,0.2-0.1,0.3-0.1,0.4h-0.2h-2.1h-0.9h-2.3h-0.9c-0.1,0-0.2,0-0.3,0
		c-0.9,0-1.6,0-2,0c-0.1,0-0.1,0-0.1-0.1C283.2,74.6,283.2,74.5,283.1,74.5L283.1,74.5z"/>
	<path class="st0" d="M299,65.3c0.1,0.3,0.1,0.5,0.1,0.6v0.7c0,0.3,0,0.5-0.1,0.5c-0.1,0-0.1,0-0.1,0h-0.1c-0.1-0.7-0.5-1.3-0.8-1.5
		c-0.4-0.3-0.9-0.5-1.4-0.5c-0.6,0-1.1,0.1-1.4,0.5c-0.4,0.3-0.5,0.7-0.5,1.1c0,0.3,0.1,0.6,0.4,0.9c0.3,0.3,0.9,0.7,2,1.3
		c0.8,0.4,1.4,0.7,1.7,1c0.3,0.3,0.6,0.6,0.8,0.9s0.3,0.7,0.3,1.2c0,0.5-0.1,1.1-0.4,1.5c-0.3,0.5-0.7,0.9-1.1,1.1
		c-0.5,0.3-1.1,0.3-1.9,0.3c-0.7,0-1.3-0.1-2-0.3c-0.4-0.1-0.6-0.3-0.7-0.3c-0.1-0.1-0.1-0.1-0.1-0.3c0-0.1,0-0.1,0-0.2
		c0.1-0.6,0.1-1.1,0.1-1.5c0-0.3,0-0.4,0.1-0.4c0-0.1,0.1-0.1,0.1-0.1c0.1,0,0.1,0,0.1,0.1c0,0,0.1,0.1,0.1,0.2
		c0.1,0.6,0.3,1.2,0.9,1.7c0.5,0.5,1.1,0.7,1.7,0.7c0.4,0,0.8-0.1,1.1-0.3c0.3-0.2,0.6-0.4,0.8-0.7c0.2-0.3,0.3-0.6,0.3-0.9
		c0-0.4-0.1-0.8-0.5-1.1c-0.3-0.3-0.9-0.7-1.7-1.2c-0.9-0.5-1.5-0.8-1.7-1c-0.4-0.3-0.7-0.7-0.9-1.1c-0.1-0.3-0.3-0.7-0.3-1
		c0-0.7,0.3-1.3,0.9-1.8c0.5-0.5,1.3-0.7,2.3-0.7c0.5,0,1,0.1,1.3,0.2C298.4,64.9,298.7,65.1,299,65.3"/>
</g>
</svg>
