<?xml version="1.0" encoding="utf-8"?>
<!-- Generator: Adobe Illustrator 21.1.0, SVG Export Plug-In . SVG Version: 6.00 Build 0)  -->
<svg version="1.1" id="Layer_1" xmlns="http://www.w3.org/2000/svg" xmlns:xlink="http://www.w3.org/1999/xlink" x="0px" y="0px"
	 viewBox="0 0 300 44" style="enable-background:new 0 0 300 44;" xml:space="preserve">
<style type="text/css">
	.st0{fill:#1B9897;}
	.st1{display:none;}
	.st2{display:inline;}
	.st3{fill:#231F20;}
</style>
<g>
	<g>
		<polygon class="st0" points="224.8,8.8 211.9,35.2 208.2,35.2 194.7,8.8 201.6,8.8 211.4,29 220.7,8.8 		"/>
		<path class="st0" d="M112.1,21.4c0-5.7-3.9-9.9-12.7-10c-2.3,0-3.8,0.1-5,0.1v17.6c0,2.7,1.2,3.2,5.4,3.2
			C106.9,32.4,112.1,27.9,112.1,21.4z M118.3,21.1c0,7.3-6.1,13.7-18.4,13.7H88.3V8.8h13.1C113.4,8.8,118.3,15.2,118.3,21.1z"/>
		<path class="st0" d="M36,17.5c0-3.1-3.3-6.7-8.6-6.7c-5.7,0-8.8,4.3-9.2,8.8h14.1C35.1,19.7,36,18.9,36,17.5z M42,20
			c0,1.7-0.7,2.3-2.3,2.3H18.1c0.6,6.7,6,10.2,12.3,10.2c3.8,0,7.1-0.8,10.5-2.2l1,2.3c-4.8,2.1-9.2,2.9-14.1,2.9
			c-7.8,0-15.5-4-15.8-13.2h-12l1.2-2.6h10.9c1.2-7.1,8.5-11.4,15.3-11.4C38.2,8.2,42,15.9,42,20z"/>
		<path class="st0" d="M255.3,21.8c0-6.4-4.1-11-10.6-11c-5.7,0-10.5,4.3-10.5,10.6c0,6.7,4.2,11.4,10.7,11.4
			C250.4,32.8,255.3,29,255.3,21.8z M261.3,21.8c0,8.6-8.4,13.6-16.6,13.6c-8.2,0-16.5-5-16.5-13.6c0-8.6,8.4-13.6,16.5-13.6
			C252.9,8.2,261.3,13.2,261.3,21.8z"/>
		<polygon class="st0" points="78.9,34.9 75,34.9 54.4,15.2 54.4,34.9 50.6,34.9 50.6,8.8 56.3,8.8 75.1,26.9 75.1,8.8 78.9,8.8 		
			"/>
		<path class="st0" d="M183.2,20.6v5.6c0,4-3.9,6.2-8.7,6.2c-3.9,0-6.2-1.7-6.2-4.9c0-5.7,10-6.8,14.7-6.8L183.2,20.6L183.2,20.6z
			 M182.7,18.5c-9.9,0-20.4,2.8-20.4,9.4c0,4.2,3.2,7.6,9.3,7.6c5.1,0,9.3-1.9,11.7-3.2v2.7h6V19.3c0-8.4-4.8-11.1-12-11.1
			c-5.1,0-9.7,1-13.3,2.7l1,2.6c3.2-1.5,6.8-2.5,10.1-2.5c6,0,8.3,3.4,8.3,7.6L182.7,18.5L182.7,18.5z"/>
		<path class="st0" d="M274.7,21.9V11.3c1.3-0.1,2.5-0.2,3.6-0.2c5.4,0.1,7.7,1.8,7.7,5.2c0,4.2-4,5.4-10.1,5.4L274.7,21.9
			L274.7,21.9L274.7,21.9z M268.8,8.8v26.1h6V24.3c1.2,0,1.8,0,3.2,0c6.1,6,11.3,10.1,21.2,11l0.9-1.7c-7.2-2-12.6-7-15.9-10.4
			c4-0.9,8-2.9,8-7.7c0-3.5-3-6.7-12.1-6.7C280,8.8,268.8,8.8,268.8,8.8z"/>
		<path class="st0" d="M148.7,17.5c0-3.1-3.3-6.7-8.6-6.7c-5.7,0-8.8,4.3-9.3,8.8H145C147.8,19.7,148.7,18.9,148.7,17.5z
			 M124.7,21.5c0-7.6,7.4-13.3,15.4-13.3c10.9,0,14.7,7.7,14.7,11.7c0,1.7-0.7,2.3-2.3,2.3h-21.6c0.6,6.7,6,10.3,12.3,10.3
			c3.8,0,7.1-0.8,10.5-2.2l1,2.3c-4.8,2.1-9.2,2.9-14.1,2.9C132,35.4,124.7,30.7,124.7,21.5z"/>
	</g>
</g>
<g class="st1">
	<g class="st2">
		<polygon class="st3" points="224.8,8.8 212,35.2 208.3,35.2 194.7,8.8 201.7,8.8 211.5,29 220.8,8.8 		"/>
		<path class="st3" d="M112.2,21.4c0-5.7-3.9-9.9-12.7-10c-2.3,0-3.8,0.1-5,0.1v17.6c0,2.7,1.2,3.2,5.4,3.2
			C106.9,32.4,112.2,27.9,112.2,21.4z M118.3,21.1c0,7.3-6.1,13.7-18.4,13.7H88.4V8.8h13.1C113.5,8.8,118.3,15.2,118.3,21.1z"/>
		<path class="st3" d="M36,17.5c0-3.1-3.3-6.7-8.6-6.7c-5.7,0-8.8,4.3-9.2,8.8h14.1C35.1,19.7,36,18.9,36,17.5z M42.1,20
			c0,1.7-0.7,2.3-2.3,2.3H18.2c0.6,6.7,6,10.3,12.2,10.3c3.8,0,7.1-0.8,10.5-2.2l1,2.3c-4.8,2.1-9.2,2.9-14.1,2.9
			c-7.8,0-15.5-4-15.8-13.2H0.1l1.2-2.6h10.9c1.2-7.1,8.5-11.5,15.3-11.5C38.3,8.2,42.1,15.9,42.1,20z"/>
		<path class="st3" d="M255.4,21.8c0-6.4-4.1-11-10.6-11c-5.7,0-10.5,4.3-10.5,10.6c0,6.7,4.2,11.4,10.7,11.4
			C250.5,32.8,255.4,29,255.4,21.8z M261.4,21.8c0,8.6-8.4,13.6-16.6,13.6c-8.2,0-16.5-5-16.5-13.6c0-8.6,8.4-13.6,16.5-13.6
			C253,8.2,261.4,13.2,261.4,21.8z"/>
		<polygon class="st3" points="78.9,34.9 75.1,34.9 54.5,15.2 54.5,34.9 50.6,34.9 50.6,8.8 56.3,8.8 75.1,26.9 75.1,8.8 78.9,8.8 
					"/>
		<path class="st3" d="M183.3,20.6v5.6c0,4-3.9,6.2-8.7,6.2c-3.9,0-6.2-1.7-6.2-4.9c0-5.7,10-6.8,14.7-6.8L183.3,20.6L183.3,20.6z
			 M182.7,18.5c-9.9,0-20.4,2.8-20.4,9.4c0,4.2,3.2,7.6,9.3,7.6c5.1,0,9.3-1.9,11.7-3.2v2.7h6V19.3c0-8.4-4.8-11.1-12-11.1
			c-5.1,0-9.7,1-13.3,2.7l1,2.6C168,12,171.7,11,175,11c6,0,8.3,3.4,8.3,7.6L182.7,18.5L182.7,18.5z"/>
		<path class="st3" d="M274.8,21.9V11.3c1.3-0.1,2.5-0.2,3.6-0.2c5.4,0.1,7.7,1.8,7.7,5.2c0,4.2-4,5.4-10.1,5.4L274.8,21.9
			L274.8,21.9L274.8,21.9z M268.8,8.8v26.1h6V24.3c1.2,0,1.8,0,3.2,0c6.1,6,11.3,10.1,21.2,11l0.9-1.7c-7.2-2-12.6-7-15.9-10.4
			c4-0.9,8-2.9,8-7.7c0-3.5-3-6.7-12.1-6.7C280,8.8,268.8,8.8,268.8,8.8z"/>
		<path class="st3" d="M148.8,17.5c0-3.1-3.3-6.7-8.6-6.7c-5.7,0-8.8,4.3-9.2,8.8h14.1C147.8,19.7,148.8,18.9,148.8,17.5z
			 M124.7,21.5c0-7.6,7.4-13.3,15.4-13.3c10.9,0,14.7,7.7,14.7,11.7c0,1.7-0.7,2.3-2.3,2.3h-21.6c0.6,6.7,6,10.3,12.3,10.3
			c3.8,0,7.1-0.8,10.5-2.2l1,2.3c-4.8,2.1-9.2,2.9-14.1,2.9C132.1,35.4,124.7,30.7,124.7,21.5z"/>
	</g>
	<g class="st2">
		<g>
			<path class="st3" d="M246.9,57.6c-4,0-6.4-2.8-6.4-7s2.6-7,6.4-7c1.6,0,2.8,0.4,3.8,1l-0.4,2.5c-0.9-0.7-2-1.2-3.3-1.2
				c-2.4,0-3.9,1.8-3.9,4.8s1.6,4.8,4,4.8c1.3,0,2.4-0.5,3.4-1.2l0.4,2.3C249.8,57.1,248.5,57.6,246.9,57.6z"/>
			<path class="st3" d="M263.5,57.4v-5.9h-5.8v5.9h-2.6V43.8h2.6v5.3h5.8v-5.3h2.6v13.6H263.5z"/>
			<path class="st3" d="M271.1,57.4V43.8h2.6v13.6H271.1z"/>
			<path class="st3" d="M278.7,57.4V43.8h2.6V55h4.5l0.4,2.3H278.7z"/>
			<path class="st3" d="M289.9,57.4V43.8h7.9V46h-5.3v3.2h4.1l0.4,2.3h-4.4v3.7h5.5v2.2H289.9z"/>
		</g>
	</g>
</g>
</svg>
