<?xml version="1.0" encoding="utf-8"?>
<!-- Generator: Adobe Illustrator 21.1.0, SVG Export Plug-In . SVG Version: 6.00 Build 0)  -->
<svg version="1.1" id="Layer_1" xmlns="http://www.w3.org/2000/svg" xmlns:xlink="http://www.w3.org/1999/xlink" x="0px" y="0px"
	 viewBox="0 0 245 108" style="enable-background:new 0 0 245 108;" xml:space="preserve">
<style type="text/css">
	.st0{fill-rule:evenodd;clip-rule:evenodd;fill:#FDC82F;}
</style>
<path class="st0" d="M189.7,58.2c1.5-0.2,4.5-0.1,5.4,1.6c1.6,3,0.1,4.7-2.9,6.5c-0.8,0.5-6.6,1.7-7.7-1.5c-0.4-1.2,1.1-3.2,1.1-3.2
	C186.6,60.5,188.3,58.4,189.7,58.2 M120.2,69.2c-0.6,0-1.4-0.8-0.8-2.1c0.6-1.3,1.6-4.1,2-5.5c0.5-1.4,1.7-3.5,2.6-4.1
	c1-0.6,2.9-0.8,3.5-0.2c0.6,0.6,2,1.1,2.1,2.1c0.1,1.1,0.7,2.2-0.7,3.9c-1.4,1.6-3.3,3.4-4.5,4.3C123.2,68.5,120.8,69.2,120.2,69.2z
	 M88.3,66.4c0,0,2.5-3.2,2.6-4c0.1-0.8,1.1-2.6,2.1-2.2c1.1,0.4,2.3,4.8,2.3,5.5c0,0.7,0.2,1.4,0,2.2c-0.2,0.8,0.5,1.8-0.4,3.1
	c-0.8,1.3-0.7,2.7-3.6,2.9c-2.9,0.2-5.1,0.6-6.6-0.1c-1.4-0.7-2.3-0.4-1.9-1.5c0.4-1.2,1.5-2.9,2.7-3.9
	C86.8,67.5,88.3,66.4,88.3,66.4z M211,24.6c0,0,0.7-3.4,1.9-3.4c1.2,0,3.9,0.3,5.2,2.7c1.3,2.5,2.2,5.8,2.8,9
	c0.5,3.2,0.7,7.7,1.2,9.3c0.4,1.6,0.4,5.1,0.5,8.1c0.2,3,0.6,11.5,0.6,14.5c0,3,0.3,9.1,0.2,10.6c-0.1,1.5-0.9,3.4-0.5,4.2
	c0.4,0.8-0.2,2.3-0.3,4c-0.1,1.7-1.2,6.1-2.1,7.3c-1,1.2-3,2-4,0.6c-1-1.4-3.4-2.9-3.8-8c-0.4-5.1-0.5-8-0.4-9.9
	c0.2-1.9-0.1-6-0.2-10.7c-0.1-4.8,0-11.3,0.3-12.4c0.3-1.1,0.3-0.8,0.2-4.1c-0.1-3.3-0.3-7.5-0.4-9.1c-0.1-1.7,0.4-1.9-0.5-2.7
	c-0.9-0.8-1.4-1.6-1.3-2.2c0.1-0.6,0.6-1.4,0.4-2.5c-0.3-1.1-0.3-2,0-2.6c0.3-0.6,0.5-1.8,0.5-1.8L211,24.6z M188.9,50.3
	c-6.3,2.1-13.8,8.3-14.4,15.9c-0.3,4.5,1,10.7,2.1,12.4c4,5.8,10.8,11,18.2,10.5c3.9-0.3,7-0.2,10.2-2c3.2-1.8,6.6-5.3,5.3-8.7
	c-1.3-3.4-2.5-4-3.7-3.5c-1.2,0.5-3.2,2.7-5.5,2.8c-2.3,0.1-9.2,0.5-9.7,0.5c-0.5,0-5.6,0-5.4-1.6c0.2-1.6,1-1.9,4.9-2.7
	c3.9-0.8,8.1-1.7,10-4.5C206.9,60.5,200.9,46.5,188.9,50.3z M152.5,56.6c-5,6.1-12.1,22.6-1.6,28c2.3,1.2,6.7,3.2,9.3,3.2
	c2.4,0,5.5,0.4,7.9-1c3.3-2,4.9-6.3,4-10.2c-0.4-1.5-2.9-4-5.7-3.6c-2.8,0.4-2.4,1.8-4.5,2.7c-2.1,0.9-5.6,2.4-6.4,1.2
	c-0.8-1.1-1.3-3.2-0.3-5.2c1-2,6.1-12.9,9.9-10.6c1.9,1.1,2.7,4.7,3.8,4.6c1.1-0.1,3.6-4.7,3.7-7.1c0.1-2.4-0.2-5.5-3.3-7.1
	C163.3,48.6,156.3,51.9,152.5,56.6z M114.4,54.8c0,0,4.6-6.9,6.5-7.4c2-0.5,4.7,0,6.9,1.3c2.1,1.3,6,4.1,6.5,7.9
	c0.5,3.8,0.4,6.3-0.7,9c-1.1,2.6-3.3,6.3-3.8,6.8c-0.5,0.4-1.7,1.4-0.7,2.2c1,0.8,3.8,2.1,5.4,3c1.7,0.9,6.5,2.6,7,3.4
	c0.4,0.8,2.9,2.3,2.9,4.7c-0.1,2.4-2.8,2.6-4.5,2.5C138.2,88,131,86,128,84.8c-2.9-1.1-6-2.9-7.2-2.9c-1.3,0-2.6,2.3-2.9,3
	c-0.4,0.7-1.3,1.8-2.1,1.3c-0.9-0.4-4-3.1-5.3-6.4c-1.3-3.3-2.1-9.6-1-13.4C110.5,62.7,114.4,54.8,114.4,54.8z M87.4,52
	c0,0-4.4,3.6-6.3,6.3c-1.9,2.7-5.4,6.8-5.6,10.9c-0.2,4.1-0.3,8.4,0.9,10.3c1.2,1.8,2.1,3.5,5.1,4.9c3,1.4,6.6,3.3,9.4,2.7
	c2.8-0.5,5.4-2.2,6.3-3.1c0.9-0.9,2-2.8,2.9-2.4c1,0.4,1.3,2.5,1.9,3.1c0.5,0.6,2.2,1.6,3.7,2.5c1.4,0.9,2.9,0.9,3.6,0.2
	c0.7-0.7,0.5-2.6,0-4.8c-0.5-2.2-3.3-7-3.4-8.5c-0.1-1.5-0.1-4.2,0.5-4.9c0.6-0.7,2.1-2.7,1.7-4.9c-0.4-2.2-0.5-1.8-1-3.6
	c-0.4-1.8-1.5-5.5-2.3-7.1c-0.8-1.7-2-5.1-3-5c-1.1,0.1-1.8,2.6-3,2.6c-1.3,0-2.1-1.1-3.4-2.2c-1.3-1.1-2.6-0.8-3.4-0.2
	C91,49.4,87.4,52,87.4,52z M233.6,34.3l-0.2-2c0.7-0.1,1.2-0.4,1.5-0.7c0.3-0.4,0.5-0.9,0.5-1.5c0-0.7-0.1-1.2-0.4-1.5
	c-0.3-0.3-0.6-0.5-1-0.5c-0.2,0-0.5,0.1-0.6,0.2c-0.2,0.1-0.3,0.4-0.5,0.8c-0.1,0.2-0.2,0.8-0.5,1.7c-0.3,1.1-0.6,1.9-1,2.4
	c-0.6,0.6-1.3,1-2.1,1c-0.5,0-1-0.1-1.5-0.4c-0.5-0.3-0.8-0.7-1.1-1.3c-0.2-0.6-0.4-1.2-0.4-2c0-1.3,0.3-2.3,0.9-2.9
	c0.6-0.7,1.4-1,2.3-1l0.1,2.1c-0.5,0.1-0.9,0.3-1.2,0.6c-0.2,0.3-0.4,0.7-0.4,1.3c0,0.6,0.1,1.1,0.4,1.4c0.2,0.2,0.4,0.3,0.7,0.3
	c0.2,0,0.5-0.1,0.6-0.3c0.2-0.3,0.5-0.9,0.7-1.9c0.2-1,0.5-1.8,0.8-2.3c0.3-0.5,0.6-0.9,1.1-1.1c0.5-0.3,1-0.4,1.7-0.4
	c0.6,0,1.2,0.2,1.7,0.5c0.5,0.3,0.9,0.8,1.2,1.4c0.3,0.6,0.4,1.4,0.4,2.3c0,1.3-0.3,2.3-0.9,3C235.7,33.7,234.8,34.1,233.6,34.3z
	 M231.7,43.3c1.2,0,2.1-0.3,2.7-0.8c0.6-0.5,0.9-1.2,0.9-2.1c0-0.8-0.3-1.5-0.9-2.1c-0.6-0.5-1.5-0.8-2.7-0.8
	c-1.2,0-2.1,0.3-2.7,0.8c-0.6,0.5-0.9,1.2-0.9,2.1c0,0.9,0.3,1.6,0.9,2.1C229.6,43,230.5,43.3,231.7,43.3z M231.8,45.4
	c-1.1,0-2-0.2-2.7-0.5c-0.5-0.2-1-0.6-1.4-1c-0.4-0.4-0.7-0.9-0.9-1.3c-0.3-0.6-0.4-1.4-0.4-2.2c0-1.5,0.5-2.7,1.4-3.7
	c1-0.9,2.3-1.4,4-1.4c1.7,0,3,0.5,4,1.4c1,0.9,1.4,2.1,1.4,3.6c0,1.5-0.5,2.8-1.4,3.7C234.8,45,233.5,45.4,231.8,45.4z M233.1,51.4
	h-1.8v-4.5h4.2c0.4,0.4,0.8,1.1,1.1,1.9c0.3,0.8,0.5,1.7,0.5,2.5c0,1.1-0.2,2-0.7,2.8c-0.5,0.8-1.1,1.4-2,1.8
	c-0.9,0.4-1.8,0.6-2.8,0.6c-1.1,0-2.1-0.2-2.9-0.7c-0.9-0.5-1.5-1.1-2-2c-0.4-0.7-0.5-1.5-0.5-2.5c0-1.3,0.3-2.3,0.8-3
	c0.5-0.7,1.3-1.2,2.3-1.4l0.4,2.1c-0.5,0.1-0.9,0.4-1.2,0.8c-0.3,0.4-0.4,0.9-0.4,1.5c0,0.9,0.3,1.6,0.9,2.2
	c0.6,0.5,1.5,0.8,2.6,0.8c1.2,0,2.2-0.3,2.8-0.8c0.6-0.5,0.9-1.3,0.9-2.1c0-0.4-0.1-0.9-0.3-1.3c-0.2-0.4-0.4-0.8-0.6-1.1h-1.3V51.4
	z M230.9,64.6v-1.5c0-1,0-1.6-0.1-1.9c-0.1-0.2-0.2-0.4-0.4-0.6c-0.2-0.1-0.5-0.2-0.8-0.2c-0.4,0-0.6,0.1-0.9,0.3
	c-0.2,0.2-0.4,0.4-0.4,0.8c0,0.2,0,0.7,0,1.5v1.6H230.9z M237,66.7h-10.5v-4.4c0-1.1,0.1-1.9,0.3-2.4c0.2-0.5,0.5-0.9,1-1.2
	c0.5-0.3,1-0.5,1.7-0.5c0.8,0,1.4,0.2,2,0.7c0.5,0.5,0.8,1.1,1,2c0.3-0.5,0.6-0.8,0.9-1.1c0.3-0.3,0.9-0.7,1.7-1.2l2.1-1.3v2.5
	l-2.3,1.5c-0.8,0.5-1.3,0.9-1.5,1.1c-0.2,0.2-0.4,0.4-0.4,0.6c-0.1,0.2-0.1,0.6-0.1,1.1v0.4h4.4V66.7z M226.5,77.2v-2.1h5.7
	c0.9,0,1.5,0,1.8-0.1c0.4-0.1,0.8-0.3,1-0.6c0.3-0.3,0.4-0.8,0.4-1.4c0-0.6-0.1-1-0.4-1.3c-0.2-0.3-0.5-0.5-0.9-0.5
	c-0.4-0.1-1-0.1-1.8-0.1h-5.8v-2.1h5.5c1.3,0,2.2,0.1,2.7,0.2c0.5,0.1,1,0.3,1.3,0.6c0.4,0.3,0.6,0.7,0.9,1.2c0.2,0.5,0.3,1.2,0.3,2
	c0,1-0.1,1.7-0.3,2.2c-0.2,0.5-0.5,0.9-0.9,1.2c-0.4,0.3-0.8,0.5-1.2,0.6c-0.6,0.1-1.5,0.2-2.7,0.2H226.5z M232.4,85.5h2.8v-1.9
	c0-0.8,0-1.2-0.1-1.4c-0.1-0.3-0.2-0.6-0.4-0.8c-0.2-0.2-0.5-0.3-0.9-0.3c-0.3,0-0.6,0.1-0.8,0.2c-0.2,0.2-0.4,0.4-0.5,0.7
	c-0.1,0.3-0.1,0.9-0.1,1.9V85.5z M228.2,85.5h2.4v-1.4c0-0.8,0-1.3,0-1.5c0-0.4-0.2-0.6-0.4-0.8c-0.2-0.2-0.5-0.3-0.8-0.3
	c-0.3,0-0.6,0.1-0.8,0.3c-0.2,0.2-0.3,0.4-0.4,0.8c0,0.2,0,0.8,0,1.8V85.5z M226.5,87.6v-4.1c0-0.8,0-1.4,0.1-1.8
	c0.1-0.4,0.2-0.8,0.4-1.1c0.2-0.3,0.5-0.6,0.9-0.8c0.4-0.2,0.8-0.3,1.2-0.3c0.5,0,0.9,0.1,1.4,0.4c0.4,0.3,0.7,0.6,0.9,1.1
	c0.2-0.6,0.5-1.1,1-1.5c0.5-0.3,1-0.5,1.6-0.5c0.5,0,0.9,0.1,1.4,0.3c0.5,0.2,0.8,0.5,1.1,0.9c0.3,0.4,0.4,0.8,0.5,1.4
	c0,0.3,0.1,1.2,0.1,2.5v3.5H226.5z M11.8,12.4c2.7,0.8,1.2,4.6,3.2,5.6c2.3,1.2,4.2-5.2,4.8-7.7c0.4-1.8,1.8-4.3,2.9-4.9
	c1.1-0.5,2.8-1,4.6,0.4c1.8,1.4,3.2,3,4.2,4.4c1,1.4,2.1,2.9,3.5,5.5c1.4,2.6,2,4.2,2.5,6.2c0.3,1,0.5,1.9,0.8,2.8
	c0.3,0.9,0.5,1.8,0.8,2.7c0.6,1.8,0.9,3.7,1.2,4.6c0.3,0.9,0.2,1.8,0.9,1.8c1.4-0.2,7.5-8.4,8.7-9.6c1.8-1.8,5.6-5,8.9-4.9
	c3.2,0.1,5.6,1.8,6.4,3.7c0.8,1.8,2.6,5.5,3.3,8.5c0.7,3,2,7.5,2.4,10c0.4,2.5,1.3,8.4,1.3,11.8c0,3.4,0,8.9,0,11.9
	c0,3.1,0,14.1,0,16.8c0,2.7,0,6.2,0.2,6.7c0.2,0.5,1.1,3.1,0.9,4.9c-0.2,2.1-0.7,5.5-2.1,7.4c-0.9,1.3-4.8,1.1-6.8-1
	c-1.4-1.5-1.9-4.6-2.1-7.6c-0.2-3-0.7-11.1-0.7-14.1c0-3-0.4-13.5-0.4-15.4c0-2.9,0.2-26.5-3-27.2c-2-0.4-4.9,0.5-8.4,6
	c-3.5,5.6-4,6.7-6.1,10c-2.1,3.3-3.9,6.5-5.6,7.9c-1.8,1.4-3,3.3-4.7,2C29.9,59,29,51.1,28.6,44.4c-0.2-3.5-0.5-6.7-0.5-8.6
	c0.1-2.4-0.4-10.9-4.6-10.9C20,25,20.3,42.3,20.3,46c0,3.1,0,15.9,0,17.5c0.1,2.5-0.1,17.2-5.1,17.1c-1.1,0-2.2-0.7-3.1-1.7
	c-0.9-1-1.6-2.3-1.9-3.4C8.3,68.3,9,62.2,8.7,54.9c0-1.2,0-10.3-0.5-14.1C7.7,37,6.2,27.6,6,25.5c-0.2-2.1-0.6-5.7,0.2-7.6
	C6.5,16,9.2,11.7,11.8,12.4z"/>
</svg>
