<?xml version="1.0" encoding="utf-8"?>
<!-- Generator: Adobe Illustrator 21.1.0, SVG Export Plug-In . SVG Version: 6.00 Build 0)  -->
<svg version="1.1" id="Layer_1" xmlns="http://www.w3.org/2000/svg" xmlns:xlink="http://www.w3.org/1999/xlink" x="0px" y="0px"
	 viewBox="0 0 1995.8 592.3" style="enable-background:new 0 0 1995.8 592.3;" xml:space="preserve">
<style type="text/css">
	.st0{display:none;fill:#295413;}
	.st1{fill:#295413;}
	.st2{enable-background:new    ;}
</style>
<path class="st0" d="M123.3,253.2c-56.9,0.8-103.8-46.5-103.3-103.5C20.6,92.9,67.3,46.2,125.6,47.4c55.5,1.2,101.1,47,100.7,103.8
	C225.7,209.1,178,253.8,123.3,253.2z M94.8,67.8c-5,0-8.6,1.5-12.6,3.7c-15.2,8.3-24,21.1-25.8,38.3c-1.5,14.5,2.5,28.1,9.5,40.7
	c1.9,3.4,4.8,6.2,5.4,10.2c1.2,7,1.9,14,2.2,21c0.5,10.4,1,20.7,2.6,31c0.8,5.4,1.9,10.6,4.4,15.4c2.5,4.6,6,7.4,11.4,7.5
	c5.4,0.1,8.8-3,11.3-7.3c2.5-4.3,3.7-9,4.8-13.8c2-9,3.2-18.3,5.9-27.1c1-3.3,2-6.6,4.4-9.4c3.3-3.9,8.2-3.1,10,1.7
	c1.1,3,0.9,6,0.9,9.1c0.1,8.4-1.4,16.7-2.2,24.9c-0.4,4.7-0.9,9.4,0.5,14c2.3,7.9,10.4,10.7,17.4,6.1c5.1-3.4,8.6-8.3,11.5-13.4
	c8.3-14.6,13.4-30.6,17.4-46.9c1.1-4.6,2.8-8.3,6.5-11.7c11.3-10.6,17-24.1,16.9-39.7c-0.1-13.4-5.2-25.2-13.3-35.9
	c-6.8-9-15.6-13.8-26.7-13.8c-9.7,0-18.8,2.8-27.4,7.1c-2.1,1.1-3.5,0.9-5.4-0.3C115.1,73.8,105.7,67.6,94.8,67.8z"/>
<path class="st1" d="M118,548.5c-3.1-5.5-3.9-11.1-3.3-16.9c0.9-8.9,4.6-16.5,9.6-23.7c3.7-5.2,7.8-10.2,11.7-15.3
	c3.4-4.4,5.8-9.2,4.5-15c-1-4.7-3.6-8.6-6.9-12.1c-6.7-7.2-14-13.8-21.4-20.2c-7.4-6.5-14-13.6-18.3-22.4
	c-3.1-6.5-2.8-12.8,0.6-19.1c4-7.2,9.7-12.8,16.1-17.5c12.6-9.4,25.4-18.4,38.2-27.5c5.2-3.7,5.8-9.2,1.4-13.9
	c-5.6-5.9-12.6-9.5-20-12.4c-13.8-5.4-27.9-9.8-41.5-15.7c-9.3-4-17.4-9.7-22.8-18.6c-4.4-6.9-3.7-13.8-0.3-20.8c1.7-3.5,4-6.5,7-9
	c0.6-0.5,1.2-1,1.5-1.9c2.2-6.6,7.6-9.1,13.7-10.9c4.1-1.2,8.2-1.1,12.3-1c4.3,0.1,9.3,3.8,10.1,7.9c0.5,2.5,0.5,5.2-1.9,7.3
	c-4.4,4-9.6,6.5-14.9,8.8c-1.1,0.5-2.7,0.5-4,0.5c-2.8-0.1-4.8,0.9-6.1,3.6c-1.2,2.7-0.6,5,1.2,7.2c2.7,3.3,6.4,5.2,9.8,7.7
	c6.7,4.8,13.7,8.8,21.1,12.3c8.4,4,16.9,7.6,25.1,11.7c8.2,4.1,16.7,8.1,23.6,14.5c4.4,4.1,7.2,9,6.5,15.2c-0.6,5.2-3,9.5-6.6,13.2
	c-5.4,5.6-12,9.5-18.6,13.6c-10.5,6.5-21,12.9-30.6,20.7c-3.7,3.1-6.9,6.5-9,11c-2.2,4.7-1.3,9,1.3,13.2c3.3,5.4,7.6,10,12,14.4
	c6.8,6.9,13.7,13.6,20.4,20.5c4.6,4.8,8.6,9.9,10.6,16.5c1.2,4.1,0.2,7.7-1,11.5c-2.2,7-7.5,11.9-12.4,16.9
	c-5.5,5.6-11.4,11.1-15.3,18.2c-4.2,7.7-6.5,15.8-3.4,24.5C118.5,546.1,118.8,547,118,548.5z M97.6,262c1.2,0,2.5-0.3,2.5-1.5
	c0-1.3-1.4-1.5-2.4-1.6c-1-0.1-2.3,0.3-2.3,1.5C95.3,261.7,96.5,262,97.6,262z"/>
<path class="st1" d="M131.9,306.8c-0.1,3.7,0.6,4,3.9,2.4c10-4.4,18.9-10.8,27.8-17c4.1-2.9,5.2-7.4,3-11.1
	c-1.2-1.9-2.9-2.4-4.8-2.3c-3.1,0.2-5.9-0.8-8.5-2.3c-3.4-1.9-6.9-3.6-10-6.1c-4.4-3.5-3-11.1,1.3-14c4.8-3.1,10-2.5,15.1-1.9
	c4.7,0.6,9.4,2.1,13.1,5.5c1.2,1.1,2.4,2.3,2.9,3.9c0.6,2,2,3.4,3.5,4.9c6.4,6.5,10.2,14,8.2,23.3c-1.1,5.1-4.4,9.1-8.2,12.8
	c-6.6,6.5-14.5,10.8-23.2,13.9c-2.2,0.8-4.4,1.5-6.6,2.5c-1.2,0.6-2.1,0.5-3.3-0.2c-8-4.2-16.2-7.8-24.4-11.6
	c-1.3-0.6-2.3-1.4-2.4-3.1c-0.7-19.3-0.8-38.7-0.8-57.9c0-3.1,0-3.1,3.1-3.1c2.9,0,5.8,0.1,8.7,0c2-0.1,2.7,0.6,2.7,2.7
	c-0.1,5.6,0,11.3,0,16.9 M153,262c1.1,0,2.4-0.1,2.4-1.5c0-1.2-1.1-1.5-2.2-1.5c-1.1,0-2.3,0.2-2.3,1.6
	C150.8,261.8,151.9,262,153,262z"/>
<path class="st1" d="M130.7,353.9c0,3.2-0.1,8,0,12.7c0,1.5-0.6,2.3-1.7,3.1c-5.1,3.6-10.1,7.1-15.2,10.7c-1.2,0.9-2.3,1.3-3.7,0.4
	c-8.1-5.3-16.9-9.6-23.7-16.8c-5-5.3-6.9-11.5-5.6-18.6c0.6-3.5,3-6.2,5.4-8.7c4.2-4.4,9.3-7.7,14.6-10.6c1.7-0.9,3.5-0.9,5-0.2
	c7.6,3.1,15.5,5.4,23,8.6c1.9,0.8,2.7,1.9,2.5,4C131.1,343.2,130.9,347.8,130.7,353.9z M119.8,352.1c0-5.6,0-11.1,0-16.7
	c0-2.2-0.7-2.6-2.6-1.9c-6.5,2.7-12.7,6.4-17.3,11.9c-3.4,4.1-4,8.3,0.7,12c5.5,4.3,11.2,8.2,16.9,12.3c0.6,0.5,1.5,1.1,2.3,0.6
	c0.9-0.5,0.6-1.4,0.6-2.1"/>
<path class="st1" d="M120.9,399.5c0-1.6,0.5-2.6,1.8-3.6c4.5-3.5,9.4-6.5,14.2-9.7c1.2-0.8,2.6-1,3.7,0c6.1,5.3,12.1,10.6,16,17.9
	c4.3,8,2.7,15.3-1.7,22.4c-5,8-11.4,14.8-18.7,20.7c-1.3,1-2.2,0.8-3.2-0.2c-3.4-3.5-6.9-6.9-10.3-10.3c-1-1-1.5-2.3-1.5-3.8
	c0.1-5.6,0-11.3,0-16.9 M130.2,438.3c5-4.7,9.6-9.6,13.2-15.4c4.1-6.5,3.6-10.6-0.5-16.9c-2.6-4.1-6.3-7.2-10.2-9.9
	c-2.1-1.5-2.8-1.2-2.9,1.5c-0.2,4-0.2,8-0.2,12c-0.2,8.8,0.3,17.6-0.6,26.3C128.9,436.7,128.9,437.6,130.2,438.3z"/>
<path class="st1" d="M127.7,497.7c0,1-0.2,2-0.9,2.9c-1.7,2.3-3.4,4.5-5.1,6.8c-0.7,1-1.5,1.3-2.5,0.2c-4.8-4.8-10-9.3-14-14.9
	c-4.8-6.9-6.9-14.5-3.2-22.7c2.3-5.2,6.2-9.6,10.2-13.6c1.3-1.3,2.3-3.5,4.2-3.6c1.9-0.1,2.7,2.2,4.2,3.2c2.4,1.7,4.2,4,6.3,6
	c1,1,1.5,2.3,1.4,3.9c-0.1,4,0,7.8,0,11.8 M121.3,500.9c1.1-2.3,0.9-36.8-0.1-38.7c-0.6-0.1-1.1,0.2-1.5,0.6c-3.8,4.1-8,8.1-9.1,14
	c-0.3,1.7-1,3.2-0.7,5.1C111.2,489.5,116.6,494.8,121.3,500.9z"/>
<path class="st1" d="M130.9,537.9c0.6-3.2,1.5-6.3,1.1-9.6c-0.4-3.3-1.4-6.3-4-9c-1,1.5-0.7,3-0.8,4.3c-0.3,11.4-0.6,22.8-0.9,34.1
	c0,1.5-0.2,3.1-1.5,4.5c-1.3-1.4-1.9-2.8-1.9-4.5c-0.1-10.9-0.2-21.9-0.2-32.8c0-4.4,3.2-7.3,5.8-10.4c0.6-0.7,1.5-0.4,1.9,0.4
	c4,6,5,16.1,1.6,22.3c-0.2,0.3-0.3,0.7-0.5,1C131.6,538.2,131.3,538.1,130.9,537.9z"/>
<path class="st1" d="M80.3,121.9c0.2-9.4,4.8-18.1,14.3-24c4.2-2.6,8.7-2.3,13.3-1.1c9.1,2.6,16.3,8.1,23.2,14.1
	c1.6,1.3,3,2.8,4.6,4.2c1.9,1.6,4,1.4,5.7-0.3c1.5-1.5,1.6-4.1,0-5.8c-1.7-1.8-3.6-3.5-5.4-5.2c-0.9-0.8-1.1-1.5,0.2-2
	c5.3-2.2,10.8-3.6,16.5-2.9c4.4,0.5,7.9,2.4,10.7,5.9c4.8,5.8,8.1,12.2,9.1,19.7c1.4,9.7-1.2,18.2-7.1,25.8c-1.9,2.4-4,4.4-6.3,6.2
	c-1.3,1-2.2,2.2-2.5,4c-2.4,11.5-5.8,22.8-10.6,33.6c-1.6,3.6-3.5,7.2-5.8,10.5c-0.7,1.1-1.7,2-2.6,2.8c-0.5,0.5-1.1,1.1-1.9,0.8
	c-0.7-0.3-0.5-1.1-0.5-1.7c-0.3-4.5,0.5-8.9,1.1-13.3c0.7-5.5,1.1-11,0.9-16.5c-0.1-2.4-0.7-4.9-1.7-7.1c-2-4.6-5.4-7.2-10.5-7.7
	c-5.9-0.5-10.1,2.2-12.9,7c-3,5.1-4.4,10.8-5.6,16.5c-1.4,6.5-2.2,13.1-4.4,19.4c-0.5,1.3-0.7,3.3-2.5,3.3c-1.7,0-1.9-2-2.4-3.4
	c-1.4-4.5-1.8-9.2-2.2-13.9c-0.9-8.7-1.1-17.3-1.9-26c-0.6-6.5-2.2-12.5-6-18.1C82.9,140.6,80.3,131,80.3,121.9z"/>
<g>
	<g class="st2">
		<path class="st1" d="M245.6,57.1h71.8c57.6,0,96.5,37.9,96.5,90.8s-38.9,90.8-96.5,90.8h-71.8V57.1z M316.4,226.7
			c51.3,0,84.3-32.7,84.3-78.8S367.7,69,316.4,69h-57.6v157.7H316.4z"/>
		<path class="st1" d="M434.1,147.8c0-52.6,40.2-92.1,94.4-92.1c53.9,0,94.4,39.2,94.4,92.1s-40.5,92.1-94.4,92.1
			C474.3,239.9,434.1,200.5,434.1,147.8z M609.4,147.8c0-45.9-34.7-79.9-80.9-79.9c-46.4,0-81.2,34-81.2,79.9
			c0,45.9,34.7,79.9,81.2,79.9C574.6,227.7,609.4,193.7,609.4,147.8z"/>
		<path class="st1" d="M808.3,57.1v181.5h-10.9L673.7,80.9v157.7h-13.2V57.1h11.2L795,214.7V57.1H808.3z"/>
		<path class="st1" d="M898,69h-65.3V57.1h143.9V69h-65.3v169.6H898V69z"/>
		<path class="st1" d="M31.1,147.8c0-52.6,40.2-92.1,94.4-92.1c53.9,0,94.4,39.2,94.4,92.1s-40.5,92.1-94.4,92.1
			C71.3,239.9,31.1,200.5,31.1,147.8z M206.4,147.8c0-45.9-34.7-79.9-80.9-79.9c-46.4,0-81.2,34-81.2,79.9
			c0,45.9,34.7,79.9,81.2,79.9C171.6,227.7,206.4,193.7,206.4,147.8z"/>
	</g>
	<g class="st2">
		<path class="st1" d="M977,147.8c0-52.6,40.2-92.1,94.4-92.1c53.9,0,94.4,39.2,94.4,92.1s-40.5,92.1-94.4,92.1
			C1017.2,239.9,977,200.5,977,147.8z M1152.3,147.8c0-45.9-34.7-79.9-80.9-79.9c-46.4,0-81.2,34-81.2,79.9
			c0,45.9,34.7,79.9,81.2,79.9C1117.6,227.7,1152.3,193.7,1152.3,147.8z"/>
	</g>
	<g class="st2">
		<path class="st1" d="M1186.6,57.1h13.2v169.6h104.5v11.9h-117.7V57.1z"/>
		<path class="st1" d="M1309,147.8c0-52.6,40.2-92.1,94.4-92.1c53.9,0,94.4,39.2,94.4,92.1s-40.5,92.1-94.4,92.1
			C1349.2,239.9,1309,200.5,1309,147.8z M1484.3,147.8c0-45.9-34.7-79.9-80.9-79.9c-46.4,0-81.2,34-81.2,79.9
			c0,45.9,34.7,79.9,81.2,79.9C1449.6,227.7,1484.3,193.7,1484.3,147.8z"/>
		<path class="st1" d="M1665.1,148.6h12.7v67.9c-16.3,15.6-39.9,23.3-64.8,23.3c-54.7,0-94.9-39.2-94.9-92.1s40.2-92.1,95.2-92.1
			c26.2,0,49.3,8.3,65.3,24.9l-8.3,8.8c-15.8-15.6-34.7-21.5-56.8-21.5c-47.2,0-82.2,34.2-82.2,79.9c0,45.4,35,79.9,82.2,79.9
			c19.2,0,36.8-4.7,51.6-16.6V148.6z"/>
		<path class="st1" d="M1755.6,11.7h18.7l-40.7,30.6h-14L1755.6,11.7z M1727.6,57.1h13.2v181.5h-13.2V57.1z"/>
		<path class="st1" d="M1908,187.5h-105.3l-23.1,51.1h-14.3l83.5-181.5h13.2l83.5,181.5h-14.3L1908,187.5z M1903.1,176.4
			l-47.7-104.8l-47.5,104.8H1903.1z"/>
	</g>
</g>
<g class="st2">
	<path class="st1" d="M236.5,417.1c0-75,57-130.5,133.4-130.5c36.4,0,69.1,11.8,91.5,35.7l-11.8,12.1c-22.1-21.7-48.9-30.5-79-30.5
		c-65.8,0-115.4,48.5-115.4,113.2c0,64.7,49.6,113.2,115.4,113.2c30.1,0,57-9.2,79-30.9l11.8,12.1c-22.4,23.9-55.1,36-91.5,36
		C293.5,547.6,236.5,492.1,236.5,417.1z"/>
</g>
<g class="st2">
	<path class="st1" d="M676.1,473.4H526.9l-32.7,72.4H474l118.3-257.3h18.7l118.3,257.3h-20.2L676.1,473.4z M669.1,457.6l-67.6-148.5
		l-67.3,148.5H669.1z"/>
</g>
<g class="st2">
	<path class="st1" d="M911.7,288.5L797,545.8h-18.7L663.6,288.5h20.6l104,233l104-233H911.7z"/>
</g>
<g class="st2">
	<path class="st1" d="M1051.7,473.4H902.5l-32.7,72.4h-20.2l118.3-257.3h18.7L1105,545.8h-20.2L1051.7,473.4z M1044.7,457.6
		l-67.6-148.5l-67.3,148.5H1044.7z"/>
</g>
<g class="st2">
	<path class="st1" d="M1122.3,288.5h18.7v240.4h148.1v16.9h-166.9V288.5z"/>
</g>
<g class="st2">
	<path class="st1" d="M1315.2,288.5h18.7v240.4h148.1v16.9h-166.9V288.5z"/>
</g>
<g class="st2">
	<path class="st1" d="M1682,528.9v16.9h-177.5V288.5h172v16.9h-153.3v101.4h137.1v16.5h-137.1v105.5H1682z"/>
</g>
<g class="st2">
	<path class="st1" d="M1881.2,545.8l-61.4-86c-8.1,1.1-16.2,1.8-25,1.8h-73.5v84.2h-18.7V288.5h92.2c64.7,0,103.6,32.3,103.6,86.7
		c0,40.8-22.1,69.1-60.3,80.5l64.3,90H1881.2z M1794.9,445.1c55.1,0,84.5-25.7,84.5-69.8c0-44.5-29.4-69.8-84.5-69.8h-73.5v139.7
		H1794.9z"/>
</g>
<g class="st2">
	<path class="st1" d="M1926.8,288.5h18.7v257.3h-18.7V288.5z"/>
</g>
</svg>
