<?xml version="1.0" encoding="utf-8"?>
<!-- Generator: Adobe Illustrator 21.1.0, SVG Export Plug-In . SVG Version: 6.00 Build 0)  -->
<svg version="1.1" xmlns="http://www.w3.org/2000/svg" xmlns:xlink="http://www.w3.org/1999/xlink" x="0px" y="0px"
	 viewBox="0 0 1964 676" style="enable-background:new 0 0 1964 676;" xml:space="preserve">
<style type="text/css">
	.st0{fill:#295413;}
</style>
<g id="Layer_1">
	<g>
		<path class="st0" d="M162.4,261.2C95.5,262.1,40.4,206.6,41,139.5C41.6,72.8,96.5,17.9,165,19.4c65.2,1.4,118.8,55.2,118.3,122
			C282.7,209.4,226.7,261.9,162.4,261.2z M128.8,43.3c-5.9,0-10.1,1.8-14.8,4.4c-17.9,9.8-28.2,24.8-30.3,45
			c-1.8,17.1,2.9,33,11.2,47.8c2.2,4,5.6,7.3,6.4,12c1.4,8.2,2.2,16.4,2.6,24.7c0.6,12.2,1.2,24.3,3,36.4c0.9,6.3,2.2,12.5,5.2,18.1
			c2.9,5.4,7.1,8.7,13.4,8.8c6.3,0.1,10.3-3.5,13.3-8.6c2.9-5,4.3-10.6,5.6-16.2c2.4-10.6,3.8-21.5,6.9-31.9c1.2-3.9,2.4-7.8,5.2-11
			c3.9-4.6,9.6-3.6,11.7,2c1.3,3.5,1.1,7.1,1.1,10.7c0.1,9.9-1.7,19.6-2.6,29.3c-0.5,5.5-1.1,11,0.6,16.5
			c2.7,9.3,12.2,12.6,20.4,7.2c6-4,10.1-9.7,13.5-15.8c9.8-17.2,15.7-36,20.4-55.1c1.3-5.4,3.3-9.8,7.6-13.8
			c13.3-12.5,20-28.3,19.9-46.7c-0.1-15.8-6.1-29.6-15.6-42.2c-8-10.6-18.3-16.2-31.4-16.2c-11.4,0-22.1,3.3-32.2,8.4
			c-2.5,1.3-4.1,1-6.4-0.3C152.7,50.4,141.7,43.1,128.8,43.3z"/>
		<path class="st0" d="M153.2,639.5c-3.8-6.8-4.8-13.7-4.1-20.9c1.1-11,5.7-20.5,11.9-29.4c4.6-6.5,9.7-12.7,14.5-19
			c4.2-5.5,7.2-11.4,5.6-18.6c-1.3-5.8-4.5-10.7-8.5-15c-8.3-8.9-17.3-17.1-26.5-25c-9.2-8-17.3-16.8-22.7-27.8
			c-3.9-8.1-3.5-15.9,0.8-23.7c4.9-8.9,12-15.8,20-21.7c15.6-11.6,31.5-22.8,47.3-34.1c6.5-4.6,7.2-11.4,1.7-17.2
			c-6.9-7.3-15.6-11.8-24.8-15.4c-17.1-6.7-34.6-12.2-51.4-19.5c-11.5-5-21.5-12-28.3-23c-5.4-8.6-4.6-17.1-0.4-25.8
			c2.1-4.3,5-8.1,8.7-11.2c0.8-0.6,1.5-1.3,1.8-2.3c2.7-8.2,9.4-11.3,17-13.5c5.1-1.5,10.2-1.4,15.3-1.2c5.3,0.1,11.5,4.7,12.5,9.8
			c0.6,3.1,0.6,6.5-2.3,9.1c-5.5,4.9-11.9,8-18.5,10.9c-1.4,0.6-3.3,0.6-4.9,0.6c-3.5-0.1-6,1.1-7.5,4.4c-1.5,3.4-0.7,6.2,1.5,8.9
			c3.3,4.1,7.9,6.5,12.1,9.5c8.3,5.9,17,10.9,26.1,15.3c10.4,4.9,20.9,9.4,31.1,14.5c10.2,5.1,20.7,10,29.2,18
			c5.4,5.1,8.9,11.1,8.1,18.8c-0.7,6.4-3.7,11.8-8.2,16.4c-6.7,6.9-14.9,11.8-23,16.8c-13,8.1-26,16-37.9,25.6
			c-4.6,3.8-8.6,8.1-11.2,13.6c-2.7,5.8-1.6,11.1,1.6,16.3c4.1,6.7,9.4,12.4,14.9,17.9c8.4,8.5,17,16.9,25.3,25.4
			c5.7,5.9,10.7,12.3,13.1,20.4c1.5,5.1,0.2,9.6-1.2,14.2c-2.7,8.7-9.3,14.7-15.4,20.9c-6.8,7-14.1,13.8-18.9,22.5
			c-5.2,9.6-8.1,19.6-4.2,30.4C153.8,636.5,154.1,637.7,153.2,639.5z M127.9,284.6c1.5,0,3.1-0.4,3.1-1.9c0-1.6-1.7-1.9-3-2
			c-1.3-0.1-2.8,0.4-2.9,1.8C125,284.2,126.5,284.5,127.9,284.6z"/>
		<path class="st0" d="M170.4,340.1c-0.1,4.6,0.7,4.9,4.8,3c12.4-5.5,23.4-13.4,34.5-21.1c5.1-3.6,6.5-9.2,3.7-13.7
			c-1.5-2.3-3.6-3-6-2.8c-3.9,0.2-7.3-1-10.5-2.9c-4.2-2.4-8.5-4.5-12.4-7.6c-5.4-4.3-3.7-13.8,1.6-17.3c6-3.8,12.4-3.1,18.7-2.3
			c5.8,0.8,11.6,2.6,16.2,6.8c1.5,1.4,3,2.8,3.6,4.8c0.7,2.5,2.5,4.2,4.3,6.1c7.9,8,12.6,17.4,10.2,28.9
			c-1.4,6.3-5.5,11.3-10.1,15.8c-8.2,8-18,13.4-28.8,17.2c-2.7,1-5.5,1.9-8.2,3.1c-1.5,0.7-2.6,0.6-4.1-0.2
			c-9.9-5.2-20.1-9.7-30.2-14.4c-1.6-0.8-2.9-1.7-3-3.9c-0.9-23.9-1-47.9-1-71.8c0-3.8,0-3.8,3.9-3.9c3.6,0,7.2,0.1,10.8,0
			c2.5-0.1,3.4,0.8,3.4,3.4c-0.1,7,0,14,0,21 M196.5,284.5c1.4,0,3-0.1,3-1.9c0-1.5-1.4-1.9-2.7-1.9c-1.4,0-2.9,0.2-2.9,2
			C193.8,284.3,195.2,284.6,196.5,284.5z"/>
		<path class="st0" d="M168.9,398.4c0,4-0.1,9.9,0,15.7c0,1.8-0.7,2.9-2.1,3.9c-6.3,4.4-12.5,8.8-18.8,13.3
			c-1.5,1.1-2.9,1.6-4.6,0.5c-10-6.6-21-11.9-29.4-20.8c-6.2-6.6-8.6-14.3-6.9-23.1c0.8-4.3,3.7-7.7,6.7-10.8
			c5.2-5.5,11.5-9.5,18.1-13.1c2.1-1.1,4.3-1.1,6.2-0.3c9.4,3.9,19.2,6.7,28.5,10.7c2.3,1,3.3,2.4,3.1,4.9
			C169.4,385.1,169.2,390.9,168.9,398.4z M155.4,396.2c0-6.9,0-13.8,0-20.7c0-2.7-0.9-3.2-3.2-2.3c-8.1,3.4-15.7,7.9-21.4,14.7
			c-4.2,5.1-4.9,10.3,0.9,14.9c6.8,5.3,13.9,10.2,20.9,15.3c0.8,0.6,1.8,1.4,2.9,0.7c1.1-0.6,0.7-1.7,0.7-2.6"/>
		<path class="st0" d="M156.7,454.9c0-2,0.6-3.2,2.2-4.4c5.6-4.3,11.7-8,17.6-12c1.5-1,3.2-1.2,4.6,0c7.5,6.6,15,13.1,19.8,22.2
			c5.3,9.9,3.4,19-2.1,27.8c-6.2,9.9-14.1,18.3-23.2,25.6c-1.6,1.3-2.7,1-4-0.3c-4.2-4.3-8.5-8.5-12.8-12.8
			c-1.3-1.3-1.8-2.9-1.8-4.7c0.1-7,0-14,0-21 M168.3,503c6.2-5.8,11.9-11.9,16.4-19.1c5.1-8,4.4-13.1-0.6-21
			c-3.2-5.1-7.8-8.9-12.6-12.3c-2.6-1.9-3.5-1.5-3.6,1.9c-0.2,4.9-0.2,9.9-0.3,14.9c-0.2,10.9,0.4,21.8-0.7,32.6
			C166.6,501,166.6,502.1,168.3,503z"/>
		<path class="st0" d="M165.2,576.6c0,1.3-0.3,2.5-1.1,3.6c-2.1,2.8-4.2,5.6-6.3,8.4c-0.9,1.2-1.8,1.6-3.1,0.3
			c-6-6-12.4-11.5-17.3-18.5c-6-8.6-8.5-18-4-28.1c2.9-6.5,7.7-11.9,12.7-16.9c1.6-1.6,2.8-4.3,5.2-4.4c2.3-0.1,3.3,2.7,5.2,4
			c3,2.1,5.2,4.9,7.8,7.4c1.3,1.3,1.8,2.9,1.7,4.8c-0.1,4.9,0,9.7,0,14.6 M157.3,580.5c1.4-2.9,1.1-45.6-0.1-47.9
			c-0.7-0.1-1.4,0.2-1.9,0.7c-4.7,5.1-9.9,10-11.3,17.3c-0.4,2.1-1.3,4-0.9,6.3C144.7,566.4,151.4,573,157.3,580.5z"/>
		<path class="st0" d="M169.2,626.4c0.7-4,1.9-7.8,1.4-11.9c-0.5-4.1-1.7-7.8-5-11.1c-1.3,1.9-0.9,3.7-1,5.3
			c-0.4,14.1-0.7,28.2-1.1,42.3c0,1.9-0.3,3.8-1.8,5.6c-1.6-1.7-2.3-3.5-2.3-5.6c-0.1-13.5-0.3-27.1-0.2-40.6c0-5.4,4-9.1,7.2-12.9
			c0.8-0.9,1.8-0.5,2.4,0.5c5,7.4,6.2,20,2,27.6c-0.2,0.4-0.4,0.9-0.6,1.3C170,626.8,169.6,626.6,169.2,626.4z"/>
		<path class="st0" d="M96.2,96.7c0.3-14.2,7.2-27.4,21.6-36.3c6.3-3.9,13.2-3.5,20.1-1.6c13.7,3.9,24.6,12.2,35.1,21.3
			c2.4,2,4.5,4.3,6.9,6.3c2.8,2.4,6.1,2.1,8.6-0.4c2.3-2.3,2.4-6.2,0-8.7c-2.6-2.7-5.4-5.3-8.2-7.9c-1.3-1.2-1.7-2.2,0.3-3
			c8-3.3,16.3-5.4,25-4.4c6.6,0.7,11.9,3.7,16.2,8.9c7.2,8.8,12.2,18.5,13.8,29.8c2.1,14.6-1.8,27.5-10.8,39c-2.8,3.6-6,6.6-9.6,9.4
			c-2,1.5-3.3,3.4-3.8,6c-3.7,17.4-8.8,34.4-16.1,50.8c-2.4,5.5-5.3,10.9-8.7,15.8c-1.1,1.6-2.5,3-3.9,4.3c-0.7,0.7-1.6,1.7-2.8,1.2
			c-1.1-0.5-0.8-1.7-0.8-2.6c-0.4-6.8,0.8-13.4,1.7-20.1c1-8.3,1.6-16.7,1.3-25c-0.1-3.7-1-7.4-2.5-10.8c-3-6.9-8.2-10.9-15.9-11.6
			c-8.9-0.8-15.2,3.3-19.5,10.6c-4.6,7.7-6.6,16.3-8.4,25c-2.1,9.8-3.3,19.8-6.6,29.3c-0.7,2-1.1,5-3.8,5c-2.6,0-2.9-3-3.6-5.1
			c-2.1-6.8-2.7-13.9-3.4-21c-1.3-13.1-1.6-26.2-2.8-39.3c-0.9-9.8-3.3-18.9-9.1-27.3C100.1,125.1,96.3,110.5,96.2,96.7z"/>
	</g>
</g>
<g id="Layer_2">
	<g>
		<path class="st0" d="M323.2,182.1c0-43.4,33.2-76,77.9-76c44.5,0,77.9,32.3,77.9,76c0,43.6-33.4,76-77.9,76
			C356.4,258.1,323.2,225.5,323.2,182.1z M467.9,182.1c0-37.9-28.7-65.9-66.8-65.9c-38.3,0-67,28-67,65.9c0,37.9,28.7,65.9,67,65.9
			C439.2,248,467.9,220,467.9,182.1z"/>
		<path class="st0" d="M508.9,107.2h59.3c47.5,0,79.6,31.2,79.6,74.9c0,43.6-32.1,74.9-79.6,74.9h-59.3V107.2z M567.3,247.2
			c42.4,0,69.5-27,69.5-65c0-38.1-27.2-65-69.5-65h-47.5v130.1H567.3z"/>
		<path class="st0" d="M663.4,182.1c0-43.4,33.2-76,77.9-76c44.5,0,77.9,32.3,77.9,76c0,43.6-33.4,76-77.9,76
			C696.6,258.1,663.4,225.5,663.4,182.1z M808,182.1c0-37.9-28.7-65.9-66.8-65.9c-38.3,0-67,28-67,65.9c0,37.9,28.7,65.9,67,65.9
			C779.4,248,808,220,808,182.1z"/>
		<path class="st0" d="M971.1,107.2V257h-9L860,126.9V257h-10.9V107.2h9.2l101.8,130.1V107.2H971.1z"/>
		<path class="st0" d="M1044,117.1h-53.9v-9.8h118.7v9.8h-53.9V257H1044V117.1z"/>
		<path class="st0" d="M1111.4,182.1c0-43.4,33.2-76,77.9-76c44.5,0,77.9,32.3,77.9,76c0,43.6-33.4,76-77.9,76
			C1144.6,258.1,1111.4,225.5,1111.4,182.1z M1256.1,182.1c0-37.9-28.7-65.9-66.8-65.9c-38.3,0-67,28-67,65.9
			c0,37.9,28.7,65.9,67,65.9C1227.4,248,1256.1,220,1256.1,182.1z"/>
		<path class="st0" d="M1284.3,107.2h10.9v139.9h86.2v9.8h-97.1V107.2z"/>
		<path class="st0" d="M1384.2,182.1c0-43.4,33.2-76,77.9-76c44.5,0,77.9,32.3,77.9,76c0,43.6-33.4,76-77.9,76
			C1417.4,258.1,1384.2,225.5,1384.2,182.1z M1528.8,182.1c0-37.9-28.7-65.9-66.8-65.9c-38.3,0-67,28-67,65.9
			c0,37.9,28.7,65.9,67,65.9C1500.2,248,1528.8,220,1528.8,182.1z"/>
		<path class="st0" d="M1676.9,182.8h10.5v56.1c-13.5,12.8-33,19.3-53.5,19.3c-45.1,0-78.3-32.3-78.3-76c0-43.6,33.2-76,78.5-76
			c21.6,0,40.7,6.8,53.9,20.5l-6.8,7.3c-13.1-12.8-28.7-17.8-46.9-17.8c-38.9,0-67.8,28.2-67.8,65.9c0,37.4,28.9,65.9,67.8,65.9
			c15.8,0,30.4-3.9,42.6-13.7V182.8z"/>
		<path class="st0" d="M1750.5,69.8h15.4L1732.3,95h-11.6L1750.5,69.8z M1727.4,107.2h10.9V257h-10.9V107.2z"/>
		<path class="st0" d="M1875.2,214.8h-86.9l-19,42.1h-11.8l68.9-149.8h10.9l68.9,149.8h-11.8L1875.2,214.8z M1871.2,205.6
			l-39.4-86.4l-39.2,86.4H1871.2z"/>
		<path class="st0" d="M328.8,408.2c0-69.8,53.1-121.5,124.3-121.5c33.9,0,64.4,11,85.2,33.2l-11,11.3
			c-20.5-20.2-45.5-28.4-73.6-28.4c-61.3,0-107.5,45.2-107.5,105.4c0,60.2,46.2,105.4,107.5,105.4c28.1,0,53.1-8.6,73.6-28.8
			l11,11.3c-20.9,22.2-51.3,33.5-85.2,33.5C381.9,529.7,328.8,478,328.8,408.2z"/>
		<path class="st0" d="M731.7,460.6h-139L562.3,528h-18.8l110.2-239.6h17.5L781.4,528h-18.8L731.7,460.6z M725.2,445.8l-63-138.3
			l-62.6,138.3H725.2z"/>
		<path class="st0" d="M951.1,288.4L844.3,528h-17.5L720.1,288.4h19.2l96.9,217l96.9-217H951.1z"/>
		<path class="st0" d="M1081.6,460.6h-139L912.1,528h-18.8l110.2-239.6h17.5L1131.2,528h-18.8L1081.6,460.6z M1075.1,445.8
			l-63-138.3l-62.6,138.3H1075.1z"/>
		<path class="st0" d="M1147.3,288.4h17.5v223.9h138V528h-155.4V288.4z"/>
		<path class="st0" d="M1327,288.4h17.5v223.9h138V528H1327V288.4z"/>
		<path class="st0" d="M1668.6,512.3V528h-165.3V288.4h160.2v15.7h-142.7v94.5h127.7V414h-127.7v98.2H1668.6z"/>
		<path class="st0" d="M1854.2,528l-57.2-80.1c-7.5,1-15.1,1.7-23.3,1.7h-68.5V528h-17.5V288.4h85.9c60.2,0,96.5,30.1,96.5,80.8
			c0,38-20.5,64.4-56.1,75L1874,528H1854.2z M1773.7,434.2c51.3,0,78.7-24,78.7-65c0-41.4-27.4-65-78.7-65h-68.5v130.1H1773.7z"/>
		<path class="st0" d="M1896.6,288.4h17.5V528h-17.5V288.4z"/>
	</g>
</g>
</svg>
