<?xml version="1.0" encoding="utf-8"?>
<!-- Generator: Adobe Illustrator 21.1.0, SVG Export Plug-In . SVG Version: 6.00 Build 0)  -->
<svg version="1.1" id="Layer_1" xmlns="http://www.w3.org/2000/svg" xmlns:xlink="http://www.w3.org/1999/xlink" x="0px" y="0px"
	 viewBox="0 0 407 100" style="enable-background:new 0 0 407 100;" xml:space="preserve">
<style type="text/css">
	.st0{fill:#7B1A1D;}
	.st1{fill:#7B1A1D;stroke:#7B1A1D;stroke-miterlimit:10;}
	.st2{font-family:'OpenSans-Bold';}
	.st3{font-size:113.5676px;}
</style>
<path class="st0" d="M153.9,6.4L153.9,6.4c-4.8,0-7.8-0.1-7.8-0.1c0,0,0,5.6,0,5.7c-2.7-2.3-5.4-3.4-8.1-4.1
	c-3.2-0.6-6.9-1-10.9-1.2v0C111.9,5.6,94,6.5,94,6.2v17c-4.5-6.2-10.9-10.4-18-13.4c-1.4-0.6-2.7-1.1-4.1-1.6c-1-0.3-1.9-0.6-3-1
	c0,0-0.2,0-0.3,0c-1.1-0.3-2.2-0.6-3.3-0.8c0,0-1.1-0.1-1.7-0.2L63,6.2c-0.9-0.1-1.9-0.3-2.7-0.3c-0.4,0-0.8,0-1.2-0.1l0,0
	c-1.6,0-3.1,0-4.7,0c-0.3,0-0.7,0.1-1.1,0.1c-0.2,0-0.5,0-0.6,0l0,0c-0.5,0-1,0.1-1.4,0.1c-0.4,0-1.2,0.1-1.2,0.1
	c-0.6,0-1.3,0.2-2,0.3v0c-1.2,0.2-2.5,0.5-3.7,0.8v0c-1.1,0.3-2.2,0.6-3.2,1c-1.4,0.5-2.7,1-4.1,1.6v0c-4,1.8-7.7,4-11.2,6.9
	C16,24.9,11,36.2,10.6,48v2.9c0.2,5.9,1.6,11.9,4.1,17.4c0.9,1.9,2.4,3.5,3.6,5.3c2.3,3.8,5.1,6.5,8.7,9.4c1.4,1.1,3.1,2.2,4.5,3.1
	c1.3,0.6,2.8,1.2,3.7,1.8c0.6,0.4,1.3,0.7,1.9,1.1c1.3,0.6,2.7,1.2,4.1,1.6c1.1,0.4,2.1,0.7,3.2,1c1.2,0.3,2.5,0.5,3.7,0.7
	c0.6,0.1,1.3,0.2,2,0.3c0.4,0,0.7,0.1,1.2,0.1c0.5,0,1,0.1,1.5,0.1c0.2,0,0.4,0,0.6,0l1,0c1.6,0,3.2,0,4.8,0c0,0,0.8-0.1,1.2-0.1
	c0.9,0,1.8-0.2,2.6-0.3h0c0.2,0,0.5,0,0.6,0l0,0c0.6,0,1.7-0.2,1.7-0.2c1.1-0.2,2.2-0.4,3.3-0.6c1.1-0.3,3.2-0.9,3.2-0.9
	c1.4-0.4,2.8-0.9,4.1-1.5c6.9-2.9,13.1-7.4,18-12.9V92h25.1c0,0-0.2-27.6-0.2-27.8c0,0.1,3.8,4.8,8.2,10.5v0.1
	c4.4,5.6,9.5,12.5,12.7,17.3h14.1l0,0h36.3V28.4c0,0,18.6,0,18.8,0V6.5C193.7,6.5,167,6.5,153.9,6.4z M52.8,29.6
	c0.2-0.2,0.4-0.2,0.6-0.3c0.5-0.2,0.9-0.3,1.1-0.4c0,0,0,0,0,0.1c-0.2,0.2-0.6,0.7-1.1,1.4l0,0l0,0l0,0l0,0c-0.2,0.3-0.4,0.6-0.6,1
	l-1.5,2.5c0,0-0.5,0-1.1-0.1c-0.4-0.1-0.8-0.1-1.1-0.1c-0.4,0-1.1-0.2-0.7-0.6c0.4-0.4,1.1-1,1.9-1.6c0.4-0.3,0.7-0.5,1.2-0.8
	C51.8,30.3,52.8,29.6,52.8,29.6z M44.4,42.6c0,0,3.3,0.7,3.5,0.5c-0.1,0.5-0.7,4.2-0.4,5.9c0,0.1-1.6,0.1-3.1,0L41.7,49
	c-0.2-1.4,0.5-6,0.9-6.9C42.5,42.2,43.4,42.5,44.4,42.6z M43.2,40.5c0.1-0.5,0.6-1.4,1.2-2.5v0c0.8-1.4,1.9-2.9,2.5-3.4
	c0,0,0.6,0.1,1.2,0.3c0,0,1.7,0.3,2,0.3c0.1,0,0.2,0,0.2,0c-0.1,0.1-0.2,0.3-0.2,0.5c-0.6,1.8-2.1,5.8-2.1,5.8c0,0-0.1,0-0.1,0
	c-0.5-0.2-2.3-0.4-3.5-0.6C44.4,40.8,43.2,40.6,43.2,40.5z M41.7,50.4c0,0,1.3,0,2.7,0l3.1,0c0,1.6,0.2,4.2,0.4,5.6
	c0,0.2-0.9,0.2-2.3,0.6c-0.4,0-0.8,0.2-1.2,0.3c0,0-1.6,0.5-1.9,0.3C41.9,55.9,41.4,50.8,41.7,50.4z M44.4,58.2l3.7-0.6
	c0.1,0,0.1,0,0.2,0c0.5,0.6,1.2,3.8,1.9,5.6c0.1,0.3,0.3,0.6,0.4,0.8c0,0.1-0.1,0.2-0.4,0.3c-0.5,0.1-2,0.5-2.6,0.7
	c0,0-1.5-1.6-2.1-2.5c-0.3-0.6-0.7-1.2-1-1.9c0,0-0.8-1.5-0.8-2.2C43.6,58.4,43.9,58.3,44.4,58.2z M49.1,53.4v-3.1c0,0,0.4,0,1.1,0
	h1.2l0,0c0.5,0,0.9,0,1.4,0h0.6l1,0c0.8,0,1.4,0,1.4,0c0,0,0.2,5.1,0,5.1c-0.3,0-0.8,0.1-1.4,0.1c-0.3,0-2.6,0.2-3.1,0.3l0,0
	c-0.5,0-0.9,0.1-1.2,0h-0.5C49.2,55.9,49.1,54.1,49.1,53.4z M55.8,48.9c0,0-0.7,0-1.4,0.1c-0.3,0-0.7,0-1,0l-0.7,0c0,0-0.6,0-1.3,0
	h-1.2c-0.6,0-1.1,0-1.1,0c0-1,0.5-5.8,0.5-5.8l0.5,0.1c0,0,0.7,0.1,1.2,0.1l0,0h1.5c0,0,0.4,0,0.6,0l0,0c0.3,0,0.7,0,1,0h1.4
	C55.8,43.5,56,48.9,55.8,48.9z M55.8,42c-0.2,0-0.7,0-1.4,0c-0.3,0-0.7,0-1,0c-0.2,0-0.4,0-0.6,0c-0.5,0-1-0.1-1.4-0.1
	c0,0-1-0.1-1.2-0.1c-0.1,0-0.1,0-0.1-0.1c0-0.2,0-0.6,0.1-1.1c0.3-1.2,1.2-3.9,1.2-3.9c0.3-0.6,0.5-1.1,0.6-1.1c0.1,0,0.4,0,0.8,0
	c0.2,0,0.4,0,0.6,0c0.3,0,0.6,0,1,0c0.6,0,1.1,0.2,1.5,0.2C56,35.7,55.8,42,55.8,42z M43.8,31.2c0.1,0,0.3-0.1,0.6-0.2l3.7-1.5
	c0.6-0.3,1.3-0.6,2-0.7c0,0,0.8-0.2,1.2-0.3c0.6-0.2,1.1-0.2,1.4-0.1c-0.4,0.2-0.9,0.5-1.4,0.9c-0.4,0.2-0.8,0.5-1.2,0.8
	c-0.7,0.5-1.4,1.1-2,1.5l0,0c-1,0.7-1.6,1.2-1.6,1.2c-0.2,0-2.1-0.7-2.1-0.7C43.7,31.7,43.1,31.4,43.8,31.2z M37.1,37.8L37.1,37.8
	c0.3-1,2.5-4.2,4.1-5c0.2-0.1,0.4-0.1,0.6-0.1c0.3,0,2.6,1.1,2.6,1.1c0.3,0.2,0.6,0.4,0.8,0.5c0,0-0.4,0.6-0.8,1.3
	c0,0-2.3,3.5-3,4.5c0,0-0.1,0-0.3-0.1c-0.8-0.2-3.6-1.1-4.1-1.9l0,0C37,38.1,37.1,38,37.1,37.8z M35.4,40.3c0.2-0.1,0.9,0,1.7,0.1v0
	c1.4,0.4,3.2,1,3.6,1.2c0.2,0.2-1.1,6-1.1,7.3c0,0.1-1.2,0.1-2.5,0.1l-3.6,0C33.5,47.7,33.6,41.7,35.4,40.3z M35.1,59.2
	c-0.9-1.5-1.9-7.3-1.5-8.9l3.4-0.1c1.3,0,2.5,0,2.5,0c0.2,3.6,1.3,6.5,1.4,7.2c0,0.3-0.7,0.7-2.3,1.1c-0.3,0-0.9,0.3-1.6,0.6
	C36.3,59.4,35.4,59.7,35.1,59.2z M42.2,66.4c-0.3-0.1-1-0.6-1-0.6c-1.4-1.1-3.6-3-4.1-4c0-0.1-0.1-0.2-0.1-0.3c0-0.1,0-0.2,0.1-0.3
	c0.4-0.7,2.5-1.6,4.1-2.1c0,0,0.2,0,0.3,0c0.2,0.3,1.8,2.6,3,4.4l1.5,1.9c-0.3,0.2-0.8,0.4-1.5,0.7C44.4,66.1,42.6,66.7,42.2,66.4z
	 M52.7,71c-0.5,0.1-0.9,0-1.4,0l0,0c-0.4,0-0.8-0.2-1.2-0.3c-0.6-0.2-1.3-0.4-2-0.6c-0.4-0.1-0.8-0.3-1.2-0.3
	c-0.9-0.4-2-0.8-2.5-1.1c-0.2-0.1-0.3-0.1-0.3-0.2s0.3-0.2,0.3-0.2c0.6-0.6,2.5-1.4,2.5-1.4c0.1,0.1,1.2,0.9,1.2,0.9
	c0.6,0.4,1.3,1,2,1.5c0.4,0.3,1.2,0.8,1.2,0.8C51.9,70.4,52.4,70.7,52.7,71L52.7,71z M53.3,70.2c-0.2-0.1-0.4-0.2-0.6-0.3
	c-0.2-0.2-0.5-0.3-0.6-0.4c-0.3-0.2-0.5-0.4-0.8-0.7c0,0-0.9-0.7-1.2-1.1c-0.5-0.5-0.9-1-1.1-1.4c0.2-0.1,0.6-0.3,1.1-0.4
	s0.8-0.2,1.2-0.1c0,0,0,0,0.1,0c0.1,0.1,0.7,1.2,1.4,2.3c0,0,0.4,0.6,0.6,1c0.3,0.5,0.5,0.8,0.6,1C54.2,70.6,53.3,70.2,53.3,70.2z
	 M55.8,70.8c0,0-0.1,0-0.4,0c-0.2-0.3-0.7-1.1-1.1-1.9c-0.3-0.6-0.7-1.2-1-1.7c-0.3-0.5-0.6-1.2-0.6-1.2c0-0.1-0.1-0.2-0.1-0.3
	c0,0,0,0,0.1,0l0.6-0.1c0.3,0,0.7,0,1.1,0c0.7,0,1.5,0,1.6,0.1C56,65.6,56,71,55.8,70.8z M54.4,64c-0.4,0-0.8,0-1.1-0.1l-0.6-0.1
	c-0.6-0.1-1.1-0.5-1.4-0.9c0,0-0.8-2.8-1.2-4.7c0-0.3-0.1-0.5-0.1-0.7c0,0,0-0.1,0.1-0.1c0.2,0,0.7-0.1,1.2-0.2l0,0
	c0.4,0,0.9-0.1,1.4-0.1c0.2,0,0.4,0,0.6,0c0.3,0,0.7,0,1,0c0.6,0,1.2,0,1.4,0c0.2,0,0,6.7,0.2,6.7C55.4,63.9,54.9,64,54.4,64z
	 M55.8,34.3c-0.1,0-0.8,0-1.5,0c-0.3,0-0.7,0-1,0c-0.3,0-0.5,0-0.6,0c0,0-0.1,0-0.1,0c0,0,0-0.3,0.1-0.7c0,0,0.3-0.8,0.6-1.3l0,0
	c0.3-0.5,0.6-1.1,1-1.6c0.6-1.1,1.4-1.9,1.7-1.7C56,29.1,56,34.3,55.8,34.3z M71.9,33.1c1.6,1.2,3.8,3.6,4.1,5v0c0,0.3,0,0.5,0,0.6
	v0c0,0.3-0.3,0.5-0.7,0.6c-1.1,0.4-3.4,0.9-3.5,0.9C71,39.4,70,36.9,68.6,35c-0.3-0.4-0.6-0.7-1-1.1c0.1-0.1,0.6-0.2,1-0.5
	c0.9-0.4,2-0.8,2.3-0.8C71.2,32.7,71.9,33.1,71.9,33.1z M70.7,57c-0.5-0.1-1.3-0.3-2.2-0.4c-1.2-0.2-2.6-0.4-3-0.5
	c-0.2,0,0.6-3.8,0.6-5.8c0,0,1.2,0,2.5,0l3.2,0c0.2,0,0.3,0,0.3,0c-0.1,0.8-0.2,1.9-0.3,3.2v0C71.6,54.7,71.3,55.9,70.7,57z
	 M63,64.2c0,0,0-0.1,0-0.1L63,64.2c0.2-0.5,0.4-1,0.6-1.4v-0.1c0.6-1.3,1.7-4.2,1.7-4.2c0.1-0.4,0.1-0.8,0.1-0.8s1.7,0.2,3.2,0.6
	c0.6,0.1,1.1,0.2,1.5,0.3c-0.3,0.6-0.8,1.7-1.5,2.9c-0.9,1.7-2,3.5-2.5,3.5c0,0-0.4,0-0.9-0.1c-0.5-0.1-1.7-0.3-1.7-0.3
	C63.3,64.4,63.1,64.3,63,64.2L63,64.2C63,64.3,63,64.2,63,64.2z M65.3,41.7c-0.3-0.3-1.1-3.4-1.7-5.3c0,0-0.2-0.7-0.3-1
	c0,0,1.3-0.4,1.9-0.7c0.3-0.1,0.5-0.3,0.7-0.4c0.9,0.8,1.8,2.1,2.6,3.4c0.6,1,1.2,2.1,1.5,2.9c0.2,0.1-1.1,0.3-1.5,0.4
	C68.6,41,65.8,41.6,65.3,41.7z M71.9,49.2h-3.2c-1.3,0-2.5,0-2.5,0c0-1.3-0.4-5.8-0.4-5.8s1.5-0.3,2.8-0.6c1.1-0.3,2.1-0.6,2.3-0.7
	c0.3-0.1,0.6,1.5,1,2.9v0c0,0.2,0,0.4,0.1,0.6c0.2,0.9,0.2,2.5,0.2,3.7C72.2,49.2,72.1,49.2,71.9,49.2z M63,28.7
	c0.2,0,0.6,0.2,0.6,0.2c0.6,0.2,1.7,0.6,1.7,0.6c1.2,0.5,2.2,1,3.3,1.6c0.4,0.2,0.7,0.4,1,0.6c0,0.1-0.5,0.2-1,0.5
	c-0.7,0.3-1.8,0.6-2.1,0.7c-0.2-0.1-0.6-0.6-1.2-1.1c-0.5-0.5-1.1-1-1.7-1.5c0,0-0.3-0.3-0.6-0.5c0,0-1.3-1-2-1.4
	C61.6,28.4,62.3,28.5,63,28.7z M59.1,28.9L59.1,28.9c0.2,0,0.8,0,1.2,0.3l2.7,1.7c0.2,0.2,0.6,0.6,0.6,0.6c0.8,0.7,1.4,1.5,1.5,1.9
	c0.1,0.1-0.8,0.4-1.5,0.6c-0.2,0-0.4,0-0.6,0c-0.1,0-0.3,0-0.3,0c-0.4-0.6-2.4-3.4-2.4-3.4c-0.4-0.5-0.8-1-1.2-1.4
	C59.1,29.1,59,29,59.1,28.9C59,29,59,28.9,59.1,28.9z M57.2,28.8c0.4,0,1.2,0.9,1.9,2l1.2,2c0.4,0.6,0.6,1,0.6,1.2
	c0,0-0.6,0.2-0.6,0.2l-1.2,0.1c-0.7,0.1-1.6,0-1.9-0.1V28.8z M57.2,35.7c0.4,0,1.2,0,1.9,0l1.2-0.1c0.6,0,1.2,0,1.2,0
	c0.6,0.3,1.1,1.9,1.6,3.6c0.2,0.6,0.4,1.1,0.6,1.7v0c0.1,0.2,0.2,0.4,0.3,0.6c0.1,0.2-0.3,0.5-0.3,0.5C63.4,42,63.2,42,63,42
	c-0.2,0-0.4,0-0.6,0c-0.7,0.1-2.1,0.1-2.1,0.1c-0.4,0-0.8,0-1.2,0h-1.9V35.7z M57.2,43.5c0.5,0,1.2,0,1.9,0h1.2c0,0,2,0,2.7,0h0.6
	c0,0,0.5,0,0.6,0c0,0,0.5,4,0.5,5.6c0,0-3.5,0-4.4,0c-0.4,0-3.1-0.1-3.1-0.2C57.2,48.9,57.2,43.5,57.2,43.5z M57.2,50.3
	c0,0,0.8,0,1.9,0h1.2l3.3,0c0.6,0,1.1,0,1.1,0c-0.2,2-0.2,5.1-0.7,5.5h-0.4c-0.2,0-0.6,0-0.6,0c-0.7-0.1-1.7-0.1-2.7-0.2
	c-0.4,0-0.8,0-1.2-0.1c-0.7,0-1.4,0-1.9,0C57.2,55.4,57.4,50.3,57.2,50.3z M57.2,56.9c0.5,0,1.2,0,1.9,0c0.4,0,0.8,0,1.2,0.1
	c1,0,2,0.2,2.7,0.3c0,0,0.3,0.1,0.5,0.1c0.2,0-0.1,1.4-0.5,2.5v0c0,0.3-0.1,0.6-0.3,0.7c-0.9,1.4-1.2,3.8-1.6,3.4
	c-0.2,0-0.8-0.1-0.8-0.1c-0.4-0.1-0.8-0.1-1.2-0.1c-0.9,0-1.7-0.1-1.9-0.1C57.4,63.7,57.2,56.9,57.2,56.9z M57.2,70.7
	c0,0,0-5.2,0.2-5.2c0.1,0,0.9,0,1.7,0c0.6,0,1.2,0.2,1.2,0.2c0,0,0.1,0,0.1,0c0,0.2-0.1,0.7-0.1,0.7c-0.2,0.6-1.2,2.4-1.2,2.4
	s-1.2,1.7-1.3,1.9C57.4,71,57.5,70.7,57.2,70.7z M60.2,69.8c-0.6,0.4-1,0.7-1.2,0.7l0-0.1l1.3-1.9c0.9-1.2,1.9-2.7,1.9-2.8
	c0,0,0.4,0,0.8,0.1c0,0,0.4,0.1,0.6,0.1c0,0,0.9,0.2,1.3,0.2c0.2,0.2-0.5,0.8-1.3,1.4l0,0c-0.2,0.2-0.4,0.3-0.6,0.5
	C62.4,68.5,60.3,69.7,60.2,69.8z M68.6,68.8c0,0-2.3,1.1-2.6,1.2c-0.3,0.1-0.5,0.1-0.7,0.2c0,0-2,0.6-2.3,0.6
	c-1.1,0.3-1.9,0.4-2.7,0.4c0,0,1.6-1.2,2.7-2.1c0.2-0.1,0.4-0.3,0.6-0.4l0,0c0.6-0.5,1.3-1,1.7-1.3c0.4-0.3,0.7-0.6,0.7-0.6
	c0.3-0.2,1.6,0.4,2.6,0.8c0.4,0.2,0.8,0.5,1,0.6C69.8,68.1,69.3,68.4,68.6,68.8z M76,60.9c-0.5,1.2-2.7,3.7-4.1,4.9
	c-0.3,0.3-0.6,0.5-0.8,0.6c-0.3,0.3-1.5-0.1-2.4-0.5c-0.5-0.1-0.9-0.4-1.2-0.4c0.4-0.5,0.8-1,1.2-1.4c1.2-1.5,2.3-3.1,3.2-4.9
	c0,0,0-0.2,0.1-0.3c1,0.4,3.7,1.1,4,1.4C76.1,60.4,76.1,60.6,76,60.9z M79,54.7c-0.7,2-1.5,4-2.2,4.4c0,0-4.5-1.5-4.5-1.6
	c0.4-0.9,1.6-5.2,1.2-7.1l2.4-0.1c1.7,0,3.6,0,3.6,0C79.5,51.1,79.2,54,79,54.7z M79.5,48.9c0,0.1-1.9,0.1-3.6,0h-2.4
	c0.2-1.3-0.6-5.6-1.2-7.3c-0.1-0.3,3.7-1.4,3.7-1.4c0.5-0.1,0.8-0.1,0.9-0.1c0.9,0,1.9,3.1,2.3,5.1C79.5,46.3,79.7,48,79.5,48.9z
	 M135,38.6c-0.8,3.9-3.4,6.1-7.9,6.9v-0.1c-2.2,0.4-4.9,0.5-8.1,0.2V28.1c0,0,2.4,0,3.3,0c1.7-0.1,3.2,0,4.8,0.3c0,0,0,0.1,0,0.1
	C132.2,29.5,136.1,33.1,135,38.6z M164.4,87.9c-3.3-4.5-6.9-8.9-10.5-13.3l0,0c-3.7-4.4-7.2-9-10.5-13.7c4.1-2.5,7.7-5.4,10.5-8.9
	v0.1c2.2-2.7,3.8-5.8,4.7-9.2c0.5-1.8,0.7-3.5,1.1-5.1c0.4-3.4-0.6-9.4-0.6-9.6h5.3V87.9z"/>
<line class="st1" x1="222" y1="100" x2="222" y2="0"/>
<text transform="matrix(1 0 0 1 226.4326 89.7969)" class="st0 st2 st3">CIE</text>
</svg>
