<?xml version="1.0" standalone="no"?>
<!DOCTYPE svg PUBLIC "-//W3C//DTD SVG 20010904//EN"
 "http://www.w3.org/TR/2001/REC-SVG-20010904/DTD/svg10.dtd">
<svg version="1.0" xmlns="http://www.w3.org/2000/svg"
 width="1120.000000pt" height="1120.000000pt" viewBox="0 0 1120.000000 1120.000000"
 preserveAspectRatio="xMidYMid meet">
<metadata>
Created by potrace 1.11, written by Peter Selinger 2001-2013
</metadata>
<g transform="translate(0.000000,1120.000000) scale(0.100000,-0.100000)"
fill="#000000" stroke="none">
<path d="M10825 9261 c-3 -2 -13 -5 -23 -6 -87 -8 -156 -46 -150 -81 4 -24
-21 -30 -29 -7 -4 10 -15 26 -25 37 -16 18 -17 18 -14 -10 2 -16 4 -39 5 -50
1 -13 9 -24 21 -27 20 -5 20 -6 3 -41 -13 -29 -21 -35 -37 -30 -12 4 -23 6
-26 6 -30 1 -40 -5 -40 -21 0 -10 -6 -24 -14 -31 -8 -6 -12 -18 -9 -26 3 -8
-2 -22 -10 -32 -9 -9 -18 -28 -20 -42 -3 -14 -17 -47 -31 -74 -15 -28 -24 -57
-20 -68 9 -28 -23 -121 -46 -136 -14 -9 -19 -19 -15 -32 3 -10 -1 -32 -9 -48
-8 -16 -13 -32 -10 -35 3 -3 -2 -19 -11 -36 -9 -17 -15 -37 -14 -44 1 -6 0
-19 -3 -27 -3 -8 -13 -40 -23 -70 -9 -30 -21 -57 -26 -60 -4 -3 -10 -18 -13
-33 -4 -25 -22 -67 -67 -159 -10 -21 -21 -59 -24 -85 -4 -26 -8 -57 -10 -68
-1 -11 -11 -38 -21 -60 -9 -22 -18 -42 -18 -45 -1 -3 -5 -11 -9 -17 -5 -7 -10
-23 -12 -35 -3 -13 -13 -30 -22 -38 -10 -8 -19 -26 -20 -40 -3 -46 -9 -60 -31
-76 -12 -8 -20 -19 -17 -24 2 -4 -4 -19 -15 -33 -11 -14 -20 -31 -20 -39 0 -8
-5 -19 -11 -25 -6 -6 -12 -32 -13 -57 -1 -32 -9 -53 -23 -68 -17 -17 -19 -25
-11 -44 14 -29 -26 -101 -47 -84 -9 8 -12 5 -12 -12 1 -36 -24 -138 -33 -138
-5 0 -13 12 -19 28 -9 22 -10 17 -6 -32 3 -48 1 -63 -14 -75 -27 -24 -49 -63
-55 -95 -3 -16 -10 -32 -15 -35 -5 -3 -17 -32 -26 -64 -9 -33 -26 -79 -37
-104 -13 -29 -18 -58 -15 -82 2 -24 -2 -50 -13 -71 l-17 -33 -16 24 c-25 34
-30 18 -8 -27 17 -35 18 -42 5 -73 -8 -18 -14 -35 -14 -37 0 -2 -4 -4 -8 -4
-4 0 -5 25 -2 55 3 30 2 55 -2 55 -4 0 -8 -5 -8 -11 0 -17 -53 -133 -64 -140
-5 -4 -6 -13 -4 -21 3 -8 -9 -31 -28 -52 -39 -44 -42 -51 -14 -36 11 6 25 8
30 5 6 -4 13 1 16 9 3 9 12 16 19 16 7 0 16 7 19 16 3 8 11 12 16 9 6 -4 7
-12 3 -18 -8 -10 -18 -34 -58 -142 -5 -11 -9 -24 -9 -30 -1 -5 -7 -20 -13 -31
-7 -12 -10 -24 -8 -26 3 -3 -2 -25 -10 -49 -9 -24 -17 -55 -19 -69 -2 -14 -19
-72 -39 -130 -19 -58 -37 -118 -40 -135 -3 -16 -11 -46 -17 -65 -6 -19 -13
-51 -16 -70 -3 -19 -8 -38 -10 -41 -7 -12 21 -64 34 -63 6 1 17 2 23 3 31 3
151 162 135 179 -3 3 3 19 14 36 10 17 18 46 18 63 -1 18 7 45 17 60 11 15 20
39 21 52 2 14 10 29 18 33 9 5 21 18 27 30 8 15 8 19 0 14 -6 -4 -11 0 -11 8
0 9 4 16 9 16 5 0 14 12 20 28 6 15 24 50 40 77 15 28 26 56 23 63 -2 6 3 12
12 12 9 0 16 5 16 11 0 5 6 7 13 3 9 -6 9 -5 0 7 -7 9 -8 20 -3 29 5 8 6 18 4
22 -3 4 4 8 15 8 22 0 28 14 11 25 -17 10 -11 24 13 30 14 4 29 21 40 46 15
34 16 53 8 98 -1 3 -7 -4 -15 -15 -14 -18 -15 -18 -14 6 1 14 8 33 16 43 8 9
12 17 7 17 -4 0 -2 6 4 13 6 8 8 17 5 20 -3 3 5 21 17 39 13 18 25 40 27 48 2
8 9 20 17 25 7 6 11 21 8 37 -3 16 4 39 19 64 14 22 28 53 32 69 4 17 17 46
29 65 12 19 20 41 19 49 -2 8 -1 29 2 46 5 26 11 32 29 31 18 -1 21 3 19 27
-2 15 5 43 17 62 11 18 22 49 25 69 3 19 17 47 31 62 24 26 29 41 26 77 -1 9
4 17 11 17 14 0 55 67 50 82 -1 4 3 8 9 8 6 0 9 9 6 20 -3 13 0 20 9 20 10 0
14 10 13 33 -3 43 43 131 59 115 9 -9 16 -1 31 33 11 25 18 54 15 65 -3 12 1
26 10 33 9 8 16 19 16 25 0 19 63 138 88 164 12 14 22 30 22 37 0 20 70 155
81 155 5 0 9 6 9 14 0 8 7 21 15 29 12 12 108 191 111 207 2 15 31 69 51 96
13 17 23 34 23 37 0 5 36 88 80 182 10 22 21 52 24 68 4 15 20 49 36 76 17 26
30 53 30 58 0 6 7 24 15 39 8 16 15 37 15 47 0 10 9 43 21 75 11 31 22 69 23
83 2 15 9 40 17 57 12 27 15 29 42 20 34 -12 49 -2 41 30 -6 20 -10 23 -30 21
-3 0 -14 11 -25 26 -12 14 -24 23 -29 20 -4 -3 -27 2 -51 10 -40 14 -123 18
-134 6z m-308 -383 c-3 -8 -6 -5 -6 6 -1 11 2 17 5 13 3 -3 4 -12 1 -19z
m-983 -2513 c-4 -8 -8 -15 -10 -15 -2 0 -4 7 -4 15 0 8 4 15 10 15 5 0 7 -7 4
-15z m226 -39 c0 -3 -4 -8 -10 -11 -5 -3 -10 -1 -10 4 0 6 5 11 10 11 6 0 10
-2 10 -4z"/>
<path d="M5689 7756 c-2 -3 -25 -7 -50 -10 -25 -3 -52 -7 -60 -10 -7 -3 -25
-7 -39 -10 -91 -15 -207 -40 -215 -46 -5 -4 -19 -4 -30 1 -40 16 -79 9 -115
-21 -19 -17 -40 -30 -47 -30 -17 0 -135 -40 -148 -51 -6 -4 -49 -22 -95 -39
-46 -17 -105 -41 -130 -54 -25 -13 -70 -31 -100 -40 -30 -10 -64 -21 -75 -26
-11 -5 -49 -21 -85 -35 -36 -15 -81 -34 -100 -44 -19 -9 -62 -23 -95 -30 -33
-7 -64 -14 -70 -16 -5 -1 -12 -3 -15 -3 -3 0 -32 -14 -65 -30 -33 -16 -91 -40
-130 -52 -38 -13 -74 -26 -80 -30 -5 -3 -17 -6 -25 -5 -19 1 -138 -42 -168
-61 -13 -9 -54 -27 -90 -40 -37 -14 -90 -36 -119 -50 -28 -13 -57 -24 -63 -24
-5 0 -18 -4 -28 -9 -9 -6 -42 -19 -72 -30 -30 -10 -84 -32 -120 -49 -70 -31
-99 -44 -115 -47 -5 -2 -41 -17 -80 -35 -38 -17 -83 -38 -100 -45 -16 -7 -75
-28 -130 -45 -55 -18 -113 -38 -130 -46 -71 -31 -156 -64 -172 -67 -10 -2 -31
-10 -48 -16 -16 -7 -37 -14 -45 -16 -22 -6 -102 -34 -125 -45 -99 -45 -191
-79 -233 -86 -14 -3 -30 -8 -36 -12 -6 -3 -15 -7 -21 -8 -5 -1 -39 -13 -75
-27 -36 -14 -110 -40 -165 -57 -108 -34 -229 -80 -285 -109 -19 -10 -74 -35
-122 -55 -133 -57 -291 -148 -305 -176 -6 -14 -13 -38 -15 -54 -2 -25 3 -34
37 -58 46 -33 118 -68 137 -68 8 0 18 -4 23 -9 6 -4 32 -14 60 -20 27 -7 55
-17 62 -23 7 -6 34 -12 60 -15 33 -2 53 -10 63 -24 15 -19 50 -18 50 2 0 13
34 11 48 -3 9 -9 12 -8 12 5 0 13 9 17 37 16 62 -1 107 9 120 27 6 9 17 13 23
9 7 -4 14 2 17 14 5 21 9 23 48 25 29 2 45 15 38 31 -3 8 0 15 7 15 6 0 8 5 5
10 -3 6 -1 10 4 10 6 0 11 -6 11 -12 1 -9 4 -8 13 2 7 8 22 14 34 12 16 -2 26
4 34 22 9 19 16 23 28 17 26 -14 85 -3 103 20 11 13 24 18 37 14 11 -3 21 0
24 9 3 8 14 13 23 12 10 -2 47 8 82 21 36 12 67 23 68 23 2 0 4 7 4 15 0 9 6
12 16 8 10 -4 20 0 25 10 6 9 17 13 29 10 13 -3 20 0 20 8 0 11 2 11 8 2 8
-13 72 -25 123 -23 26 0 26 -1 18 -46 -5 -25 -13 -62 -19 -83 -5 -20 -12 -54
-14 -76 -3 -22 -8 -51 -11 -65 -3 -14 -8 -36 -11 -50 -4 -23 -9 -47 -18 -95
-3 -11 -10 -42 -16 -70 -6 -27 -13 -58 -16 -69 -2 -10 -11 -44 -20 -75 -9 -31
-18 -64 -20 -73 -2 -10 -6 -26 -8 -36 -2 -9 -20 -76 -40 -147 -19 -72 -38
-146 -42 -165 -8 -47 -12 -65 -14 -65 -2 0 -3 -27 -5 -60 -1 -34 -10 -76 -19
-94 -10 -18 -15 -35 -13 -38 3 -2 -5 -35 -18 -72 -12 -37 -26 -87 -30 -111 -4
-24 -16 -69 -27 -99 -10 -31 -18 -57 -18 -58 0 -2 0 -4 -1 -5 0 -2 -2 -16 -4
-33 -3 -27 -37 -161 -64 -254 -6 -18 -10 -36 -9 -40 1 -3 -6 -23 -15 -45 -9
-21 -17 -42 -17 -47 0 -4 -5 -20 -12 -36 -6 -15 -13 -35 -14 -44 -4 -20 -118
-243 -161 -315 -17 -28 -37 -68 -44 -90 -30 -85 -218 -442 -263 -499 -18 -22
-49 -64 -70 -94 -21 -30 -42 -59 -47 -65 -5 -6 -32 -44 -61 -84 -29 -41 -69
-94 -89 -119 -20 -24 -43 -57 -50 -71 -13 -26 -55 -76 -109 -132 -17 -18 -34
-26 -55 -24 -27 1 -30 4 -27 30 1 16 -1 24 -5 18 -4 -7 -19 -11 -33 -10 -20 1
-24 6 -22 25 3 16 -1 22 -10 19 -7 -3 -12 -14 -10 -24 2 -18 2 -18 -8 -1 -6 9
-18 17 -27 17 -13 0 -14 -2 -2 -17 10 -12 10 -15 1 -9 -10 6 -11 -2 -6 -33 7
-42 1 -48 -26 -31 -10 6 -11 10 -3 10 19 0 12 52 -10 74 -15 15 -18 28 -15 61
l5 42 -36 -13 c-34 -12 -36 -11 -45 11 -5 13 -18 26 -29 29 -15 4 -18 11 -15
31 5 26 -6 43 -17 25 -3 -5 -9 -10 -13 -10 -9 0 -9 41 0 56 4 7 3 69 -2 69 -1
0 -3 15 -4 32 -2 18 0 30 5 27 5 -3 9 -1 9 5 0 5 -5 11 -12 13 -15 5 -17 60
-3 70 6 5 5 8 -2 8 -7 0 -13 8 -13 17 0 31 -24 84 -36 79 -7 -3 -11 5 -10 20
0 14 6 22 13 20 20 -8 22 5 2 25 -10 10 -25 18 -32 17 -15 -4 -22 48 -9 65 16
21 22 47 10 44 -16 -3 -18 32 -1 41 12 7 12 10 -2 22 -14 12 -14 15 6 36 19
21 20 24 6 38 -12 12 -13 24 -7 46 5 17 6 30 3 30 -3 0 2 11 11 25 9 14 16 31
15 38 -3 25 1 38 11 32 12 -7 12 -4 1 53 -8 39 -6 45 14 58 15 10 21 23 19 39
-1 14 2 25 7 25 4 0 6 7 2 16 -3 9 0 20 8 25 11 7 11 9 -3 9 -10 0 -18 5 -18
10 0 6 5 10 11 10 6 0 8 9 4 22 -6 15 -1 26 15 38 21 16 30 45 32 107 0 12 6
24 14 27 8 3 14 17 14 31 0 14 7 37 16 50 11 17 12 25 4 25 -16 0 -3 61 16 76
7 6 11 13 9 16 -3 3 8 19 24 36 16 16 27 32 25 35 -2 2 2 10 11 17 8 7 15 19
15 26 0 8 5 14 10 14 6 0 10 -4 10 -10 0 -5 6 -10 13 -10 8 0 14 7 14 15 0 8
-4 12 -8 9 -4 -2 -10 0 -13 4 -3 5 6 15 19 22 31 17 33 57 5 93 -15 19 -18 31
-11 49 8 20 10 21 16 6 5 -13 11 -15 24 -8 10 5 27 6 39 3 13 -3 22 -1 22 6 0
6 -9 11 -21 11 -22 0 -22 1 4 80 7 19 14 37 17 40 3 3 13 21 22 41 13 28 22
36 40 34 32 -3 32 -3 19 -19 -10 -12 -8 -13 9 -9 12 3 19 11 16 19 -3 7 0 19
7 26 17 17 37 88 32 113 -2 11 -4 23 -4 27 -1 4 -11 7 -23 5 -20 -2 -23 2 -20
27 2 17 13 43 25 60 11 16 22 41 23 55 3 35 12 79 24 120 6 22 6 40 -1 52 -5
11 -6 19 -1 19 5 0 6 14 4 31 -3 19 -7 26 -12 19 -5 -7 -10 -8 -14 -2 -3 5 3
17 14 27 23 21 25 79 3 97 -9 7 -10 15 -2 29 5 11 7 23 4 28 -7 13 9 51 34 80
16 19 51 110 51 135 0 17 -57 -3 -84 -29 -45 -42 -118 -140 -150 -200 -26 -49
-67 -100 -103 -127 -10 -7 -24 -24 -32 -38 -8 -14 -30 -52 -48 -85 -19 -33
-47 -76 -63 -96 -31 -39 -180 -323 -180 -344 0 -6 -17 -36 -38 -66 -20 -30
-50 -88 -66 -129 -16 -41 -37 -94 -47 -117 -11 -23 -19 -47 -19 -52 0 -6 -21
-57 -46 -113 -26 -57 -59 -141 -75 -188 -15 -47 -41 -122 -58 -167 -16 -46
-27 -83 -24 -83 3 0 1 -6 -5 -12 -6 -7 -13 -33 -17 -58 -13 -79 -14 -84 -29
-146 -8 -33 -18 -89 -21 -125 -3 -35 -8 -75 -10 -89 -5 -32 -17 -152 -16 -165
0 -5 2 -62 5 -125 2 -63 7 -131 10 -150 3 -19 7 -58 10 -85 3 -28 12 -71 20
-95 8 -25 17 -58 20 -75 9 -50 80 -227 110 -275 51 -79 95 -144 125 -183 16
-21 42 -54 58 -75 64 -83 77 -92 129 -88 30 3 60 -2 76 -10 15 -8 30 -13 32
-12 2 2 12 -4 22 -13 18 -15 23 -15 74 2 30 10 74 19 98 20 24 2 45 6 48 11
13 21 64 -4 64 -32 0 -7 10 -5 29 4 16 9 31 12 35 9 3 -4 6 -2 6 4 0 13 46 27
125 39 22 3 60 15 85 26 25 10 74 31 110 45 36 15 70 32 75 40 6 7 23 17 39
21 16 5 32 14 34 21 3 9 -2 11 -17 6 -35 -11 -24 8 47 81 38 39 75 88 84 110
12 30 21 38 37 36 14 -2 21 2 21 14 0 13 3 14 14 4 8 -6 12 -19 9 -28 -4 -13
-2 -12 10 3 19 23 22 39 6 29 -8 -5 -8 -1 0 14 10 19 13 19 40 6 16 -8 31 -24
34 -35 3 -12 3 -18 0 -15 -4 3 -13 0 -21 -7 -13 -10 -15 -9 -9 6 5 14 3 18
-11 15 -18 -3 -30 -48 -13 -48 6 0 11 -12 11 -26 0 -16 -5 -24 -12 -21 -7 2
-12 10 -10 17 2 8 -4 11 -18 7 -11 -3 -23 -1 -26 4 -3 5 -11 9 -17 9 -14 0 53
-55 68 -55 5 0 16 5 23 12 7 7 19 13 26 13 19 0 58 59 52 77 -4 9 -2 21 4 28
15 18 21 54 9 60 -14 9 -11 55 4 55 14 0 47 35 47 50 0 6 7 10 16 10 10 0 12
5 7 13 -16 26 -12 39 8 21 14 -12 23 -14 30 -7 7 7 3 18 -15 36 -22 22 -23 27
-10 38 9 7 13 21 10 31 -2 11 2 22 9 25 8 2 17 13 20 24 4 10 13 19 22 19 14
0 14 -2 -1 -19 -21 -23 -14 -41 15 -41 20 0 23 -8 13 -34 -3 -8 -12 -12 -20
-9 -8 3 -14 1 -14 -5 0 -8 15 -9 54 -3 4 0 5 8 2 17 -3 9 -2 12 5 9 13 -9 61
23 54 35 -4 6 -1 10 4 10 6 0 11 5 11 10 0 6 -7 10 -15 10 -8 0 -15 -4 -15
-10 0 -5 -10 -10 -22 -10 -21 1 -22 2 -5 14 21 16 22 27 2 20 -9 -4 -15 0 -15
10 0 9 6 13 14 10 8 -3 17 0 21 6 5 8 12 5 22 -7 13 -17 14 -17 4 3 -6 13 -6
25 0 35 8 12 11 11 20 -5 9 -14 13 -16 20 -5 6 11 12 10 27 -4 19 -17 20 -17
41 19 23 38 21 70 -3 61 -8 -3 -20 1 -26 9 -7 8 -21 14 -31 14 -11 0 -19 5
-19 10 0 6 9 10 21 10 14 0 19 5 16 14 -3 8 3 22 13 31 11 10 19 20 18 24 -2
12 14 41 24 41 5 0 6 -4 3 -10 -8 -13 14 -52 25 -45 13 8 20 -9 9 -25 -7 -13
-9 -13 -9 -1 0 11 -4 9 -14 -4 -12 -17 -12 -21 3 -32 15 -11 14 -12 -2 -13
-10 0 -17 -5 -15 -11 6 -18 20 -15 32 6 6 11 21 33 34 48 12 16 22 35 22 43 0
8 4 14 10 14 5 0 13 12 16 28 4 15 11 33 17 40 5 6 6 12 2 12 -3 0 3 12 14 26
12 15 21 31 21 36 0 5 7 16 15 24 14 14 20 41 16 72 -1 6 2 12 6 12 5 0 17 14
26 30 10 17 13 30 8 30 -6 0 -11 -5 -11 -10 0 -6 -13 -4 -29 5 -18 9 -32 11
-36 5 -3 -5 4 -14 15 -20 21 -11 28 -40 10 -40 -5 0 -10 -9 -10 -20 0 -26 -27
-80 -40 -80 -6 0 -10 8 -10 18 0 11 -3 13 -8 6 -5 -8 -14 -9 -32 -1 -19 8 -21
11 -9 14 21 5 31 40 14 47 -7 2 -16 1 -21 -4 -5 -5 -15 -2 -22 5 -10 12 -8 18
9 34 12 11 26 18 31 15 4 -3 8 -1 8 5 0 5 -5 13 -11 16 -6 4 -8 13 -5 21 4 11
2 12 -14 4 -24 -13 -40 -13 -40 0 0 5 7 7 15 4 8 -4 15 -2 16 2 0 5 2 17 4 27
2 9 -1 17 -6 17 -5 0 -9 -6 -9 -14 0 -8 -7 -16 -15 -20 -8 -3 -15 -17 -15 -31
0 -15 -4 -24 -10 -20 -5 3 -10 -3 -10 -14 0 -16 -6 -21 -24 -21 -15 0 -26 -7
-28 -17 -3 -17 -4 -17 -10 -1 -6 13 -1 19 17 24 27 7 40 31 26 48 -11 13 -3
56 10 56 5 0 6 6 3 14 -6 15 26 31 70 35 16 1 29 28 20 42 -3 5 -19 -2 -36
-16 -16 -14 -34 -22 -39 -19 -12 7 -3 39 18 64 47 55 64 70 73 65 6 -3 10 -2
10 4 0 5 -4 12 -9 16 -6 3 -6 17 1 36 7 21 13 27 18 19 9 -15 29 16 29 46 0
37 6 64 14 64 4 0 11 0 16 0 5 0 12 -7 15 -16 3 -8 2 -12 -3 -9 -5 3 -12 1
-16 -5 -9 -15 19 -12 41 5 17 14 17 16 3 28 -23 18 -40 53 -33 70 3 9 16 18
30 21 13 4 24 11 24 16 0 5 -8 6 -17 3 -14 -5 -12 0 7 24 14 17 28 28 33 26 4
-2 7 3 7 11 0 24 24 19 35 -6 10 -23 45 -38 45 -19 0 6 -6 8 -14 5 -10 -4 -12
2 -9 21 4 18 9 23 17 16 8 -7 12 -2 14 16 3 33 11 42 22 23 7 -11 11 -11 23
-1 10 8 17 8 22 2 3 -6 -6 -13 -20 -17 -14 -3 -25 -13 -25 -21 0 -8 4 -12 9
-8 5 3 12 -3 14 -12 4 -15 5 -14 6 3 1 27 46 53 63 36 9 -9 8 -18 -2 -39 -7
-16 -13 -32 -11 -37 1 -5 -4 -6 -12 -3 -21 8 -35 -5 -38 -38 -2 -16 -7 -36
-12 -42 -7 -9 -5 -13 6 -13 8 0 18 7 21 16 3 8 10 13 15 9 6 -3 8 4 6 17 -3
12 3 31 13 43 29 34 41 61 32 75 -5 8 -2 23 7 37 14 21 14 23 -1 23 -9 0 -16
7 -16 15 0 8 5 15 10 15 6 0 5 9 -2 21 -11 17 -11 23 0 26 6 3 10 9 7 13 -3 5
0 19 7 31 10 17 10 23 0 26 -6 3 -9 10 -5 16 4 7 8 23 8 37 1 18 6 25 20 25
26 1 68 15 61 22 -2 3 -1 15 4 27 11 29 -5 58 -20 36 -5 -8 -10 -21 -10 -29 0
-8 -6 -11 -16 -7 -9 3 -22 6 -30 6 -12 0 -13 4 -3 22 8 14 14 18 17 10 7 -22
19 -12 14 13 -2 14 -8 25 -11 25 -14 0 -8 30 6 31 7 1 19 2 25 3 7 0 14 10 16
21 2 12 0 16 -5 9 -5 -7 -9 12 -10 44 -1 30 -7 58 -14 62 -8 6 -8 13 1 29 10
19 9 22 -7 19 -12 -2 -17 2 -15 15 2 10 -3 17 -13 17 -8 0 -15 5 -15 10 0 6
-7 10 -16 10 -9 0 -14 6 -11 13 2 6 10 11 16 10 6 -2 11 2 11 7 0 6 -4 10 -10
10 -5 0 -10 7 -10 15 0 8 -4 15 -9 15 -4 0 -6 -11 -3 -25 3 -18 0 -25 -9 -23
-8 2 -13 -3 -11 -10 1 -8 -2 -11 -7 -7 -6 3 -15 -4 -21 -15 -6 -11 -9 -20 -6
-20 3 0 0 -13 -5 -30 -6 -16 -15 -28 -19 -25 -5 3 -15 -3 -22 -12 -7 -10 -22
-19 -33 -21 -14 -3 -7 6 19 26 37 27 56 62 35 62 -17 0 -9 22 14 40 19 16 20
19 6 25 -15 5 -15 10 -2 46 7 22 14 52 15 65 2 14 11 30 21 35 10 6 14 15 10
22 -14 22 -11 37 7 47 17 9 21 32 8 46 -12 11 4 35 30 45 24 9 24 10 7 29 -10
11 -14 20 -9 20 5 0 3 4 -5 9 -7 5 -10 14 -6 21 6 9 9 9 16 -1 7 -11 9 -10 9
3 0 9 6 19 13 22 9 5 9 7 0 12 -7 3 -13 10 -13 16 0 6 6 6 15 -2 21 -18 45 -6
38 20 -4 13 1 26 12 34 21 15 12 38 -12 29 -11 -4 -14 -3 -9 6 5 7 14 10 21 7
7 -2 16 2 19 10 9 25 8 26 -23 19 -26 -6 -28 -4 -25 20 3 35 8 39 56 44 3 1 4
11 0 23 -4 16 -2 19 8 13 10 -6 12 -4 7 9 -5 13 -3 17 7 13 10 -4 13 -1 10 7
-3 7 2 19 11 26 8 7 15 17 15 22 0 6 -6 6 -14 -1 -11 -9 -16 -9 -22 0 -5 8 -3
9 5 5 8 -5 14 -1 17 11 6 22 44 29 44 7 0 -21 18 -17 25 6 3 11 11 20 17 20 6
0 6 6 -2 15 -7 8 -16 12 -21 9 -5 -3 -9 0 -9 6 0 7 15 10 38 8 28 -2 37 -7 36
-21 -1 -10 3 -16 10 -14 6 2 11 15 11 28 0 13 4 27 10 31 5 4 6 10 2 14 -4 4
-13 -1 -21 -11 -9 -13 -15 -15 -20 -6 -4 6 -2 18 4 26 10 12 9 15 -3 15 -20 0
-29 26 -12 40 18 15 77 31 70 19 -4 -5 -1 -9 4 -9 10 0 17 47 12 80 -6 41 3
178 13 188 4 4 13 7 18 7 6 0 16 15 22 33 6 18 15 30 19 26 4 -4 7 -3 7 2 0 6
-5 15 -11 21 -9 9 -8 18 4 36 18 27 12 43 -10 26 -10 -9 -13 -7 -13 11 0 19
-2 20 -15 10 -8 -7 -15 -8 -15 -2 0 5 7 16 17 23 13 11 17 11 20 2 3 -7 9 -13
14 -13 6 0 7 5 3 12 -4 6 -8 25 -10 41 -1 16 -8 40 -15 53 -10 19 -10 27 -1
36 21 21 13 32 -8 13 -11 -10 -22 -16 -25 -13 -3 3 4 13 15 23 21 19 28 41 8
29 -8 -5 -9 0 -5 15 3 15 1 21 -8 19 -14 -3 -15 0 -15 25 0 17 42 15 48 -1 6
-18 22 -15 22 4 0 12 7 14 28 9 25 -5 28 -3 30 25 3 36 -10 39 -30 8 -13 -20
-17 -21 -32 -9 -22 19 -20 29 7 33 15 2 21 9 19 22 -3 15 1 18 17 13 12 -3 21
0 21 5 0 6 8 5 18 -3 9 -7 14 -9 10 -5 -5 5 2 15 15 21 17 10 26 9 43 0 18
-12 22 -10 40 16 10 16 27 29 37 29 21 0 22 -16 1 -24 -8 -3 -12 -11 -9 -17 5
-8 10 -8 18 0 6 6 17 11 25 11 7 0 20 7 29 15 8 8 19 13 24 10 5 -4 9 6 9 21
0 24 3 26 30 21 18 -4 30 -2 30 4 0 16 63 69 82 69 27 0 31 1 51 12 31 16 55
17 68 2 15 -18 29 -18 29 1 0 19 14 19 33 1 13 -14 37 -8 40 10 1 5 7 8 14 6
15 -3 18 24 3 33 -6 3 -7 -1 -4 -10 4 -11 2 -14 -9 -9 -8 3 -14 13 -12 22 2 9
4 23 4 30 1 19 29 14 43 -8 15 -23 28 -26 28 -6 0 16 27 29 42 19 7 -4 8 -1 4
6 -5 8 0 14 13 18 12 3 21 12 21 20 0 11 6 13 23 8 12 -4 30 -7 40 -6 11 0 15
-5 10 -12 -5 -8 -2 -8 9 1 8 7 16 24 16 38 0 32 24 51 34 26 4 -9 7 -12 7 -6
1 7 8 14 15 17 11 4 13 1 9 -10 -4 -11 -2 -14 8 -11 8 3 13 15 12 26 -2 16 6
23 32 32 20 6 42 19 51 27 9 9 32 17 52 19 21 1 39 3 42 4 3 1 8 2 12 1 4 0
10 8 13 19 4 11 10 20 15 20 5 0 7 6 4 14 -6 15 29 40 40 29 3 -3 15 2 26 12
11 10 20 15 20 11 0 -4 7 0 16 8 8 9 20 13 25 10 6 -3 17 2 24 12 8 11 15 14
15 7 0 -17 60 18 60 35 0 26 27 41 62 36 32 -6 36 -3 48 25 10 24 17 30 31 26
13 -4 19 -1 19 9 0 9 7 16 16 16 9 0 23 9 32 21 14 16 22 18 42 11 l24 -9 -22
-14 c-12 -8 -22 -18 -22 -22 0 -5 17 5 37 22 21 17 45 31 55 31 9 0 20 5 23
11 4 6 13 8 21 5 8 -3 29 3 46 14 17 10 35 17 38 15 13 -8 128 111 127 130 -2
14 8 22 34 29 20 6 34 16 33 21 -2 6 18 25 44 43 37 26 48 29 50 17 2 -8 7
-15 12 -15 5 0 7 -11 4 -25 -2 -14 0 -25 6 -25 5 0 10 3 10 8 0 4 14 16 30 27
31 21 40 37 18 33 -8 -2 -13 7 -13 22 0 18 6 26 23 28 12 2 22 -1 22 -7 0 -6
-4 -11 -10 -11 -5 0 -10 -4 -10 -10 0 -18 43 -10 68 13 14 12 21 15 17 7 -5
-10 -1 -8 13 4 29 25 31 91 3 106 -22 11 -26 12 -32 6z m-1749 -1016 c0 -5 -4
-10 -10 -10 -5 0 -10 5 -10 10 0 6 5 10 10 10 6 0 10 -4 10 -10z m50 -15 c0
-8 -4 -15 -9 -15 -5 0 -11 7 -15 15 -3 9 0 15 9 15 8 0 15 -7 15 -15z m-710
-703 c0 -13 -12 -22 -22 -16 -10 6 -1 24 13 24 5 0 9 -4 9 -8z m-75 -292 c3
-5 2 -10 -4 -10 -5 0 -13 5 -16 10 -3 6 -2 10 4 10 5 0 13 -4 16 -10z m-151
-105 c3 -8 1 -15 -4 -15 -6 0 -10 -5 -10 -11 0 -6 9 -9 20 -6 27 7 25 -5 -5
-32 -28 -23 -55 -20 -34 5 7 9 8 14 1 14 -7 0 -7 10 1 30 13 33 22 38 31 15z
m-64 -79 c0 -3 -4 -8 -10 -11 -5 -3 -10 -1 -10 4 0 6 5 11 10 11 6 0 10 -2 10
-4z m10 -44 c-8 -3 -22 -10 -30 -16 -8 -6 -7 -1 4 11 10 13 23 20 29 16 7 -4
6 -8 -3 -11z m-105 -913 c-10 -15 12 -10 25 6 9 11 16 13 23 6 7 -7 6 -16 -3
-26 -11 -13 -11 -18 -1 -24 10 -7 11 -13 1 -31 -8 -15 -15 -19 -22 -12 -6 6
-17 8 -25 5 -8 -3 -19 0 -24 8 -14 22 -10 33 6 19 12 -10 15 -10 15 1 0 8 -4
20 -9 28 -11 17 -3 43 10 35 5 -3 7 -10 4 -15z m-122 -10 c-12 -4 -24 -12 -28
-18 -3 -6 -10 -11 -16 -11 -12 0 -12 30 1 31 6 1 14 2 19 3 5 0 13 4 17 8 4 4
11 5 17 1 6 -3 1 -10 -10 -14z m127 -140 c0 -5 -4 -7 -10 -4 -5 3 -10 -1 -10
-10 0 -9 -5 -13 -10 -10 -8 5 -7 11 1 21 14 17 29 18 29 3z m-1873 -51 c-3 -8
-6 -5 -6 6 -1 11 2 17 5 13 3 -3 4 -12 1 -19z m1862 -94 c-6 -7 -9 -20 -6 -27
3 -8 -1 -14 -9 -14 -7 0 -11 4 -8 9 4 5 -2 16 -12 24 -18 15 -18 15 4 11 15
-4 22 0 22 10 0 8 5 11 10 8 8 -5 7 -11 -1 -21z m-19 -108 c0 -12 -10 -14 -38
-7 -2 1 0 6 3 11 9 15 35 12 35 -4z m-2126 -455 c3 -5 -1 -14 -8 -20 -12 -10
-13 -8 -9 8 6 23 9 25 17 12z m6 -51 c0 -5 -4 -10 -10 -10 -5 0 -10 5 -10 10
0 6 5 10 10 10 6 0 10 -4 10 -10z m1700 -34 c0 -3 -4 -8 -10 -11 -5 -3 -10 -1
-10 4 0 6 5 11 10 11 6 0 10 -2 10 -4z m-1750 -186 c0 -5 -5 -10 -11 -10 -5 0
-7 5 -4 10 3 6 8 10 11 10 2 0 4 -4 4 -10z m1742 -102 c-9 -9 -12 -7 -12 12 0
19 3 21 12 12 9 -9 9 -15 0 -24z m-22 -53 c-8 -10 -7 -16 4 -22 13 -7 13 -10
-4 -21 -18 -11 -22 -10 -30 10 -8 21 -9 21 -10 3 0 -16 -2 -17 -9 -6 -14 22 3
46 33 47 21 2 24 -1 16 -11z m15 -64 c-3 -6 -11 -11 -16 -11 -5 0 -4 6 3 14
14 16 24 13 13 -3z m71 -26 c0 -19 -5 -24 -23 -23 -28 3 -28 3 -5 27 23 26 28
25 28 -4z m21 -17 c-3 -8 -6 -5 -6 6 -1 11 2 17 5 13 3 -3 4 -12 1 -19z m-41
-33 c4 -8 10 -12 15 -9 12 7 11 0 -2 -30 -7 -14 -16 -23 -21 -20 -4 3 -6 10
-2 15 3 6 -4 13 -16 16 -13 3 -19 11 -16 20 3 8 2 12 -3 8 -5 -3 -20 -1 -33 4
-19 8 -15 10 25 10 33 1 49 -3 53 -14z m-31 -55 c3 -6 -1 -7 -9 -4 -18 7 -21
14 -7 14 6 0 13 -4 16 -10z m-101 -32 c-3 -5 -9 -6 -14 -3 -4 3 -10 0 -12 -7
-3 -9 -6 -9 -11 -1 -4 6 0 19 9 28 13 13 19 14 25 4 4 -7 5 -17 3 -21z m36
-118 c0 -5 -5 -10 -11 -10 -5 0 -7 5 -4 10 3 6 8 10 11 10 2 0 4 -4 4 -10z
m-133 -62 c-3 -8 -6 -5 -6 6 -1 11 2 17 5 13 3 -3 4 -12 1 -19z m-210 -208 c1
-11 0 -20 -2 -20 -2 0 -9 9 -15 20 -8 15 -8 20 3 20 7 0 13 -9 14 -20z m-97
-129 c0 -6 -4 -13 -10 -16 -5 -3 -10 1 -10 9 0 9 5 16 10 16 6 0 10 -4 10 -9z"/>
<path d="M8838 7485 c-2 -2 -23 -6 -48 -9 -25 -3 -56 -8 -70 -11 -28 -6 -92
-19 -100 -20 -36 -7 -130 -45 -150 -61 -8 -6 -37 -19 -64 -28 -61 -21 -83 -33
-120 -63 -31 -26 -46 -26 -126 -5 -29 7 -44 4 -87 -17 -61 -30 -75 -53 -123
-204 -17 -54 -39 -106 -48 -115 -48 -48 -113 -155 -114 -185 0 -35 22 -107 34
-107 7 0 5 -11 -9 -47 -3 -10 -7 -20 -7 -23 -9 -41 -31 -108 -39 -117 -5 -7
-7 -13 -3 -13 4 0 0 -12 -8 -27 -25 -50 -66 -184 -66 -217 0 -29 -39 -159 -81
-271 -10 -28 -19 -57 -19 -66 0 -9 -13 -56 -29 -105 -30 -93 -38 -121 -72
-244 -11 -41 -32 -113 -45 -160 -31 -105 -39 -138 -49 -186 -3 -11 -20 -72
-39 -135 -18 -63 -37 -127 -42 -144 -11 -43 -11 -45 -14 -47 -1 -2 -3 -10 -5
-18 -2 -8 -17 -64 -35 -125 -18 -60 -33 -120 -34 -132 0 -13 -4 -23 -9 -23 -4
0 -6 -3 -5 -7 3 -13 -24 -116 -37 -143 -32 -64 -65 -324 -50 -391 9 -39 28
-36 73 10 27 28 45 62 66 125 16 47 33 86 38 86 5 0 14 11 20 25 6 14 19 25
28 25 15 0 37 32 56 85 7 19 8 19 12 -4 3 -21 8 -17 37 32 21 35 32 63 28 76
-3 12 -1 21 5 21 6 0 12 -8 14 -17 2 -11 12 4 26 37 13 30 29 66 36 80 8 14
22 54 31 89 9 36 26 83 38 105 35 67 58 139 47 146 -6 4 -1 23 13 51 23 42 33
74 44 129 2 13 9 30 15 37 6 7 8 13 5 13 -4 0 3 21 13 46 11 25 18 50 15 55
-3 4 3 25 14 46 10 21 21 55 24 76 3 21 12 46 21 56 10 11 14 25 10 36 -5 12
4 27 31 51 51 45 75 44 40 -2 -21 -28 -19 -31 16 -26 23 3 34 12 44 37 17 38
24 45 123 106 42 27 84 54 92 61 17 16 87 48 104 48 6 0 40 27 76 60 68 64 76
69 66 45 -9 -26 25 -2 79 54 27 28 74 67 104 88 31 21 62 44 69 50 7 7 17 13
21 13 5 0 22 14 39 30 18 17 39 30 47 30 20 0 105 85 105 104 0 8 5 18 10 21
6 3 10 1 10 -4 0 -6 4 -11 8 -11 12 0 33 50 26 61 -3 6 12 33 34 62 21 29 46
66 55 82 8 17 30 44 47 60 37 34 80 123 110 227 12 40 24 80 27 88 3 8 5 18 5
23 -1 4 2 7 8 7 6 0 10 7 10 15 0 22 49 125 60 125 5 0 10 -10 12 -22 5 -34
25 -32 33 4 3 18 8 73 10 122 3 76 1 89 -14 93 -10 3 -18 16 -19 35 -2 22 -17
45 -50 78 -26 26 -63 70 -82 98 -52 76 -80 86 -237 89 -72 1 -133 0 -135 -2z
m8 -329 c7 -17 -30 -173 -52 -223 -10 -21 -18 -40 -19 -43 -26 -73 -91 -201
-163 -324 -64 -108 -155 -212 -261 -296 -57 -45 -87 -75 -135 -133 -44 -52
-66 -61 -58 -22 7 41 -11 29 -35 -22 -25 -53 -113 -147 -113 -121 0 9 6 18 13
21 6 2 25 30 41 60 16 31 35 58 43 61 7 3 22 26 33 50 20 47 17 91 -6 82 -8
-3 -14 -3 -14 1 0 11 51 93 58 93 4 0 12 10 18 23 36 72 48 94 59 107 11 13
28 73 30 105 0 6 10 24 22 41 13 17 25 47 27 65 3 19 11 54 19 79 8 25 13 59
12 75 -1 23 7 39 34 65 20 19 57 66 83 103 29 41 55 67 66 67 10 0 31 14 47
30 16 17 36 30 45 30 9 0 20 3 24 8 26 26 173 41 182 18z m-578 -479 c-14 -40
-28 -58 -39 -51 -14 8 -11 26 11 62 25 41 43 34 28 -11z m-46 -140 c-2 -19
-12 -38 -23 -46 -19 -11 -20 -10 -13 26 12 67 44 84 36 20z m-448 -517 c-10
-16 -19 -28 -21 -26 -6 6 20 56 29 56 5 0 1 -13 -8 -30z m-64 -229 c0 -12 -20
-25 -27 -18 -7 7 6 27 18 27 5 0 9 -4 9 -9z m-114 -482 c-12 -27 -15 -29 -16
-12 0 12 6 34 12 49 19 41 22 5 4 -37z m74 -33 c-4 -18 -10 -38 -13 -43 -3 -5
-8 -20 -11 -34 -12 -57 -15 -69 -25 -88 -6 -11 -11 -28 -11 -39 0 -21 -34 -65
-43 -56 -4 5 -2 34 7 79 1 6 12 26 24 45 12 19 22 45 22 56 0 27 38 114 49
114 5 0 5 -15 1 -34z m-111 -101 c-29 -114 -36 -130 -60 -142 -13 -7 -32 -22
-41 -34 -26 -31 -22 -15 12 55 17 35 33 82 35 107 3 24 10 57 16 72 l12 28 17
-28 c12 -20 14 -37 9 -58z m131 -42 c0 -41 -21 -101 -38 -108 -25 -9 -25 2 -2
39 12 20 21 46 20 58 -3 38 -1 50 10 43 6 -3 10 -18 10 -32z m-203 -145 c-14
-55 -45 -132 -55 -136 -7 -2 -5 17 5 55 16 55 39 103 50 103 3 0 3 -10 0 -22z
m106 -136 c-3 -12 -9 -22 -14 -22 -12 0 -11 7 3 30 15 24 19 21 11 -8z m-146
-41 c-6 -17 -14 -28 -19 -25 -8 5 12 54 23 54 4 0 2 -13 -4 -29z"/>
<path d="M7300 6929 c-19 -4 -48 -11 -65 -17 -102 -34 -123 -39 -137 -31 -12
7 -24 -2 -49 -37 -19 -25 -45 -57 -59 -72 -14 -15 -30 -38 -36 -52 -12 -26
-213 -274 -278 -344 -35 -37 -116 -149 -116 -160 0 -4 -8 -14 -17 -24 -10 -10
-40 -44 -68 -77 -27 -33 -61 -70 -74 -84 l-24 -25 -9 23 c-4 13 -17 25 -28 28
-14 4 -20 13 -19 32 3 50 -78 231 -103 231 -4 0 -8 9 -8 20 0 13 -14 27 -40
40 -22 11 -40 25 -40 30 0 5 -26 17 -57 26 -32 9 -66 26 -76 38 -11 12 -25 20
-33 18 -8 -2 -28 11 -45 27 -30 30 -32 31 -113 26 -107 -6 -170 -32 -185 -78
-10 -31 -58 -217 -66 -253 -10 -52 -77 -315 -90 -358 -8 -27 -15 -65 -15 -85
0 -30 -8 -65 -34 -156 -1 -5 -6 -28 -11 -50 -4 -22 -21 -71 -37 -109 -19 -45
-28 -79 -25 -99 2 -17 0 -47 -4 -66 -4 -20 -11 -52 -14 -71 -4 -19 -8 -39 -9
-45 -1 -5 -5 -15 -8 -21 -4 -6 -10 -33 -13 -60 -4 -27 -8 -57 -11 -66 -6 -19
-9 -36 -19 -98 -4 -25 -9 -54 -11 -65 -3 -11 -6 -46 -9 -78 -2 -32 -9 -75 -15
-97 -6 -21 -12 -59 -14 -84 -2 -25 -6 -49 -9 -53 -3 -5 -8 -29 -12 -53 -3 -25
-10 -63 -15 -85 -5 -22 -12 -55 -15 -74 -3 -19 -8 -38 -11 -42 -5 -9 -15 -212
-18 -391 -2 -101 1 -138 10 -142 7 -3 17 9 24 27 6 18 16 41 22 51 13 24 21
70 21 114 0 17 3 32 7 32 7 0 34 58 46 100 4 14 14 30 22 36 14 10 14 13 -1
29 -25 25 -14 107 21 147 7 9 15 36 17 60 7 85 28 189 38 185 6 -2 11 -13 12
-25 2 -29 15 -41 16 -16 1 10 1 22 0 26 0 4 8 32 19 62 12 30 23 63 25 74 12
65 49 182 56 182 5 0 6 -12 2 -27 -4 -16 -7 -58 -7 -95 1 -38 -2 -68 -6 -68
-7 0 -5 -48 2 -55 18 -18 98 144 104 209 2 27 6 51 8 54 3 2 1 15 -4 28 -8 19
-5 28 15 48 15 16 22 31 18 44 -3 14 7 39 27 71 18 27 32 52 31 55 0 3 8 30
20 60 11 30 22 64 24 76 2 11 15 44 28 73 49 104 67 146 67 156 0 10 34 124
48 161 8 21 9 28 11 44 1 16 28 46 40 46 6 0 35 -71 36 -90 1 -3 7 -16 15 -30
8 -14 14 -28 15 -31 0 -4 16 -39 35 -78 26 -55 39 -71 52 -68 25 7 42 -45 20
-66 -14 -15 -14 -17 4 -23 10 -4 34 -13 53 -21 35 -14 51 -8 55 19 1 9 17 31
35 51 28 29 37 34 52 24 9 -6 20 -26 24 -44 7 -37 11 -39 34 -19 15 14 48 24
95 30 10 1 27 12 36 23 12 15 24 19 42 16 20 -4 30 1 44 22 10 15 34 37 54 50
33 21 38 30 53 99 9 43 29 105 45 139 16 34 37 81 47 104 10 23 24 44 32 47
15 6 14 -19 -2 -121 -3 -18 -7 -45 -9 -60 -2 -16 -9 -57 -15 -93 -6 -36 -13
-82 -17 -104 -3 -21 -7 -47 -9 -56 -2 -10 -6 -40 -10 -67 -3 -26 -8 -63 -11
-82 -2 -18 -6 -37 -9 -41 -2 -4 2 -15 9 -26 9 -12 11 -26 6 -40 -5 -12 -6 -25
-3 -28 4 -3 1 -6 -6 -6 -7 0 -10 -4 -7 -8 6 -10 -57 -270 -72 -298 -14 -26
-20 -75 -27 -212 -7 -132 -8 -362 -2 -368 8 -9 76 52 88 79 6 15 15 27 20 27
11 0 24 49 20 73 -4 26 72 138 77 114 4 -18 26 -19 28 -1 2 24 17 64 24 64 4
0 7 20 7 45 0 26 7 53 15 63 9 9 19 32 23 50 3 17 10 32 15 32 10 0 42 100 47
144 2 16 8 35 14 42 6 7 8 18 4 23 -3 6 1 23 9 38 14 27 15 25 12 -44 -2 -76
7 -89 17 -25 4 21 14 53 23 71 9 18 16 51 16 72 -1 29 6 47 21 62 12 12 22 27
22 32 1 6 7 20 14 33 7 13 14 42 15 65 1 23 8 58 14 78 7 19 11 46 8 60 -2 13
5 39 16 57 11 17 17 32 14 32 -4 0 0 12 7 28 8 15 18 37 22 50 6 22 4 23 -27
20 -30 -3 -33 -1 -31 22 1 14 12 48 24 75 13 28 24 56 25 64 2 7 14 26 28 40
14 15 26 35 26 45 0 9 9 36 21 59 11 23 47 110 80 192 34 83 65 155 70 161 5
6 6 25 3 42 -4 18 1 52 12 84 9 29 19 75 20 101 1 26 12 65 23 87 24 46 42
111 46 165 2 22 7 50 10 63 5 15 3 22 -6 24 -8 0 -21 2 -29 3 -8 1 -23 -2 -32
-7 -13 -6 -23 -3 -35 12 -10 11 -25 20 -35 20 -10 0 -18 4 -18 9 0 12 -57 18
-100 10z m60 -613 c0 -3 -4 -8 -10 -11 -5 -3 -10 -1 -10 4 0 6 5 11 10 11 6 0
10 -2 10 -4z m34 -50 c-3 -9 -10 -16 -15 -16 -6 0 -5 9 1 21 13 24 24 20 14
-5z m-99 -196 c3 -5 1 -10 -4 -10 -6 0 -11 5 -11 10 0 6 2 10 4 10 3 0 8 -4
11 -10z m-59 -158 c-14 -14 -28 -23 -31 -20 -12 12 7 56 28 65 33 15 35 -14 3
-45z m-80 -84 c-2 -7 -8 -26 -14 -41 -7 -16 -12 -33 -12 -38 0 -5 -4 -9 -8 -9
-10 0 20 100 30 100 3 0 5 -6 4 -12z m-40 -156 c-11 -10 -14 3 -8 33 l7 30 3
-28 c2 -16 1 -31 -2 -35z m-22 -223 c-5 -8 -10 -6 -16 5 -5 9 -6 21 -2 27 5 8
10 6 16 -5 5 -9 6 -21 2 -27z m-933 -42 c-1 -12 -15 -9 -19 4 -3 6 1 10 8 8 6
-3 11 -8 11 -12z m-771 -662 c0 -14 -4 -25 -8 -25 -7 0 -8 31 -3 48 4 11 11
-3 11 -23z m1460 -61 c0 -8 -5 -12 -10 -9 -6 4 -8 11 -5 16 9 14 15 11 15 -7z"/>
<path d="M5336 6873 c-34 -46 -91 -118 -122 -156 -8 -9 -14 -22 -14 -27 0 -6
-3 -10 -8 -10 -4 0 -13 -12 -19 -27 -7 -16 -26 -43 -43 -61 -16 -18 -31 -42
-31 -53 -2 -26 -2 -27 -28 -84 -75 -163 -140 -331 -156 -399 -2 -10 -13 -37
-23 -60 -16 -35 -47 -142 -67 -236 -3 -14 -8 -32 -11 -40 -3 -8 -8 -26 -10
-40 -3 -13 -12 -38 -19 -55 -14 -30 -43 -132 -95 -335 -15 -58 -39 -129 -54
-159 -14 -30 -29 -72 -31 -95 -8 -58 -33 -143 -59 -196 -18 -34 -106 -282
-111 -310 -3 -16 -69 -206 -85 -245 -46 -114 -89 -190 -212 -380 -24 -36 -220
-225 -235 -225 -2 0 -26 -16 -53 -35 -27 -19 -58 -35 -69 -35 -10 0 -35 18
-55 40 -34 38 -36 42 -23 68 10 18 11 36 6 57 -20 70 -34 371 -17 381 3 2 3
17 -2 33 -6 20 -4 38 7 58 8 15 16 42 18 58 3 37 43 144 60 165 7 8 23 51 35
95 12 44 32 102 45 130 12 28 32 82 45 120 13 39 38 104 55 146 18 41 36 91
40 110 4 18 17 57 30 84 21 43 35 78 40 95 0 3 18 39 38 81 21 42 39 85 42 97
2 11 17 44 33 74 26 47 34 71 49 152 2 11 24 74 50 141 56 149 54 167 -17 198
-32 14 -53 31 -60 49 -8 18 -28 33 -63 48 -29 11 -61 25 -72 30 -83 40 -150
45 -173 13 -35 -48 -90 -141 -97 -163 -4 -14 -18 -43 -31 -65 -12 -22 -32 -67
-44 -100 -12 -33 -39 -96 -60 -140 -236 -486 -255 -528 -279 -610 -7 -22 -15
-47 -18 -55 -3 -8 -7 -19 -9 -25 -1 -5 -22 -59 -46 -120 -24 -60 -52 -137 -62
-170 -22 -74 -44 -141 -62 -180 -34 -78 -47 -179 -46 -360 1 -77 12 -218 18
-235 3 -8 7 -42 10 -75 6 -87 12 -148 29 -282 9 -73 52 -170 93 -212 26 -26
25 -1 -2 39 -22 34 -35 58 -45 90 -2 5 -17 66 -26 102 -6 28 11 21 36 -14 94
-129 202 -189 337 -188 42 0 84 -1 92 -3 8 -2 26 -7 40 -11 33 -8 85 -14 134
-15 l39 -1 -19 -21 c-10 -12 -49 -37 -86 -55 -38 -19 -68 -39 -68 -44 0 -14
10 -11 45 11 17 10 39 23 50 28 11 5 43 25 72 45 72 50 176 103 191 98 6 -2
24 6 38 17 15 12 45 26 68 32 22 6 43 14 46 19 3 4 34 21 70 38 36 17 88 48
116 69 29 21 73 54 100 73 26 19 61 49 77 65 106 111 125 134 137 173 9 29 16
39 22 30 6 -10 13 -7 28 12 11 14 30 36 43 50 48 50 69 97 60 132 -8 31 -9 53
-3 71 1 4 3 10 4 15 3 15 41 72 48 72 4 0 3 -11 -2 -25 -14 -36 11 -33 33 5
26 43 57 139 48 145 -5 2 -12 -5 -16 -18 -4 -14 -8 -17 -12 -9 -3 7 2 28 11
46 9 19 16 37 16 42 0 4 11 21 24 38 39 52 53 89 55 141 2 122 10 293 15 320
2 17 0 35 -5 41 -6 7 -5 23 1 40 6 16 11 29 10 29 -6 0 16 86 28 110 8 16 14
46 14 67 -1 20 4 51 12 70 8 18 17 51 20 72 8 51 17 89 25 101 3 6 7 15 8 20
53 205 58 232 43 250 -9 11 -10 31 -6 67 6 41 14 58 37 78 33 28 43 59 29 95
-9 24 0 52 57 172 8 18 13 38 10 45 -2 8 -10 0 -18 -17 -7 -16 -21 -40 -30
-52 -14 -19 -19 -20 -34 -9 -17 12 -17 17 -5 47 7 19 26 53 42 76 16 23 27 46
26 50 -1 4 2 23 6 42 6 23 11 29 16 21 5 -7 6 -19 4 -25 -3 -7 1 -15 9 -18 16
-6 33 24 51 94 10 37 10 48 -1 58 -8 7 -12 20 -9 29 3 9 8 39 12 65 6 43 4 50
-15 64 -15 10 -20 21 -16 32 24 59 8 81 -27 36 -19 -25 -42 -32 -52 -17 -2 4
8 40 24 80 29 72 36 142 14 149 -6 2 -28 -18 -48 -44z m-57 -609 c-14 -24 -24
-32 -29 -24 -10 16 -1 50 18 73 14 16 17 16 25 2 5 -11 1 -27 -14 -51z m-251
-1500 c-7 -15 -14 -21 -16 -15 -5 16 5 41 17 41 7 0 6 -10 -1 -26z m32 -124
c0 -5 -5 -10 -11 -10 -5 0 -7 5 -4 10 3 6 8 10 11 10 2 0 4 -4 4 -10z m-70
-165 c0 -8 -4 -15 -10 -15 -5 0 -7 7 -4 15 4 8 8 15 10 15 2 0 4 -7 4 -15z"/>
<path d="M1845 5820 c3 -5 8 -10 11 -10 2 0 4 5 4 10 0 6 -5 10 -11 10 -5 0
-7 -4 -4 -10z"/>
<path d="M1587 5703 c-4 -3 -7 -11 -7 -17 0 -6 5 -5 12 2 6 6 9 14 7 17 -3 3
-9 2 -12 -2z"/>
<path d="M3186 5682 c-6 -10 30 -43 38 -35 6 6 -16 43 -26 43 -4 0 -9 -4 -12
-8z"/>
<path d="M3088 5478 c2 -10 8 -15 13 -12 14 8 11 31 -5 31 -8 0 -11 -8 -8 -19z"/>
<path d="M3184 5465 c0 -13 3 -22 7 -19 8 4 6 30 -2 38 -3 3 -5 -5 -5 -19z"/>
<path d="M3205 5430 c-3 -6 1 -7 9 -4 18 7 21 14 7 14 -6 0 -13 -4 -16 -10z"/>
<path d="M2972 5359 c2 -6 8 -10 13 -10 5 0 11 4 13 10 2 6 -4 11 -13 11 -9 0
-15 -5 -13 -11z"/>
<path d="M5804 5353 c-4 -10 -8 -20 -9 -23 -1 -3 -9 -30 -19 -60 -21 -65 -63
-230 -71 -280 -3 -19 -11 -53 -17 -75 -6 -22 -12 -47 -13 -55 -1 -8 -5 -30 -9
-48 -5 -22 -4 -38 4 -47 15 -19 30 -10 30 17 0 11 14 48 31 82 17 33 33 67 34
76 28 120 36 171 31 201 -4 26 1 54 19 97 14 34 23 72 21 84 -3 13 -5 29 -5
36 -1 18 -18 15 -27 -5z"/>
<path d="M3016 5262 c-3 -6 -1 -14 5 -17 14 -9 20 -2 10 14 -6 8 -11 9 -15 3z"/>
<path d="M9318 5257 c-13 -6 -30 -12 -38 -14 -8 -2 -19 -5 -25 -7 -5 -2 -20
-7 -32 -11 -13 -4 -23 -12 -23 -19 -1 -6 -7 0 -15 14 l-14 25 -1 -30 c0 -37
-14 -60 -29 -51 -6 4 -11 1 -11 -7 0 -8 -6 -20 -14 -26 -7 -6 -16 -29 -20 -52
-9 -54 -24 -77 -68 -100 -54 -28 -64 -52 -38 -89 12 -17 26 -30 32 -30 12 0 3
-61 -11 -70 -13 -8 -32 -50 -23 -50 11 0 2 -63 -11 -71 -12 -9 -16 -100 -5
-116 15 -19 12 -74 -3 -83 -11 -7 -9 -10 6 -16 11 -4 24 -13 28 -21 15 -25 87
-8 87 21 0 23 32 42 76 45 6 1 16 12 22 26 9 20 16 24 29 16 25 -13 35 -14 42
-4 12 16 51 33 76 33 14 0 25 5 25 10 0 6 6 10 13 10 13 0 70 85 70 106 0 7 4
11 8 8 15 -9 49 16 49 35 0 10 -9 26 -19 35 -18 17 -20 16 -32 -18 -7 -21 -21
-37 -34 -40 -11 -3 -29 -22 -38 -41 -9 -20 -22 -33 -27 -30 -5 3 -17 -3 -27
-15 -10 -11 -28 -20 -40 -20 -13 0 -23 -4 -23 -10 0 -5 -7 -10 -15 -10 -24 0
3 37 37 51 16 6 28 15 28 20 0 5 7 9 15 9 16 0 115 95 116 113 4 60 7 75 18
95 9 16 18 21 34 17 18 -5 23 -2 25 18 1 13 8 36 15 50 8 15 13 50 12 78 -2
54 -19 77 -73 99 -13 6 -21 14 -17 20 3 5 -7 29 -22 52 -15 24 -28 45 -29 46
-6 9 -64 7 -86 -1z m-278 -677 c0 -5 -2 -10 -4 -10 -3 0 -8 5 -11 10 -3 6 -1
10 4 10 6 0 11 -4 11 -10z m98 -6 c6 4 8 -2 5 -14 -6 -24 -26 -26 -44 -4 -10
13 -10 17 1 24 9 6 17 5 21 -2 4 -6 11 -8 17 -4z m-94 -69 c3 -8 1 -15 -4 -15
-6 0 -10 7 -10 15 0 8 2 15 4 15 2 0 6 -7 10 -15z"/>
<path d="M3000 5215 c0 -8 2 -15 4 -15 2 0 6 7 10 15 3 8 1 15 -4 15 -6 0 -10
-7 -10 -15z"/>
<path d="M3015 5180 c-3 -6 1 -7 9 -4 18 7 21 14 7 14 -6 0 -13 -4 -16 -10z"/>
<path d="M3055 5170 c4 -6 11 -8 16 -5 14 9 11 15 -7 15 -8 0 -12 -5 -9 -10z"/>
<path d="M3015 5090 c-3 -5 1 -10 10 -10 9 0 13 5 10 10 -3 6 -8 10 -10 10 -2
0 -7 -4 -10 -10z"/>
<path d="M5161 5004 c-8 -10 -11 -25 -6 -42 3 -15 6 -36 6 -47 0 -38 26 24 27
66 2 42 -5 47 -27 23z"/>
<path d="M2895 4821 c-3 -5 -1 -12 4 -15 5 -3 11 1 15 9 6 16 -9 21 -19 6z"/>
<path d="M1194 4638 c-3 -4 4 -8 15 -8 12 0 21 4 21 8 0 5 -7 9 -15 9 -9 0
-18 -4 -21 -9z"/>
<path d="M1180 4585 c0 -8 0 -18 1 -21 0 -4 -4 -10 -9 -13 -7 -4 -3 -16 8 -31
l19 -25 9 25 c6 15 6 35 0 52 -11 30 -28 38 -28 13z"/>
<path d="M1140 4570 c-8 -5 -12 -12 -9 -15 4 -3 12 1 19 10 14 17 11 19 -10 5z"/>
<path d="M1120 4475 c-14 -16 -10 -18 14 -9 9 3 16 10 16 15 0 14 -16 11 -30
-6z"/>
<path d="M1060 4461 c-7 -15 -7 -21 0 -21 12 0 25 28 17 36 -3 3 -10 -4 -17
-15z"/>
<path d="M1090 4442 c0 -5 6 -14 12 -20 10 -10 10 -15 -2 -22 -13 -9 -13 -11
-1 -19 22 -14 45 13 32 38 -11 19 -41 36 -41 23z"/>
<path d="M2930 4321 c0 -5 5 -13 10 -16 6 -3 10 -2 10 4 0 5 -4 13 -10 16 -5
3 -10 2 -10 -4z"/>
<path d="M963 4179 c-6 -13 -12 -18 -12 -11 -1 6 -5 12 -11 12 -11 0 -14 -73
-4 -83 4 -3 15 -2 26 4 11 6 17 13 14 16 -3 3 -2 13 3 22 4 9 5 27 2 40 l-6
24 -12 -24z"/>
<path d="M2837 4033 c-12 -12 -7 -22 8 -17 8 4 15 10 15 15 0 11 -14 12 -23 2z"/>
<path d="M2796 3984 c-4 -9 -4 -19 -1 -22 2 -3 7 3 11 12 4 9 4 19 1 22 -2 3
-7 -3 -11 -12z"/>
<path d="M2742 3958 c-14 -14 -16 -28 -3 -28 9 0 24 30 18 36 -2 2 -9 -2 -15
-8z"/>
<path d="M2695 3910 c3 -5 8 -10 11 -10 2 0 4 5 4 10 0 6 -5 10 -11 10 -5 0
-7 -4 -4 -10z"/>
<path d="M2743 3905 c-3 -9 -3 -18 -1 -21 3 -3 8 4 11 16 6 23 -1 27 -10 5z"/>
<path d="M2624 3892 c-18 -13 -17 -14 9 -8 20 5 27 3 27 -9 0 -16 9 -19 27 -7
8 5 3 13 -16 23 -24 14 -30 14 -47 1z"/>
<path d="M2706 3855 c-3 -9 0 -15 9 -15 8 0 15 7 15 15 0 8 -4 15 -9 15 -5 0
-11 -7 -15 -15z"/>
<path d="M2747 3803 c-10 -9 -9 -33 1 -33 4 0 8 9 9 20 2 21 0 24 -10 13z"/>
<path d="M2590 3785 c0 -8 2 -15 4 -15 2 0 6 7 10 15 3 8 1 15 -4 15 -6 0 -10
-7 -10 -15z"/>
<path d="M2776 3782 c-3 -5 1 -15 9 -22 16 -14 20 -3 6 19 -5 8 -11 9 -15 3z"/>
<path d="M2696 3761 c-3 -5 1 -11 9 -15 8 -3 15 -1 15 4 0 13 -18 22 -24 11z"/>
<path d="M2530 3680 c0 -5 7 -10 15 -10 8 0 15 5 15 10 0 6 -7 10 -15 10 -8 0
-15 -4 -15 -10z"/>
<path d="M2713 3676 c4 -9 -2 -17 -14 -21 -10 -4 -19 -12 -19 -20 0 -7 -7 -20
-15 -29 -13 -13 -13 -15 5 -21 13 -4 20 -15 20 -31 0 -37 15 -29 30 17 8 23
21 48 29 57 17 16 25 45 10 36 -5 -3 -12 2 -15 10 -3 9 -13 16 -21 16 -9 0
-13 -6 -10 -14z m8 -55 c-7 -5 -11 -13 -8 -18 3 -5 -3 -9 -14 -9 -22 0 -21 -1
-13 20 3 9 16 16 28 16 16 0 18 -2 7 -9z"/>
<path d="M2680 3670 c-9 -6 -10 -10 -3 -10 6 0 15 5 18 10 8 12 4 12 -15 0z"/>
<path d="M2645 3650 c3 -5 11 -10 16 -10 6 0 7 5 4 10 -3 6 -11 10 -16 10 -6
0 -7 -4 -4 -10z"/>
<path d="M2523 3609 c3 -9 0 -22 -6 -29 -9 -10 -9 -11 0 -6 6 3 13 2 15 -3 1
-5 17 2 33 15 l30 25 -27 -10 c-22 -8 -30 -7 -38 7 -10 14 -11 14 -7 1z"/>
<path d="M2440 3559 c0 -5 5 -7 10 -4 6 3 10 8 10 11 0 2 -4 4 -10 4 -5 0 -10
-5 -10 -11z"/>
<path d="M2660 3551 c0 -6 -9 -11 -20 -11 -14 0 -18 -5 -13 -17 5 -12 3 -14
-7 -8 -8 5 -11 4 -7 -2 3 -5 21 -8 39 -6 30 4 31 3 15 -10 -13 -11 -15 -20 -8
-38 10 -24 10 -24 10 4 1 16 5 26 11 22 11 -7 13 6 4 29 -3 9 -11 13 -18 9 -6
-4 -6 0 2 9 9 11 10 18 2 23 -5 3 -10 1 -10 -4z"/>
<path d="M2563 3542 c-6 -4 -15 -20 -18 -35 -6 -22 -10 -25 -21 -16 -8 6 -11
16 -8 23 3 6 -2 2 -10 -8 -19 -23 -7 -36 36 -36 14 0 29 -6 31 -12 3 -7 6 -3
6 9 1 12 5 24 10 27 5 3 11 15 14 26 3 12 1 18 -5 14 -6 -4 -13 -2 -17 4 -4 6
-12 8 -18 4z m21 -43 c-3 -5 -10 -7 -15 -3 -5 3 -7 10 -3 15 3 5 10 7 15 3 5
-3 7 -10 3 -15z"/>
<path d="M2430 3480 c0 -5 5 -10 11 -10 5 0 7 5 4 10 -3 6 -8 10 -11 10 -2 0
-4 -4 -4 -10z"/>
<path d="M2605 3480 c3 -5 11 -10 16 -10 6 0 7 5 4 10 -3 6 -11 10 -16 10 -6
0 -7 -4 -4 -10z"/>
<path d="M2550 3370 c0 -13 18 -22 24 -11 3 5 -1 11 -9 15 -8 3 -15 1 -15 -4z"/>
<path d="M2331 2864 c0 -11 3 -14 6 -6 3 7 2 16 -1 19 -3 4 -6 -2 -5 -13z"/>
<path d="M960 2540 c0 -5 5 -10 11 -10 5 0 7 5 4 10 -3 6 -8 10 -11 10 -2 0
-4 -4 -4 -10z"/>
</g>
</svg>
