<?xml version="1.0" encoding="utf-8"?>
<!-- Generator: Adobe Illustrator 21.1.0, SVG Export Plug-In . SVG Version: 6.00 Build 0)  -->
<svg version="1.1" id="Layer_1" xmlns="http://www.w3.org/2000/svg" xmlns:xlink="http://www.w3.org/1999/xlink" x="0px" y="0px"
	 viewBox="0 0 472 300" style="enable-background:new 0 0 472 300;" xml:space="preserve">
<style type="text/css">
	.st0{fill:#E6E6E6;}
</style>
<g>
	<g>
		<path class="st0" d="M287,9.1c-0.2,0.7-0.5,0.8-1.1,0.8c-0.2,0.3,0.2,0.6-0.2,0.7c-0.2,0.3-0.5,0.6-0.7,0.6
			c-0.2,0.1-0.2,0.1-0.2-0.2c0.2-0.1,0.2-0.3,0.5-0.3c0-0.2,0.2-0.3,0.2-0.5c-0.2-0.2-0.5-0.3-0.7,0.2c-0.1,0.1-0.1,0.2-0.2,0.3
			c-0.5,0.8-1.1,1.4-2.1,1.4c-0.2,0.1-0.5,0.1-0.7,0.2c-0.2-0.2-0.2-0.4-0.5-0.3c-0.5-0.3-0.5-0.6,0-0.9c0.2-0.1,0.5-0.3,0.7-0.6
			c0,0.2,0,0.2,0,0.2c0,0.2,0.2,0.4,0.2,0.6c0.5-0.6,0.5-0.6-0.2-0.6c0-0.1,0-0.1,0-0.2c0-0.2,0-0.5-0.5-0.6c-0.5,0.1-0.7,0-1.1-0.2
			c-0.5,0.6-0.7,1.1-1.1,1.9c0.2,0.4,0.7,0.7,0.9,1.4c0.2-0.3,0.7-0.4,1.1-0.5c-0.2,0.3-0.2,0.5-0.5,0.6c-0.2,0.3-0.7,0.7-1.1,1
			c-0.8,0.5-1.6,1.1-2.3,2c-0.5-0.3-0.5-0.8-0.2-1.3c0-0.2,0-0.2,0-0.5c0.2-0.7,0.2-1-0.7-1c0-0.5,0-0.9,0-1.4
			c-1.6,0.6-3,1.7-4.1,2.9c-0.2,0.3-0.7,0.4-1.1,0.8c0.2,0.2,0.2,0.4,0.2,0.9c0,0,0,0-0.2,0.1c-0.1-0.1-0.1-0.1-0.2-0.2
			c-0.9,0.5-1.8,0.3-2.5,0.9c-0.2,0.1-0.5,0.3-0.5,0.6c0.5,1.5-0.9,2.5-1.8,3.5c-0.5,0.3-0.7,0.4-0.9,0.7c-0.7,0.9-1.8,1.6-2.5,2.3
			c-0.2,0.1-0.5,0.1-0.7,0.2c-0.9,0.2-2.1,0.8-3.2,1.5c0,0.2-0.2,0.5-0.2,1c-0.2-0.4-0.5-0.8-0.7-1c-0.2-0.2-0.7-0.3-0.9-0.2
			c-0.5,0.3-0.7,0.9-1.1,1.2c-0.5-0.1-0.9-0.2-1.1-0.2c-0.7,0.4-1.4,0.8-1.8,1.4c-0.2,0.1-0.2,0.3-0.5,0.3c-0.5,0.8-1.1,1.2-1.8,1.2
			c0-0.7,0.6-0.6,0.9-0.9c0.3-0.3,0.2-0.5,1.6-1.1c0-0.2-0.2-0.2-0.2-0.2c-0.7,0.2-1.1-0.2-1.6-0.5c-0.5-0.3-0.9-0.2-1.4,0.4
			c-0.2,0.3-0.5,0.6-0.9,1.2c0.2,0.2,0.5,0.1,0.7,0.3c-0.2,0.3-0.5,0.3-0.7,0.4c-0.2-0.4-0.7-0.5-0.9-0.7c-0.2-0.2-0.2-0.2-0.5-0.1
			c0,0.7-0.5,1.3-0.9,1.8c-0.7-0.5-0.9-0.7-1.8,0c0,0.2,0,0.7,0,0.9c-0.2,0.1-0.5,0.3-0.5,0.3c0,0.2,0.2,0.4,0.2,0.9
			c-0.2,0.3-0.5,0.3-0.9,0.5c-0.7-0.3-0.9,0-1.6,0.4c0.2-0.3,0.2-0.5,0.2-0.8c-1.4-0.3-2.5,0.2-3.2,1.5c-0.2,0.5-0.7,0.9-1.1,1.2
			c-0.1,0-0.1,0-0.2,0.1c-0.2,0.8-0.7,0.9-0.9,0.9c-0.2,0.3-0.2,0.3-0.2,0.5c-0.2-0.2-0.7-0.1-1.1-0.2c0.2-0.3,0.2-0.5,0.5-1
			c-0.9,0.5-1.1,1-1.1,1.9c-0.5,0.1-0.7,0.2-0.7-0.1c-0.9-0.5-1.1-0.4-1.6,0.9c0,0-0.2,0.1-0.2,0.3c-0.2-0.2-0.5-0.3-0.7-0.3
			c0.2-0.3,0.2-0.5,0.5-0.8c-0.2,0.1-0.7,0.2-0.7,0.2c0,0.9-0.7,1.1-1.1,1.5c-0.5,0.8-0.7,0.6-1.1,0.1c0-0.1,0-0.1,0-0.2
			c-0.5,0.1-0.9,0.5-1.6,0.9c0,0.2-0.1,0.7-0.2,1.2c-0.3,0.9-0.7,1.8-1.8,2.1c-0.2,0.1-0.2,0.3-0.5,0.3c-0.7,0.4-0.7,0.4-1.1,0.1
			c-0.2-0.2-0.7-0.1-0.7-0.1c-0.5,0.1-0.9,0.2-1.4,0.1c-0.7,0.2-0.9,0.8-1.4,1.3c-0.6,0.6-2.3,0.8-3.2,1.3c-0.2,0.1-0.5,0.3-0.7,0.6
			c-0.2,0.3-0.5,0.6-0.7,0.9c-0.5,0.1-0.9,0-1.1,0.1c-0.2,0.5-0.5,0.8-0.7,1.3c-0.2-0.9,0.2-1.7-0.7-1.7c-0.5,0.3-0.7,0.9-1.1,1.2
			c0,0.2,0.2,0.4,0.2,0.6c0,0.2-0.2,0.5-0.5,0.8c0.2,0.2,0.5,0.1,0.9,0.2c-1.1,0.5-0.9,1.4-1.4,2c0-0.5,0-0.9-0.2-1.6
			c-0.5,0.3-0.9,0.5-1.4,0.8c-0.2-0.2-0.7-0.3-0.7-0.8c-0.2-0.4-0.5-0.6-0.7-0.3c-0.5,0.1-0.9,0.5-0.9,0.7c-0.2,0.8-0.5,0.8-0.9,1.2
			c-0.7,0.2-0.5-0.6-0.7-0.5c-0.7,0.6,0.2,1.3-0.7,1.8c0-0.2-0.2-0.4-0.2-0.9c-0.2,0.3-0.5,0.3-0.5,0.3c-0.7,0.2-0.9,0.5-0.9,1.2
			c0,0.2-0.2,0.5-0.5,0.6c-0.5,0.1-0.7,0.2-0.9-0.2c0-0.5-0.2-0.9-0.5-1.3c-0.2-0.4-0.9-0.5-1.4-0.1c-0.5,0.1-0.7,0.6-0.7,1.1
			c0,0.5,0,0.9,0,1.4c0,0.5-0.2,0.8-1.1,1.2c-0.2-0.4,0-0.7,0.2-1c0.2-0.1,0.2-0.3,0.2-0.5c-0.2,0.1-0.2,0.1-0.5,0.1
			c-0.5-0.1-0.7-0.3-1.1-0.2c0,0.5,0,0.7,0.2,0.9c0.7,0.5,0.7,1,0,1.6c-0.5-0.4,0-1.2-0.7-1c-0.9,0.7-0.2,1.2-0.4,2
			c-0.7-0.5-1.6-0.8-1.8-1.9c-0.2,0.3-0.2,0.5-0.5,0.8c-0.5-0.4-0.7-0.5-1.2-0.9c-0.5,0.6-0.9,0.9-1.4,1.5c-1.1-0.2-2.6,0-3.4,0.3
			c-0.4,0.2-0.9,0.7-1.1,1c-0.5,0.3-0.7,0.6-1.1,0.3c0-0.2-0.2-0.2-0.2-0.2c-0.5,0.6-0.5,0.6,0.5,0.8c-0.2,0.8-0.7,0.4-1.1,0.5
			c0,0.5,0,0.9-0.2,1.5c-0.5-0.6-1.6,0.1-1.6-0.8c-0.5,0.1-0.7,0.2-1.1,0.3c-0.2,0.8-0.4,1.5-0.4,2.2c-0.5,0.1-0.9,0-1.4,0.1
			c-0.2,0.3-0.2,0.5-0.5,1c-0.7,0.2-1.1,0.3-1.8,0.4c-0.5,0.3-0.9,0.9-1.4,1.3c0.2-0.8-0.7-1,0.2-1.9c0,0.5,0.2,0.7,0.2,0.9
			c0,0,0.2-0.1,0.2-0.3c0.2-0.5,0.5-1,0.9-1.6c-0.7-0.1-1.4-0.2-2.3-0.2c0.2,0.4,0.2,0.7,0.2,0.9c0,0-0.2,0.1-0.5,0.1
			c-0.2,0.8-0.9,1.2-1.6,1.5c-0.2,0.3,0,0.7-0.2,1.2c-0.2-0.7-0.5-1.3-0.7-2.2c0,0.2-0.2,0.3-0.2,0.3c-0.2,0.3-0.2,0.3-0.2,0.5
			c-0.2-0.2-0.5-0.4-0.7-0.8c-0.2,0.5-0.5,0.8-0.7,1.1c-0.2,0.1-0.5-0.1-0.7-0.1c-0.5,0.3-0.9,0.7-1.4,0.3c-0.2,0.3-0.2,0.5-0.7,1.1
			c0-0.5-0.2-0.7-0.5-1.1c-0.2,0.1-0.7,0.2-1.1,0.3c0,0.5,0.2,0.7,0.2,1.1c0,0.2,0,0.5,0,0.5c-0.2,0.3-0.5,0.3-0.7,0.4
			c-0.5-0.1-0.9,0-1.4-0.2c-0.2,1,0.2,1.8,0.7,1.7c0.7,0.1,0.7,0.6,1.2,0.9c-0.2,0.1-0.5,0.1-0.9,0.2c0,0.7-0.2,1.2-0.2,1.9
			c-0.9-0.3-0.7-1.3-1.2-1.9c-0.5,0.1-1.1,0.3-1.6,0.4c0-0.2-0.2-0.4-0.2-0.7c-0.2,0-0.2,0-0.2,0.3c0,0.7-0.9,1.6-0.2,2.4
			c0.5-0.3,0.7-0.4,0.9-0.7c1.2,0.7-0.4,1.5-0.2,2.2c0.2-0.1,0.5-0.3,0.7-0.2c0.2-0.1,0.5-0.1,0.5,0.1c0,0.2,0,0.5-0.2,0.5
			c-0.2,0.3-0.5,0.6-0.9,0.9c-0.5,0.3-0.7,0.6-0.7,1.3c0.9,0,1.8-1.8,2.3-1.7c0.2,0,0.2,0.7,0.2,0.9c-0.5,0.3-1.1,0.7-1.8,1.4
			c0.7,0.1,1.1,0.5,1.2,1.2c0.2,0.4,0.7,1,0.7,1.7c0.2,0.4,0.2,1.1,0.2,1.6c0,0.2-0.2,0.5-0.5,0.6c-0.5,0.3-1.1,0.7-1.8,1.1
			c0,0.5,0.2,0.9,0.2,1.4c0.2-0.5,0.5-0.8,0.9-1.4c0.5,0.1,0.4,0.4,0.2,0.9c-0.3,0.7,0,0.9,0.9,1c0.2-0.3,0.2-0.8,0.4-1.3
			c0.2-0.1,0.2,0.2,0.2,0.2c0,0.7,0,0.9,0.7,0.8c0,0.9-0.7,0.6-1.1,1c0,0.5-0.2,1-0.4,1.8c0.7,0.3,0.9,1,0.5,2
			c-0.2-0.4-0.5-0.8-0.7-1.3c0,0.5-0.2,0.5,0,0.7c0.5,1.3-0.9,2.1-0.9,3.5c-0.5-0.4-0.7-0.6-0.9-0.7c-0.2,0.3-0.7,0.6-0.9,1.2
			c-0.2,0.3-0.2,0.5,0.7,0.8c-1.1,0.5-0.9,1.4-0.7,2c0,0.5,0.2,0.9-0.4,1.3c0,0.2,0.2,0.4,0.2,0.7c0.2,0.4,0.5,0.6,0,1.2
			c-0.7,1.3-0.4,1.5,0.2,2.3c0.2,0.2,0.3,1.3,0,1.7c-0.3,0.3-0.2,1-0.2,1.7c-0.2,0.5-0.2,1-0.2,1.5c-0.7-0.3-0.7-0.8-0.2-1.6
			c-0.9,0.7-1.8,0.9-2.5,0.6c-0.7,0.4-0.9,1.4-2,1.2c0.2,0.4,0.2,0.7,0.2,0.7c0,0.2-0.2,0.3-0.2,0.3c0.2,0.4,0.5,0.6,0.9,1
			c0,0,0.2-0.1,0.7-0.2c0.2,0.2,0,0.7-0.7,1.6c-0.2,0.8,0.5,0.6,0.9,1c0.5-0.6,0.7-1.1,1.1-1.7c0.5-0.1,0.7,0.1,0.5,0.6
			c-0.2,0.3-0.2,0.3-0.5,0.6c-0.5,0.6-0.5,0.6,0,1.4c0,0,0,0.2,0,0.5c0,0.2,0,0.2,0,0.2c-0.2,0.3-0.2,0.5-0.4,0.8
			c-0.9,0-0.9,0-0.7-1.3c-0.2-0.2-0.5-0.6-0.9-0.7c-0.2,0.1-0.5,0.3-0.7,0.4c0-0.2,0-0.5-0.2-0.7c-0.5,0.3-0.9,0.4-1.6,0.8
			c0-0.5,0.2-0.8,0.2-1.2c0.2,0.2,0.5,0.1,0.9,0c-0.5-0.1-0.5-0.4-0.7-0.6c-0.5,0.6-0.7,0.9-0.7,1.3c0,0.2,0,0.7,0.2,1.1
			c0.2-0.1,0.7-0.4,0.9-0.4c0.2,0.4,0.5,0.8,0.7,1.3c-0.5,0.1-0.9,0.4-1.4,0.8c0,0.2-0.2,0.8,0.2,0.9c-0.2,0.1-0.5,0.3-0.7,0.4
			c-0.2-0.2-0.2-0.4-0.5-0.6c-0.2-0.4-0.2-0.7,0-1.2c0-0.5,0.2-1-0.5-1.1c0,0.2,0,0.5,0,0.7c0.2,0.7-0.2,1-0.9,0.9
			c-0.2,0.1-0.2-0.2-0.5-0.1c0,0.5,0,1,0.2,1.4c-0.5,0.1-0.7,0.2-0.9,0.2c-0.5,0.1-0.7,0.2-0.9,0.2c0.2,0.9,0.5,0.8,1.6-0.1
			c0.2,0.2,0.2,0.4,0.5,0.6c-0.5,0.3-0.7,0.6-1.1,0.7c-0.5,0.1-0.7,0.4-0.4,1.1c-0.5,0.1-0.7,0.2-1.1,0.3c0.2,0.4,0.5,0.6,0.7,0.8
			c-0.5,0.1-0.9,0.4-1.4,0.5c0,0.5,0.7,1,0.2,1.6c-0.5,0.6-1.1,0.5-1.8,0.2c-0.2,0.3-0.5,0.6-0.7,0.6c-0.2,0.8-0.4,1.3-0.4,2
			c0,0,0.2-0.1,0.2,0.2c0,0.2-0.2,0.3-0.4,0.8c0.7-0.2,1.4-0.3,1.8-0.6c0.7-0.2,0.9,0,1.1,0.5c-0.2,0.8-0.4,1.3-0.7,1.8
			c0-1-0.7-1-1.4-1.1c0,0.2,0.2,0.2,0.2,0.4c0,0.2-0.2,0.5-0.4,0.8c0.7-0.2,1.1,0,1.6-0.1c0,0.2,0.2,0.2,0.2,0.4
			c0.2,0.4,0,0.7-0.4,1.1c-0.2,0.1-0.5,0.1-0.7,0.4c-0.2,0.1-0.2,0.1-0.2,0.1c-0.2,1,0.5,1.8-0.7,2.8c-0.5-0.4-0.9-0.7-1.4-1.1
			c0,0-0.2,0.3-0.5,0.3c0.2,0.2,0.5,0.4,0.7,0.6c0.2-0.1,0.5,0.1,0.5,0.4c-0.2,0.5-0.5,0.6-0.7,0.6c0-0.2-0.2,0.1-0.5,0.1
			c0,0.2,0,0.7,0,1.2c-1.1,0.3-0.5-1.1-0.9-1.2c-0.2,0.5-0.4,0.8-0.7,1.3c0,0.2,0,0.7,0.2,0.9c0.2-0.3,0.5-0.6,0.5-0.6
			c0.2-0.1,0.2-0.1,0.2-0.1c0,0.5,0,1,0,1.4c0.5,0.4,0.9,0.8,1.4,1.6c-0.2,0.1-0.5,0.1-0.5-0.1c-0.7,0.2-1.4,0.3-1.8,0.9
			c-0.2,0.3-0.5,0.3-0.7,0.6c0,0.2,0,0.5,0.2,0.9c0.2,0.2,0.5,0.6,0.2,1.1c0,0,0,0.2,0,0.5c0,0.2,0.2,0.2,0.2,0.4
			c-0.7,0.6-1.4,0.8-2,1.6c0.5-0.1,0.7-0.2,0.9-0.2c0,0.2,0,0.5,0,0.5c-0.2,0.1-0.5,0.1-0.7,0.2c0,0.1,0,0.1,0,0.2
			c1.1,0.9,0.9,1.2-0.4,2.2c-0.2,0.1-0.2,0.3-0.5,0.3c0.2,0.2,0.5,0.6,0.2,0.9c-0.4,1.1-0.4,2-0.9,2.8c-0.2,0.3-0.2,0.5-0.2,0.8
			c0,0,0.2,0.2,0.5,0.1c-0.9,0.2-0.9,0.9-1.1,1.7c0.5-0.1,0.7-0.2,1.1,0c-0.4,0.6,0.2,0.9,0.2,1.4c-0.2,0.1-0.5,0.1-0.7,0.4
			c-0.2,0.1-0.5,0.1-0.7,0.2c-0.2,0.3-0.5,0.3-0.7,0.6c0,0.2,0.2,0.4,0.2,0.7c0.2,0.2,0.5,0.4,0.7,0.6c0,0.5,0.2,0.7,0.2,1.1
			c-0.5,0.1-0.9,0.4-1.4,0.8c-0.5,0.3-0.7,0.9-1.1,1.4c-0.5,0.3-0.9-0.3-1.4,0.8c0.7-0.1,1.4-0.3,1.8-0.4c0.2-0.1,0.5-0.3,0.5-0.3
			c-0.2-0.7,0.4-1.1,0.9-1.4c0,0,0.2-0.3,0.4-0.6c0,0.5,0,0.7-0.2,1.2c0.7-0.6,1.4-1,1.1-1.7c0-0.2,0.4-0.6,0.7-0.9
			c-0.2-0.2-0.5-0.4-0.9-0.8c0.4-0.6,0.7-0.9,1.1-1.4c0.2-0.1,0.5,0.1,0.9,0.3c0-0.5,0-0.7,0-1.2c0.2-0.1,0.7-0.2,0.9-0.2
			c0,1,0.5,1.1,1.2,1.4c0.2-0.1,0.5,0.1,0.5,0.4c0.2,0.7,0.7,0.8,1.6,0.8c-0.2,0.5-0.2,1-0.2,1.5c0.5-0.1,0.9,0.3,1.6-0.6
			c0,1-0.2,1.2-0.9,2.1c0.5,0.4,0.7,0.8,1.1,1.2c-0.2,0.3-0.2,0.5-0.4,0.8c0.5,0.4,0.5,0.8,0.5,1.3c0,1,0.2,1.8,0.5,2.5
			c0,0.2,0.2,0.4,0.5,0.6c-0.2,0.3-0.4,0.8-0.9,1.2c-0.2,0-0.3,0.1-0.5,0.1c-0.5-0.4-0.5,0.1-0.9,0.2c0,0-0.2-0.2-0.2-0.7
			c-0.2,0.3-0.4,0.6-0.7,1.1c0,0,0.2-0.1,0.5,0.1c-0.2,0.3-0.2,0.3-0.4,0.6c0.2,0.2,0.5,0.1,0.9,0c-0.2,0.5-0.2,0.8-0.2,1.2
			c0.2,0.4,0.5,1.1,0.7,1.5c-0.4,0.6-0.7,0.4-0.7-0.1c0-0.2,0-0.3,0-0.5c-0.2-0.2-0.5-0.1-0.7-0.1c0,0.5-0.4,0.6-0.7,0.9
			c-0.5,0.1-0.4,0.6,0,1.2c1.1-0.7,1.6-0.6,2.1,0.5c0.5-0.3,0.7-0.6,0.7-1.1c0-0.2,0-0.5,0-0.5c0.2-0.5,0.4-1.1,0.9-1.6
			c0.7,0.3,0.7,1.3,0.5,1.8c-0.2,0.7-0.1,2.1-0.4,2.5c-0.4,0.5-1.8,0.9-2.5,1.1c0,0.2-0.2,0.3-0.2,0.3c0.2,0.2,0.5,0.1,0.5,0.4
			c0.2-0.1,0.7-0.4,0.9-0.5c0.2-0.1,0.5,0.1,0.5,0.6c-0.2,0.1-0.7-0.1-0.9,0c-1.1,0.7-1.4,0.6-1.6-0.6c0.2-0.3,0.9-0.5,0.4-1.1
			c-0.2,0.1-0.7,0.4-1.1,0.5c0.2,0.9,0.2,1.9,0.3,3c-0.7,0.4-1.4,0.8-2.3,1.2c0.2,0.2,0.2,0.4,0.2,0.4c0.7-0.4,1.6-1.1,2.3-0.5
			c-0.2,1-0.4,1.8-0.7,2.8c0,0.2,0.2,0.4,0.5,0.6c-0.5,0.3-0.7,0.2-0.9-0.3c-0.9,0.5-0.2,1-0.9,1.6c0.5,0.1,0.9,0.3,1.1,0.4
			c0,0,0,0.5,0,0.7c-0.2,0.1-0.5,0.1-0.9,0.2c0,1.2,0.2,1.4,1.6,1.3c0,0.2-0.2,0.8-0.2,1c0-0.2-0.2-0.2-0.2-0.4
			c-0.4,0.6-0.9,1.3-0.7,1.8c0.3,0.6,0.5,1.6-0.2,2.4c-0.5,0.3-0.4,1.1-0.4,1.8c-0.2-0.2-0.5-0.1-0.7-0.3c-0.2-0.2-0.5-0.6-0.7-1
			c0.5-0.1,0.9-0.2,1.1,0c0-0.2,0.2-0.5,0.2-0.8c0-0.5-0.2-0.9,0.2-1.5c0.2-0.1,0-0.7-0.2-0.9c-0.2-0.2-0.5-0.1-0.7-0.3
			c-0.5,0.1-1.1,0.3-1.8,0.9c0,0.2-0.5,0.1-0.7,0.2c-0.2,0.3-0.2,0.8,0,1c0.2,0.4,0.2,0.7-0.2,1.2c-0.7-0.3,0.2-1.5-0.7-1.5
			c0,0.2-0.2,0.3-0.7,0.9c0-0.7,0.2-1.2,0.2-1.7c0-0.2,0.9-0.7,1.4-0.6c0.5-0.1,0.7,0.1,0.9-0.5c-0.5-0.1-0.5-0.1-1.1-1.2
			c0,0.5,0,0.5,0,0.7c0,0,0,0.2,0,0.5c-0.2,0.1-0.7,0.2-1.1,0.3c0-1.2-0.2-1.1-1.1-0.9c0,0.5,0,0.7,0,1.2c0.2-0.1,0.5-0.1,0.9,0
			c-0.2,0.1-0.5,0.3-0.7,0.4c-0.2,0.1-0.5-0.4-0.9,0.4c0.2,0.2,0.5,0.4,0.9,0.5c-0.9,0.4-1.4-0.2-1.6-0.6c-0.2,0.1-0.2,0.1-0.2,0.1
			c-0.2,0.8-0.2,1.7-0.2,2.4c-0.2,0.3-0.5,0.3-0.7-0.1c-0.2-0.2-0.5-0.4-0.5-0.9c0-1.2-0.7-1-1.6-1.1c0,0.5,0,1,0,1.4
			c-0.2,0.1-0.2,0.1-0.2,0.1c-0.2-0.2-0.5-0.4-0.7-0.6c-0.4,0.8-0.4,2-1.6,2.5c-0.5-0.1-0.5-0.6-0.9-0.3c0,0-0.2,0.3,0,0.2
			c0.2,0.2,0.5,0.6,0.7,0.6c0.5,0.1,0.9,0,1.4-0.1c0,0.1,0,0.1,0,0.2c0,0.2,0,0.2,0,0.2c-0.5-0.1-0.9,0.7-1.1,0.7
			c-0.5-0.4-0.9,0.4-1.4,0.1c0.2,0.7-0.6,0.9-0.7,1.3c-0.1,0.8,0.7,1.8,1.6,1.8c-0.2,0.3-0.5,0.3-0.7,0.6c0,0.7,0.5,0.9,1.6,0.6
			c-0.2,0.8-0.4,1.3-0.4,2c-0.5-0.1-0.7-0.1-0.9-0.3c-0.7,0.6-0.2,2-1.3,2.5c0-0.5-0.2-0.9-0.2-1.4c0.9,0.3,0.7-1.1,1.6-1.3
			c-0.2-0.2-0.5-0.1-0.5-0.4c-0.2,0.5-0.7,0.9-0.9,1.2c-0.7-0.1-0.2-0.7-0.2-0.9c0.2-0.1,0.5-0.1,0.7-0.2c0.2-0.5-0.2-1.1-1.4-1.4
			c-0.5,0.3-0.4,0.8-0.4,1.3c0,0.2,0.1,0.5,0,0.7c-0.2,0.6-0.4,1.8-0.2,2.7c0.2,0.2,0,0.7-0.2,1c-0.2,0.3-0.4,0.6-0.9,0.7
			c-0.2,0.1-0.2-0.2-0.2-0.7c0-0.2,0-0.2-0.2-0.7c-0.4,1.1-0.9,1.9-1.1,2.6c-0.2,0.5-0.2,1,0.2,1.1c0.7,0.3,0.5,1.1,0.5,1.6
			c0-0.2-0.2-0.7-0.2-0.9c-0.7,0.4-0.9,0.7-1.4,0.5c-0.2,0-0.5,0.3-0.5,0.3c-0.7,1.1-1.3,2-1.8,3c-0.2,0-0.7,0.1-0.9,0.2
			c-0.4,0.6,0,0.5,0.2,0.7c-0.2,0.3-0.4,0.6-0.7,0.9c-0.2,0-0.5,0.1-0.7,0.1c0,0.2,0,0.5,0,0.5c0.5,0.1,0.7,0.6,1.1,0.7
			c0.2,0,0.5-0.1,0.7-0.1c0.5-0.1,0.7-0.4,0.7-0.4c0.7-0.6,1.1-1.2,1.6-2c0.2,0.4,0.5,0.6,0.9,1c0,0.7-0.7,1.3-1.1,1.9
			c-1.4-0.4-2.5,0.3-3.8,1.1c0,0.5,0.2,0.7,0.2,1.2c-0.5-0.1-0.7-0.1-0.9-0.3c-0.2,0.8,0.2,0.7,0.2,1.2c0,0.5-0.6,0.4-0.7,0.6
			c-0.2,0.6,0,1,0.9,1c0,0.7,0,1.7,0,2.6c-0.5,0.1-0.7,0.1-1.4,0.3c1.1,0.5,1.4,0.4,2.3-0.5c0.2-0.5-0.7-0.8,0-1.7
			c0.2,0.4,0.5,0.6,0.7,0.8c0,0,0.2,0,0.5-0.1c-0.2-0.7-0.5-1.3-0.7-2.3c0.2,0,0.5-0.3,0.7-0.4c0.2,0.4,0.2,0.7,0.2,1.2
			c0.2,0.2,0.7,0.3,0.9,0.3c0.2-0.1,0.5-0.1,0.7-0.4c0.4-0.8,0.7-0.9,1.1,0c-0.2,0.3-0.9,0.7-0.4,1.3c0.2-0.3,0.2-0.5,0.4-0.6
			c0.2,0.2,0.5,0.1,0.9,0.3c-0.2,0.3-0.2,0.5-0.4,1.1c-0.2-0.2-0.7-0.1-0.9-0.3c-0.4,0.6-0.7,1.4-0.2,2c0,0-0.2,0.3-0.2,0.8
			c-0.5-0.9-0.3-2.3-1.6-1.6c-0.5-0.4-0.7-0.6-0.9-0.8c-0.2,0.3-0.2,0.5-0.2,0.5c0.5,0.4,0.2,0.9,0.2,1.6c0.2-0.1,0.2-0.1,0.5-0.1
			c0.2-0.3,0.2-0.5,0.4-1.1c0.5,0.9,0.9,1.5,1.2,2.1c0.7-0.4,0.9-0.7,1.4-0.8c0.5-0.1,0.9,0.3,1.4,0.4c-0.5,0.1-0.7,0.4-1.1,0.5
			c0,0.2,0.2,0.4,0.2,0.9c-0.2,0.3-0.4,0.3-0.7,0.6c-0.5-0.1-0.7-0.1-0.9-0.3c-0.2,0.1-0.2,0.3-0.4,0.6c0.2-0.1,0.7-0.4,0.9,0
			c0,0.2,0.2,0.4,0.5,0.9c0.7-0.4,1.1,0,1.6-0.1c0.9-0.2,0.5,0.9,0.9,1c0.7-0.4,1.4-0.8,1.3-1.5c0-0.2,0.2-0.5,0.4-0.8
			c0.4-0.3,0.4-0.8,0.2-1c0-0.5,0.2-0.8,0.2-1c0-0.5,0-0.7,0.7-1.1c0.2-0.1,0.4-0.6,0.4-0.8c0-1-0.9-0.7-1.4-1.4c0,0,0,0-0.2,0.1
			c-0.7-0.1-0.7-0.3-0.2-1.1c0.5,0.1,0.7,0.3,1.4,0.2c0,0.2-0.2,0.5-0.2,0.5c1.8,0.1,2.3,0.7,1.4,2.8c-0.2,0.1-0.5-0.1-0.7-0.1
			c0.2,0.4-0.4,1.1,0,1.4c-0.2,1-0.2,2-0.9,2.8c-0.2,0.3-0.4,0.6-0.7,0.9c-0.4,0.8-0.7,1.6-1.1,2.4c-0.2,0.5-0.7,1.1-1.1,1.7
			c0,0,0,0-0.2,0.1c0-0.5-0.2-0.9-0.2-1.4c-0.4,0.3-0.4,0.6-0.4,0.6c0,0.2,0.4,0.5,0.5,0.6c0.2,0.5-0.2,2-0.4,3
			c-0.7,0.2-1.1,0.3-1.3,1.3c0,0.5-0.4,1.3-0.9,1.9c-0.7,0.9-1.6,1.6-1.8,2.8c-0.2,0.3-0.7,0.6-0.9,0.9c-0.2,0.5-0.7,0.9-0.7,1.4
			c0,0.2,0,0.5,0,0.5c-0.7,0.9-1.3,1.7-2,2.6c-0.5-0.1-0.7-0.6-0.7-0.8c-0.2-0.2-0.5-0.4-0.7-0.8c-1.1,0.3-1.1,1.5-1.8,2.3
			c-0.5-0.1-1.1-0.5-1.8,0.2c0-0.1,0-0.1,0-0.2c0-0.5,0.2-0.8,0.4-1.1c-0.7-0.1-1.1,0.2-1.6,1.1c-0.2-0.2-0.5-0.4-0.7-0.8
			c0,0.7-0.2,1.3-0.4,2c0.7-0.4,1.1-0.7,1.6-1.1c0,1,0,1-1.1,1.4c0,0.2,0,0.5,0,0.7c0.5-0.1,0.7,0.1,1.1,0c0.2-0.3,0.4-0.6,0.9-0.7
			c0.4-0.3,1.4,0.2,1.6,0.4c-0.5,0.1-0.9,0.2-1.6,0.6c0.2,0.2,0.5,0.1,0.7,0.3c-0.4,0.8-1.1,1.5-1.8,1.8c-0.7,0.1-0.9,0.4-1.3,0.8
			c-0.4,0.3-1.1,0.7-1.8,1.4c0.2-1,0.4-1.5,0.4-2c0.2-0.5,0.4-0.6,0.7-0.6c0,0.5,0.2,0.7,0.7,0.8c0.2-0.8-0.2-0.9-0.7-0.8
			c0-0.5,0-0.7-0.2-0.9c-0.5-0.1-0.7-0.3-1.1-0.5c-0.1,0-0.1,0-0.2,0c0.2,0.2,0.2,0.4,0.5,0.6c-1.1,0.2-1.4,0-1.8-0.8
			c0.2-0.5,0.2-0.8,0.9-1.2c0.2-0.3,0.9-0.7,0.4-1.3c-0.5,0.1-0.7,0.1-1.4,0.5c0.2,0.9-0.2,1.5-1.1,1.9c-0.7,0.1-0.7,0.6-0.4,1.3
			c0.2,0.2,0.2,0.4,0.2,0.7c-0.4,0.6-0.9,1.2-1.3,1.7c0.5,0.1,0.7,0.3,0.9,0.5c0,0.2,0,0.7,0.2,0.9c0.2,0.2,0.7,0.3,1.1,0.2
			c-0.2,1.5-0.4,1.8-1.1,1.9c-0.5-0.9-0.7-1.8-1.8-1.8c0.2,0.7,0.2,1.4,0.5,2.1c0,0,0.2,0,0.5-0.1c0,0,0,0,0,0.2
			c-0.5,0.1-0.9,0.7-1.1,0c-0.4,1.3-1.1,2.4-2.2,2.9c-0.2,0.3-0.5,0.1-0.9,0.2c0,0.2-0.4,0.6-0.2,1c0.2,0.2,0.2,0.2,0,0.5
			c-0.2,0.8-0.4,1.3,0.5,1.4c0.2,0,0.2,0.4,0.2,0.7c0,0.5-0.2,1.3-0.4,1.8c0,0.2-0.4,0.6-0.9,1.2c0.2,0.4,0.5,0.9,0.9,1.3
			c-0.4,0.3-0.9,0.7-1.6,1.3c0.2,0,0,0,0,0c0.2,1.4-0.8,1.6-1.6,2c-0.4,0.3-0.7,0.4-1.1,0.5c0-0.2-0.2-0.4-0.2-0.7
			c-0.2-0.2-0.7-0.3-0.9-0.5c0.2-0.3,0.4-0.3,0.7-0.6c-0.2-0.4-0.5-0.6-0.9-1.3c0,0-0.5,0.1-0.7,0.1c0,1,0,1.9,0,2.9
			c0.7-0.4,1.1-0.2,1.6,0.4c-0.2,0.3-0.2,0.8-0.7,0.6c0,0,0-0.2,0-0.5c-0.2,0-0.7-0.1-0.9-0.1c0,0.5-0.2,0.8-0.2,1
			c-0.1,0-0.1,0-0.2,0c0,0,0-0.2,0-0.5c-0.2-0.4-0.2-0.9-0.7-1.1c-0.2-0.2-0.2-0.4-0.5-0.9c0.5-0.1,0.7-0.1,0.9-0.2
			c0.2-0.5,0.2-1,0.2-1.5c0-0.2,0-0.5-0.2-0.7c-0.2-0.4-0.5-0.9,0.2-1.5c-0.5-0.4-0.7-0.6-1.1-0.8c-0.2,0.8-0.7,1.6-1.6,1.8
			c0.2-0.3,0.2-0.5,0.2-0.8c-0.5,0.1-1.1,0.2-1.6,0.3c0,0.2-0.2,0.5-0.2,0.8c0,0.2,0,0.5,0,0.5c-0.7,0.9-0.6,1.9-0.9,2.4
			c-0.2,0.3-1.1,0.7-1.6,1.5c0,0.2-0.7,0.4-0.9,0.9c-0.4,0.6-1.1,1.2-1.8,1.8c-0.2,0.3-0.7,0.6-0.9,1.1c-0.2,0.5-0.7,0.9-1.1,0.7
			c-0.2,0.5-0.9,1.1-0.2,2c0.4-0.6,1.1-0.7,1.8-0.6c0,1-0.7,0.9-0.9,1.1c-0.9,0.4-1.8,0.6-2.7,1c-0.2,0.3-0.4,0.3-0.4,0.6
			c-0.4,0.6-0.9,0.9-1.6,1c-1.6,0.8-3.1,1.3-4.7,1.8c-0.1,0-0.1,0-0.2,0c-1.1,0.9-2.5,0.9-3.6,1.8c0,0.2-0.2,0.3-0.4,0.3
			c-0.7,0.1-1.4,0.2-2,0.3c-0.9,0.4-2,0.3-3.2,0.5c-1.1,0.2-2.5,0.4-3.6,1.3c-0.2,0-0.5,0.1-0.9,0.4c-0.2,0-0.7,0.1-1.1,0.4
			c-1.1,0.9-1.8,0.7-2.3-0.4c-0.2-0.2-0.2-0.7-0.5-0.9c-0.5-0.7-0.5-0.7-1.4-0.3c-0.7,0.3-1.3,0.9-2,0.8c-1.1,0.4-2.3,0.4-3.4,0.2
			c-0.6-0.1-1.5,0.4-2.2,0.8c-0.4,0.2-1.1,0.4-1.8,0.5c-0.5,0.1-0.9,0.3-1.3,0.4c-0.1,0.1-0.1,0.2-0.2,0.3c-0.2-0.5-0.7-0.7-1.1-1.1
			c-0.1-0.1-0.1-0.1-0.2-0.2c-0.9,0.3-1.5-0.3-2-0.8c-0.5-0.4-0.9-0.6-1.6-0.6c-0.2,0-0.5,0-0.7,0.1c-0.7-0.9-1.4-0.4-2,0
			c-0.4,0.2-1,0.2-1.1,0.1c-0.9-0.3-2.5-0.5-3.2-1.9c-0.7-1.4-1.9-2.6-2.8-3.7c-0.7-0.9-1.6-1.9-2.1-3.1c-0.2-0.5-0.7-0.9-1.1-1.2
			c-1.4-1.1-2.1-2.3-2.8-4c-0.2-0.2-0.2-0.5-0.5-0.7c-0.9-1.2-1.6-2.1-2.3-3.6c-0.2-0.7-0.9-1.5-1.4-2.2c-0.5-0.7-0.5-2.2-1-3.2
			c-0.2-0.5-0.5-1-0.7-1.7c0,0-0.2,0-0.2-0.2c0-1.5-1-2.5-1.4-3.9c-0.6-2.1-1.2-4.7-1.7-6.9c0,0,0-0.2-0.2-0.5
			c-0.2-1-0.8-2.3-0.5-3.5c0.2-0.7-0.2-1.8-0.3-2.7c-0.1-1.1-0.3-2.5-0.5-4c0,0,0-0.2,0-0.5c-0.2-1-0.4-2.1-0.3-3.2
			c0.1-1.4,0.2-3.2,0.1-4.7c0-0.5-0.2-1.1-0.3-1.5c-0.2-1-0.1-2.7,0.4-4c0-0.7,0-1.2,0.2-2c0-0.7,0-1.5,0-2c0.2-1.3,0.6-2.3,0.6-3.5
			c0-1,0.1-1.9,0.2-2.7c0.1-0.9,0.2-2,0.4-3c0.4-2,0.8-3.8,1.3-5.5c0.2-1,0.4-2.3,0.6-3.3c0-0.2,0-0.2,0-0.5c0.2-0.5,0-1,0.2-1.5
			c0.4-1.5,1.1-3.1,1.5-4.5c0.4-1.2,0.6-2.3,1.1-3.5c0.2-0.8,0.7-1.5,1.1-2.5c0.2-0.5,0.4-1,0.6-1.8c0.4-1.3,0.9-2.5,1.3-3.8
			c0.2-0.5,0.2-1.3,0.4-2c0.2-0.5,0.4-1,0.7-1.5c0.4-1,0.9-1.8,1.3-2.8c0-0.2,0.2-0.5,0.2-0.8c0.2-0.3,0.4-0.5,0.4-1
			c0.4-0.5,0.7-0.8,0.9-1.3c0.7-1.8,1.4-3.9,2-5.3c0.3-0.7,0.7-1.5,0.9-2.3c0.4-1.3,0.9-2.5,1.3-3.5c0.7-1.5,1.3-3,1.7-4.5
			c0.1,0,0.1,0,0.2,0c-0.2-1.2,0.4-1.8,1.1-2.3c0.8-0.6,1.2-1.6,1.8-2.6c0.7-1.2,1.3-2.6,1.8-4.1c0.4-1.2,1.1-2.5,1.8-3.3
			c0-0.2,0.2-0.3,0.2-0.3c0-0.7,0.7-1.5,1.1-2.3c0.4-0.8,0.9-1.8,1.1-2.5c0-0.5,0.2-0.8,0.4-1c1.1-1.1,1.3-2.3,2-3.6
			c0.4-0.5,0.7-1,1.1-1.3c0.7-0.8,1.3-1.7,1.8-2.6c0.4-0.7,1.1-1.6,1.6-2.3c0.9-2,2-4.1,3.3-6.1c0.2-0.5,0.9-1.1,1.3-1.3
			c0.6-0.3,1.1-0.9,1.6-1.4c0.6-0.5,1.3-1.3,2-2.1c0.2-0.3,0.2-0.3,0.2-0.5c0.7-0.8,1.1-1.8,1.6-2.6c0.2-0.3,0.2-0.8,0.4-1
			c0.2-0.3,0.2-0.8,0.4-1c1.1-1.3,2.1-2.6,2.9-3.7c1.1-1.5,2.2-2.9,3.4-4.2c0.2-0.3,0.7-0.3,1.1-0.6c0.5-0.3,1.1-0.6,1.6-0.6
			c0.2-0.3,0.5-0.3,0.9-0.3c0.2,0,0.5,0,0.7,0.2c0,0.2,0,0.5-0.2,1c0,0.2-0.2,0.8-0.4,1.3c-0.7,1.3-0.6,3-1.5,4.1
			c-0.4,0.5-0.9,0.8-1.1,1.3c-0.9,0.8-1.3,1.8-1.1,3.3c0,0.2,0,0.7-0.2,1.2c0,0.2-0.2,0.5-0.4,1c0.2,0.2,0.2,0.7,0.5,0.9
			c0.2,0,0.5,0,0.7-0.1c0,0.7-0.2,1.5,0,2c0,0.2-0.2,0.5-0.2,0.8c0.5,0.4,0.5,0.4,0,1.5c-0.7,0.1-1.4,0.4-1.4,0.9
			c0,0.5-0.2,1,0.5,1.4c0.2-0.5,0.2-0.8,0.2-1c0.2-0.3,0.5-0.3,0.9-0.6c-0.2,0.8-0.4,1-0.7,1.5c0.7,1.4,0.7,1.6,0,2.2
			c0.5,0.7,0.5,1.4,0.5,2.2c0,1.2-0.5,2.3-0.9,3.5c-0.5,1.5-0.6,3-0.4,4.5c0,0.2,0,0.2,0,0.2c-0.7,0.6-1.1,1.1-1.6,1.9
			c-0.4,0.8-0.9,1.6-0.9,2.5c0,0.5-0.4,1-0.4,1.3c0.2,0.5,0.7,0.7,0.9,0.9c0.5-0.3,0.9-0.6,1.6-0.9c0.2,1,0.3,1.9,0.5,2.9
			c0,0.2,0,0.2,0,0.5c-0.9,0.6-0.7,1.8-0.9,2.8c-0.2,0.3-0.2,0.5-0.4,0.8c-0.9,0.3-0.9,1.1-0.9,1.8c0.2,0.2,0.5,0.2,0.5,0.4
			c0,0.5-1.6,0.7-2.5,0.3c0.4-0.5,0.9-0.3,1.4-0.1c-0.2-0.5-0.5-0.9-0.7-1.4c-0.7,0.3-1.6,0.4-2.3,0.5c-0.7,0.8-0.4,2.3-1.6,2.4
			c0.2,0,0.5,0,0.9,0.2c-0.4,0.5-1.1,1.1-1.6,1.6c0,0.2,0.2,0.5,0.2,1c-0.2,0.3-0.4,0.5-0.7,0.6c-0.2,0.3-0.2,0.8-0.2,1
			c-0.4,1-0.2,2.2-1.3,2.8c0,0,0,0.2,0.2,0.2c0.5,0,1.1-0.4,1.8-0.4c0.2,0.2,0.5,0.7,0.7,1.2c-0.2,0-0.5,0.3-0.7,0.1
			c-0.9-0.6-1.8-0.6-3,0.3c-0.7-0.7-1.2-1.1-1.6-1.8c0,1,0,1,0.5,1.7c-0.7,0.3-0.7,1-0.7,2c0.2,0,0.5-0.3,0.9-0.3
			c0.2,0,0.5,0,0.7,0.2c0.2-0.5,0.4-0.8,0.7-1.3c0,0,0.5-0.3,0.7-0.3c0,0,0.2,0.2,0.2,0.5c0,0.2-0.2,0.5-0.2,0.5
			c-0.4,0.5-0.9,0.8-1.6,1.1c0.2,0.5,0.2,1.2,0.5,1.7c0,0.5-0.4,1,0.3,1.7c-0.5,0.3-0.7,0.3-1.1,0.6c-0.2,0.3-0.4,0.5-0.9,0.8
			c0,0-0.2-0.2-0.7-0.2c0,0.2,0,0.2,0,0.5c0.2,0.2,0.5,0.7,0.9,0.9c0,0.2,0.2,0.5,0.2,0.7c-0.9,0.3-0.9,0.1-1.8-1.1
			c-0.5,0.3-0.7,0.6-0.7,1.3c0,1,0,1-0.9,1.3c0,0.2,0.2,0.5,0,0.7c0,0.2-0.4,0.5-0.7,0.8c0,0.2,0,0.7,0,1c-0.1,0-0.1,0-0.2,0
			c0-0.2,0-0.7,0-1c0,0,0,0-0.2,0c-0.2,0.5-0.4,1-0.7,1.3c-0.7,0.3-0.7,0.3-0.9,1.8c-0.2,0-0.7,0.3-0.9,0.3c-0.2,1-0.4,2.3-0.9,3.3
			c0.5,0.2,0.7,0.4,1.1,0.4c-0.7,0.8-0.6,2-1.6,2.1c0.5,1.2,0.3,2.4-0.4,3.5c-0.2-0.2-0.2-0.5-0.5-0.7c0,0.2,0,0.2,0,0.2
			c-0.2,0.5-0.4,1-0.2,1.5c0.3,0.7,0,1.5-0.4,2c-0.2,0.3-0.2,0.3-0.4,0.5c0.2,0.2,0.5,0.5,0.7,0.7c-0.2,0.5-0.7,0.8-0.7,1
			c-0.4,1.3-0.2,1-1.6,1.4c0,0.5-0.2,1-0.2,1.7c0,0.2,0.2,0.5,0.5,1c-0.5,0-0.9,0.1-1.1,0.1c-0.4,0.8,0,0.7,0.5,1
			c-0.4,1-0.4,1,0.5,1.9c-0.2,0-0.4,0.3-0.7,0.5c0,0.7,0,1.7,0,2.5c-0.4,0.3-0.9,0.6-1.3,0.8c-0.5,0-0.9,1.1-0.7,1.8
			c0.2,0.2,0.2,0.7,0.2,1.2c0,0.5,0.2,1.2,0.5,1.7c0,0.2,0.2,0.5,0.2,0.5c-0.7,0.3-1.1,0.6-1.8,0.6c0.5,0.5,0.7,0.9,0.5,1.4
			c-0.2,0.3,0.2,0.7,0.2,1.2c-0.2,0-0.9,0.1-0.9,0.3c0,0.5-0.7,1-0.4,1.8c0,0,0,0.5-0.2,0.8c-0.4,0.3-0.4,0.5-0.4,1
			c0,0.2,0.2,0.5,0.2,0.7c-0.2,0.8,0,1.2,0.7,1.4c0.2,0.2,0.2,0.2,0.5,0.5c-0.4,0.5-0.7,1-1.1,1.3c-0.4,0.5-0.7,0.5-1.3,0.8
			c0.5,0.5,0.7,0.7,1.1,0.7c0.5,0,0.5,0.5,0.5,1c-0.5,0-0.9,0.6-1.1,0.1c0,0.7,0,1.5,0.3,2.5c0,0.2,0.5,0.5,0.7,0.7
			c-0.2,0.3-0.4,0.8-0.7,1c-0.7,0.5-0.4,1.3-0.4,2c0,0.5,0,1.2,0,1.7c0.5,0,1.1-0.1,1.6-0.4c0.5,0.7,0.7,1.4,1.2,2.1
			c-0.2,0.3-0.2,0.5-0.4,0.8c-0.2-0.5-0.2-0.7-0.5-1c-0.1,0-0.1,0-0.2,0c-0.4,0.5-0.2,1,0.3,1.5c-0.2,0.3-0.4,0.8-0.7,1
			c0.7,0.4,0.9-0.3,1.3-0.6c0.5,0.5,0.2,1,0.3,1.5c0.2,0.2,0.5,0.2,0.7,0.4c0,0.2,0,0.5,0,0.5c-0.2,0.5-0.2,1,0.3,1.5
			c0.5,0.2,0,0.7-0.2,1c0.5,0.2,0.9-0.1,1.1,0.6c-0.2,0-0.7,0.1-0.9,0.1c0.2,0.7,0.9,0.9,0.5,1.7c-0.2,0-0.4,0.3-0.9,0.3
			c0.2,0.5,0.9,0.2,0.7,0.9c-0.2,0.5,0.5,0.7,0.5,1.2c-0.2,0.3-0.4,0.8-0.7,1.3c0.7-0.3,0.9-0.6,1.3-0.9c0,0,0,0,0,0.2
			c0,0-0.2,0-0.4,0.3c0,0.5,0.2,1.2-0.4,1.8c-0.2,0.3,0.2,0.7,0.5,0.9c0.2,0,0.5,0,0.7,0.2c-0.4,0.3-0.7,0.6-1.1,0.8
			c0.5,0.5,0.7,1.2,0.9,1.6c-1.1,0.8-1.1,1.1-0.4,2.3c-0.2,0.3-0.4,0.5-0.7,0.8c0.7,0.4,0.7,0.4,1.3-0.9c0.5,0,0.7,0.4,0.7,0.7
			c0.2,0.5,0.2,1.2,0,1.7c0,0-0.2,0.3-0.4,0.5c0.5,0.2,0.7,0.4,1.1,0.6c0.7-0.1,0.9,0.4,1.4,0.9c0.2,0.5,0.2,1,0.3,1.5
			c0.9-0.1,1.8-0.7,2.7-0.3c0.2-0.3,0.4-0.5,0.7-1.1c0.2,0.2,0.5,0.4,0.7,0.7c0,0.5-0.2,1-0.7,1.1c0,1,0.7,1.7-0.2,2.5
			c0.2,0,0.5,0,0.5,0c0.2,1,1.6,1.3,1.9,2.5c-0.2,0-0.2,0.3-0.4,0.8c0.2,0.2,0.5,0.4,0.7,0.7c-0.2,0.3-0.2,0.3-0.4,0.8
			c-0.2-0.2-0.5-0.2-0.9-0.1c0.2,0.2,0.2,0.7,0.5,0.7c0.5-0.1,0.9,1.1,1.6,0.3c0.2-0.5-0.7-1.2,0-2c-0.2-0.5-0.5-0.9-0.7-1.6
			c0.7-0.1,0.9-0.1,1.4,0.1c0-0.2,0-0.2,0-0.2c-0.5-0.2-0.7-0.2-1.1-0.4c-0.2,0-0.5-0.2-0.5-0.7c0.7,0.2,1.4,0.1,2.3,0
			c0,0.5-0.2,0.8-0.2,1.3c0.2-0.3,0.4-0.3,0.9-0.6c0.2,0.2,0.5,0.2,0.9,0.6c0,0.2-0.2,0.5-0.4,1c0.7-0.3,0.9-0.6,1.3-0.9
			c0.2,0.2,0.7,0.4,0.9,0.6c0.2-0.3,0.7-0.6,1.1-0.9c-0.2,0.8-0.4,1.5-0.4,2c0.2,0.2,0.7,0.7,0.9,0.9c0.2-0.3,0.7-0.6,0.9-0.9
			c0.2,0,0.5,0.2,0.5,0.4c0.7,0.2,1.4,0.1,1.8-0.5c1.3-1.9,3.1-3.6,4.7-5.3c0.2-0.3,0.4-0.6,0.4-0.8c0.7-1.6,2-3,2.9-4.6
			c0,0,0.2-0.3,0.4-0.3c1.1-0.7,1.8-1.7,2.2-3c0.2-0.3,0.4-0.6,0.7-0.8c1.1-1.4,2-2.8,3.1-4.1c0.2-0.3,0.2-0.5,0.4-0.8
			c0.7-1.3,1.8-2.2,2.7-3.4c0.4-0.6,0.9-1.1,1.1-1.6c0.4-0.8,1.1-1.9,1.8-2.7c1.8-1.8,2.9-3.6,4-5.8c0.7-1.3,1.3-2.4,2-3.7
			c1.1-1.9,2-4,3.1-5.9c0.9-1.6,1.5-2.9,2.4-4.6c0.4-0.8,0.9-1.9,1.3-2.7c0-0.2,0.2-0.5,0.2-0.5c0.7-0.8,0.9-1.6,1.1-2.4
			c0.4-1.5,1.1-3.4,2-4.7c1.3-1.9,2.7-4.1,3.6-6.2c0.2-0.5,0.7-1.1,0.9-1.6c0.7-1.6,1.5-3.2,2.2-4.8c0-0.1,0-0.1,0-0.2
			c1.1-0.9,1.2-2.2,1.6-3.2c0.3-0.9,0.7-1.8,1.1-2.9c0.2-0.5,0.2-1.2,0.4-1.8c0.4-1.1,0.9-2.1,1.3-3.2c0.2-0.5,0.4-0.8,0.4-1
			c0-1.2,0.4-2.3,0.6-3.3c0-0.2,0-0.2,0-0.2c1.1-1.4,0.9-2.8,1.3-4.1c0-0.2,0-0.7,0.2-0.8c0.7-1.6,0.9-3.3,1.1-4.8
			c0.2-0.3,0.2-0.5,0.2-1c0-0.7,0-1.4,0.4-2c0.2-0.3,0.4-0.6,0.4-0.8c-0.2-1.2,0.4-2.3,0.9-3.3c0.2-0.8,0.5-1.5,0.7-2.3
			c0.2-1,0.2-2.3,0.4-3.2c0.3-1.2,0.9-2.6,1.3-3.9c0.2-0.8,0.4-1.8,0.7-2.5c0.2-0.5,0.2-1.2,0.4-1.8c0.4-0.8,0.4-1.8,1.1-2.4
			c0-1.7,0.9-3.5,0.2-5.1c0-0.2,0-0.5,0-0.7c0.7-1.3,0.8-2.6,1.1-4.1c0.3-2,0.8-4.3,1.5-6.3c0.6-1.8,1-3.7,1.5-5.3
			c0.5-1.7,1.1-3.8,1.5-5.8c0.2-1,0.3-2,0.7-2.8c0.5-1,0.5-2.3,0.9-3.3c0.5-1.3,0.9-3.5,1.3-5.5c0-0.1,0-0.1,0-0.2
			c0.9-2.3,1-4.9,1.5-7.2c0.3-1.5,0.7-3,1.1-4.8c0-0.7,0-1.7,0.2-2.4c0.7-2.5,1.3-5.3,1.7-7.8c0.2-0.5,0.2-0.8,0.2-1.2
			c-0.5-0.4-1.1-0.3-1.6,0.1c-0.7,0.1-0.7,0.1-1.1-0.3c-0.5-0.2-0.9-0.3-1.4-0.2c-0.2-0.2-0.5,0.1-0.5,0.1c-0.2-0.2-0.5-0.2-0.9-0.1
			c0,0-0.2-0.2-0.5-0.2c-0.9,0.4-1.4-0.2-1.6-1.2c0,0,0,0-0.2-0.2c-0.5,0.6,0.2,0.7,0,1.2c0,0.2-0.2,0.3-0.5,0.6
			c-0.5-0.2-0.9-0.6-1.6-0.9c0,0.7-0.3,1.2-0.9,1.6c-0.4,0.3-0.9,0.4-1.4,0.5c-0.2,0-0.7,0.1-0.9,0.4c-0.5,0.3-0.9,0.9-1.8,0.8
			c-0.2-0.2-0.5,0.1-0.7,0.1c-0.5,0.3-1.1,0.7-1.8,0.8c-0.5,0.1-1.4,0.3-1.8,0.5c-0.6,0.4-1.1,0.2-1.8-0.2c0,0.5-0.2,0.8-0.2,1.2
			c-0.2,0.3-0.7,0.4-0.9,0.1c-0.5-0.2-0.9-0.1-1.4-0.3c-0.2,0.3-0.4,0.8-0.7,1.1c-0.5,0.3-0.7,0.6-1.1,0.9c-0.2,0-0.7-0.1-1.1-0.1
			c0,0-0.2,0.3-0.5,0.6c-0.5-0.2-0.9-0.3-1.4-0.3c-1.1,0.2-1.4,0-1.4-1.2c0,0,0.2,0,0.2-0.3c-0.7,0.1-0.2,0.5-0.4,0.8
			c-0.7,0.3-0.7,0.8-0.9,1.6c-0.4,1-1.4,1.2-2.3,0.8c-0.2-0.2-0.5-0.2-0.7-0.4c0,0.5,0,0.7-0.2,1c-0.2,0.3-0.5,0.3-0.9,0.4
			c0-0.5-0.2-0.9-0.2-1.4c-0.2,0-0.5,0.3-0.5,0.3c0.2,1.2,0.2,1.2-0.9,1.8c0,0.7,0.7-0.3,0.9,0.4c-0.7,0.1-0.9,0.6-0.9,1.3
			c-0.5-0.2-0.9-0.1-1.4-0.1c-0.4,0.8,0.3,1.9-0.4,2.7c-0.5-0.9,0.4-2.5-0.5-3.3c-0.7,0.6-1.1,0.9-1.6,1.4c0,0.2,0.2,0.5,0.5,0.7
			c-0.5,0.3-0.9,0.4-1.4,0.7c-0.2,0-0.2,0-0.2-0.2c-0.7-0.4-0.7-0.4-1.1,0.4c-0.1,0.1-0.1,0.2-0.2,0.3c-0.2,0.8-0.4,1-1.1,0.9
			c-0.9-0.4-1.6,0.2-2.5,0.3c-0.9,0.1-1.8,0.2-2.7,0.1c-0.2,0-0.5-0.2-0.7-0.4c-0.7,0.3-0.7,0.8-0.4,1.3c-0.7,0.6-0.7,0.6-0.9-0.6
			c-0.7,0.1-1.1,0.1-1.8,0c-0.2,0.8-0.7,1.1-1.4,1.1c0,0-0.2,0.3-0.7,0.6c-0.7-0.2-0.7-0.9-0.7-1.9c-0.5,0-0.7,0.1-1.1-0.1
			c-0.7-0.4-1.4-0.3-2.3-0.5c-0.2,0-0.5,0-0.7,0.1c-0.5-0.2-0.9-0.2-1.4-0.4c-0.5,0-0.7-0.2-0.9-0.4c-1.4-0.8-3-1.2-4.6-1.5
			c-0.2,0-0.7-0.2-0.9-0.2c-0.9-0.4-1.8-1.1-3-1.2c-1.1-0.2-1.9-0.7-2.8-1.3c-0.8-0.5-1.6-1.1-2.3-1.5c-0.2-0.2-0.5-0.2-0.7-0.4
			c-0.2,0-0.5-0.2-0.7-0.4c-0.2-0.2-0.7-0.7-1.2-1.4c0.2,0,0.4-0.5,0.7-0.8c0-0.2-0.2-0.7-0.5-1.2c0.9-0.3,1.1-1.1,1.1-2
			c0-0.2,0-0.5,0.2-0.5c0.9-0.6,1.9-1.5,2.9-1.9c0.8-0.3,2.1-0.9,3-1.4c0.7-0.5,1.4-0.9,2.3-1.4c1.1-0.6,2.5-1.3,3.9-2
			c1.1-0.6,2-0.9,3.2-1.5c0.5-0.3,0.9-0.3,1.4-0.4c1.6-0.9,3.5-1.7,5.2-2.5c2.5-1.1,5.3-2.3,8-3.3c2-0.7,4.1-1.3,6.2-2
			c1.3-0.4,2.8-0.8,4.1-1.2c1.8-0.6,3.7-1.5,5.7-2.2c1.3-0.5,2.7-0.9,4.1-1.5c0.5-0.1,1.1-0.2,1.6-0.2c1.1-0.4,2.4-1,3.4-1.2
			c1.7-0.4,3.4-1.7,5.2-2.3c1.6-0.5,3-1.2,4.6-1.7c1.1-0.4,2.4-1,3.4-1.3c2-0.4,3.9-1.6,5.9-1.7c0.5-0.1,1.2-0.5,1.6-0.8
			c0.6-0.4,1.1-0.7,1.8-0.8c0.7-0.1,1.1-0.2,1.8-0.6c1.6-0.8,3.4-1.6,5-2.1c2-0.6,4.2-1.2,5.9-1.8c1.4-0.5,2.5-1,3.7-1.4
			c0.5-0.1,0.7-0.1,0.9-0.4c1.4-0.5,2.8-1.3,4.1-1.8c1.6-0.6,3.4-1.4,5.3-2.3c0.9-0.4,2.1-0.6,3-1.1c0.7-0.3,1.1-0.7,1.8-0.9
			c2.7-1.3,5.7-2.4,8.7-3.5c0.5-0.3,1.1-0.5,1.6-0.6c1.4-0.3,2.8-0.9,4.1-1.6c1.6-0.8,3.2-1.7,4.8-2c0.9-0.2,1.6-0.6,2.5-1
			c0.2-0.1,0.5-0.1,0.7-0.2c0.5-0.1,0.9-0.4,1.4-0.8c0.7-0.6,1.6-0.9,2.5-1.3c1.1-0.5,2.3-0.8,3.4-1.3c1.3-0.6,2.5-1.1,3.7-0.9
			c0.2-0.1,0.7-0.2,0.9-0.2c1.4-1,3-0.9,4.4-1.5c0.7-0.2,1.4-0.6,1.8-0.7c1.4-0.6,2.7-1.1,4.1-1.7c0.2-0.1,0.5-0.1,0.7-0.2
			c0.5-0.6,0.9-0.9,1.4-1c1.6-0.4,3.3-1.1,4.8-1.2c0.9,0,2.2-0.4,3-0.7c0.9-0.3,2.2-0.8,2.7-1.1c0.2-0.1,0.5-0.3,0.7-0.4
			c0.2-0.1,0.5-0.1,0.7-0.2c0.2-0.5,0.9-0.7,1.4-0.8c0.7-0.2,1.4-0.3,1.8-0.7c2.3-1,4.4-1.8,6.6-2.6c0.5-0.1,0.7-0.2,1.1-0.3
			c1.6-0.2,3.2-1,4.8-1.9c1.6-0.9,3.3-1.5,5-2.2c1.1-0.5,2.8-1,3.7-1.4c0.4-0.2,0.9-0.2,1.4-0.4c0.2-0.1,0.5-0.1,0.7-0.2
			c2.1-1.4,4.4-2.2,6.4-2.8c0.9-0.3,1.6-0.6,2.3-0.4c0.5-0.1,0.9-0.2,1.1-0.5c0.7-0.4,1.1-1,1.8-1.6c0.2-0.3,0.5-0.8,1.1-0.8
			c0.2-0.1,0.5-0.1,0.7-0.2c0.2-0.1,0.5-0.3,0.7-0.2c0.9,0.2,1.8,0.4,2.8,0.7c0.5,0.3,0.9,0.4,1.8,0c0.2-0.3,0.7-0.4,1.1-0.5
			c1.4-0.4,2.9-0.6,4.1-0.8c1.7-0.3,3.6-0.8,5.3-1.1c0.9-0.2,2.1-0.5,3.2-0.6c1.1-0.1,2.4-0.5,3.4-0.7c0.8-0.1,1.6-0.2,2.3,0.1
			c0.7,0.3,0.9,0.9,0.9,1.6C286.8,7.8,287,8.4,287,9.1z M33.7,212.6c0.5,0.2,0.7,0.7,1.4,0.4c-0.5-0.5-0.7-0.7-1.2-0.9
			C33.9,212.3,33.7,212.3,33.7,212.6z M33.9,220c0.2,0.2,0.7,0.2,0.7,0.2c0.2-0.3,0.7-0.8,0.4-1.3C34.5,219.2,34.3,219.5,33.9,220z
			 M34.6,211.5c0.9-0.3,0.7-0.5,0.2-1C34.8,210.8,34.8,211,34.6,211.5z M36.1,230.2c-0.2,0-0.5,0-0.7,0.1
			C35.6,229.8,35.8,229.8,36.1,230.2z M35.3,209c0,0.2,0.2,0.5,0.2,0.5c0,0.2,0.2,0.2,0.5,0.2C35.7,209.5,35.9,209,35.3,209z
			 M36.1,207.2c0,0,0,0.2,0.2,0.2c0.2-0.3,0.7-0.5,0.9-0.8c0.3-0.3,0.2-0.8-0.5-1c-0.2,0.3-0.4,0.5-0.4,0.8
			C36.1,206.7,36.1,207,36.1,207.2z M37.7,208.1c-0.5,0-0.9,0.1-1.6-0.1c0.2,0.7,0.5,1,0.9,0.9C37.5,208.9,37.5,208.4,37.7,208.1z
			 M37.5,237c0,0,0.2,0,0.2,0.2c0.2,0.2,0,0.5-0.2,0.8c0-0.2-0.2-0.2-0.2-0.2C37.3,237.6,37.5,237.3,37.5,237z M38.4,259.7
			c0,0,0,0-0.2-0.2c-0.2,0.3-0.2,0.3-0.4,0.5C38.2,260.5,38.4,260.2,38.4,259.7z M38.3,256c0,0,0.2-0.3,0.2-0.5c0,0,0,0-0.2,0
			c0,0,0,0.2-0.2,0.5C38.2,256,38.2,256,38.3,256z M40.2,248.4c0.2,0.2,0.2,0.7,0.5,0.9c-0.5,0-0.5-0.5-0.9,0.1
			c-0.2-0.1-0.3-0.1-0.5-0.2c0-0.2,0-0.5,0.2-0.5C39.8,248.5,40,248.5,40.2,248.4z M40.4,203.4c-0.2,0.5-0.4,0.8-0.7,1
			c0-0.2-0.2-0.5-0.2-1C39.7,203.5,39.9,203.5,40.4,203.4z M42.5,192.4c0.7-0.3,0.2-1,0.4-1.3C42.2,191.2,42.2,191.7,42.5,192.4z
			 M44.9,269.5c0-0.2,0-0.2,0-0.5c0,0.2-0.2,0.3-0.2,0.5C44.9,269.5,44.9,269.5,44.9,269.5z M44.5,192.7c0,0.1,0,0.1,0,0.2
			c-0.2,0-0.2,0-0.5,0C44.3,192.8,44.3,192.8,44.5,192.7z M45.3,267.7c0.2,0,0.5,0,0.7-0.3c-0.2,0-0.2,0-0.2-0.2
			c-0.2,0-0.2,0.3-0.4,0.3C45.3,267.5,45.3,267.6,45.3,267.7z M45.8,272.3c-0.4,0.3-0.2,0.8-0.2,1c0.2,0.2,0.5,0.2,0.7,0.4
			C46.5,273,46.3,272.5,45.8,272.3z M49.8,184.6c-0.2,0.3-0.5,0.3-0.9,0.6c0.2,0.5,0.2,0.7-0.2,1c0,0.2,0,0.5-0.2,0.8
			c0,0.2,0,0.5-0.2,1c-0.5-0.2-0.7-0.4-0.9-0.4c-0.2,0-0.5,0.3-0.5,0.3c-0.5-0.7-0.9-1.4-0.3-2.2c0.2-0.3,0.2-1,0-1.2
			c0-0.5-0.2-1-0.2-1.2c0.2,0.5,1.4,0.1,1.2,1.1c0.1,0,0.1,0,0.2,0c0.2-0.5,0.4-1,0.7-1.8c0.7,0.4,0.7,0.7,0.3,1.5
			C49.2,184.2,49.4,184.4,49.8,184.6z M47,190.6c-0.2-0.7-0.2-1-0.5-1.4c0.2,0,0.2,0,0.2,0C47,189.6,47.4,189.8,47,190.6z M48,264.4
			c0.2,0.5,0.9,0.9,0.5,1.7C47.5,266,48.2,264.9,48,264.4z M48.2,266.9c0-0.1,0-0.1,0-0.2c0.2-0.3,0.4-0.3,0.4-0.3
			c0.2,0.2,0.2,0.2,0.2,0.5C48.7,266.8,48.5,266.9,48.2,266.9z M50.3,170.8c0-0.7,0-1.2,0-1.7C49.6,169.9,49.6,170.4,50.3,170.8z
			 M50.5,184.6c-0.2-0.2-0.5-0.5-0.5-0.5C50.5,183.6,50.5,183.6,50.5,184.6z M50.1,186.1c0.7-0.1,0.7-0.1,0.5,1.4
			C49.7,187.1,50.6,186.3,50.1,186.1z M51.9,268.2c0.4-0.5-0.5-1.2,0.4-2c0.2,0.5,0.7,0.7,0.9,1.1C53,267.8,52.8,268.6,51.9,268.2z
			 M52,176.1c0,0.2,0,0.2-0.2,0.3c-0.2,0-0.7,0.1-1.1,0.1C51.3,175.9,51.5,176.1,52,176.1z M51.5,173.4c0-0.5,0.2-1,0.2-1.2
			c-0.5-0.2-0.7-0.2-0.9,0.3C50.8,173,50.8,173.2,51.5,173.4z M51.8,167.2c0.7,0.4,0.7,0.2,0.9-0.3
			C52.5,167.2,52.3,167.2,51.8,167.2z M53.2,178.7c-0.5-0.4-0.7-0.7-0.9-1.1C52.7,177.7,53.4,177.7,53.2,178.7z M54.2,171.4
			c0.2,0.2,0.2,0.2,0.5,0.2c-0.2,0.3-0.2,0.5-0.4,0.5c-0.1,0-0.1,0-0.2,0C54.2,171.9,54.2,171.7,54.2,171.4z M55.4,173.8
			c-0.2-0.2-0.5-0.4-0.9-0.6c0.2-0.8,0.9-1.1,1.3-1.8c-0.2,0-0.5,0-0.7,0.1c-0.7-0.2-0.9-0.4-0.5-1.4c1.4,0.4,2.1,1.3,2.5,2.5
			C56.5,172.9,56,173.5,55.4,173.8z M56.2,168.5c0.5-0.3,0.4-0.8,1.1-0.6c0,0.5,0,0.7,0,1.2c-0.7,0.1-1.6,0.2-2.3,0.2
			c0,0,0.2-0.3,0.5-0.3C55.7,168.8,56,168.8,56.2,168.5z M56.2,166.3c0.1,0,0.1,0,0.2,0c-0.2,0.3-0.2,0.5-0.4,0.5
			c-0.1-0.1-0.1-0.1-0.2-0.2C55.9,166.6,55.9,166.4,56.2,166.3z M56.6,164.3c0.4-1,1.1-0.4,1.6-0.6
			C57.7,164.5,57.7,164.5,56.6,164.3z M56.8,165c0,0,0.2,0,0.2-0.3c0,0.2,0,0.5,0,0.5s0,0-0.2,0C56.8,165.2,56.8,165.1,56.8,165z
			 M58.7,166.6c0,0,0.2-0.3,0.4-0.5c-0.5-0.2-1.1-0.4-1.4-1.1c0.5,0,0.7,0.2,1.1,0.1c-0.2-1.2,0-2.2,0.9-3c0.2,1,0.8,1.7,1,2.6
			c0.1,0.9-0.4,1.8-0.4,2.7C59.6,167.2,59.1,167,58.7,166.6z M58,156.3c0,0.2,0,0.2,0,0.2c0.2,0.2,0.5,0.2,0.9,0.2
			c-0.2-0.2-0.2-0.5-0.5-0.4C58.5,156,58.3,156.3,58,156.3z M59.5,161.3c0.2-0.3,0.2-0.8,0.2-1c0.9-0.1,1.4,0.1,2.1,0
			C61.3,161.2,60.2,160.8,59.5,161.3z M79.3,108.5c-0.5-0.2,0-0.7,0-1.2c0.7-0.1,0.7-0.1,0.9,0.9C79.7,108.5,79.5,108.5,79.3,108.5z
			 M81.9,103.8c0,0-0.2,0-0.2,0.3c0,0.2,0.2,0.2,0.2,0.7C82.4,104,82.2,103.8,81.9,103.8z M89.6,278.7c-0.2,0.3-0.2,0.5-0.4,0.6
			c-0.5,0.1-0.9,0.2-0.7-0.6c0.2,0,0.5-0.1,0.7-0.1C89.3,278.5,89.3,278.7,89.6,278.7z M92.6,269.1c-0.2-0.2-0.5-0.2-0.7-0.1
			c-0.2-0.4,0.4-1.1-0.2-0.9c-0.2,1,0,1.2,0.7,1.3C92.6,269.3,92.6,269.1,92.6,269.1z M93.1,272.4c-0.2,0-0.5,0.1-0.5,0.1
			c0.2-0.8-0.5-0.6-0.7-1.1c0.7-0.1,0.9,0.1,1.4,0c0,0.2,0,0.5,0,0.7C93.3,272.4,93.1,272.4,93.1,272.4z M90.3,100.1
			c-0.2,0.3-0.2,0.5-0.4,0.8c0.1,0,0.1,0,0.2,0C90.3,100.5,90.3,100.3,90.3,100.1z M93.5,267.7c-0.2-0.2-0.2-0.4-0.5,0.1
			c-0.2,0,0,0.2,0,0.2C93.3,268.2,93.5,268,93.5,267.7z M98,267.1c-0.9,0.2-1.6-0.4-2.3-1c-0.2,0.3-0.7,0.6-0.9,0.9
			c-0.2,0-0.2,0.3-0.2,0.5c0,0.2,0.2,0.2,0.5,0.4c0.2,0,0.5-0.1,0.7,0.1c-1.6,1.3-1.3,1.2-1.1,2.6c0.2,0,0.5-0.1,0.7-0.1
			c0-0.7,0-1.2,0-1.7c0.2,0,0.5,0.2,0.7,0.1c0.5-0.1,0.7-0.9,1.1-0.7c0,1,0,1.9,0,2.9c0,0.2,0,0.5,0.2,0.7c0,0,0.2,0,0.5-0.1
			c-0.2-0.4-0.2-0.9-0.5-1.1c0-0.7,0.4-1.1,0.7-1.3c0.2-0.3,0.2-0.5,0.4-0.8C98.5,267.9,98.2,267,98,267.1z M93.7,108.6
			c-0.1,0-0.1,0-0.2,0c-0.2,0-0.2-0.2-0.2-0.5c0,0,0,0,0.2,0C93.4,108.4,93.4,108.4,93.7,108.6z M95.9,264.8
			c0.2,0.4,0.7,0.8,1.1,0.5c0.6-0.4,0.4-1.1,0.4-1.5C97.1,264.1,96.6,264.7,95.9,264.8z M96.6,263.5c0.7-0.4,0.9-0.7,0.7-1.6
			C97,262.4,96.8,262.9,96.6,263.5z M97.7,263.5c0,0.2,0.2,0.2,0.2,0.2c0-0.2,0.2-0.3,0.2-0.5c0,0,0-0.2-0.2-0.2
			C98,263.2,97.7,263.5,97.7,263.5z M98.5,268.9c0.2,0.4,0.2,0.7,0.2,0.9C98.9,269.3,99.2,269,98.5,268.9z M99.8,267.4
			c-0.5,0.1-0.9,0.4-0.9,0.9C99.4,268.5,99.6,268,99.8,267.4z M99.7,258.5c0,0-0.2,0-0.4,0.3c0.2,0.2,0.5,0.2,0.7,0.3
			C100.2,258.6,100.2,258.4,99.7,258.5z M102.4,257.9c-0.5-0.1-0.2-0.4-0.2-0.9c0-0.2,0-0.5-0.2-0.4c-0.7,0.1-0.7,0.9-0.9,1.2
			c0.5,0.4,0.9,0.8,1.4,1.2C102.4,258.4,102.4,258.2,102.4,257.9z M105.1,253.3c-0.7,0.6-0.7,0.6-0.4,1.3
			C104.9,254.3,104.9,253.8,105.1,253.3z M106,251.1c0,0,0-0.2-0.2-0.2c0,0.2,0,0.5,0,0.7c0,0,0,0,0.2,0
			C106,251.4,106,251.1,106,251.1z M109.6,254.5c-0.2,0.3-0.4,0.6-0.7,0.4c-0.2,0-0.2-0.2-0.5-0.4
			C108.9,253.9,109.2,254.1,109.6,254.5z M108.4,95c-0.2,0-0.5,0.1-0.9,0.1c0-0.2,0.2-0.5,0.2-0.5c0.2,0,0.5-0.1,0.7-0.1
			C108.4,94.8,108.4,94.8,108.4,95z M112.9,246.5c-0.7,0.4-0.7,0.9-0.7,1.4C113.2,247.4,113.2,247.4,112.9,246.5z M115.9,247.3
			c0-0.2,0-0.7-0.2-0.9c0-0.2-0.2-0.4-0.2-0.4c-0.2-0.2-0.7,0.1-0.9,0.4c0,0,0,0.2,0,0.5c-0.5,0.1-0.7,0.1-0.9,0.2
			c0,1,1.1,1,1.2,1.9c0.2-0.3,0.7-0.4,0.9-0.7c-0.2-0.4-0.9-0.5-0.7-1.1C115.4,247.4,115.7,247.9,115.9,247.3z M114.3,250.8
			c0-0.2,0-0.5,0-0.7C114.6,250.3,114.8,250.5,114.3,250.8z M115.9,228.8c0.4-0.6,0-0.7-0.5-0.9
			C115.2,228.4,115.7,228.6,115.9,228.8z M117.6,236.8c-0.2,0.3-0.4,0.6-0.9,0.7c-0.5-0.1-0.7,0.1-0.7,0.6c-0.2,0.3-0.2,0.5-0.4,1.1
			c0,0,0,0,0,0.2c0.2,0,0.5-0.1,0.7,0.1c0.2-0.5,0.2-0.8,0.4-1.1c0.7,0.8,0.7,0.8,1.6,0.1C117.8,238.2,117.3,237.6,117.6,236.8z
			 M121.9,241.4c-0.1-0.2-0.7-0.1-0.9-0.3c-0.2-0.2-0.2-0.7-0.5-1.1c0.2-0.1,0.5,0.1,0.9,0c0-0.2,0-0.5,0.2-0.8
			c0.2-0.1,0.5-0.1,0.7,0.1c-0.2,0.3-0.4,0.6-0.4,1.1c0.7-0.4,0.7-1.1,1.1-1.7c-0.5-0.6-1.4-0.2-1.8-0.6c-0.2-0.4-0.5-1.1-0.5-1.6
			c0.2-0.5,0.2-0.5-0.2-1.6c-0.4,0.8,0,1.9-1.8,2.3c0.5,0.1,0.7,0.3,1.1,0.5c-0.4,0.3-0.9,0.7-1.3,1c-0.2,0.3-0.7,0.9-0.9,1.4
			c0.5,0.4,0.5,0.6-0.2,1c0-0.2-0.2-0.2-0.5-0.4c-0.2,0-0.2,0-0.5,0.1c-0.2,0.3-0.4,0.6-0.7,0.9c0.5,0.1,0.9,0.3,1.4,0.4
			c0-0.2,0.2-0.3,0.4-0.6c0.2,0.4,0.2,0.7,0.5,0.9c0.7,0.1,0.9,0.5,1.1,0.9c0.5-0.1,1.1,0,1.6-0.1c0,0.2,0,0.5,0.2,0.7
			c0.7-0.9-0.5-1.1-0.5-1.6C121.3,242.3,122.2,241.9,121.9,241.4z M115.9,226.8c0.5-0.1,0.9-0.2,1.1-0.7
			C116.5,226,116.1,226.3,115.9,226.8z M117,249c0,0.2,0.2,0.4,0.5,0.4c-0.4,0.3-0.7,0.4-0.9,0.7c-0.5-0.6,0-1.2,0.4-1.8
			C117,248.5,117,248.8,117,249z M118.1,245.6c-0.5,0.1-0.7-0.6-1.4,0.1C117.2,245.6,117.4,246.3,118.1,245.6z M118.8,222.4
			c-0.2,0-0.2,0.3-0.2,0.3c0.2,0.7,0.2,0.7-0.7,0.9c-0.2,0-0.4,0.3-0.7,0.4c0.2,0.7,0.2,1.4,0.9,1.7c0-0.7,0-1.2,0-1.9
			c0.5-0.1,0.7-0.1,1.1-0.2C119.2,222.5,119.2,222.5,118.8,222.4z M118.4,227.5c-0.4,0.6-0.4,0.8,0,1.2c0.2,0,0.2,0.4,0.2,0.7
			c0.2,0,0.2,0,0.5-0.1c0-0.2,0-0.5,0-1c0.9,0,0.9,0.8,0.7,1.5c0.2,0,0.5,0.1,0.7,0.3c0.4-0.3,0.2-1.2,0.7-0.9
			c0.5,0.4,0,1.2-0.2,1.7c-0.2,0.1-0.5,0.1-0.9,0.4c0.5,0.1,0.5,0.1,1.6-0.4c0-0.7,0.2-1.5,0-2.4c0-0.1,0-0.1,0-0.2
			c-0.2,0.1-0.2,0.3-0.4,0.3c-0.7-0.6-0.7-0.6,0-2.2c-0.4,0.3-1,0.7-1.6,0.3C118.8,226.6,118.8,226.8,118.4,227.5z M119.6,233.3
			c-0.5,0.1-0.7-0.1-1.1,0C118.7,233.9,118.9,233.9,119.6,233.3z M119.5,244.1c0,0-0.2-0.2-0.5-0.4c-0.2,0.8-0.2,1.3-0.4,2
			C119.2,245.1,119.5,244.6,119.5,244.1z M119.4,240.8c0,0-0.4,0.3-0.7,0.4c0.2-0.8,0.2-1.3,0.4-1.8
			C119.2,239.8,119.4,240.3,119.4,240.8z M119.4,235.7c-0.1,0.1-0.1,0.2-0.2,0.3c0,0.2,0.2,0.4,0.2,0.4c0.2-0.1,0.2-0.3,0.4-0.3
			C119.6,235.9,119.4,236,119.4,235.7z M119.7,241.2c0.2,0.4,0.5,0.4,0.9,0.8C119.9,242.1,119.7,242.1,119.7,241.2z M120.3,234.3
			c0.5,0.1,0.7-0.4,0.7-0.6c-0.2-0.2-0.5-0.6-1.1-0.2C120,233.9,119.8,234.4,120.3,234.3z M120,89c-0.7-0.1-1.1,0-1.2-1
			c-0.4,0.8-0.2,1.2,0,1.7c0.2,0,0.7-0.4,0.9-0.4C120,89,120,89,120,89z M121,221.4c0,0.2,0,0.5,0,1
			C120.8,221.9,120.6,221.7,121,221.4z M120.9,233.7c0.2,0.4,0.5,0.6,0.7,1.3c0.2-1,0.7-1.1,1.3-1c-0.2,0.3-0.7,0.4-0.9,0.7
			c0.2,0.2,0.2,0.7,0.5,1.1c0.2-0.3,0.7-0.4,0.7-0.4c0.5,0.4,0.9,0.5,1.1,0.7c0,0.1,0,0.1,0,0.2c-0.2-0.2-0.5-0.1-0.7,0.4
			c0,0.2,0.2,0.4,0.5,0.4c0.2-0.1,0.2,0.2,0.5,0.4c0.2-0.5,0.4-1.1,0.4-1.3c0.2-0.5,0.4-0.8,0.7-1.4c-1.1,0.3-1.1,0-1.6-0.8
			c0-0.5-0.5-0.6-0.7-0.6C122.7,233.3,121.8,233.5,120.9,233.7z M122.7,210.2c-0.2-0.2-0.5-0.4-0.7-0.6c-0.2,0.3-0.2,0.5-0.4,0.8
			c-0.2,0.3-0.4,0.6,0,0.7c0.2,0.2,0.5,0.1,0.7-0.4C122.5,210.7,122.5,210.5,122.7,210.2z M121.6,236.4c0,0.5,0,0.7,0,1.2
			c0.2-0.3,0.2-0.5,0.2-1c0.5,0.4,0.7,0.8,0.9,1.2c0.1-0.1,0.1-0.2,0.2-0.3C123.2,236.3,122.3,236.5,121.6,236.4z M122.6,217.9
			c-0.2,0.5-0.4,1.1-0.7,1.3C121.4,218.6,121.7,218.3,122.6,217.9z M121.8,214.5c0.2-0.3,0.4-0.8,0.9-0.4c0,0.2-0.2,0.8-0.4,1.3
			c-0.1,0-0.1,0-0.2,0C122.1,214.9,121.8,214.7,121.8,214.5z M123.3,219.7c0.2,0.2,0.5,0.4,0.5,0.6c0,0-0.2,0.3-0.2,0.5
			c-0.7-0.3-1.4-0.7-1.6-1.6c0.2,0.2,0.7,0.1,1.1,0.2c0-0.7,0-1,0-1.4c0.5-0.1,0.9,0,0.9,0.5C123.9,219,123.7,219.3,123.3,219.7z
			 M123.1,240.9c-0.2-0.7-0.5-0.1-0.9,0C122.6,240.8,122.8,241,123.1,240.9z M122.7,232.1c0.2,0.4,0.5,0.6,0.5,0.9
			c1.1-1,1.4,0.2,2,0.3c0.4-0.6,0-1,0-1.4c0-0.5,0.2-0.8,0.2-1.3c-0.2,0.1-0.7,0.2-1.1,0.3C124.3,231.7,123.6,232.1,122.7,232.1z
			 M122.9,229.9c0.2-0.1,0.2,0.2,0.2,0.2c0.2-0.1,0.2-0.3,0.4-0.3c-0.2,0.1-0.5-0.1-0.5-0.1C123.1,229.7,123,229.7,122.9,229.9z
			 M123.1,223.8c0.2-0.1,0.5-0.1,0.7-0.2c-0.2-0.2-0.5-0.1-0.7-0.1C123.1,223.8,123.1,223.8,123.1,223.8z M128.2,217.6
			c0.1,0.2,0.7,0.1,0.7,0.3c0,0.2,0,0.5,0,1c0,0.2,0,0.5,0,0.7c0.2,0.4,0,0.5-0.4,0.6c0-0.5,0-0.7,0.2-1c-0.9-0.5-1.6,0.1-2.3,0
			c-0.7-0.8-0.7-0.8-2-0.3c0-0.2,0-0.2,0.9-1.4c0-0.2-0.2-0.4-0.2-0.9c0.2-0.1,0.5-0.3,0.7,0.1c0,0.5,0.2,0.9,0.2,1.4
			c0.2,0.2,0.5,0.4,0.7,0.3c0,0,0.5-0.3,0.4-0.6c0.2-0.5,0.2-0.8,0.2-1.2c0-0.2,0.2-0.8,0.2-1.2c0.2,0.2,0.2,0.4,0.5,0.6
			c0.2-0.5,0.7-0.9,1.1-1.5c0,0.7,0,1,0,1.4c0.2-0.1,0.5,0.1,0.7,0.1c0.2,0.4,0.2,0.9,0.2,1.4c0,0-0.2,0.3-0.7,0.6
			c0-0.7-0.2-1.4-0.2-1.9C128.2,216.6,128,217.1,128.2,217.6z M126.4,213.2c0-0.2,0-0.5,0-0.7c0.7-0.2,0.9,0,1.1,0.5
			c0.2-0.1,0.7-0.4,0.9-0.7c0.5-0.1,0.9-0.2,1.1,0c-0.7,0.4-1.4,0.8-2,1.2c-0.2,0.1-0.2,0.3-0.4,0.3c0,0.2,0.2,0.4,0.2,0.7
			c0,0,0,0,0,0.2c-0.2-0.2-0.5-0.1-0.9,0c0-0.5,0-0.7,0.2-1.2c-0.5,0.3-0.9,0.7-1.4,1C125.5,213.4,125.9,213.6,126.4,213.2z
			 M126.1,232c0,0.2-0.7,0.9,0,1c0.7-1.4,0.7-1.6-0.2-1.9C125.4,231.7,126.1,231.8,126.1,232z M126.4,212.5
			c-0.2-0.2-0.2-0.2-0.7-0.3c0.5-0.3,0.7-0.6,0.9-0.9C127.3,211.6,126.4,212,126.4,212.5z M125.9,208c0-0.2,0.2-0.3,0.2-0.8
			c0.2,0.4,0.2,0.4,0.2,0.7C126.1,208,126.1,208,125.9,208z M127,228.7c-0.1,0-0.1,0-0.2,0.1c-0.2-0.4-0.5-0.9-0.5-1.3
			C126.8,227.8,127,228.2,127,228.7z M126.7,219.9c0,0.7,0.2,1.1,0.5,1.6C126.5,221.6,126.5,221.6,126.7,219.9z M127.9,209
			c-0.2,0.1-0.5-0.1-0.7-0.1c-0.2,0.1-0.5,0.3-0.7,0.4c0-0.7,0-0.7,0.7-1.6C128.1,208.3,128.1,208.3,127.9,209z M126.6,210.1
			c0.5-0.3,0.9-0.7,1.4-0.5C127.5,210.3,127.5,210.3,126.6,210.1z M127.2,226.7c-0.5-0.4-0.5-0.6-0.2-1.1
			C127.4,226,127.4,226.2,127.2,226.7z M127.9,224.4c-0.2,0.1-0.7-0.1-0.9,0c0-0.1,0-0.1,0-0.2c0.2-0.1,0.7-0.4,0.9-0.7
			c0.5,0.4,1.4,0.4,0.7,1.5C128.3,224.8,128.1,224.6,127.9,224.4z M127.4,204.6c-0.2,0.1-0.2,0.1-0.2-0.2c-0.2,0.3-0.5,0.3-0.2,0.8
			C127.2,204.9,127.2,204.9,127.4,204.6z M127.9,207.1c0-0.2,0-0.5,0-0.7c0.2-0.1,0.2-0.1,0.2-0.1
			C128.1,206.6,128.1,206.8,127.9,207.1z M128.9,220.8c-0.5,0.1-0.7,0.4-0.9,0.4c0-0.1,0-0.1,0-0.2
			C128.3,220.5,128.5,220.4,128.9,220.8z M129.5,205.8c0.5,0.4,0.5,0.4-0.2,1C129.2,206.6,129.5,206,129.5,205.8z M130.5,213.5
			c-0.5,0.1-0.9,0-0.9-0.5c0.1-0.1,0.1-0.2,0.2-0.3C130.2,212.6,130.5,213,130.5,213.5z M131.9,218.9c-0.7-0.1-1.4-0.2-2,0
			c0.2-0.3,0.2-0.5,0.4-0.8C130.7,218.5,131.9,217.7,131.9,218.9z M130.5,216.4c0-0.5,0-0.7,0-1.2
			C130.9,215.5,130.9,215.5,130.5,216.4z M131.2,216.7c0,0.2-0.2,0.5-0.2,1c-0.5-0.4-0.5-0.9-0.5-1.3
			C130.7,216.3,130.9,216.3,131.2,216.7z M130.9,214.1c0.2-0.1,0.2-0.1,0.5,0.1c-0.1,0.1-0.1,0.2-0.2,0.3c-0.2,0.1-0.5-0.1-0.5-0.1
			C130.9,214.3,130.9,214.1,130.9,214.1z M132.8,197.9c-0.5,0.3-0.9,0.9-1.6,0.6c0-0.2-0.2-0.4-0.5-0.9c0.5,0.1,0.7,0.3,0.9,0.3
			c0.5-0.3,0.7-0.9,1.1-0.7C133,197.1,133,197.6,132.8,197.9z M130.8,204.3c0.5,0.1,0.5,0.4,0.9,0.5
			C130.8,205.3,130.8,205,130.8,204.3z M134.8,217.3c0,0.5-0.4,0.8-0.9,1.4c-0.2-0.4-0.2-0.9-0.2-1.1c0-0.7-0.5-0.6-0.9-0.7
			c-0.2-0.2-0.7-0.1-1.1,0c-0.7-1-0.7-1-0.2-1.6c0.2,0.2,0.5,0.4,0.5,0.6c0.7-0.2,0.4-0.6,0.7-0.9c0.2-0.3,0.7-0.6,0.9-0.9
			c0.2,0.4,0.2,0.9,0.2,1.4c-0.2,0.1-0.5,0.1-0.9,0.2c0,0.2,0.2,0.4,0.2,0.7c0.2-0.1,0.2-0.1,0.5-0.1c0-0.2,0.2-0.3,0.5-0.3
			c0,0.5,0,0.7,0,1C134.1,217,134.6,217.1,134.8,217.3z M131.1,208.6c0,0,0,0,0.2-0.1c0,0,0.2-0.1,0.5,0.1c-0.2,0.1-0.5,0.3-0.5,0.3
			C131.1,208.8,131.1,208.8,131.1,208.6z M132.6,221.2c0.5,0.6,0.5,0.6-0.4,2c-0.2-0.2-0.5-0.4-0.5-0.6
			C132.1,222,132.4,221.7,132.6,221.2z M132.4,207.8c0,0.1,0,0.1,0,0.2c-0.2,0.1-0.5,0.1-0.7,0.4c0-0.2,0-0.2,0-0.5
			C132,207.9,132.2,207.8,132.4,207.8z M132.7,209.1c0.2,0.4,0.5,0.9,0.9,1.2c-0.2,0.3-0.5,0.3-0.7,0.4C132,210,132,210,132.7,209.1
			z M133.2,218.8c0.2,0.2,0.2,0.7,0.5,1.3c-0.2,0.1-0.5,0.3-0.7,0.9c0-0.5,0-1,0-1.2c0-0.2,0-0.5-0.2-0.7c-0.5-0.4-0.5-0.9-0.2-1.6
			C133,217.7,133.2,218.1,133.2,218.8z M132.4,201.8c0.2-0.3,0.4-0.6,0.4-0.8c0.2,0.2,0.2,0.2,0.2,0.2
			C133.1,201.6,133.1,201.6,132.4,201.8z M132.8,197.9c0.2-0.1,0.5-0.1,0.5-0.1c0.5,0.4,0.9,0.5,1.6,0.8c-0.7,0.4-1.1,1-1.6,1.3
			c-0.2-0.2-0.5-0.4-0.5-0.6C133.5,198.7,133,198.3,132.8,197.9z M138.1,209.1c0.5,0.4,0.2,0.9,0.2,1.4c-1.1,0.5-1.8,1.1-1.8,2.3
			c0,0.5-0.2,0.8-0.4,1.1c-0.7,0.6-0.9,1.2-0.9,1.9c0.2-0.1,0,0.2-0.2,0.5c-0.9-0.7-0.9-1.7-0.5-2.8c-0.5-0.6-1.1-0.2-1.6-0.1
			c0-0.7,0-1,0.7-1.1c0,0.2,0.2,0.2,0.2,0.4c0.5-0.1,0.9,0,1.4-0.6c0.2,0.4,0.2,0.7,0.5,0.8c0.1,0,0.1,0,0.2-0.1
			c-0.2-0.4-0.2-1.1-0.5-1.6c0.5,0.1,0.7,0.3,1.1,0.5c0-0.2,0-0.2,0.2-0.5c-0.5-0.1-0.9,0-1.4-0.2c-0.2-0.2-0.2-0.4-0.7,0.2
			c0,0-0.2,0.1-0.5,0.1c0-0.2,0-0.7-0.2-0.9c0.7-0.4,1.1-0.5,1.8-0.9c0-0.5-0.2-0.7-0.2-1.1c0.5-0.3,0.7-0.4,0.9-0.5
			c0,0,0,0,0.2-0.1c0,0.7,0.9,0.7,0.7,1.5C137.7,209.4,137.9,209.4,138.1,209.1z M133.8,209.6c0-0.2-0.2-0.4-0.5-0.6
			c0.7-0.2,1.1-0.3,1.6-0.4c0.1,0.1,0.1,0.1,0.2,0.2C134.7,209.2,134.3,209.5,133.8,209.6z M134.3,212.1c-0.2,0.1-0.5,0.1-0.7,0.2
			c-0.2-0.7,0.2-0.8,0.7-0.9C134.3,211.6,134.3,211.9,134.3,212.1z M133.9,194c0.5,0.1,0.5,0.4,0,1
			C133.7,194.5,133.4,194.3,133.9,194z M133.9,193.3c-0.1,0-0.1,0-0.2,0.1c0-0.2,0.2-0.5,0.2-0.5s0,0,0.2-0.1
			C134.1,193,133.9,193.1,133.9,193.3z M134.3,207.3c0.2-0.1,0.5-0.3,0.7-0.6C134.9,207.4,134.9,207.4,134.3,207.3z M134.7,204.4
			c0.5-0.3,0.9-0.4,1.1-0.3c0.2,0.2,0.5,0.9-0.2,1.5C135.6,204.9,134.5,205.4,134.7,204.4z M134.6,196.5c0.5,0.1,0.9,0.3,1.4,0.4
			c-0.5,0.3-0.7,0.6-0.9,0.7C134.8,197.4,134.8,197.1,134.6,196.5z M135.8,198.9c0,0,0.5-0.1,0.7-0.2c0,0.5-0.2,1-0.2,1.5
			c-0.7,0.6-0.9,0.2-1.6-0.1C135.3,199.7,135.8,199.6,135.8,198.9z M135.9,194.3c-0.2,0.3-0.2,0.8-0.4,1.3c-0.2-0.7-0.2-1.1,0.2-1.2
			C135.8,194.3,135.8,194.3,135.9,194.3z M138.2,194.2c-0.2,0.3-0.2,0.5-0.4,0.8c-0.2,0.3-0.4,0.6-0.9,0.7c-0.5,0.3-0.7-0.1-0.7-0.8
			C137.1,195.2,137.3,193.9,138.2,194.2z M136.7,163.2c0,0.2,0,0.2-0.2,0.5c-0.2,0-0.2-0.2-0.5-0.4c0,0.7,0.2,1.4,0.2,2.1
			c1.1-1,2-1.6,3.4-2.4c-0.5-0.4-0.7-0.6-0.9-0.5c-0.7,0.2-0.2,0.8-0.7,1.1c-0.2-0.2-0.2-0.4-0.5-0.6
			C137.4,163,137,163.1,136.7,163.2z M137.2,210.2c0-0.5-0.2-0.7-0.2-1.1c-0.2,0.1-0.2,0.1-0.2,0.1
			C136.5,209.7,136.8,210.1,137.2,210.2z M136.7,203.4c0.5-0.3,0.2-1.2,0.9-1.4c0.5,0.6,0.2,1.4-0.2,2.2
			C137.2,204,136.9,203.8,136.7,203.4z M138,195.9c0,1.4-0.7,2.1-1.1,2.9C136.7,198.2,136.7,198.2,138,195.9z M137.1,193.8
			c0,0-0.2,0.1-0.2-0.2c0.2-0.5,0.2-0.8,0.4-1.3c0-0.2,0.2-0.3,0.5-0.3c0-0.2,0.2-0.1,0.2,0.2C138,192.4,137.3,193.5,137.1,193.8z
			 M137.6,158.9c-0.2,0-0.5,0.1-0.9,0.2C137.2,159.5,137.2,159.5,137.6,158.9z M137.4,199.9c0,0,0,0-0.2,0.1c0-0.2,0-0.2,0-0.5
			c0,0,0,0,0.2-0.1C137.3,199.4,137.4,199.7,137.4,199.9z M138.1,188.2c-0.4,0.6-0.4,1.1-0.7,1.4c-0.2,0.1-0.2,0.1-0.2,0.1
			c0.1,0.1,0.1,0.1,0.2,0.2C137.2,189.4,138.6,189.1,138.1,188.2z M138.3,199.5c0-0.5,0-0.7,0-1
			C138.7,198.6,138.7,198.6,138.3,199.5z M140.1,204.3c0,0-0.2,0.3-0.2,0.5c0,0-0.2,0.1-0.5,0.1c0,0-0.2-0.2-0.2-0.4
			c0.2-0.8-1.1-0.4-0.5-1.6c0.2,0.4,0.5,0.8,1.1,0.2C139.9,203.6,139.7,204.2,140.1,204.3z M138.7,196c0.2-0.3,0.4-0.6,0.7-0.9
			C139.4,195.9,139.4,195.9,138.7,196z M139.7,183.8c0-0.7-0.2-0.7-0.9-0.3C139.2,183.7,139.5,183.6,139.7,183.8z M139.3,165.5
			c-0.2,0.3-0.2,0.5-0.4,1.1C139.3,166,139.3,166,139.3,165.5z M139.8,194.6c0,0-0.2,0.1-0.5,0.1c-0.2-1.1,0.9-1.4,1.3-2.2
			c0.2,0.4,0.5,0.8-0.2,1.2C140.2,193.7,140,194.3,139.8,194.6z M139.7,163.5c-0.2,0.3-0.4,0.8,0,1.2
			C139.9,164.2,140.2,163.9,139.7,163.5z M139.9,185.9c0.7,0.1,0.7,0.1,1.1-1.5c-0.2,0.1-0.5,0.1-0.5,0.1
			C140.4,185.1,140.2,185.6,139.9,185.9z M143.7,193.6c-0.5,0.3-0.7,0.6-0.9,0.7c0,0.7-0.2,1.5-0.2,2c0,0.2,0.7,0.1,0.2,0.7
			c-0.5-0.1-0.7-0.3-1.4-0.4c0.2,0.4,0.2,0.7,0.2,1.1c-0.5,0.1-0.9,0.5-1.4,0.6c0-0.2,0-0.5,0-0.5c0.7-0.6,0.4-1.5,0.7-2.1
			c0-0.7,0-1.4,0.2-2.4c0.2,0.2,0.2,0.4,0.5,0.8c0.2-0.8,0.4-1.1,0.7-1.6c0.2,0.2,0.5,0.4,0.5,0.6
			C142.7,193.6,143.2,193.8,143.7,193.6z M140.8,200.8c0.2-0.1,0.2-0.1,0.5-0.1c-0.2,0.3-0.2,0.5-0.2,0.8c-0.1,0-0.1,0-0.2,0.1
			C140.8,201.3,140.8,201,140.8,200.8z M140.6,162.6c0.5,0.4,0.9,0.5,1.4,0.9c-0.2-0.4-0.2-0.7-0.2-1.1c-0.2,0.1-0.2,0.1-0.2,0.1
			C141.3,162.4,141.1,162.5,140.6,162.6z M141.7,176c-0.2,0.5-0.4,0.8-0.7,1.1C141.2,176.8,141.7,176.7,141.7,176z M142.3,194.2
			c0-0.1,0-0.1,0-0.2c-0.4,0.6-0.7,1.1-1.1,1.7C141.9,195.5,142.1,195.2,142.3,194.2z M141.4,199.4c0,0.2,0,0.7,0,1
			c-0.1,0-0.1,0-0.2,0.1c0-0.2,0-0.2,0-0.5C141.2,199.7,141.2,199.7,141.4,199.4z M141.1,142.6c0.2,0.4,0.2,0.9,0.5,1.3
			c0-0.5,0-1,0-1.4C141.3,142.6,141.3,142.6,141.1,142.6z M141.4,148.5c-0.1,0.1-0.1,0.2-0.2,0.3c0,0.2,0.2,0.2,0.2,0.2
			c0.2-0.1,0.2-0.1,0.5-0.3C141.6,148.7,141.6,148.5,141.4,148.5z M141.9,173c0.2-1,0.2-1-0.5-0.8
			C141.6,172.6,141.9,172.8,141.9,173z M143.1,182.6c-0.7-0.3-1.1,0-1.6,0.4c0.2,0.7,0.5,1.1,0.7,1.5c0.2-0.5,0.4-0.8,0.7-1.4
			c0.2,0.4,0.5,0.8,0.7,1.3C143.8,183.3,143.8,182.9,143.1,182.6z M142.3,192.1c-0.7-0.3-0.7-0.8-0.7-1.3c0.7-0.2,1.4-0.3,2-0.5
			c0,0.2,0,0.2-0.2,0.3C142.7,190.8,142.5,191.3,142.3,192.1z M144.6,176c-0.4,0.8-0.7,1.6-0.9,2.1c-0.2-0.2-0.2-0.4-0.5-0.6
			c0-0.2,0-0.2-0.2-0.4c0.2-0.3,0.5-0.3,0.7-0.6c-0.2-0.4-0.5-0.1-0.7,0.2c0,0.7-0.4,1.1-1.4,1.3c0.9,0.3,1.4,0.6,2.1,1
			c-0.2,0.3-0.5,0.3-0.7,0.6c0.9,0.3,0.9-0.7,1.1-1c0.2-0.1,0-0.5,0.2-0.8c0,0,0.2-0.1,0.5,0.1C145.1,177.1,144.6,176.7,144.6,176z
			 M141.8,167.6c0.5,0.4,0.7,0.6,1.1,0.2C142.7,167.1,142.3,167.5,141.8,167.6z M142.6,152.3c-0.2,0.3-0.2,0.5-0.2,0.5
			c-0.2,0.1-0.5-0.1-0.5-0.1s0.2-0.3,0.2-0.5C142.1,152.2,142.3,152.4,142.6,152.3z M142.4,157.9c0,0.2,0.2,0.2,0.5,0.6
			c0-0.2,0-0.5,0-0.5c0-0.2,0-0.2,0-0.5C142.6,157.8,142.6,157.8,142.4,157.9z M142.5,165.3c0.2,0.2,0.5,0.4,0.7,0.3
			c0,0.5,0,0.7,0,1c0.7,0.8,1.4,0.4,2.3,0c0.2,0.4,0.5,1.1,1.4,0.4c-0.5-0.6,0.7-1.1,0.7-1.8c-0.2-0.2-0.5-0.1-0.9,0
			c0-0.5,0-1,0-1.2c0.5-0.3,0.7-0.6,1.1-1c-0.2-0.4-0.5-0.6-0.7-0.6c-0.2-0.2-0.7-0.1-1.1-0.2c-0.2,1.2-0.2,1.2-1.1,1.5
			c0.2-0.8,0-1.2-0.7-1.8c-0.2,0.5-0.4,0.6-0.4,0.8c0,0.5,0,1,0,1.4c0,0.2,0.2,0.2,0.2,0.2c0.9,0,0.5,0.8,0.5,1.3
			c0.2,0.2,0,0.5-0.2,0.5C143.4,165.1,143.4,165.1,142.5,165.3z M143.4,188.2c0-0.2,0-0.5-0.2-0.7c-0.2,0.3-0.4,0.6-0.4,0.8
			c0,0,0.2,0.2,0.5,0.1C143.2,188.4,143.3,188.3,143.4,188.2z M142.9,135.8c0.1,0,0.1,0,0.2,0c0-0.2,0-0.5-0.2-0.4c0,0,0,0-0.2,0
			C142.9,135.6,142.9,135.8,142.9,135.8z M145.2,170.1c-0.2-0.2-0.5-0.4-0.5-0.1c-0.7,0.4-1.4,0.8-1.8,1.1c0.2,0.4,0.5,0.6,0.9,0.7
			c0-1,0.4-1.3,1.4-1C145.2,170.6,145.2,170.4,145.2,170.1z M143.1,181.6c0.5,0.8,0.5,0.8,1.4-0.6
			C144,181.4,143.5,181.5,143.1,181.6z M143.1,142.2c0.2,0.2,0.2,0.4,0.5,0.9C143.8,142.3,143.6,142.1,143.1,142.2z M144.2,154.6
			c-0.2-0.2-0.7-0.3-0.2-0.9c0-0.2-0.2-0.7-0.5-0.9c0.2-0.1,0.5-0.3,0.7-0.4c0,1.2,0.9,1.5,1.4,2.1
			C145.1,155.1,144.6,154.7,144.2,154.6z M145,167.5c0-0.2,0-0.2,0-0.2c-0.2,0.1-0.7,0.2-0.9,0.2C144.3,167.5,144.5,167.4,145,167.5
			z M145.1,182.6c0.2-0.3,0.4-0.8,0.7-1.1c-0.2-0.4-0.5-0.4-0.9,0C144.7,181.7,144.4,182.2,145.1,182.6z M144.6,152.1
			c0.2-0.3,0.2-0.8,0.4-1.1c0.2-0.1,0.7-0.2,1.1-0.3c-0.2,0.5-0.2,0.8-0.4,1.3C145.3,152.2,145.1,152.3,144.6,152.1z M144.8,149.7
			c0.2-0.1,0.5-0.1,0.9,0C145.3,150.1,145,150.1,144.8,149.7z M145.9,142c-0.5,0.3-0.7,0.4-0.7,0.4C145.2,142,145.2,142,145.9,142z
			 M145.9,147.5c0.1,0.1,0.1,0.1,0.2,0.2c-0.2,0.3-0.2,0.3-0.4,0.6C145.5,147.9,145.7,147.6,145.9,147.5z M146.4,121.9
			c0,0.2-0.2,0.5-0.2,0.8c0.2,0.2,0.5,0.1,0.7,0.3C146.8,122.5,146.6,122.3,146.4,121.9z M147.4,161.3c0,0.2,0,0.2,0.2,0.4
			c0.2-0.5,0.2-0.8-0.2-0.7C147.4,161.1,147.4,161.2,147.4,161.3z M148.2,169.2c0.1,0,0.1,0,0.2-0.1c0,0.2-0.2,0.5-0.2,0.8
			c-0.1-0.1-0.1-0.1-0.2-0.2C148,169.5,148.2,169.4,148.2,169.2z M148.2,167c0.7-0.4,0.9-0.7,0.4-1.3c-0.2,0.3-0.4,0.8-0.4,1.1
			C148.2,166.9,148.2,166.9,148.2,167z M150.2,118.4c0-0.7,0-1.2,0-1.7c-0.9-0.5-1.1,1-1.8,0.6c-0.2,0.5-0.4,1.1,0.2,1.1
			c0-0.2,0.2-0.3,0.5-0.6c0.2-0.3,0.2-0.5,0.7-0.9c0,0.7,0,1.2,0,1.9C150,118.7,150.2,118.4,150.2,118.4z M150.5,124.3
			c-0.5,0.6-1.1,1.2-1.4,1c-0.2-0.1-0.5-0.8-0.7-1.3C149.1,123.9,149.1,123.9,150.5,124.3z M149.3,122c0-0.5,0-0.7,0-1.2
			c-0.5,0.6-0.5,0.6-0.7,0.9C148.9,121.8,148.9,121.8,149.3,122z M148.8,134.7c0.2,0.2,0.2,0.2,0.2,0.2c0,0.2,0,0.2,0,0.5
			c0,0-0.2,0.1-0.2-0.2C148.8,135.2,148.8,135,148.8,134.7z M148.8,116.4c0.2,0,0.2,0,0.2,0c0.2-0.5,0.2-0.8,0.4-1.3
			c0.2-0.3,0-0.5-0.7-0.3C148.8,115.2,148.8,115.9,148.8,116.4z M149.3,170.1c0-0.2,0-0.7,0.2-1.2C150,169.9,150,169.9,149.3,170.1z
			 M150.6,132.2c-0.1,0-0.1,0-0.2,0.1c-0.5,0.1-0.2-1.1,0-2.1c0.2,0.7,0.5,1.1,0.7,1.7C150.8,131.9,150.8,132.1,150.6,132.2z
			 M150.6,133.8c-0.1-0.1-0.1-0.1-0.2-0.2c0.5-0.3,0.7-0.4,0.9-0.7c0.2-0.1,0.2,0.2,0.5,0.4C151.5,133.9,150.8,133.5,150.6,133.8z
			 M151.5,129.6c0.2,0.2,0.5,0.4,0.5,0.6c-0.2,0.3-0.5,0.3-0.7,0.4c-0.2,0.1-0.2-0.4-0.2-0.7c-0.2-0.2-0.9-0.3-0.5-0.8
			C151.2,128.9,151.2,128.9,151.5,129.6z M154,112.4c0,0-0.2-0.2-0.5,0.1c-0.2,0.1-0.5,0.3-0.7,0.6c-0.2-0.2-0.7-0.1-1.1,0
			c0.4-0.8,0.9-1.4,1.4-2c-0.9,0.4-0.7-1-1.6-0.8c0,0.5,0.2,0.9,0.2,1.1c-0.2,0.5-0.7,0.9-0.7,1.1c0.2,0.4-0.5,0.6-0.7,1.1
			c0.7-0.1,0.9-0.2,0.9,0.3c-0.2,0.5-0.4,0.8-0.7,1.1c0.2,0.2,0.5,0.4,0.7,0.6c0.5-0.3,0.5-0.6,0.7-0.6c0.5-0.3,0.9-0.7,1.1-0.7
			c0.7-0.4,0.4-1.1,0.9-1.4C154,112.6,154,112.5,154,112.4z M151.8,137.4c0,0.5,0,0.7,0.2,0.9c-0.5,0.1-0.7,0.2-1.1,0.5
			c0-0.2,0-0.7-0.2-0.9C151.1,137.5,151.5,137.4,151.8,137.4z M152.1,123.3c-0.7,0.2-0.9-0.3-1.1-0.7
			C152.1,122.3,152.1,122.3,152.1,123.3z M151.1,136.8c0.2,0.2,0.5,0.1,0.7,0.1c-0.1,0.1-0.1,0.2-0.2,0.3c0-0.2-0.2-0.2-0.5-0.1
			C151.1,137.1,151.1,137.1,151.1,136.8z M152.5,120.5c-0.2-0.2-0.2-0.4-0.5-0.4C152.5,119.8,152.7,119.8,152.5,120.5z M153.6,133.2
			c0.2,0.2,0.2,0.4,0.5,0.6c-0.9,0.7-0.9,0.7-1.6,0.1C152.9,133.6,153.1,133.5,153.6,133.2z M153.1,135.4c0,0.2,0,0.5-0.2,0.5
			C152.9,135.7,152.9,135.7,153.1,135.4z M153.7,120.8c-0.2,0.1-0.5,0.1-0.7,0.2c0-0.5,0-0.7,0.2-0.8
			C153.7,120.1,153.7,120.3,153.7,120.8z M153.2,125.1c0.1,0,0.1,0,0.2-0.1c0,0.2,0.2,0.4,0.2,0.7c-0.2,0.3-0.2,0.3-0.2,0.3
			C153.3,125.6,153.3,125.4,153.2,125.1z M154.5,117.5c0,0.2,0,0.5,0,0.7c-0.2,0.1-0.5-0.1-0.7-0.3
			C154.1,117.8,154.3,117.5,154.5,117.5z M155.5,118.2c0,0.2,0,0.5,0.2,0.7c-0.5,0.3-0.7,0.4-1.1,0.7c0-0.5,0-0.9,0-1.4
			c0.2-0.3,0.7-0.6,0.9-0.9C156.1,117.3,156.1,117.3,155.5,118.2z M154.6,118.2c0,0,0,0,0,0.2C154.6,118.3,154.6,118.3,154.6,118.2z
			 M154.6,118.2c0,0.1,0,0.1,0,0.2C154.6,118.2,154.6,118.2,154.6,118.2z M156.5,106.1c-0.5,0.3-0.7,0.4-0.9,0.7
			C156.3,107.1,156.3,107.1,156.5,106.1z M156.2,126.4c0.2,0.7,0.2,0.7-0.4,1.1C156,126.9,156,126.7,156.2,126.4z M156.1,116.6
			c0-0.2,0.2-0.5,0.2-0.8C156.6,116.1,156.6,116.3,156.1,116.6z M158.1,106c-0.2,0.3-0.7,0.4-1.1,0.7
			C157.9,106.7,157.9,106.7,158.1,106z M160.4,106.4c-0.2-0.4-0.2-0.7-0.2-0.9c-1.1,0-1.1,0-1.4,1.3c0.2-0.3,0.7-0.4,1.1-0.7
			c0,0.2,0.2,0.2,0.2,0.4C160.3,106.4,160.3,106.4,160.4,106.4z M159.1,116.7c0-0.2-0.2-0.4-0.2-0.7
			C159.3,116.1,159.3,116.4,159.1,116.7z M159.8,119.4c0,0,0.2,0.9-0.7,0.9c0.7-0.9-0.2-1.6,0.2-2.4
			C159.8,118.2,160,118.6,159.8,119.4z M160.6,108.3c0,0.2-0.2,0.3-0.2,0.5c0.2,0.2,0.7,0.6,0.9,0.7c-0.2,0.3-0.2,0.5-0.4,1.1
			c-0.2-0.9-0.7-1.3-1.6-1.1c-0.2-0.4-0.2-0.7,0-1.2c0.2-0.3,0.5-0.3,0.7-0.6c0,0,0.5-0.1,0.5,0.1
			C160.6,107.8,160.6,108,160.6,108.3z M160.2,115.7c-0.2,0.1-0.5,0.1-0.7,0.2C159.8,115.3,160,115.3,160.2,115.7z M161.4,120.9
			c-0.7,0.2-1.1,0.3-1.6,0.6c0.2-0.8,0.7-1.1,1.1-1.2C161,120.3,161.2,120.7,161.4,120.9z M161,98.2c0-0.2-0.2-0.4-0.2-0.7
			c-0.1,0-0.1,0-0.2,0.1c0,0.2,0.2,0.4,0.2,0.7C160.9,98.2,160.9,98.2,161,98.2z M161.4,113.1c0,0,0,0,0.2,0.2
			c-0.2,0.3-0.2,0.8-0.4,1.1c-0.1,0-0.1,0-0.2,0.1C161.1,113.8,161.1,113.6,161.4,113.1z M162.2,108.6c0.2,0.4-0.2,0.8-0.4,1.1
			c-0.1-0.1-0.1-0.1-0.2-0.2C161.8,109.2,162,108.9,162.2,108.6z M162.4,76.8c0,0-0.2,0.3-0.5,0.6c0.1,0.1,0.1,0.1,0.2,0.2
			c0.2-0.3,0.5-0.3,0.5-0.6C162.7,77,162.7,76.7,162.4,76.8z M162.5,91.2c0,0.2,0,0.2-0.2,0.3c0.5,0.4,0.7,0.8,1.2,1.2
			c0.5-0.8,0.7-1.1,0.4-2c0,0-0.2,0.1-0.5-0.1c0,0.2-0.2,0.5-0.2,0.8C163,91.3,162.8,91.4,162.5,91.2z M166.1,84.2
			c0.5,0.4-0.2,0.8-0.4,1.3C165.2,84.7,165.9,84.5,166.1,84.2z M165.9,77.4c0-0.2,0-0.5,0-0.7C166.1,76.9,166.3,77.1,165.9,77.4z
			 M165.9,82.4c0-0.1,0-0.1,0-0.2c0.2,0.2,0.5,0.1,0.7,0.6C165.9,82.9,165.9,82.6,165.9,82.4z M169.5,69.1c-0.4,1.3,0,2.4-0.7,3.5
			c-0.2-0.2-0.2-0.7-0.5-0.6c-0.5-0.1-0.5-0.6-0.7-0.8c-0.2-0.4,0-0.7,0.4-1c0,0,0-0.5,0-0.7c0.2-0.1,0.7-0.4,0.9-0.4
			S169.5,69.1,169.5,69.1z M168.8,73.2c0,0.2-0.5,0.3-0.7,0.4c0-0.5,0-0.7,0.5-0.8C168.6,72.8,168.8,73,168.8,73.2z M170.1,67.5
			c0.5,0.6,0.5,0.6-0.7,1.6C169.7,68.5,169.9,68,170.1,67.5z M170.8,67.8c0-0.2-0.2-0.4-0.5-0.6C171.3,66.8,171,67.3,170.8,67.8z
			 M197.1,55.1c-0.5,0.1-0.9,0-1.4,0.1c0.2,0.6,0.2,1.1,0.9,0.9C196.9,55.8,196.9,55.6,197.1,55.1z M200.5,55.6
			c0,0.2,0.2,0.4,0.2,0.4c-0.2,0.8-0.4,1.5-0.7,2c0,0.2-0.5,0.3-0.7,0.4c-0.2-0.4-0.5-0.6-0.7-1C199.4,56.9,200.3,56.6,200.5,55.6z
			 M201.9,55.3c0,0.5,0.2,0.9,0,1.2c0,0.5-0.5,0.8-1.1,1c0-0.1,0-0.1,0-0.2c0.2-0.3,0.7-0.9,0.7-1.3c0-0.2-0.5-0.6-0.5-0.8
			c0-0.2,0-0.2,0-0.2C201.4,54.9,201.7,55.1,201.9,55.3z M210.6,48.3c-0.2,0.1-0.2,0.3-0.5,0.6c0,0,0,0.2,0,0.5c0,0,0,0.2,0,0.5
			c0.2-0.3,0.5-0.6,0.7-0.9c0,0.5,0,0.7,0,1.2C211,49.3,211,49.3,210.6,48.3z M217.7,47.4c0,0.5-0.2,0.8-0.5,1.3c0,0.2,0,0.2,0,0.2
			c-0.5,0.1-0.7,0.2-1.4,0.1c0.2-0.3,0.2-0.8,0.5-0.8C216.7,48.1,217,47.1,217.7,47.4z M220.2,47c0.2,0.2,0.5,0.3,0.7,0.5
			c-0.5,0.1-0.7,0.2-0.9,0C219.9,47.5,220.2,47.2,220.2,47z M222,44.2c0.5,0.3,0.7,0.5,0.5,0.8c-0.2,0.1-0.5-0.1-0.5-0.1
			C222,44.7,222,44.4,222,44.2z M224.3,44.5c0.2,0.2,0.2,0.4,0.2,0.6C224.1,45.3,224.1,45.3,224.3,44.5z M228.6,40.7
			c-0.2,0.5-0.5,0.8-0.7,1.3C227.9,41.3,227.9,40.8,228.6,40.7z M239.6,35.3c-0.2,0.3-0.5,0.3-0.9,0.5c-0.2-0.2-0.5-0.1-0.7-0.1
			c0-0.2,0-0.2,0-0.2c0.5-0.1,0.9-0.5,1.4-1C239.6,34.6,239.8,34.7,239.6,35.3z M240.8,35.2c0.2,0.2,0.2,0.4,0.2,0.4
			c-0.2,0.1-0.5,0.3-0.5,0.3c-0.2-0.2-0.5-0.3-0.7-0.5C240.3,35.3,240.5,35.3,240.8,35.2z M242.6,34.7c-0.2-0.2-0.5-0.3-0.7-0.5
			C242.6,33.8,242.6,34,242.6,34.7z M246.7,30.2c0.7-0.4,0.9,0,1.4,0.3C247.4,30.9,246.9,30.6,246.7,30.2z M276.2,14.7
			c0,0,0.2,0.2,0.2,0.4c0,0-0.2,0.1-0.5,0.3c0-0.2,0-0.5,0-0.7C276,14.7,276,14.7,276.2,14.7z M279.2,13c-0.2,0.1-0.7,0.2-0.9,0.2
			c0.2-0.7,0.2-0.7-0.5-0.6c0.2,0.2,0.5,0.3,0.5,0.6c0.2,0.2,0.5,0.1,0.7,0.3c0,0,0.2-0.1,0.5-0.3C279.2,13.2,279.2,13,279.2,13z
			 M280.1,11.1c0-0.5,0.2-0.7,0.2-1C280.8,10.5,280.8,10.9,280.1,11.1z"/>
		<path class="st0" d="M269.1,81.1c0.5,1.3,0.7,1.8,0,2.7c-1.5,2.2-2,4.8-3.5,7.4c0.5,2.1,1.5,4-0.5,6.3c-0.5,0.1-1,0.3-1.5,0.2
			c-0.2,0.8-0.7,1.5-0.7,2.2c0,0.7-0.2,1.6-0.5,2.6c0,0.5,0,1.5,0.2,1.7c1.5,1.1,1,2.7,0.3,4.4c-0.2,0.6-0.5,1.4-0.5,1.9
			c0.2,1.9-0.7,3.9-1.2,5.6c-1,2.8-2,5.5-2.2,8.3c0,0.7-0.2,1.3-0.7,2.2c-0.7,1.2-1,2.3-0.7,3.2c0.4,1.3,0,2.7-0.7,3.9
			c-0.5,0.9-0.8,1.7-1,2.8c-0.3,1.5-0.6,3.2-1,4.5c-0.2,0.5-0.5,1.4,0.2,1.7c0.2-0.1,0.2,0.4,0.2,0.9c-0.2,2.6-0.4,5-0.7,7.4
			c-0.2,1.5-0.2,3.3,0.3,4.6c0.2,0.4,0,1.2,0,1.7c-0.2,0.3-0.7,1-1,1.5c1.2,1.6,0.5,3.8-0.2,6c0,0.2-0.5,0.9-0.7,1.2
			c-1,0.6-1.5,1.7-2,2.9c-0.5,1.3-1.2,2.6-2,4.1c0,0.5-0.2,1.1-0.2,1.3c0,0.2,0,0.2,0.2,0.2c0,0,0.2,0.2,0.5-0.2
			c0.2-0.6,0.7-1.2,1-2.1c0.2,0.2,0.5,0.3,0.5,0.3c-1.2,3.1-1.5,6.4-3.9,9.2c-1-0.2-1.2-0.4-0.7-1c0.2-0.6,0.5-0.9,0.7-1.5
			c0,0,0-0.2,0-0.7c-3,2.7-3.7,4.9-3.2,7.5c0.2,0.9,0.3,1.9,0.5,2.8c-0.5,0.9-1.3,1.9-1.7,2.8c-0.6,1.2-1.5,1.7-2.2,2.4
			c-0.8,0.8-1,2.1-2,2.9c-0.7,0.5-1.2,0.1-1.2-0.9c0,0,0-0.2,0-0.5c-0.5,1.4-1.1,2.7-1.2,3.6c-0.1,1.2-1,2.3-2,2.9
			c-0.7,0.4-1.2,1.1-1.7,1.8c-1.5,2-3.2,3.8-5.2,5.1c-1.2,0.6-2.7,1.6-3.7,2.9c-0.5,0.7-1.7,1.3-2.7,1.9c-2,1.4-3.7,2.7-5.9,3.4
			c-1.2,0.4-2.7,1.5-3.9,2.2c-0.9,0.6-2,0.8-2.9,0.9c-1.2,0.1-2.5,1.8-3.7,2.4c-0.2,0.1-0.7,0-1-0.2c-0.5-0.1-1-0.2-1.5,0.5
			c-1.2,0.9-2.7,1.4-3.7,1.9c-0.7,0.3-1.2,0.6-1.7,1c-2.7,2.3-5.6,3.5-8.3,5.3c-0.5,0.4-1.2,0.6-2,0.8c0,0-0.2-0.4-0.7-0.5
			c1.2-0.9,2.2-1.1,3.2-1.7c0.8-0.6,2-0.8,2.9-1.4c1-0.6,2-1.4,2.7-2.1c0-1-0.5-0.9-0.7-0.8c-3.4,0.3-6.6-0.3-9.6-1.2
			c-0.7-0.3-1.5-0.3-2.2-0.4c-1.7,0-3.4,0.3-5.2,0.2c-0.7,0.2-1.2,0.1-1.7-0.3c-2-0.7-4-1.4-5.7-2.4c-1.7-1-3.4-2.3-4.5-3.9
			c-0.8-1.2-1.7-2.6-2.7-3.8c-0.2-0.2-0.5-0.6-0.7-0.8c-0.7,0.2-0.7,1-0.5,1.2c0.3,1.5,0.8,2.9,1,4.3c0.8,2.6,2,4.6,3.3,6.5
			c0.2,0.4,0.3,1,0.5,1.1c-0.7,0.2-1-0.5-1.5-0.6c-2.2-3.2-4.1-6.9-4.5-11c-0.3-2.7-0.3-5.6-1-7.9c-0.3-1,0-2.1,0-3.1
			c-0.1-2.6-0.7-5.9-1.1-8.4c-0.2-1.2-0.4-2.3-0.3-3.5c0.1-1.4,0.2-2.9-0.5-4c0.5-1.9,0-3.3,0.2-5.2c0.2-2.1,0.2-4.2,0.2-6.2
			c0-2.8,0.9-5.4,1.9-8.2c0.5-1.4,1.2-2.9,1.7-4.3c0.2-0.6,0.5-1.2,0.7-2c1.2-5.7,3.9-11.5,6.1-17.2c0.5-1.4,1.2-2.9,1.5-4.5
			c0.7-3,2.4-6,3.4-8.8c0.7-1.5,1.8-3,2.4-4.5c0.8-1.6,1.4-3.3,2.2-4.9c0.7-1.4,1.4-2.9,2.2-4.1c1-1.6,1.5-3.7,2.4-5.7
			c0.5-0.9,1-1.8,1.5-2.7c1-1.5,1.7-3.2,2.2-4.9c1-3.1,1.7-5.8,3.9-8.4c0-0.3,0.2-0.6,0.2-0.8c0.7-3,3-5.3,4.4-8
			c0.2-0.6,0.5-0.9,0.7-1.5c1.7-1,3.5-1.2,5-0.5c0.7,0.3,1.5,0.6,2.2,0.9c2,0.7,3.7,1.5,5.7,2.3c1.2,0.4,2.2,0.9,2.7,2.3
			c0,1.3,1.2,1.7,2.5,2.1c0.5,0.4,1.2,0.4,1.7,0.8c2,1,2.2,2.4,1.3,4.9c-0.2,0.6-0.5,1.1-0.7,1.5c0,0.3-0.2,0.3-0.2,0.6
			c-1.2,2.9-2.2,5.9-3.4,8.8c0,0.3,0,0.5,0,0.8c0,2.3-1.2,4.6-2,6.8c0,0.3,0,0.3,0,0.3c-1.7,1.5-1.7,3.5-2.5,5.2
			c0,0.5-0.2,0.8-0.5,1.4c-1,2-2,4.3-3.2,6.5c-0.2,0.6-0.5,1.5-0.7,2.2c-0.2,0.6-0.5,1.1-0.7,1.7c-1.2,1.6-1.5,3.2-2,4.9
			c-0.2,0.8-0.5,1.7-0.7,2.5c-0.5,2.2-2,4.1-2.7,6.3c-0.2,0.6-0.5,0.9-0.5,1.4c-0.5,2.2-1.5,4.5-2.2,6.5c-0.2,0.3-0.2,0.3-0.2,0.3
			c-1.5,3.5-2.7,6.8-3.4,10.1c0,0.5-0.2,1.1-0.5,1.4c-1.7,2.5-2.4,5.5-3.7,8.2c-0.2,0.6,0,1.3,0,1.8c0,0.8-0.2,1.6-0.7,2.2
			c-1,0.8-0.9,1.8-0.7,2.5c0.3,0.9,0.8,1.8-0.2,3.1c0,0.3,0,0.5,0,0.5c0.5,1.6,0.1,3.4,0,5.1c-0.1,2,0.2,4.4,0.3,6.3
			c0.1,1.2,0.3,2.2,0.3,3.5c0,1,0.3,1.7,0.5,2.7c0.8,1.8,0.8,1.8-0.7,4.3c0.8,2.1,2.7,3,3.7,4.5c1.5,0.1,2.7-0.8,3.9-1.7
			c2.2-1.4,4.4-3.1,6.6-5c4.2-3,7.6-7.1,10.3-11.7c1.7-2.5,3.3-5,4.7-7.5c1.3-2.3,2.2-4.4,3.2-6.8c1.2-2.9,2.2-5.7,3.2-8.8
			c0.7-1.5,1-2.8,1.5-4.2c0-0.3,0-0.5,0-0.5c1.5-4.5,2.9-8.7,4.4-13.1c0-0.3,0.2-0.6,0.2-0.6c2.5-3.5,2.9-7.1,3.9-10.4
			c0.2-1.1,0-2.3,0.2-3.1c0.3-1,1-2.1,1.5-2.9c0.5-1.1,1.2-2.2,1.5-3.2c0.4-1.6,1-3.5,1.2-5.4c0.2-0.6,0-1.2,0.5-1.9
			c0.7-1.7,1.1-3.4,1.5-5.2c0.3-1.7,0.9-3.6,1.5-5.4c0.4-1.4,0.2-2.6,1.5-3.9c0,0,0.2-0.6,0.2-0.8c0.5-1.4,1.1-4.6,1.7-7
			c0.5-2.1,1.7-4.2,1.7-6.5c0-1,0.7-2.5,1.2-3.6c1.5-3.4,2.7-6.5,3.5-10c0.2-1.3,1-2.5,1.5-3.7c0.2-0.3,0.5-0.9,0.7-1.5
			c0.7-2.4,2-4.8,3-7.1c0.2-0.6,0.5-1.1,0.7-1.7c1.2-2.1,1.2-2.1,1.2-4.1c0-0.2,0.2-0.6,0.2-0.6c2-1.5,3-3.8,4.2-5.6
			c1-1.5,2-3,3.2-4.6c0.7-1.2,1.7-2.2,2.7-3.2c0.7-0.7,1.5-1.4,2-2.5c0.5-1.1,1.5-1.9,2.7-2c0,0.5,0,1,0,1.2c0,1,0,2-0.2,3.5
			c-1.2,1.8-1.5,4.1-2.5,6.4c0,0.5,0.2,0.9,0.2,1.2c1,0.2,1.5-0.2,2-0.8c0.6-0.7,1-1.3,1.7-2c0-0.2,0.2-0.3,0.5-0.4
			c1,1.5-1,4.1-0.5,4.8c0.2,0.3,1.2,0.6,2,0.9c-0.5,2.6-0.7,4.9-1.2,7.3c0.5,0.1,0.7,0.3,1.2,0.4c-0.7,2.7-0.7,5.4-2.7,7.7
			c-1.5-0.3-0.2-2.4-1.5-3c-0.7,1.7-0.7,2.9-0.7,4.4c-0.7,0.7-1.2,1.6-1.7,2.2c-0.5,0.6-0.7,1.4-1.2,2.1c-0.7,1.2-1,2.3-0.7,3.4
			c0.2,0.2,0.7,0.5,1.2,0.6c0.2,0.2,0.7-0.5,1-0.8c0.7-0.5,1-1.3,1.2-2.1C268.4,83.3,268.6,82.2,269.1,81.1z M187.7,210.1
			c0.2-0.1,0.2-0.1,0.2-0.3C187.9,209.9,187.8,210,187.7,210.1z M249.7,168.8c0-0.2,0-0.5-0.2-0.7c-0.2,0.3-0.7,0.7-0.7,1
			c0,0.2,0,0.5,0.2,0.4C249.2,169.7,249.7,169.3,249.7,168.8z M251.4,152.8c-1,0.6-1,1.3-1.2,2.1c0,0,0.2,0.4,0.5,0.3
			c0,0,0.5-0.2,0.5-0.4C251.6,154.2,251.9,153.4,251.4,152.8z M253.1,160.5c0-0.2-0.2-0.4-0.5-0.3c-0.5-0.1-0.5,0.4-0.5,0.6
			c0,0.2,0.2,0.4,0.5,0.3C252.9,161.1,252.9,160.8,253.1,160.5z M258.3,147.7c0.5-1.1,1-2,1-2.5c-0.2-1.4,0.7-3-0.3-4.1
			c-0.5,0.6-1.2,1.4-1.5,1.7C257.8,144.4,258,146.1,258.3,147.7z M260.2,139.4c0.2-0.3,0.2-0.3,0.5-0.6c-0.2,0.1-0.2,0.1-0.2,0.1
			s-0.2,0.1-0.5,0.2C260,139.3,260.2,139.2,260.2,139.4z M264.4,78.7c0.7-1.2,0.7-1.9,0-2.7c-2.5,1.4-2.2,3.1-2,5.5
			C263.2,80.3,263.9,79.3,264.4,78.7z M265.4,105.7c-0.2,0.3-0.5,0.9-0.7,1.5c0.2-0.1,0.2-0.1,0.2-0.1
			C265.2,106.5,265.2,106,265.4,105.7z M266.2,103.5c-0.7,0.5-0.7,1-0.7,1.7C265.7,104.6,265.9,104,266.2,103.5z M265.4,105.7
			c0-0.2,0-0.2,0-0.5C265.4,105.2,265.4,105.4,265.4,105.7z M270.1,79.8c0.2-0.1,0.2-0.3,0.7-0.7c-0.5,0.1-0.7,0-0.7,0
			c-0.2,0.1-0.2,0.3-0.5,0.6C269.9,79.9,270.1,80.1,270.1,79.8z"/>
		<path class="st0" d="M377.2,51.1c0.2,0.9,0.2,1.6,0,2.6c-0.3,1-0.5,1.8-0.5,2.8c-0.5,2-1.3,4.1-2.5,5.9c-0.5,1.1-0.7,2.1-0.5,3.2
			c0.3,1.3,0,2.9-0.8,4.5c-0.7,1.4-0.7,2.9-1,4.3c-0.2,1,0.7,1,1,1.7c-0.2,0.3-0.7,0.4-1,0.5c-1.3,3.2-2.5,6.1-3.8,9.4
			c-0.5,0.8-0.8,1.6-1,2.7c-0.8,2.1-2,4.4-3,6.5c-0.3,0.8-0.7,1.4-0.5,1.8c0.3,0.7-0.3,1.5-0.8,2.1c-1.5,0.9-2.2,2-2.2,3.5
			c0,0.2-0.3,0.5-0.5,1.1c-0.7,1.4-1.5,2.9-2,4.4c-0.5,1.3,0.5,2.3,2,1.6c0.2-0.1,0.7-0.2,1.2-0.3c0,0.2,0.2,0.4,0.2,0.7
			c-0.5,1.3-1.2,2.7-1.8,4.1c-0.3,0.8,0,1.7-1,2.4c-0.3,0.8-0.5,1.6-0.5,2.3c0.5,1.1,0,2.4-0.5,3.7c-0.2,0.3-0.5,0.9-0.5,1.3
			c0.2,1.1,0,2.6-0.3,3.9c-0.2,0.3,0,0.7-0.3,1.3c-0.2,0.3-0.7,0.5-1.2,0.8c0.2,0.2,0.2,0.7,0.5,0.8c0,0.2,0.2,0.4,0.5,0.8
			c-1,0.3-2.1,0.7-2.5,1.2c-0.3,0.3-0.3,1-0.5,1.6c0,0.2,0.2,0.4,0.2,0.4c0.5,1.5,0,3.1-1,4.6c-0.5,0.9-0.7,1.7-0.8,2.6
			c0,1-0.5,2.1-0.8,3.3c-0.5-0.1-0.2-0.6-0.2-0.9c0.3-1.3,0.5-2.3,0-3.4c-0.2-0.4,0-1,0-1.4c0-0.5,0.3-1,0.3-1.8
			c-0.7,0.7-1.2,1.3-1.2,2.3c0,0.7-0.2,1.8-0.5,2.6c-0.3,0.9-1,2-0.5,2.8c-0.5,0.9-0.7,1.8-1,2.5c-0.4,0.8-0.7,1.4-0.3,2
			c0,0-0.2,0.6-0.3,0.8c-0.5,0.4-1,0.8-1.2,1.1c-0.5,1.1-0.5,2.1-1,3.4c0,0.2-0.5,0.6-1,1c0.2,1.1-0.5,2.8-0.3,4.2c0,0,0,0-0.2,0.1
			c-1,1.5-1,3.2-1.7,4.6c0,0,0,0-0.2,0.1c-0.2,0.1-0.5-0.1-0.5-0.3c0-0.5-0.2-0.9-0.2-1.4c-1,1-2.2,1.6-2.5,3.2
			c0,0.2-0.2,0.6-0.5,0.6c-1,0.8-1,1.8-1,2.7c0,0.5,0.2,0.6,0.2,1.1c-0.2,0.6-0.5,1.4-0.7,2.2c-0.7,0.2-1.4,0.9-1.5,1.7
			c-0.1,0.7-0.9,1.4-1.5,1.9c-0.7,0.6-1.7,1.5-2.7,2.1c-0.5-0.1-0.5-0.3-0.5-0.8c0-1.9,0.3-4,0.3-5.9c0-1.9-0.2-3.8-0.2-5.7
			c0-1.2,0-2.4,0-3.9c0-0.5,0.3-1.3,0.5-1.8c0.2-0.6,0.3-1,0-1.7c0-0.1,0-0.1,0-0.2c0-2.9,0-5.6,1-8.5c0.5-1.6,0.8-3.1,1.5-4.6
			c0.2-0.3,0.2-0.6,0.3-1c0.8-3.6,1.5-7.2,2.5-10.9c0-0.7,0.5-1.4,0.7-2.2c-0.2-0.2-0.2-0.4-0.5-0.6c-0.7-0.7-1-1.6-0.2-3.1
			c0.2-0.3,0.2-0.8,0.3-1c-0.2-0.7-0.2-1.4,0-2.2c0.5-2.8,1-5.7,1.3-8.1c0.2-1.7,0.5-3.6,0.8-5.1c0.6-4.1,1.3-8.3,2-12.7
			c0-0.5,0-0.7,0-1.2c-1.5,0.9-2.4,1.9-2.7,3.4c-0.4,1.8-1.5,4.1-2.5,5.8c-1.3,2.3-1.7,4.5-2,6.4c-0.2,1-0.3,1.8-0.5,2.6
			c0,0.2-0.2,0.8-0.5,1.1c-0.4,0.5-1.7,0.7-2.7,1.3c-0.7,0.9-1.5,2.1-2.2,3.1c-1,0.3-1.7-0.2-2.7-0.4c-0.5,0.9-1.2,1.6-2,2.5
			c-0.2-0.2-0.2-0.4-0.5-0.6c-0.7,0.2-1.2,0.6-2,0.8c-0.5,0.1-1,0.1-1.5,0c-1,0.5-2.2,2.2-2.5,2c-0.3-0.2-0.5-1.8-0.7-2.7
			c-0.3-1.3-1-1.7-2.2-2c-1,1.3-2,2.3-3.2,3.6c0,0.5-0.2,1.3-0.3,2c-0.7,0.5-1,0.1-1.5,0c-1-0.7-2.2-1.1-3.5-1.2c-0.4,0-1-0.2-0.7-1
			c0.2-0.3,0.5-0.4,1-0.8c0-0.2,0.2-0.8,0-1c-0.2-0.4-0.5-0.8-0.5-1.6c0-0.2-0.2-0.4-0.7-0.5c-0.2-0.2-0.5,0.4-0.7,0.7
			c-0.1,0-0.1,0-0.2,0.1c-0.5-0.6-1-1.5-1.2-2.3c-0.2-0.6-0.6-1.1-1-1.7c-0.5-0.7-1.1-1.8-1.2-2.6c-0.2-1.3-1-2.4-1.7-3.4
			c-0.2-0.4-0.2-0.7-0.2-1.2c0-0.5-0.2-0.9-0.5-1.3c0-0.5-0.2-0.7-0.5-1.1c0-0.5,0-1-0.2-1.2c-0.2-0.4-0.5-0.8-1-0.7
			c-0.7,0.2-1,0.8-1.2,1.3c-1,2.3-1.2,4.5-2,6.7c0,0.2,0,0.5-0.2,0.8c-0.2,0.8-1,1.8-1.2,2.8c0,0.7-0.2,1.8-0.5,2.6
			c-1,2-1.7,3.7-2.5,5.7c0,0.2-0.2,0.6-0.2,0.6c-1,0.8-1,1.8-1.2,2.6c-0.5,1.1-0.4,2.3-1,3.3c-0.5,0.8-0.7,2.2-1.2,3.1
			c0,0.2-0.2,0.6-0.2,0.8c0,1.5-1,2.3-1.7,3.5c-0.5,0.6-1,1.3-1.7,2.3c0.2,0.7,0.5,1.1,0.5,1.6c0,0.5-0.2,1.1-0.5,1.4
			c-0.2,0.6-0.5,0.9-1,0.8c-0.5-0.1-0.7,0.5-0.7,1c0.2,0.4,0.2,0.7,0.2,1.2c0.2,0.2,0.5,0.1,0.7,0c0,0.2,0.2,0.7,0,0.7
			c-0.7,1-1,1.8-0.5,2.6c-0.2,2-0.7,4.2-2.2,6.4c-0.5,0.6-1,1.3-1,1.8c0,1-0.7,1.5-1,2.3c-0.2,0.3-1,0.6-1.5,0.7c0-0.7,0-1,0-1.5
			c0.2-1.3,0.5-2.6,0.7-3.7c0-0.5,0-1-0.2-1.4c-0.5-0.8-0.3-1.9,0-3c0.2-0.8,0.5-1.9,0.5-2.6c0.2-0.1,0-0.5-0.2-0.4
			c-0.2,0.1-0.5,0.2-0.5,0.4c-0.5,1.1-0.7,2.3-1,3.3c-0.2,0.5-0.2,1.1-0.5,1.9c0,0.2-0.2,0.3-0.2,0.6c-0.2,2.5-1.2,5.1-2.2,7.6
			c-0.5,1.4-0.5,2.9-1,4.5c-0.2-0.4-0.5-0.6-0.5-1.1c-0.2-0.4,0-1.2,0-1.7c0-0.5-0.2-0.7-0.7-0.5c-0.5,0.2-0.5,0.7-0.5,0.9
			c0,2-0.7,3.9-0.7,5.7c0,0.5-0.5,1.1-0.7,1.7c-0.5,0.9-0.5,1.7,0,2c0.5,0.3-0.2,1.6-0.2,2.1c-0.2,0.1-0.7,0.2-1,0.1
			c-0.7,1.7-2,5.3-1,7.3c0.1,0.1,0.5,0.1,1,0.2c-0.2,0.6-0.2,1.1-0.5,1.9c-0.2-0.2-0.5-0.1-0.7-0.3c-0.5,0.4-0.5,0.9-0.5,1.4
			c0,1.7-1.2,3.1-1.7,4.8c0,0-0.5,0.2-0.7,0.2c0,0.2-0.2,0.6-0.2,0.6c0.7,2-0.7,4.2-0.5,6.1c0,0.2-0.2,0.6-0.5,0.7
			c-0.5,0.2-0.5,0.7-0.7,1c-0.2,1.1-0.5,1.9-0.7,3c-0.5-0.1-1-0.2-1.5-0.3c0-0.5,0-0.7,0-1.2c0-1.2,0.2-2.8,0-4
			c-0.2-1.2,0-2.5,0.2-3.8c0-0.7,0.2-1.6,0-2.2c-0.3-0.9-0.2-1.7,0-2.7c0.3-1.5,0.2-3.3,0.2-4.8c0-0.5,0-1,0.2-1.6
			c0-0.5,0.2-0.8,0-1.2c-0.2-2.4,0.5-4.6,1-7.3c0.5-2.9,1.4-5.7,1.5-8.4c0.1-1.2,1-2,1-3c0-0.7-0.3-1.7,0-2.7
			c0.4-1.6,0.5-3.4,1.2-5.1c0.2-0.3,0.2-0.6,0.2-0.8c-0.2-2.4,0.4-5,0.7-7.4c0.4-3.2,1.7-7.5,2-11.3c0.2-0.6,0.2-1.3,0.7-2
			c0.2-0.3,0.2-0.6,0.2-0.8c0.5-2.4,1-5,1.5-7.6c0-0.2,0-0.5,0-0.5c-1-1.2,0.2-2.8,0.2-4.3c0-0.2,0.2-0.6,0.5-0.9c1-1,1-2,1.5-3.2
			c0.7-3.2,1.7-6.4,2.5-9.6c0.2-1.1,0.5-1.9,0.7-2.9c0-0.2,0-0.5,0-0.5c-0.7-1-0.1-2.3,0.2-3.5c0.4-1.6,1.1-3.3,1.5-4.9
			c0.6-2.6,1.2-5.5,2-8.5c0.2-0.6,0.4-0.9,0.5-1.4c0.4-1.7,0.9-4.6,1.5-6.8c0.8-2.9,1.5-5.8,2.2-8.5c0.2-1.1,0.5-1.9,1-2.7
			c0-0.2,0.2-0.6,0.5-0.6c1.5-0.9,2.9-1.4,4.2-1.7c1.6-0.3,3.5-0.7,5-0.4c0.2,0.2,0.7,0,1,0c2-0.3,3.5,0.3,4,1.6
			c0.5,1.3,1.2,1.4,2.5,0.8c0.2,0.4,0.5,0.8,1,1.2c0.7,1,1.7,1.7,3.5,1.7c1,0,1.9,0.5,2.5,1c0.8,0.7,1.7,1.7,3,2.1
			c1.2,0.4,2,0.9,1.5,2.5c0.7,0.5,1.7,0.7,1.7,1.7c0.7,1,1.5,1.8,2,3.1c0.7,2,1.5,4,2.2,5.9c0,0.2,0,0.5-0.2,0.8
			c-0.5,1.1-0.1,1.9,0.5,1.8c0.9-0.1,1.5,0.4,1.7,1c0.2,0.4,0.5,1.1,0.7,1.7c0.5-0.1,0.7-0.5,1-0.8c0.7-0.9,1.7-1.9,2.5-2.9
			c0.8-1,1.8-2.4,2.7-3.2c0.7-0.6,1.5-1.6,2-2.3c1.5-2.1,2.7-4.2,4.2-6.3c0.2-0.3,0.7-0.9,1.2-1.6c3.5-3.4,6.2-7,9.2-10.7
			c1.5-1.9,3-3.5,4.5-5.3c0.7-0.7,1.2-1.5,1.5-2.6c0.3-1,1-2,2-2.7c0.7-0.4,1.2-1,1.5-1.8c0.2-0.3,0.3-0.5,0.5-0.9
			c1-0.5,1.2-1,1.5-1.8c0.5-1.1,1-1.1,1.7-0.7c0.6,0.3,1.4,0.4,2.2-0.1c0.5-0.3,1.2-0.6,1.7-0.7c0.5-0.4,0.7-0.4,1-0.3
			c0.7,0.3,1.5,0.1,2.2-0.3c0.7-0.4,1.7-0.9,2.5-1.1c1.7-0.2,3.2-0.1,4.7,0c0.7,0.1,1,0.5,1,0.9c2,0,1.9,1.1,2.7,1.7
			c0.6,0.5,3.7-1.2,5.2,0.1c0,0.5-0.3,1-0.3,1.5C377.2,50.4,376.9,50.9,377.2,51.1z M267.9,162.3c-0.5,0.4-0.5,0.6-0.5,1.1
			c0.1,0.1,0.1,0.1,0.2,0.2c0.1-0.1,0.1-0.2,0.2-0.3C267.9,163.1,267.9,162.6,267.9,162.3z M269.6,153.6c-0.5,0.4-0.7,0.5-0.7,0.7
			c-0.2,1.1-0.2,1.8-0.2,2.8c0,0.2,0,0.2,0.2,0.2c0.1,0,0.1,0,0.2-0.1C269.6,156.1,269.6,154.9,269.6,153.6z M274.6,142.5
			c-0.5,0.9-0.5,0.9-0.2,1.6C274.8,143.4,274.8,143.1,274.6,142.5z M290.1,125.2c-1.5,4.4-3,9-4,13.5c-0.2,1.1-0.5,2.4-0.7,3.7
			c-0.3,1.7-0.6,3.4-1.2,5.3c-0.6,1.7-0.5,3.6-1.2,5.6c0,0.7,0,1,0.7,1.2c0.2-0.1,0.7,0,1.2,0.1c0-0.5,0.2-0.8,0.2-1.1
			c-0.2-0.7,0-1.5,0.5-2.1c0.7-1.5,1-2.8,2-3.8c0.2-0.3,0.2-0.8,0.5-1.4c0-0.5,0.2-1.3,0.5-2.1c0.2-0.8,0.5-1.9,0.7-2.9
			c0.2-1.1,0.3-2.1,0.5-3.1c0.3-1.3,0.7-2.4-0.2-3.4c0-0.2,0-0.5,0-0.7c0-1.5,1-3,1.5-4.1c1-2,1-3.7,0.3-5.5c0-0.2,0-0.7-0.5-0.6
			C290.6,124.3,290.4,124.6,290.1,125.2z M308.4,121.9c0-0.2-0.2-0.4-0.5-0.3c-0.2-0.2-0.5-0.1-1,0.1c0.2,0.4,0.2,0.7,0.2,0.9
			c0.2,0.4,0.7,0.3,1-0.1C308.4,122.4,308.6,121.8,308.4,121.9z M342.5,158c0-0.2,0-0.5-0.2-0.7c0-0.2-0.5,0.4-0.5,0.6
			c0,0.5,0,0.7,0,1.7C342.2,158.8,342.5,158.2,342.5,158z M351.9,134.2c0,0.5-0.2,0.6-0.3,0.8c0.1,0.1,0.1,0.1,0.2,0.2
			c0,0,0,0,0-0.2C351.9,134.9,351.9,134.7,351.9,134.2z M354.7,118c-0.5,0.4-1,0.5-1.2,0.8c0.2,0.7,0.5,1.3,1,1.9
			C355.2,119.6,355,118.9,354.7,118z M358,100.5c-0.5,0.1-0.7,0.2-0.7,0.4c-0.5,1.3-1.2,2.9-1.5,4c-0.4,1.3-0.3,2.7-0.8,4.1
			c-0.2,0.3,0,0.7,0.2,1.6c0.5-1.8,1.1-3.6,1-4.8c-0.1-0.9,0.3-2.1,1-2.9C357.9,102.2,357.8,101.6,358,100.5z M358.5,112.4
			c0,0.2,0,0.2,0,0.5c0.1-0.1,0.1-0.2,0.2-0.3c0-0.2,0-0.2,0-0.5C358.5,112.4,358.5,112.4,358.5,112.4z M363,94.2
			c-1-0.5-1.7,0.5-2.2,1.1c-0.7,0.9-1,2.2-0.5,3c1-0.8,1.7-1.4,2.5-2.1C362.8,95.4,363,94.9,363,94.2z M361.3,86.5
			c0,0.2,0.2,0.2,0.2,0.4c0.2-0.1,0.5-0.4,0.5-0.4c0-0.2-0.2-0.4-0.2-0.4S361.6,86.2,361.3,86.5z M365,88.8
			c-0.1-0.1-0.1-0.1-0.2-0.2c0-0.2-0.2-0.2-0.5-0.1c0,0.5-0.3,0.8-0.5,1.3c0.2-0.1,0.2,0.2,0.5,0.1C364.5,89.7,364.8,89.1,365,88.8z
			 M368.1,76.8c-0.2-0.2-0.2-0.4-0.5-0.3c-0.5-0.1-0.5,0.4-0.7,0.7c0,0.2,0.2,0.4,0.5,0.3C367.6,77.1,367.8,77.1,368.1,76.8z
			 M370,77.7c-1.5,1.3-1.2,2-1,2.9C369.8,79.9,369.8,79,370,77.7z M370.6,67.3c-0.5,0.6-0.7,0.9-0.7,1.1c-0.2,0.3-0.3,0.5,0,0.7
			c0,0.2,0.2,0.2,0.2,0.2c0.2-0.3,0.5-0.6,0.5-0.8C370.6,68.2,370.6,68,370.6,67.3z"/>
		<path class="st0" d="M468.9,41.4c0,0.5-0.3,1-0.5,1.2c-0.3,1-0.5,1.9-0.8,2.9c-1,0.2-1.2,0.2-1-0.3c0-0.7,0-1.2,0-1.9
			c0,0-0.2-0.2-0.5-0.4c-0.2,0.1-0.3,0.2-0.5,0.3c-0.2,0-0.3,0.3-0.3,0.3c-0.8,1.5-1.5,2.8-2,4.3c-0.3,0.5-0.3,1.2-0.5,1.7
			c0,0.2,0,0.7-0.3,0.7c-0.7,0.6-0.8,1.3-1,2.3c-0.8,2.7-1.3,5.5-2.6,8.3c-0.8,1.1-1,2.7-1.5,3.7c-0.4,0.8-1.3,1.8-2,2.4
			c-0.7,0.6-1.3,1.4-2,2c-0.3,0.3-0.5,0.8-0.8,1.3c-0.8,1.8-2,3.2-3,4.5c-0.5,0.6-1,1.1-1.3,1.6c-0.3,0.5-0.4,1,0,1.4
			c0.5,0.5,0.1,1.1-0.5,1.7c-0.5,0.5-0.8,1.3-1.5,1.5c0-0.2,0-0.5,0-0.5c0.3-0.5,0.3-0.7-0.2-0.9c-0.5,0.1-0.5,0.3-0.7,0.8
			c-0.3,0.5,0,0.7,0.5,0.8c-0.5,0.6-1,0.9-1.5,1.5c-1,0.9-2.2,1.8-2.7,3.1c-1,0.2-1.7,0.4-2.7,0.6c-0.5,0.6-1,1.1-1.5,1.7
			c-0.2,0.3-0.7,0.9-1,0.9c-1.2,0-2.1,1.1-3,1.8c-1,0.8-1.9,1.5-3,2c-0.9,0.5-2.2,1.9-3.2,2.8c-1.5,1.7-3.2,3.1-5,4.6
			c-0.5-0.4,0.8-1.3-0.2-1.8c-0.5,0.6-1,0.9-1.2,1.5c-0.7,0.6-1,1.4-2,1.6c-0.2,0.1-0.7,0.6-1,0.9c-0.5,0.6-1.2,1.2-1.7,1.8
			c-0.2,0.1-0.7,0.4-1,0.5c-1.5-0.4-2.5,1.3-4,1.4c-0.7,0.4-1.2,0.8-1.7,1.4c-1,0.7-1.7,1.1-2.7,1.6c-0.7,0.2-1.7,0.7-2.2,1.5
			c-0.5,0.4-1.2,0.8-1.7,0.9c-1.2,0.8-2.5,1.6-3.2,2.7c-0.3,0.8-0.5,1.5-0.8,2.6c-0.7,0-1.2,0.1-2,0.3c-0.5,0.1-1,0.3-1.7,0.4
			c0.7-0.9,1.2-1.5,1.7-2.3c0.2-0.3,0.3-0.5,0-0.7c0-0.2-0.5-0.3-0.7-0.3c-0.2,0.3-0.7,0.4-1,0.7c-0.7,0.7-1.2,1.3-2,1.7
			c-1,1-1,1.7,0,2.6c-0.2,0.3-0.5,0.6-0.7,0.7c-0.7,0.7-1,1.2-1.2,1.7c0,0.5-0.3,1.3-0.3,1.7c-0.3,0.8,0,1.4-0.3,2
			c-0.3,0.5-0.7,1.1-1,1.7c-0.3,0.5-0.5,1.1-0.5,1.6c0.2,1.4-0.3,2.7-1,4.1c-0.5,1-0.7,2.4-1.3,3.7c-0.4,1.1-0.5,2.3-0.8,3.5
			c-0.2,1-0.3,1.7-1.2,2.5c-0.2,0.3-0.5,0.6-0.5,0.8c-0.3,0.8-0.5,1.6-0.8,2.3c0.2,0.2,0.5,0.3,1,0.4c-0.3,0.8-0.5,1.3-0.8,1.9
			c-0.5,1.1-0.8,1.9-1,2.9c0,0.5-0.5,1.1-0.7,1.4c-1,1-1.2,1.8-1.5,2.8c-0.5,2-1,4.1-1.8,6.5c0,0.2-0.3,0.8-0.5,1.1
			c-1,1-1.2,2.7-1.7,3.8c-0.4,0.8-0.8,2.1-1.7,2.9c0-0.7,0-1.2,0-1.9c-1.2,0.6-1.2,0.6-0.8,2.1c0.2-0.1,0.5-0.1,0.7-0.2
			c0,0.1,0,0.1,0,0.2c0-0.1,0-0.1,0-0.2c-0.5,0.9-1.2,1.3-1.5,2.3c-0.7,1.2-1.5,2.3-2.2,4c-0.2-0.9,0.5-2.1-0.5-2.5
			c-0.7,1.2-0.8,2.1-1,2.9c-0.5,1.1-1,2-2.2,2.6c0.2-0.6,0.3-1-0.2-1.6c0,0.2-0.2,0.3-0.2,0.6c-0.5,0.6-0.5,1.6-1,2.2
			c-0.2,0.6-1.2,0.8-1.5,1.4c-0.5,1.1-0.9,2.3-1.2,3.2c-0.4,1-0.6,2.1-1,3.2c-0.3,0.9-0.5,1.8-1.5,2.6c-0.5,0.6-0.7,1.2-1,1.7
			c-0.7,0.2-1.2,0.4-1.7,0.8c-0.5,0.2-0.7,0.9-1.5,0.7c-0.7-1.7-0.7-3.9-0.5-6.1c0.3-2.2,0.3-4.4,0.5-6.4c0-0.7,0.3-1.3,0.3-1.8
			c0.5-1.6,0.8-3.1,1-4.9c0.2-0.3,0.3-0.8,0.5-1.1c1.2-2.5,1.5-4.8,2.3-7.4c0.3-0.8,0.3-1.5,0.5-2.3c1.3-4.4,2.5-9,3.8-13.3
			c1.2-3.9,2-7.8,3.3-11.7c0.5-1.6,1.2-3.5,1.5-5.2c0.5-2.7,1.5-5.8,2.3-8.5c1.1-3.9,2.3-7.8,3.3-11.6c0.5-2,1-3.8,1.5-5.9
			c0.3-0.5,0.3-1,0.8-1.9c0.3-0.5,0.5-1.3,0.5-2c0.3-1.3,0.8-2.3,1.3-3.9c0,0-0.2-0.4-0.2-0.9c1-1.5,1.5-3.3,2-5
			c0-1.2,0.5-2.5,1-3.6c0.8-2.1,1.3-3.9,2-6c0-0.2,0.3-0.8,0.3-1c-0.5-1.5,0.3-2.9,0.5-4.4c1-3.6,2.7-7.1,3.8-10.4
			c0.8-2.4,1.5-5.4,2.3-7.9c-0.7-1.5-1.2-3-1.9-4.5c-0.5-0.6-0.3-1.4,0-2.1c0.3-0.7,0.5-1.3,0.8-1.8c1.8-2.3,3-4.8,5.3-6.9
			c0.5-0.4,0.8-1.4,1-2.1c1-3.1,2-6.2,3.1-9.5c0.5-1.5,1.5-3.2,3.5-3.6c0.2-0.1,0.8-0.7,1.2-1c0.9-0.5,2.1-1,3-0.7
			c0.9,0.3,2.4,0.8,3.5,1.1c0.9,0.3,2.2,0.3,3.2-0.7c0.8-0.7,1.7-1.5,2.7-2c2-0.9,4-1.8,6-2.2c0.2-0.1,0.5-0.3,0.7-0.6
			c2.5-1.7,5-2.4,7.5-3.1c3-0.8,5.7-1.1,8.7-1.6c2.2-0.4,4.5-0.6,6.7-0.7c2.2-0.2,4.8,0.2,6.9,0.2c1.4,0,3,0.4,4.4,1.1
			c1,0.5,1.7,1.1,2.2,2.2c0.5,1.1,1.5,2.1,2.4,3.1c0.5,0.6,0.7,1.3,1.2,1.9c1,0.5,1.5,1.8,2.7,2.4c1,0.1,1,1,1,1.7
			c0.2,0.9,0.2,1.8,0.5,2.7c0.5-0.1,1-0.2,1.5-0.2c-0.3,1.2-0.4,2.3-0.3,3c0.1,1,0.4,2.1,0.5,2.9C468.8,40,469,40.7,468.9,41.4z
			 M370.7,157.5c0,0,0-0.2,0-0.5c-0.2,0.3-0.5,0.4-0.5,0.6c0,0.2,0,0.5,0,0.7C370.5,158.1,370.7,157.7,370.7,157.5z M374.5,141.9
			c-1.2,1.3-2,2-2,2.7c0,1.7-1,3.4-1.5,5.2c0,0.2,0,0.2,0.2,0.4c1-0.5,1.5-1.4,1.7-2.4c0.3-1.2,0.5-2.5,1.3-3.9
			C374.5,143.5,374.5,142.8,374.5,141.9z M372.5,150.1c-0.5,1.1-1.5,2.6-1.3,4.4c0.7-1.6,1.4-2.9,1.7-3.8
			C373.1,150.1,373.2,149.9,372.5,150.1z M378.3,133c0-0.2,0-0.5,0-0.7c-0.5-0.8-1-1.6-1.5-2.7c-1.7,1.9-1,3.9-2,5.8
			c0.2,0.2,0.5,0.1,0.7,0.3c-0.5,0.9-1.1,1.5-1.2,2.3c-0.3,1.4-1,2.9-2.2,4.2c-0.2,0.3-0.5,1.1,0.2,1.4c0.5-0.6,0.7-1.2,1-1.7
			c0.2-0.3,0.7-0.7,1.2-0.8c1.2-0.1,1.7-0.8,2-2C376.9,137.2,377.7,135,378.3,133z M377.3,155.6c0,0.1,0,0.1,0,0.2
			C377.3,155.7,377.3,155.7,377.3,155.6z M380.9,137.2c0.3-0.5,0.7-1.2,0.8-1.6c0.3-0.8,0.2-1.9,0.5-2.8c0.4-1,0.8-2.2,1-2.9
			c0.1-0.5,0.5-1.1,0.5-1.8c0-0.5,0-1,0-1.4c-0.2,0.1-0.5,0.1-0.5,0.1c-0.5,1.1-0.9,2.4-1.5,3.3c-0.8,1.2-1,2.4-0.8,3.3
			c0.2,0.2,0,0.5,0,0.5c-0.8,1.6-1,2.2-2.5,3.5c0.7,0.5,0.2,1.4,0,2.1c-0.3,0.8-0.5,1.8,0,2.6c1.2-1.1,2.2-2,2-3.4
			C380.4,138.3,380.9,137.7,380.9,137.2z M379.9,148.7c0-0.2-0.2-0.4-0.2-0.6c-1,1.5-1.2,2.5-1,3.4c0.2-0.1,0.2-0.1,0.2-0.1
			C379.6,150.4,379.8,149.7,379.9,148.7z M378.8,129.2c0,0,0.2-0.1,0.2-0.3c0.5-1.3,1.3-2.7,1.5-4c0.2-0.3,0-0.7,0-1.2
			C379.3,125.5,378.5,127.9,378.8,129.2z M384.6,136.2c0-0.5,0-0.7-0.2-1.1c-0.2-0.4-0.5-0.8-0.7-1.5c-1,1.7,0,2.6,0,3.8
			c-1.2,1.3-1.7,2.9-2.7,4.3c1-0.3,1.5-0.4,2.2-0.6C383.9,139.5,384.4,137.9,384.6,136.2z M382.3,122.1c0,0,0,0.2,0,0.5
			c0.2-0.1,0.5-0.4,0.5-0.4s0-0.2-0.2-0.4C382.5,121.8,382.3,121.9,382.3,122.1z M385.6,102.4c0,0-0.2,0.1-0.5,0.1
			c-1,0.5-1.2,0.8-1.2,2.2c1-0.5,1.5-1.1,1.7-1.6C385.9,102.9,385.6,102.7,385.6,102.4z M387.6,100c-0.2,0.1-0.2,0.1-0.2,0.1
			s-0.2,0.1-0.2,0.3c0.1,0,0.1,0,0.2-0.1C387.4,100.3,387.4,100.3,387.6,100z M389.4,90.3c0-0.2-0.2-0.4-0.2-0.7
			c0,0-0.2,0.1-0.5,0.4c-0.7,0.9-1.2,2-1.3,2.9c0,0,0,0.2,0.2,0.2C388.4,92,388.9,91.2,389.4,90.3z M393.9,115.2c0,0,0-0.2-0.2-0.2
			c0,0,0,0-0.2,0.1c0,0.2,0,0.2,0.2,0.4C393.6,115.5,393.6,115.3,393.9,115.2z M441.1,33.9c-0.2,0-0.5,0.1-0.7,0.1
			c-1.5,0-3.1,0.2-4.5,0.6c-1.2,0.3-2.2,0.4-3.2,1.3c-0.3,0.3-0.5,0.1-0.7,0.1c-0.7-0.3-1.2,0.2-1.7,0.6c-0.5,0.6-1,1.3-1.3,1.7
			c-0.3,0.3-0.8,1.1-1.2,0.7c-1-0.3-1.5,0.3-2,0.9c-0.5,0.6-0.8,1.4-1.3,1.9c-0.6,0.6-1.5,1.5-1.8,2.5c-1,1.6-2,3-3.8,4.1
			c-0.5,0.1-0.7,0.6-0.8,1.1c0,0.7,0,1.5,0.2,2.1c0.2,0.4,0.2,0.7,0,1.2c-0.3,0.9-0.8,1.8-1,2.8c-0.3,0.3-0.5,0.8-0.5,1.3
			c0.2,1.6-0.4,3.8-1.3,4.7c-1,1.1-1.7,1.1-1,2.6c0,0.2,0,0.2,0,0.5c-1,1.2-1,1.2-1,2.8c-0.8,1.6-1.6,3-2.3,4.3
			c-0.8,1.5-1.8,3.2-3,4.5c-1.2,1.2-1.5,2.5-2.3,3.8c-0.2,0.3,0,0.5,0,0.9c0.5-0.6,1-0.9,1.5-1.3c0,0.7,0,1.4,0.7,1.7
			c-0.5,1.3-1,2.8-1.5,4.1c-0.2,0.3-0.5,0.8-0.7,0.9c-1.7,0.7-2.2,2.3-2.7,3.5c-0.6,1.3-1.5,2.5-2.5,3.4c-0.2,0.3-0.5,0.6-0.5,0.6
			c0,0.2,0,0.5,0.2,0.6c0.1,0,0.1,0,0.2-0.1c0.2-0.1,0.5-0.4,0.7-0.4c0.7-1.1,1.7-2.1,2.7-2.8c1-0.7,1.6-1.8,2-2.8
			c0.3-1,0.8-2.1,1.3-3.1c1.5,0.6,0,2.1,0.7,3.1c1-0.5,2-1.4,2.5-2.2c0.8-1.4,2-2.6,3-3.8c4-3.3,8-6.5,11.4-10.1
			c1.7-1.8,3.2-3.7,4.5-5.9c2-3.7,4.5-7.3,6.1-11.3c1-1.1,1.3-2.1,1.5-3.1c0.8-1.3,1-2.8,1.8-4.1c1.8-3.1,2.3-6.3,3.1-9.7
			c0.3-0.7,0.4-1.8,0.5-2.7C442.7,34.7,442.4,33.9,441.1,33.9z M409.4,68.5c0.2-0.1,0.7-0.4,1-0.7c0.2-0.1,0.5-0.3,0.5-0.6
			c0-1.2,0.1-2.5,0.3-3.4c0.1-0.4,0-0.7-0.7-0.5c-1,1.2-1,2.8-1.5,4.4C408.9,68.1,408.9,68.3,409.4,68.5z M411.7,61.6
			c1-0.9,1.1-1,1.3-1.7c0.3-1.1,1.1-3.2,0.8-3.5c-0.2-0.2-1.2,0.5-1.5,1c-0.3,0.5-0.5,1.3-1,1.9C410.7,60.4,410.9,61,411.7,61.6z
			 M427.2,38.3c0.1,0.1,0.1,0.1,0.2,0.2c0,0,0.2-0.1,0.5-0.3c0,0-0.2-0.2-0.2-0.4C427.5,38,427.5,38,427.2,38.3z"/>
	</g>
</g>
</svg>
