<?xml version="1.0" encoding="utf-8"?>
<!-- Generator: Adobe Illustrator 21.1.0, SVG Export Plug-In . SVG Version: 6.00 Build 0)  -->
<svg version="1.1" id="Layer_1" xmlns="http://www.w3.org/2000/svg" xmlns:xlink="http://www.w3.org/1999/xlink" x="0px" y="0px"
	 viewBox="0 0 109 244" style="enable-background:new 0 0 109 244;" xml:space="preserve">
<style type="text/css">
	.st0{fill:#FF0000;stroke:#FF0000;stroke-width:2;stroke-miterlimit:10;}
</style>
<path class="st0" d="M30.3,211.8c0,0.3,0,0.6,0,1.2c0,0.3,0,0.9-0.3,1.5c0.3-0.1,0.3,0.5,0,0.9c-0.3,0.3-0.6,0.7-1,1
	c0,0.6,0,0.9,0,1.2c-0.3,0.3-0.3,0.3-0.3,0.6c-0.3-0.2-0.3-0.2-0.6-0.5c-0.6,0.1-0.9,0.5-1.6,1.2c-0.3,0.6-0.6,1-1.3,1.7
	c0,0.3-0.3,0.3,0.3,0.5c0,0.1,0,0.2,0,0.3c0,0.3-0.3,0.3-0.3,0.3c0,0.3-0.3,0.4-0.3,0.6s0,0.9,0.3,1.1c0,0.1,0,0.2,0,0.3
	c-0.3,0.4-0.3,0.6-0.3,0.9c-0.3,0.6-0.3,0.9-1,1.3c-0.3,0.4-0.3,0.9-0.6,1.3c-1,0.8-1.6,1.5-2.9,2c0,0,0,0.3-0.3,0.4
	c-0.1,0-0.2,0-0.3,0.1c-0.3-0.2-0.6-0.2-0.9-0.1c0,0.6,0,1.2-1,1.1c-0.6,0.7-1.3,0.5-1.9,0.7c-0.3,0.4-0.3,0.7-0.6,1
	c0,0,0,0.3-0.3,0.7c0-0.3-0.3-0.5-0.6-0.5c0,1.2,0,2.1,0,3.3c-0.3-0.2-0.9,0.2-1.6,0.6c0,0.3-0.3,1-0.6,1.3
	c-0.3,0.1-0.3,0.4-0.6,0.4c-0.3,0.4-0.6,0.1-0.6-0.2c0.3-0.4,1-1.1,1-1.7c0.3-0.4,0.6-0.7,1-1.1c-0.3-0.5,0.3-1,1-1.4
	c-0.1,0-0.2,0-0.3,0.1c0-0.3,0.3-0.7,0.3-1c0-0.3,0-0.6,0-0.9c0-0.3-0.3-0.5-0.9-0.4c-0.3,0.1-0.9-0.1-1.3-0.1
	c-0.3,0.1-0.3,0.1-0.3,0.1c-0.6,0.4-1,0.8-1.6,1.2c0-0.3,0-0.6,0.3-1c0.3-0.1,0.3-0.4,0-0.6c-0.3,0.4-0.3,0.4-0.3,0.7
	c-0.3,0.1-0.3,0.1-0.3,0.1C9,232.2,9,232.2,9,231.9c-0.3,0.1-0.3-0.2-0.6-0.5c-0.3,0.1-0.4,0.1-0.6,0.1c0,0.3-0.9,0.2-0.6,0.7
	c0.3,0.2,0,0.6-0.3,0.7c-0.3,0.4-0.3,0.7-0.6,1c-0.3,0.1-0.3-0.2-0.3-0.5c0.3-0.4,0.3-0.7,0-0.9c-0.3-0.2-0.3-0.2-0.6-0.5
	c0-0.6,0.1-0.9,0.3-1.5c0.4-0.9,0.3-1-0.3-1.4c-0.3,0.1-0.3,0.1-0.6-0.2c0,0.3-0.3,0.7,0,0.9c0,0.3,0,0.3,0,0.6
	c-0.6,0.4-0.6,0.7-0.6,1.3c0,0.3-0.3,0.7-0.3,1c0,0.3,0.3,0.5,0.3,0.8c-0.3,0.4-0.3,1-0.3,1.3c-0.3,0.7,0,0.9,0,1.2
	c0,0.3,0,0.6,0.3,0.8c0,0.6,0,1.5,0,2.1c0,0.3,0,0.6,0,0.9c-0.3,0.4-0.3,0.7,0,0.6c0.3-0.1,0.3,0.2,0.6,0.2c0,0.3,0,0.9,0.6,0.8
	c0.6-0.1,1.3,0,1.3-0.9c0.3-0.1,0.3-0.1,0.3-0.1s0.3,0.2,0.3,0.5c0,0.3,0,0.3-0.6,0.4c0,0-0.3,0.4-0.3,0.7c-0.3,0.1-0.6,0.1-0.6,0.1
	c-0.3-0.2-0.6-0.2-0.9-0.4c-0.1,0.1-0.2,0.2-0.3,0.4c-0.3-0.2-0.3-0.2-0.3-0.5c0-0.6-0.3-1.1-0.9-1c0.6-0.7,0.3-1.6,0.3-2.1
	c-0.3-0.2-0.3-0.5,0-1.2c0-0.3-0.3-0.5-0.6-1.1c-0.3-0.2-0.3-0.8-0.3-1.1c0.3-0.4,0.3-0.7,0.3-1c0-0.3,0-0.9,0.6-1.3
	c-0.3,0.1-0.3,0.1-0.6,0.1c-0.1-0.1-0.2-0.1-0.3-0.2c0-0.3,0.3-0.4,0.3-0.4c0.3-0.4,0.3-0.1,0.3-0.7c0-0.1,0-0.2,0-0.3
	c0.6-0.7,0.6-1.3,0.7-1.9c0-0.3-0.3-0.8,0.3-1.3c0.3-0.1,0.3-0.7,0.3-1c0.3-0.4,0.6-0.4,0.6-0.7c0,0,0-0.6-0.9-0.4
	c0.6-0.7,1-1.4,1.3-2c0.4-0.9,0.3-1.8,0.4-2.7c0-0.6,0-0.9-0.9-1c-0.9-0.1-1.6-1.2-1.9-2c0-0.3,0.3-1,0.6-1.3
	c1.3-0.8,2.5-1.1,3.8-1.9c0-0.9,0.3-1.5,1.3-2.3c0.3-0.4,0.3-0.7,0-0.9c0-0.3,0-0.6,0.3-1c0.3-0.4,0.3-0.7,0.6-1c0-0.1,0-0.2,0-0.3
	c-0.6-0.8-0.3-1.1,0.6-1.3c0.3,1.4,0.3,1.4-0.3,1.5c0,0.3,0,0.6,0,0.6c0.3-0.1,0.6,0.2,0.6-0.1c0.3-0.1,0.6-0.4,0.6-0.4
	c0-0.6,0.3-0.9,0.6-1.3c0.3-0.1,0.3-0.4,0.3-0.4s0,0-0.3,0.1c-0.3-0.2-0.3-0.2-0.6-0.2c-0.6,0.1-0.6-0.2-0.3-0.8
	c0.3,0.2,0.3,0.2,0.3,0.2c0.3-0.1,0.3,0.2,0.3,0.2c0.3-0.1,0.3-0.4,0.3-0.4c0-0.3,0.3-0.7,0.6-1c0.3-0.1,0.3-0.4,0.3-0.9
	c0.3,0.5,0.3,0.8,0.6,1.1c0.6-0.7,1-1.4,1-2.2c0,0,0,0,0.3-0.1c0,0.3,0,0.9,0.3,1.1c0.6-0.4,0.3-0.9,0.6-1.3
	c0.3-0.1,0.3-0.4,0.3-0.4c0.3-0.1,0.3,0.2,0.3,0.2c0.3,0.5,0,0.9,0.9,0.4c0,0.1,0,0.2,0,0.3c0.3-0.1,0.6,0.2,0.9-0.2
	c0-0.3,0-0.3,0-0.3c0.9,0.1,1.9-0.3,2.8-0.2c0,0,0.3-0.1,0.3,0.2c0.3-0.1,0.6-0.1,0.6,0.2c0.3-0.1,0.6-0.1,0.6-0.1
	c0.1-0.1,0.2-0.2,0.3-0.3c0-0.6,0.3-0.9-0.3-1.1c0-0.3,0-0.6,0-0.6c0.1,0,0.2,0,0.3-0.1c0.1,0.2,0.2,0.3,0.3,0.5
	c0.3-0.1,0.6-0.1,0.6,0.2c0,0.6,0.3,0.8,0.6,1.1c0,0.3,0,0.3,0,0.6c0,0.3,0.3,0.5,0.6,0.8c0.6,0.2,0.9,1,0.6,1.7
	c0,0.3,0,0.6,0.6,0.8c0.9,0.4,1.9,0.9,2.8,1.6c0.3,0.2,0.6,0.5,0.9,0.7C30,210.7,30.3,211.2,30.3,211.8z M9.5,238
	c0.3,0.2,0,0.9-0.6,1c0,0-0.3,0.1-0.6,0.1c0,0.3-0.6,0.4-0.9,0.5c0-0.3,0.3-0.4,0.3-0.4c0.3-0.7,0-1.2,0-2.1
	c-0.3,0.4-0.3,0.7-0.6,1.3c-0.3-0.8-0.6-1.4-0.6-2.2c0-0.3,0.3-0.7,0.6-1c-0.3-0.2-0.3-0.8-0.6-1.4c0.1-0.1,0.2-0.2,0.3-0.4
	c0.3,0.2,0.3,0.2,0.6,0.2c0,0.3,0,0.3-0.3,0.7c0.3,0.2,0.6,0.2,0.6,0.8c-0.3,1,0,1.8,0.9,2.2C8.9,237.5,9.2,237.8,9.5,238z
	 M10.8,233.3c0,0.3-0.3,0.4-0.3,0.7c0-0.3-0.3-0.2-0.3-0.2c0-0.3,0-0.6,0.3-0.7c0-0.3,0.3-1,0.6-0.7C10.8,233,10.8,233,10.8,233.3z
	 M12.1,234.5c-0.3-0.2-0.3-0.5-0.3-0.8c0-0.3,0.3-0.4,0.6-0.1c0,0.1,0,0.2,0,0.3c0,0,0,0,0.3,0.2C12.4,234.2,12.4,234.5,12.1,234.5z
	 M15.8,236.2c-0.3,0.1-0.3-0.2-0.6-0.5C15.8,235.6,15.8,235.6,15.8,236.2z M16.9,203.8c0-0.6,0.3-0.6,0.6-0.7
	c0.3-0.1,0.6-0.1,0.9-0.2c0,0,0,0,0.3-0.1c-0.3,0.4-0.6,0.7-1,1.1C17.5,204.3,16.9,204.1,16.9,203.8z M18.3,235.1
	c-0.3,0.4-0.6,0.4-0.9,0.5c0.3-0.4,0-0.9,0.6-1C18.3,234.5,18.3,235.1,18.3,235.1z M106.5,5.5c-0.6-0.3-1.3-0.3-1.9-0.3
	c-0.7,0.6-1.3,1.1-0.7,2c-0.7,0.6-1.3,1.4-1.3,2.3c0,0.1,0,0.2,0,0.3c0.6,0.9,0,1.7-0.4,2.6c0,0.9-0.4,1.4-1,2c0,0.3,0,0.9,0,1.1
	c-0.3,0.9-0.4,1.7-0.7,2.6c0,0.6,0,1.1-0.4,1.7c0,0,0,0,0,0.3c-1,0.8-1,2-1.3,2.9c0,0.3,0,0.6-0.3,0.6c-0.3,0.3-0.7,0.9-1,1.4
	c0,0.1,0,0.2,0,0.3c-0.3,0.3-0.7,0.9-0.7,1.1c-0.3,0.3-0.3,0.9-0.7,1.1c0,0.3,0,0.6,0,0.6c-0.3,0.6-0.7,1.1-0.7,1.4
	c0,0.6,0,0.9,0,1.2c0,0.3-0.3,0.6-0.3,0.6c-0.3,0.6-0.7,0.9-0.7,1.4c-0.7,0.9-1,1.7-1.3,2.9c0,0.6-0.7,0.9-0.7,1.4
	c-0.7,1.2-0.9,2.6-1.3,3.2c-0.4,0.6-0.7,1.4-1,2c-0.3,0.6-0.7,1.2-1,1.5c-0.7,0.6-1,1.2-1.3,1.7c0,0.3,0,0.6,0,0.9
	c-0.6,0.6-0.7,1.2-1,1.7c0,0.3,0,0.6-0.3,0.9c0,0.3-0.3,0.3-0.3,0.6c0,0.3-0.3,0.9-0.7,1.2c-0.3,0.6-0.7,1.5-1,2
	c-0.4,0.8-0.4,1.7-1.3,2.6c-0.6,0.6-0.3,1.5-1,2.1c-0.3,0-0.3,0.3-0.3,0.3c-0.6,0.6-1.3,1.2-1.3,2.1c-0.3,0.6-0.7,0.9-1,1.2
	c0,0,0,0.3-0.3,0.3c-0.3,0-0.3,0.3-0.6,0.6c0,0.6-0.3,1.5-1,1.8c0,0.3,0,0.9-0.3,1.2c-0.3,0.6-0.4,1.2-0.7,1.8c-0.4,0.8-1,1.8-1,2.6
	c0,0.3-0.3,0.6-0.6,0.6c-0.3,0.3-0.3,0.9-1,0.6c-0.1,0.1-0.2,0.2-0.3,0.3c0,0.9-0.6,1.9-1,2.9c-0.2,0.6-1,1.5-1.6,2.4
	c0,0.3-0.3,0.9-0.3,1.5c0,0-0.3,0.3-0.3,0.6c0,0.1,0,0.2,0,0.3c-0.3,0.3-0.3,0.6-0.7,0.9c-0.3,0.3-0.6,0.6-0.7,0.9
	c0,0.3,0,0.6-0.3,0.6c-0.6,0.3-1,1.2-1.3,1.8c-0.4,0.8-1,1.8-1.3,2.7c-0.3,0.3-0.3,0.3-0.6,0.6c0,0.3,0,0.9,0,1.2
	c0,0.3,0,0.6-0.3,0.9c-0.3,0-0.3,0.6-0.7,0.9c0,0.3-0.3,0.9-0.7,1.2c-0.3,0.3-0.6,0.6-0.7,1.2c0,0.1,0,0.2,0,0.3
	c-1,0.4-0.7,1.2-1,1.5c0,0.3,0,0.6,0,0.9c0.3,0,0.6,0.2,0.3,0.6c0,0.3,0.3,0.6,0.3,0.6c-0.3,0.3-1,0.7-0.7,1.5c0,0-0.3,0-0.3,0.3
	c0-0.3,0-0.3,0-0.3c-0.3-0.3-0.3-0.3-0.3-0.6C61,96.4,61,96.4,61,96.4c-0.7,0.9-1,1.8-1.3,2.7c0.1,0.1,0.2,0.2,0.3,0.3
	c-0.3,0.3-0.6,0.3-1,0.7c0,0.3-0.3,0.6-0.3,0.9c0,0.6,0,1.5,0,2.3c-0.1,0.1-0.2,0.2-0.3,0.3c-0.3,0.3-0.6,0.6-0.7,0.9
	c-0.3-0.3-0.3-0.3-0.3-0.6c-0.3,0.3-0.3,0.6-0.7,0.9c-0.3,0.9-0.3,1.5-0.7,2.1c0,0-0.3,0-0.3,0.3c0,0,0,0.3,0,0.6
	c0.6,0.2,0.3,0.6,0,1.2c0-0.3-0.3-0.3-0.6-0.5c0,0.3,0,0.6,0,0.9c-0.3,0.3-0.6,0.6-0.7,0.9c0,0.3,0,0.3,0,0.3c0.1,0,0.2,0,0.3,0
	c0-0.6,0.3-0.6,0.6-0.3c0,0.3-0.3,0.3-0.6,0.3c0.3,0.8-0.3,1.8-1.3,1.9c-0.3,0.3-0.6,0.6-0.6,0.9c-0.3,0.6-1,1.6-1,2.4
	c0,0.9-0.6,1.9-1,2.7c-0.3,0.6-0.7,1.2-0.7,1.5c0,0.9-0.7,1.2-0.7,1.5c0,0.3,0,0.6,0,0.9c0-0.1,0-0.2,0-0.3
	c-0.6,0.7-0.7,1.5-0.7,2.4c0,0,0.3,0,0.3,0.3c0,0.1,0,0.2,0,0.3c-0.6,0.1-0.3,0.6-0.3,1.2c-0.3,0.9-0.7,1.8-1.6,2.8
	c-0.3,0.3-0.7,1.5-1,2.2c0,0.6,0,1.2-0.3,1.5c0,0.3,0,0.3,0,0.3c-0.3,0-0.3,0-0.6,0.4c0.3,0,0.3,0,0.3,0.3c0.1,0,0.2,0,0.3,0
	c-0.1,0.1-0.2,0.2-0.3,0.3c-0.6,0.1-0.6,0.4-0.7,1.2c0.3,0.5,0.3,0.8-0.3,1.2c-0.3,0-0.3,0-0.3,0c0,0.3,0.3,0.5-0.3,0.9
	c0,0-0.3,0.3-0.6,0.7c-0.1-0.1-0.2-0.2-0.3-0.3c-0.3,0.6-0.6,1-0.3,1.5c0.3,0.3,0,0.6,0,0.9c-0.3-0.3-0.3-0.5-0.6-0.5
	c-0.3-0.3-0.6,0.1-0.6,0.4c0,0.9,0,1.8-0.7,2.4c-0.3,0.3-0.3,0.9-0.7,1.5c0,0.6,0,1.2-1,1.6c-0.6,0.1-0.6,0.7-1,1.3
	c0,0.3,0,0.6,0,0.9c-0.6,0.7-0.6,1,0.3,1.7c0-0.6,0.3-0.9,0.3-1.5c-0.3,0-0.3,0-0.6,0.1c0.3-0.3-0.3-1.1,0.6-1
	c0.3,0.3,0.3,0,0.6-0.4c0.3,0,0.3-0.3,0.6-0.4c0.3,0,0.6-1,0.3-1.2c0,0,0-0.3,0-0.9c0.3,0.3,0.6,0.2,0.9,0.5c0-0.3,0-0.3,0-0.6
	c-0.3,0-0.3,0-0.6,0.1c0,0,0-0.3,0.3-0.3c0,0,0.3,0,0.6-0.1c0,0.1,0,0.2,0,0.3c-0.3,0.9-0.3,1.5-0.7,2.1c-0.3,0.3-0.6,0.7-1,1
	c-0.6,1-0.6,1,0,1.8c-0.3,0.3-0.6,0.7-1,1c0,0.3-0.3,0.3-0.6,0.4c0,0-0.3-0.3-0.3-0.5c0,0,0,0,0-0.3c-0.6,0.7-1,1.3-0.7,2.1
	c0,0,0,0,0.3,0c0.1-0.1,0.2-0.2,0.3-0.3c-0.3,0.6,0.3,1.1,0,1.5c0,0.3,0,0.6,0,0.6c-0.1,0-0.2,0-0.3,0c-0.3-0.3-0.3-0.8-0.6-1.4
	c-0.3,0.9-0.3,1.8-0.4,2.7c0.1,0,0.2,0,0.3,0c0,0,0.3,0.3,0.3,0.5c-0.3-0.3-0.6-0.2-0.6-0.2c-1.3,1.1-1.9,2.3-2,3.8
	c0-0.3,0-0.3,0.3-0.6c0.6,0.2,0,1.2,0.3,1.4c-0.3,0-0.6,0.1-0.9,0.1c0.3,0.5,0.3,0.8,0.3,1.1c0,0.3,0.3,0.2,0.3,0.5
	c0-0.3,0.3-0.6,0.3-0.6c-0.3-0.8,0.3-0.9,0.6-0.7c0.3,0,0.3,0,0.3,0c-0.3,0.6-0.6,1-0.7,1.3c-0.3,0.9-0.7,1.6-1.3,2.2
	c-0.1,0.1-0.2,0.2-0.3,0.3c0,0-0.3,0-0.3-0.2c0-0.2,0-0.4,0-0.6c0.6-0.4,0.6-0.7,0.7-1.3c-0.3-0.2,0-0.3,0-0.6
	c0-0.3-0.3-0.5-0.6-0.5c0,0.6,0,0.9-0.7,1.3c-0.6,0.4-0.7,1.9,0,2.4c0,0.3,0.3,0.2,0.3,0.5c0.3,0.2,0,0.6-0.3,0.9
	c-0.6,0.7-1.3,1.4-1,2.5c0,0,0,0.3-0.3,0.3c-0.1-0.1-0.2-0.1-0.3-0.2c0,0,0-0.3-0.3-0.5c0,0.6-0.3,1.2-0.3,1.8c0,0,0.3,0,0.6-0.1
	C31,170,31,170,31,170c-0.3,0-0.6,0.4-0.6,0.4c0,0.6,0.3,0.8-0.3,0.9c0,0,0,0.3,0,0.6c0,0.3-0.3,0.6-0.6,0.7c0,0,0,0.3,0.3,0.5
	c0,0-0.3,0-0.6,0.4c0,0.3,0,0.3,0,0.6c-0.3,0.3-0.3,0.9-0.7,1.3c0,0.6-0.3,0.9-0.3,1.2c0,0.6-0.3,1.2,0,1.8c0.3,0.5-0.3,1.2-0.7,1.9
	c-0.3,0.3-0.6,1-0.7,1.9c0,0.6-0.3,1.5-0.7,2.2c-0.3,0.3-0.6,1-0.6,1.3c-0.1,0.1-0.2,0.2-0.3,0.3c-0.3,0.3-0.6,0.7-0.6,0.7
	c-0.6,0.7-1.3,1.1-1.6,1.7c-0.3,0.3-0.6,0.7-0.6,1c-0.6,0.7-1,0.7-1.6,0.9c-0.3,0.1-0.6,0.7-1,0.5c0-0.3,0-0.6,0-0.9
	c-0.1-0.1-0.2-0.1-0.3-0.2c-0.6-0.2-0.3-0.5-0.3-0.8c0.3-1.2,0.3-2.1,0.4-3c0.3-1.5,1-2.9,1.3-4.4c0.3-1.2,0.7-2.8,1-4.3
	c0-0.3,0.3-0.9,0.3-1.2c0.7-1.6,1.1-2.9,1.6-4.1c0.8-1.9,1-4,1.7-6.2c0.3-0.3,0-0.9,0-1.2c0-0.3,0.3-0.3,0.3-0.6
	c0.3-0.3,0.6-0.4,0.6-0.7c0-0.6,0-1.2,0.3-1.8c0-0.3,0-0.6,0-0.9c0-0.3,0-0.9,0.7-1.3c0.3-0.3,0.3-0.9,0.3-1.5
	c0.3-0.9,0.7-1.9,1-2.8c0.3-0.9,1-1.9,1.3-2.8c0-0.3,0-0.3,0-0.6c0-0.9,0.3-1.5,1-2.2c0.3-0.6,0.3-1.5,0.3-2.1c0-0.3,0-0.3,0-0.6
	s0.3-0.6,0.6-0.1c0-0.6,0-0.9,0-1.5c0,0,0.6-0.4,0.6-0.7c0,0,0,0-0.3-0.3c0.6-0.4,0.6-0.7,0.3-1.2c0,0,0-0.3,0.3-0.3
	c0.3-0.6,0.3-0.9,0.7-1.6c0-0.1,0-0.2,0-0.3c0.6-0.4,0.3-0.9,0-1.5c0.3,0.3,0.3,0.3,0.3,0.3c0.3-0.6,0.7-1.3,0.7-1.8
	c0-0.6,0.4-1.2,0.7-1.8c0.4-0.8,0.7-1.6,0.7-2.4c0-0.6,0-0.9-0.6-1.1c0-0.3,0-0.6,0-0.9c0-0.3,0-0.6,0.3-0.9c0,0,0-0.3,0.3-0.9
	c0.3,0.3,0.6,0.8,1.2,1c0,0,0.3,0,0.3-0.3c-0.3-0.3-0.6-0.5-0.9-0.8c0.3-0.9,0.3-1.5,0.4-2.4c0.3-0.6,0.7-1.5,1-2.2
	c0-0.6,0-1.2,0.3-1.8c0,0.6,0.3,0.8,0.3,1.1c0.6-0.7,1-1.3,1-1.9c0-0.9,0-1.5,0.4-2.4c0,0.3,0,0.3,0.3,0.5c0-0.6,0.3-0.9,0.7-1.5
	c0.3,0,0.3,0,0.6-0.1c0,0,0-0.3,0-0.6c0.3,0,0.3,0,0.6-0.1c0-0.3,0-0.6,0-0.9c0.3,0,0.6-0.4,1-0.4c0,0.3-0.3,0.9-0.3,1.2
	c0,0-0.3,0-0.6,0.4c0,0.3,0,0.6-0.3,0.9c-0.6,0.4-0.6,0.7-0.3,1.2c0.3,0.6,0.3,1.1-0.3,1.8c0,0.3,0,0.6-0.3,0.9c0,0.3,0,0.9-0.6,1
	c0-0.3,0-0.6,0-1.2c-0.3,0.3-0.6,1-0.7,1.2c0,0.6,0.3,0.8,0.6,0.8c0,0.6,0,0.9-0.7,1.3c0,0,0,0.3,0,0.6c0,0,0,0.3,0.3,0.5
	c0-0.6,0.3-0.9,0.7-1.3c0.3-0.6,0.7-1.2,1-1.9c0.3-0.6,0.3-1.5,0.7-2.1c0.3-0.6,0.7-1.2,0.7-1.8c0.3-1.2,0.7-2.4,1.3-3.4
	c0.3-0.6,0.7-1.5,0.7-2.1c0.3-0.3,0-0.6,0-0.6c-0.3,0-0.6,0.4-0.6,0.4c-0.3,0.6-0.3,0.9-0.7,1.5c0,0-0.3,0-0.6,0.1
	c0-0.3,0-0.6-0.3-0.6c0.6-1,1.3-1.9,1-3c0,0.3,0.3,0.6,0.6,0.8c0,0,0,0,0.3,0c0-0.3-0.3-0.8-0.3-1.1c0-0.6,0-0.9,0-1.5
	c0-0.3,0-0.3,0.3-0.6c0.3,0.3,0.3,0.6,0.6,0.5c0.3-0.3,0.3-0.3,0.6-0.7c0-0.1,0-0.2,0-0.3c0-0.9,0.7-1.5,1-2.2c0-0.6,0-0.9-0.3-1.4
	c0,0.3,0,0.3,0,0.6s0,0.6,0,0.6c0,0.9,0,0.9-1,0.7c0.3-0.9,0.3-1.5,0.7-2.4c0-0.3,0.3-0.3,0.6-0.7c0,0,0.3,0,0.6-0.4
	c1-0.4,1-0.7,1-1.3c-0.3,0-0.6-0.2-0.6-0.2c0.3-0.6,0.3-0.9,0.7-1.5c0.3-0.6,1-1,1.3-1.6c0-0.3,0.3-0.9,0.3-1.2
	c-0.3-0.3,0-0.6,0-0.9c0-0.3,0-0.6,0.3-0.9c-0.3,0.3-0.6,0.4-1,0.7c0-0.3-0.3-0.6-0.3-0.8c0,0,0.3-0.3,0.6-0.4
	c0.3,0,0.6-0.1,0.3-0.6c0.1-0.1,0.2-0.2,0.3-0.3c1-0.4,0.7-0.9,0.7-1.2c0-0.6,0-0.9,0.3-1.2c-0.3-0.8,0.3-1.2,0.7-1.8c0,0,0,0,0-0.3
	c0,0,0.3,0,0.3-0.3c-0.1-0.1-0.2-0.2-0.3-0.3c-0.1,0.1-0.2,0.2-0.3,0.3c-0.1,0.1-0.2,0.2-0.3,0.3c-0.3,0-0.3-0.3-0.3-0.3
	c0-0.3,0.3-0.6,0.3-0.6c0.6-0.3,1-0.7,1-1.3c-0.6-0.5,0-0.9,0.3-1.5c0-0.3,0.3-0.3,0.3-0.3c0.3-0.3,0.6-0.3,0.6-0.3
	c0.6-0.1,0.6,0.2,0.6,0.5c-0.3,0.3-0.3,0.6-0.6,0.6c-0.3,0-0.3,0-0.6,0.3c-0.3,0.3,0,0.6,0,0.6c0.3,0.6,0,0.9-0.3,1.5
	c0,0,0,0.3,0.3,0.6c0.3-0.6,0.7-0.9,1-1.5c0-0.6,0.3-1.2,0.7-1.8c0.3-0.6-0.3-0.9,0.3-1.5c-0.1,0-0.2,0-0.3,0c-0.3,0-0.6,0.1-1,0.1
	c0,0,0-0.3,0.3-0.6c0-0.3,0-0.6,0.3-0.9c0,0,0.3,0.3,0.6,0.2c0,0,0.3,0.3,0.3,0.6c0.6-0.6,0.3-1.2,0.3-1.8c-0.1,0.1-0.2,0.2-0.3,0.3
	c0.3,0.3,0,0.6-0.3,0.9c-0.3-0.3-0.3-0.3-0.6-0.5c0.3-0.3,0.6-0.6,1-0.7c0.3,0,0.3-0.6,0.7-0.9c0.3-0.3,0.3-0.6,0.3-0.9
	c-0.3,0,0-0.3,0-0.3c0-0.3,0.3-0.3,0.3-0.3c0-0.6,0.3-0.9,0.3-1.5c-0.1,0-0.2,0-0.3,0c0-0.3,0-0.6,0-0.9c0.3,0,0.6-0.3,0.9,0.2
	c0-0.3,0-0.6,0.3-0.6c0-0.6,0.3-1.5,0.7-2.1c0-0.3,0-0.6,0-0.9c0.3-0.6,0.7-0.9,0.7-1.5c0-0.3,0.3-0.3,0.3-0.6
	c0.1-0.1,0.2-0.2,0.3-0.3c0.3-0.6,0.3-1.2,0.7-1.8c0.3-0.6,0.7-1.2,0.7-1.8c0.3-0.6,0.3-0.9,0.3-1.5c0-0.1,0-0.2,0-0.3
	c0.6-0.6,0.7-0.9,0.3-1.5c-0.3-0.3,0-1.5,0.3-1.5c0.3,0,0.3,0,0.6,0c0-0.3,0-0.9,0.3-1.2c-1-0.2-0.9-0.5-0.6-1.1
	c0.3,0.3,0.3,0.3,0.6,0.3c0-0.6,0.7-1.2,0.4-1.8c0-0.3,0.3-0.9,0.3-1.2c0.6-0.3,0.3-0.9,0.7-1.5c0-0.3,0-0.9,0.3-1.2
	c1-1.2,1.6-2.7,2-4.5c0.3-0.3,0-0.6,0-0.9c0.3,0,0.3-0.3,0.3-0.3c0.6-0.3,0.7-0.9,0.7-1.2c0.3-0.9,0.7-1.5,1-2.4
	c0.3-0.9,0.7-1.8,0.7-2.6c0-0.3,0.3-0.3,0.3-0.6c0.3-0.6,0.7-0.9,1-1.5c-0.3-0.3-1,0-0.9-0.5c0-0.6,0.3-1.2,1-1.5c0,0,0,0,0.3,0
	c0-0.3,0.3-0.6,0.7-0.9c0-0.3,0.3-0.3,0-0.6c-0.3,0-0.3-0.3-0.3-0.6c0.1,0,0.2,0,0.3,0c1-0.3,1.3-0.3,1.3-1.2
	c0.3-0.6,0.3-0.9,0.7-1.5c-0.3,0-0.6,0-1,0c0-0.3,0-0.6,0-0.9c0,0,0,0-0.3,0.3c0-0.3,0.3-0.6,0.3-0.9c1-0.3,0.3,0.9,0.9,0.8
	c0.3-0.3,0.3-0.3,0.3-0.6c0.7-1.2,1-2.4,2-3.5c0.7-0.9,0.7-2.2,1.3-2.9c0.5-0.6,0.7-1.5,1-2.1c0.4-0.8,0.7-1.5,1-2.3
	c0.3-0.9,0.7-2,1.3-2.9c0-0.6,0.3-1.2,0.3-1.5c0.7-0.9,1-1.8,1.3-2.3c0-0.1,0-0.2,0-0.3c0.3-0.3,0.3-0.6,0.7-1.2
	c0.3-0.6,0.7-1.2,1-1.7c0-0.1,0-0.2,0-0.3c0-0.1,0-0.2,0-0.3c0.3-0.6,0.7-1.2,1-1.7c0.4-0.8,0.7-2,1.3-2.9c0-0.3,0.3-0.6,0.3-0.9
	c0,0,0.3,0,0.3-0.3c-0.3-0.6,0.3-0.9,0.7-1.2c0.3-0.6,0.3-1.2,0-1.7C88,4.9,88,4.6,88,4.6c0.7-0.6,1-1.2,1.6-1.4
	c1-0.6,1.9-0.6,3.2-0.6c0,0,0.3,0,0.3-0.3c0.3,0,1,0,1.3,0c0.3,0,0.3,0,0.6-0.3c0.6,0,1-0.3,1.6-0.3c0.6,0,1.3-0.3,1.9-0.3
	c0.6,0,1.3,0,2.2,0.6c0.3,0,0.6,0,1.3,0.3c0.3,0.3,0.6,0.3,1.3,0.6c0,0,0.3,0,0.6,0s0.6-0.3,1,0c0,0,0.3,0,0.3,0.3
	c-0.1,0.1-0.2,0.2-0.3,0.3c0,0.3,0,0.6,0,0.9c0.3,0,0.6-0.3,1,0C106.2,4.7,106.2,5,106.5,5.5z M20.7,203.1c-0.3,0.1-0.6-0.2-0.6-0.5
	c0-0.3,0.6-0.7,1-0.8c0.9,0.1,0.9,0.4,0.9,1C21.6,203,21,203.1,20.7,203.1z M20.5,234.4c-0.3,0.4-0.6,0.4-0.9,0.2
	c0.3-0.4,0.6-0.7,1-1.1C20.9,233.8,20.8,234,20.5,234.4z M21.5,233c0.3-0.1,0.6-0.1,0.9-0.2c0,0.3,0,0.3-1,1.4
	c-0.3-0.2-0.3-0.5-0.3-0.8C21.2,233.4,21.2,233.1,21.5,233z M23.1,232.8c-0.6-0.5,0-0.9,0.3-1.2C23.7,231.8,23.7,232.1,23.1,232.8z
	 M25.3,229.7c-0.3,0.4-0.6,0.7-0.6,1c-0.3,0.4-0.3,0.4-0.6,0.4c0,0,0-0.3,0-0.6c0-0.3,0.3-0.6,0.3-1.2c0.3-0.1,0.6-0.1,0.6-0.1
	C25,229.5,25.3,229.4,25.3,229.7z M25.3,207.3c0-0.3,0-0.6-0.3-1.1C24.7,206.6,25,207.4,25.3,207.3z M25.8,218.7
	c-0.6,0.1-0.9,0.5-0.6,1C25.5,219.4,25.5,219.1,25.8,218.7z M28.2,147.8c0.3-0.3,0-0.6,0-0.9c0-0.3-0.3-0.5,0-0.6
	c0.6-0.4,0.6,0.2,0.6,0.5c0,0.6-0.3,1.8-1.3,2C27.8,148.4,28.2,148.1,28.2,147.8z M27.9,226.9c0,0.6,0,1.2-1,1
	c0.3-0.6,0.3-0.9,0.7-1.6C27.9,226.6,28.2,226.9,27.9,226.9z M29.2,144.7c0,0.6,0,0.9,0,1.2C28.8,145.6,28.5,145.4,29.2,144.7z
	 M29.2,145c0.3-0.9,0.3-1.2,0.7-1.9C30.1,143.4,29.8,144.3,29.2,145z M31.7,165.2c0,0.3,0,0.9,0,1.2C32,166.3,32.3,166,31.7,165.2z
	 M38.8,154.2c0.3,0.3-0.7,1.6-0.7,2.4c-0.3-0.3-0.3-0.3-0.6-0.2c-0.3,0-0.3,0.3-0.6,0.7c-0.3,0.9-0.3,1.5-0.7,2.4
	c-0.3-0.5-0.6-0.8-0.6-1.4c0,0,0-0.3,0.3-0.3c-0.3-1.1-0.3-1.4,1-1.9c0,0,0-0.3,0.3-0.6c0,0.3,0.3,0.3,0.3,0.5
	c0.3,0.3,0.3,0.3,0.6-0.1c0.3-0.6,0.3-0.9,0-1.5c-0.3,0-0.3,0.3-0.6,0.4C37.5,154.1,38.4,153.9,38.8,154.2z M38.9,127
	c0-0.6-0.3-0.8-0.3-1.4c-0.6,0.1-0.3,0.6-0.3,0.9C38,126.8,38.6,127,38.9,127z M39.2,128.7c-0.1-0.1-0.2-0.2-0.3-0.3
	c-0.3,0.3-0.3,0.9-0.7,1.5c0.3,0,0.6-0.1,0.6-0.4C38.9,129.3,39.2,129,39.2,128.7z M38.5,151.9c0-0.3,0-0.9-0.3-1.1
	c0.6-0.1,1.3-0.2,1.3,0.1C39.5,151.5,39.2,151.8,38.5,151.9z M39.5,152.1c0,0.3,0,0.6,0.3,0.8C39.1,153,39.1,152.4,39.5,152.1z
	 M40.4,118c0-1.2,1-1.9,1.3-2.8c0.3,0,0.3-0.3,0.6-0.4c-0.3,0.9-0.3,1.5-0.4,2.1c-1,0.1-1.3,0.7-1,1.6
	C40.3,118.6,40.4,118.3,40.4,118z M41.1,149.5c0.1,0,0.2,0,0.3,0c0,0.3,0,0.9-0.6,1C40.8,150.2,41.1,149.8,41.1,149.5z M42.2,141.8
	c0,0.3,0,0.6-0.3,0.9C41.2,142.5,41.2,142.2,42.2,141.8z M43.4,146.3c0.3,0.8-0.3,1.5-0.7,2.4C42.4,148.2,42.7,147,43.4,146.3z
	 M46.9,104.4c0.3-0.3,0.3-0.6,0.3-0.9c0,0,0,0,0.3,0c0,0.3,0,0.6,0,0.6C47.6,104.3,47.2,104.4,46.9,104.4z M49.8,123.4
	c0,0.6,0,0.9-0.3,1.2C49.1,124,49.1,123.7,49.8,123.4z M50.8,121.2c0.6,0.5,0,1.2-0.7,1.8c-0.1-0.1-0.2-0.2-0.3-0.3
	c0-0.3,0-0.3,0.3-0.6c0,0,0.3-0.3,0-0.3C50.1,121.3,50.4,121.3,50.8,121.2z M51.4,118.8c0,0.6,0,1.2,0.3,1.7c-0.3,0-0.3,0-0.6,0.1
	c0-0.3-0.3-0.6-0.3-0.8c0-0.3,0.3-0.6,0.3-0.9C51.1,118.9,51.1,118.9,51.4,118.8z M52.8,114.9c0.3,0.3,0.3,0.3,0.6,0.5
	c-0.3,0-0.6,0.1-1,0.1c0,0,0-0.3,0-0.6C52.8,114.9,52.8,114.9,52.8,114.9z M54,114.5c0,0.1,0,0.2,0,0.3c-0.3,0-0.9-0.5-0.9-0.8
	c0.3,0,0.3,0,0.3,0c0.3,0,0.6-0.1,0.6,0.2C54,114.3,54,114.4,54,114.5z M63.9,93c-0.3,0-0.6,0-0.6,0c0-0.6,0-0.9,0.3-1.2
	C64.3,92.4,64.3,92.4,63.9,93z M68.9,82.2c0.3,0.3,0.6,0.5,0.3,0.9c-0.3,0.6-1,1.2-0.7,1.8c0,0.3-0.3,0.3-0.3,0.6
	c-0.9-0.8-0.3-1.4,0-2.3c0,0,0.3,0.3,0.6,0.3C68.9,83.1,68.9,82.5,68.9,82.2z M71.3,38.6c0-0.3,0-0.6,0-0.6s0.3,0,0.3-0.3
	c0.1,0,0.2,0,0.3,0c0,0.3,0,0.3,0,0.3C71.7,38.3,71.7,38.3,71.3,38.6z M72.2,41.7c-0.3-0.3-0.3-0.3-0.3-0.3c0,0.3-0.6,0-0.6,0.6
	c0,0.3,0,0.6,0,0.9c0.1,0,0.2,0,0.3,0C71.6,42.6,71.9,42,72.2,41.7z M72.7,34.7c-0.3-0.3-0.6-0.6-0.6-0.6c0.3-0.3,0.7-0.9,1-0.9
	c0.6,0,0.6-0.3,1-0.9c0.3,0,0.3-0.3,0.3-0.9c0.3-0.9,0.4-1.8,0.7-2.9c0,0,0,0,0,0.3c0.3,0,0.3,0,0.6,0c-0.3-0.3-0.3-0.3-0.3-0.3
	c0-0.1,0-0.2,0-0.3c0-0.6,0.3-0.9,0.3-1.5c0.1-0.1,0.2-0.2,0.3-0.3c0.6,0.6,0.6,1.7,0,2c0,0.3-0.3,0.6-0.7,0.9c0,0,0,0,0,0.3
	c0,0.3-0.3,0.9,0.3,1.4c0,0.3,0,0.6-0.3,0.9C75,32,75,32.6,75,32.9c0,0.3,0,0.6-0.7,0.6c-0.3-0.3-1,0.3-1,0.6c0,0.3,0,0.6-0.3,0.3
	C73,34.4,72.7,34.4,72.7,34.7z M72.9,37.6c-0.3,0.3-0.6,0-1,0c0-0.3,0-0.6,0.6-0.3c0.3,0,0.3-0.3,0.6-0.3c0,0,0.3,0.3,0.3,0.6
	C73.6,37.6,73.3,37.6,72.9,37.6z M75.1,25.1c0,0,0-0.3,0.3-0.3c0,0,0,0.3,0.3,0.3c0,0.3-0.3,0.6-0.3,0.3
	C75.1,25.4,75.1,25.4,75.1,25.1z M76.6,64.4c-0.3,0.3-1,0.3-1.3,0.6c0.3,0.3,0.6,0.3,1.3,0.5C76.5,65.3,76.6,65,76.6,64.4z
	 M76.4,25.1c0-0.6-0.3-1.4,0.7-1.8c-0.6-0.6-0.6-0.9,0-1.2c0-0.3,0-0.3,0-0.3c0.3-0.6,0.3-0.6,0.6-0.6c0,0.3,0.3,0.9-0.3,1.2
	c-0.3,0-0.3,0.3-0.3,0.6c0,0.3,0.3,0.3,0.6,0.6c0,0-0.3,0-0.3,0.3c-0.3,0.3-0.7,0.6-0.7,1.2c0.3,0,0,0,0,0.3
	C76.4,25.1,76.4,25.1,76.4,25.1z M77.8,19.5c0-0.3,0-0.3,0-0.3c0-0.3,0.3-0.6,0.3-0.6c0-0.6,0.3-0.9,0.7-0.9c0.3,0,0.3,0,0.3,0
	c0.3,0,0.3-0.3,0.3-0.3c0.3-0.3,0.3-0.3,0-0.6c0,0-0.3-0.6,0-0.6c0.7-0.6,0.3-0.9,0-1.4c0.6-0.3,0.7-0.6,1-0.9c0-0.3,0-0.6,0-1.2
	c0.1-0.1,0.2-0.2,0.3-0.3c0.3,0,1,0,1.3,0s0.6,0.3,0.6,0.6c0,0-0.3,0.3-0.6,0.3c-0.6,0.3-1,0.9-1,1.8c0.3,0.3,0.3,0.6,0,0.9
	c0,0.3-0.3,0.3-0.7,0.6c0,0.1,0,0.2,0,0.3c0.3,0.3,0,0.3,0,0.6c-0.3,0.6-1,0.9-1.6,0.9c0,0.1,0,0.2,0,0.3c-0.3,0.3-0.3,0.6-0.3,0.9
	C78.4,19.5,78.1,19.5,77.8,19.5z M78.7,20.6c0,0-0.3,0.3-0.3,0.6c-0.3-0.3-0.3-0.6-0.3-0.9c0-0.1,0-0.2,0-0.3
	C78.4,20.4,78.7,20.4,78.7,20.6z M84.4,6.4C84.7,6.7,84.7,7,85,7.3C84.4,7.3,84.4,7,84.4,6.4z M94.9,26c0-0.6,0-0.9,0-1.2
	c-0.3,0-0.6,0-1,0c0.3,0.6,0.3,0.9,0.6,1.2C94.7,26,94.8,26,94.9,26z M95.9,23.4c-0.3,0-0.6,0-0.6,0c-0.3,0.3-0.3,0.6-0.7,0.6
	C95.6,24.3,95.9,24,95.9,23.4z M107.8,5.9c-0.3,0-0.3,0-0.3,0c-0.3-0.3-0.3-0.6-0.3-0.9c0.1,0,0.2,0,0.3,0
	C107.5,5.3,107.8,5.6,107.8,5.9z"/>
</svg>
