<?xml version="1.0" encoding="utf-8"?>
<!-- Generator: Adobe Illustrator 21.1.0, SVG Export Plug-In . SVG Version: 6.00 Build 0)  -->
<svg version="1.1" id="Layer_1" xmlns="http://www.w3.org/2000/svg" xmlns:xlink="http://www.w3.org/1999/xlink" x="0px" y="0px"
	 viewBox="0 0 593 406" style="enable-background:new 0 0 593 406;" xml:space="preserve">
<style type="text/css">
	.st0{fill:#E6E6E6;}
	.st1{fill:#FF0000;stroke:#FF0000;stroke-width:2;stroke-miterlimit:10;}
</style>
<g>
	<g>
		<path class="st0" d="M304.8,92.5c-0.2,0.8-0.5,0.9-1.2,0.8c-0.2,0.3,0.2,0.7-0.2,0.8c-0.2,0.3-0.5,0.6-0.7,0.7
			c-0.2,0.1-0.2,0.1-0.2-0.2c0.2-0.1,0.2-0.3,0.5-0.4c0-0.2,0.2-0.3,0.2-0.6c-0.2-0.2-0.5-0.4-0.7,0.2c-0.1,0.1-0.1,0.2-0.2,0.3
			c-0.5,0.9-1.2,1.6-2.2,1.6c-0.2,0.1-0.5,0.1-0.7,0.2c-0.2-0.2-0.2-0.4-0.5-0.4c-0.5-0.4-0.5-0.6,0-1c0.2-0.1,0.5-0.4,0.7-0.7
			c0,0.2,0,0.2,0,0.2c0,0.2,0.2,0.4,0.2,0.7c0.5-0.6,0.5-0.6-0.2-0.7c0-0.1,0-0.1,0-0.2c0-0.2,0-0.5-0.5-0.6
			c-0.5,0.1-0.7-0.1-1.2-0.2c-0.5,0.6-0.7,1.2-1.2,2.1c0.2,0.4,0.7,0.8,1,1.5c0.2-0.3,0.7-0.4,1.2-0.6c-0.2,0.3-0.2,0.6-0.5,0.6
			c-0.2,0.3-0.8,0.8-1.2,1.1c-0.9,0.5-1.7,1.2-2.5,2.1c-0.5-0.4-0.5-0.9-0.2-1.4c0-0.2,0-0.2,0-0.5c0.2-0.8,0.2-1.1-0.7-1
			c0-0.5,0-1,0-1.5c-1.7,0.7-3.2,1.8-4.5,3.2c-0.2,0.3-0.7,0.4-1.2,0.8c0.2,0.2,0.2,0.4,0.2,0.9c0,0,0,0-0.2,0.1
			c-0.1-0.1-0.1-0.1-0.2-0.2c-1,0.5-2,0.3-2.7,1c-0.2,0.1-0.5,0.4-0.5,0.6c0.5,1.6-1,2.7-2,3.8c-0.5,0.4-0.7,0.4-1,0.8
			c-0.7,0.9-2,1.8-2.7,2.5c-0.2,0.1-0.5,0.1-0.7,0.2c-1,0.3-2.2,0.8-3.5,1.7c0,0.2-0.2,0.6-0.2,1.1c-0.2-0.4-0.5-0.9-0.7-1
			c-0.2-0.2-0.7-0.3-1-0.2c-0.5,0.4-0.7,0.9-1.2,1.3c-0.5-0.1-1-0.2-1.2-0.2c-0.7,0.4-1.5,0.9-2,1.5c-0.2,0.1-0.2,0.3-0.5,0.4
			c-0.5,0.9-1.2,1.3-2,1.3c0-0.7,0.7-0.6,1-1c0.3-0.4,0.2-0.6,1.7-1.2c0-0.2-0.2-0.2-0.2-0.2c-0.7,0.2-1.2-0.2-1.7-0.5
			c-0.5-0.4-1-0.2-1.5,0.4c-0.2,0.3-0.5,0.6-1,1.3c0.2,0.2,0.5,0.1,0.7,0.3c-0.2,0.3-0.5,0.4-0.7,0.4c-0.2-0.4-0.7-0.6-1-0.7
			c-0.2-0.2-0.2-0.2-0.5-0.1c0,0.7-0.5,1.4-1,2c-0.7-0.6-1-0.7-2,0c0,0.2,0,0.8,0,1c-0.2,0.1-0.5,0.4-0.5,0.4c0,0.3,0.2,0.4,0.3,0.9
			c-0.2,0.3-0.5,0.4-1,0.5c-0.7-0.3-1,0-1.7,0.5c0.2-0.3,0.2-0.6,0.2-0.8c-1.5-0.4-2.7,0.2-3.5,1.7c-0.2,0.6-0.7,0.9-1.2,1.3
			c-0.1,0-0.1,0-0.2,0.1c-0.2,0.8-0.7,0.9-1,1c-0.2,0.3-0.2,0.3-0.2,0.6c-0.2-0.2-0.7-0.1-1.2-0.2c0.2-0.3,0.2-0.6,0.5-1.1
			c-1,0.5-1.2,1.1-1.2,2.1c-0.5,0.1-0.7,0.2-0.7-0.1c-1-0.5-1.2-0.4-1.7,1c0,0-0.2,0.1-0.2,0.3c-0.2-0.2-0.5-0.4-0.7-0.3
			c0.2-0.3,0.2-0.6,0.5-0.9c-0.2,0.1-0.7,0.2-0.7,0.2c0,1-0.7,1.2-1.2,1.6c-0.5,0.9-0.7,0.7-1.2,0.1c0-0.1,0-0.2,0-0.3
			c-0.5,0.1-1,0.5-1.7,1c0,0.3-0.1,0.8-0.2,1.3c-0.3,0.9-0.7,2-2,2.3c-0.2,0.1-0.2,0.3-0.5,0.4c-0.7,0.4-0.7,0.4-1.2,0.1
			c-0.2-0.2-0.7-0.1-0.7-0.1c-0.5,0.1-1,0.3-1.5,0.1c-0.7,0.2-0.9,0.8-1.5,1.4c-0.6,0.6-2.5,0.9-3.5,1.4c-0.2,0.1-0.5,0.4-0.7,0.7
			c-0.2,0.3-0.5,0.6-0.7,0.9c-0.5,0.1-1,0-1.2,0.1c-0.2,0.6-0.5,0.9-0.7,1.5c-0.3-0.9,0.2-1.8-0.8-1.8c-0.5,0.4-0.7,0.9-1.2,1.3
			c0,0.3,0.3,0.4,0.3,0.7c0,0.3-0.2,0.6-0.5,0.9c0.2,0.2,0.5,0.1,1,0.3c-1.2,0.6-1,1.5-1.5,2.1c0-0.5,0-1-0.3-1.7
			c-0.5,0.4-1,0.5-1.5,0.9c-0.2-0.2-0.7-0.3-0.8-0.8c-0.3-0.4-0.5-0.6-0.7-0.3c-0.5,0.1-1,0.5-1,0.8c-0.2,0.8-0.5,0.9-1,1.3
			c-0.7,0.2-0.5-0.6-0.7-0.6c-0.7,0.7,0.3,1.5-0.7,2c0-0.3-0.3-0.4-0.3-1c-0.2,0.3-0.5,0.4-0.5,0.4c-0.7,0.2-1,0.5-1,1.3
			c0,0.3-0.2,0.6-0.5,0.6c-0.5,0.1-0.7,0.2-1-0.3c0-0.5-0.3-1-0.5-1.4c-0.3-0.4-1-0.5-1.5-0.1c-0.5,0.1-0.7,0.7-0.7,1.2
			c0,0.5,0,1,0,1.5c0,0.5-0.2,0.8-1.2,1.3c-0.3-0.4,0-0.8,0.2-1.1c0.2-0.1,0.2-0.3,0.2-0.6c-0.2,0.1-0.2,0.1-0.5,0.1
			c-0.5-0.1-0.7-0.3-1.2-0.2c0,0.5,0,0.8,0.3,1c0.8,0.6,0.8,1.1,0,1.8c-0.5-0.4,0-1.3-0.8-1.1c-1,0.8-0.2,1.3-0.5,2.2
			c-0.8-0.6-1.7-0.8-2-2.1c-0.2,0.3-0.2,0.6-0.5,0.9c-0.5-0.4-0.8-0.6-1.3-1c-0.5,0.6-1,1-1.5,1.6c-1.2-0.2-2.8-0.1-3.7,0.4
			c-0.4,0.2-1,0.7-1.2,1.1c-0.5,0.4-0.7,0.7-1.2,0.3c0-0.3-0.3-0.2-0.3-0.2c-0.5,0.6-0.5,0.6,0.5,0.9c-0.2,0.8-0.7,0.4-1.2,0.5
			c0,0.5,0,1-0.2,1.6c-0.5-0.6-1.7,0.2-1.7-0.9c-0.5,0.1-0.7,0.2-1.2,0.3c-0.2,0.8-0.5,1.6-0.5,2.4c-0.5,0.1-1,0-1.5,0.1
			c-0.2,0.3-0.2,0.6-0.5,1.1c-0.7,0.2-1.2,0.3-2,0.5c-0.5,0.4-1,1-1.5,1.4c0.2-0.8-0.8-1.1,0.2-2.1c0,0.5,0.3,0.7,0.3,1
			c0,0,0.2-0.1,0.2-0.3c0.2-0.6,0.5-1.1,1-1.8c-0.7-0.1-1.5-0.2-2.5-0.2c0.3,0.5,0.3,0.7,0.3,1c0,0-0.2,0.1-0.5,0.1
			c-0.2,0.8-1,1.3-1.7,1.7c-0.2,0.3,0,0.8-0.2,1.3c-0.3-0.7-0.5-1.4-0.8-2.4c0,0.3-0.2,0.3-0.2,0.3c-0.2,0.3-0.2,0.3-0.2,0.6
			c-0.3-0.2-0.5-0.4-0.8-0.9c-0.2,0.6-0.5,0.9-0.7,1.2c-0.2,0.1-0.5-0.1-0.7-0.1c-0.5,0.4-1,0.7-1.5,0.3c-0.2,0.3-0.2,0.6-0.7,1.2
			c0-0.5-0.3-0.7-0.5-1.2c-0.2,0.1-0.7,0.2-1.2,0.3c0,0.5,0.3,0.7,0.3,1.2c0,0.3,0,0.5,0,0.5c-0.2,0.3-0.5,0.4-0.7,0.4
			c-0.5-0.1-1,0-1.5-0.2c-0.2,1.1,0.3,2,0.8,1.9c0.7,0.1,0.8,0.6,1.3,1c-0.2,0.1-0.5,0.1-1,0.2c0,0.8-0.2,1.3-0.2,2.1
			c-1-0.3-0.8-1.4-1.3-2c-0.5,0.1-1.2,0.3-1.7,0.4c0-0.3-0.3-0.5-0.3-0.7c-0.2,0.1-0.2,0.1-0.2,0.3c0,0.8-1,1.8-0.2,2.6
			c0.5-0.4,0.7-0.4,1-0.7c1.3,0.8-0.5,1.7-0.2,2.4c0.2-0.1,0.5-0.4,0.7-0.2c0.2-0.1,0.5-0.1,0.5,0.1c0,0.3,0,0.5-0.2,0.6
			c-0.2,0.3-0.5,0.6-1,1c-0.5,0.4-0.7,0.7-0.7,1.4c1,0,1.9-2,2.5-1.8c0.2,0,0.3,0.7,0.3,1c-0.5,0.4-1.2,0.8-2,1.5
			c0.7,0.1,1.2,0.5,1.3,1.3c0.3,0.5,0.8,1.1,0.8,1.9c0.3,0.5,0.3,1.2,0.3,1.7c0,0.3-0.2,0.6-0.5,0.6c-0.5,0.4-1.2,0.8-2,1.2
			c0,0.5,0.3,1,0.3,1.5c0.2-0.6,0.5-0.9,1-1.5c0.5,0.1,0.5,0.4,0.3,1c-0.3,0.8,0,1,1,1.1c0.2-0.3,0.2-0.8,0.5-1.4
			c0.2-0.1,0.3,0.2,0.3,0.2c0,0.8,0,1,0.8,0.9c0,1-0.7,0.7-1.2,1.1c0,0.5-0.2,1.1-0.5,1.9c0.7,0.3,1,1.1,0.5,2.2
			c-0.3-0.5-0.5-0.9-0.8-1.4c0,0.5-0.2,0.6,0,0.8c0.5,1.4-1,2.3-1,3.8c-0.5-0.4-0.8-0.6-1-0.8c-0.2,0.3-0.7,0.7-1,1.3
			c-0.2,0.3-0.2,0.6,0.8,0.9c-1.2,0.5-1,1.5-0.7,2.2c0,0.5,0.3,1-0.5,1.4c0,0.3,0.3,0.5,0.3,0.7c0.3,0.5,0.5,0.7,0,1.3
			c-0.7,1.5-0.5,1.7,0.3,2.5c0.2,0.2,0.3,1.4,0,1.8c-0.3,0.4-0.2,1.1-0.2,1.9c-0.2,0.6-0.2,1.1-0.2,1.6c-0.7-0.3-0.8-0.9-0.3-1.7
			c-1,0.7-2,1-2.7,0.6c-0.7,0.4-1,1.5-2.2,1.3c0.3,0.5,0.3,0.7,0.3,0.7c0,0.3-0.2,0.3-0.2,0.3c0.3,0.5,0.5,0.7,1,1.1
			c0,0,0.2-0.1,0.7-0.2c0.2,0.2,0,0.8-0.7,1.7c-0.2,0.8,0.5,0.7,1,1.1c0.5-0.6,0.7-1.2,1.2-1.8c0.5-0.1,0.7,0.1,0.5,0.7
			c-0.2,0.3-0.2,0.3-0.5,0.6c-0.5,0.6-0.5,0.6,0,1.5c0,0,0,0.3,0,0.5c0,0.3,0,0.3,0,0.3c-0.2,0.3-0.2,0.6-0.5,0.9c-1,0-1,0-0.8-1.4
			c-0.2-0.2-0.5-0.7-1-0.8c-0.2,0.1-0.5,0.4-0.7,0.4c0-0.3,0-0.5-0.3-0.7c-0.5,0.4-1,0.5-1.7,0.9c0-0.5,0.2-0.8,0.2-1.3
			c0.2,0.2,0.5,0.1,1,0c-0.5-0.1-0.5-0.4-0.7-0.6c-0.5,0.6-0.7,0.9-0.7,1.5c0,0.3,0,0.8,0.3,1.2c0.2-0.1,0.7-0.4,1-0.5
			c0.3,0.5,0.5,0.9,0.8,1.4c-0.5,0.1-1,0.5-1.5,0.9c0,0.3-0.2,0.8,0.3,1c-0.2,0.1-0.5,0.4-0.7,0.4c-0.2-0.2-0.3-0.5-0.5-0.7
			c-0.3-0.5-0.3-0.7,0-1.3c0-0.5,0.2-1.1-0.5-1.2c0,0.3,0,0.5,0,0.8c0.3,0.7-0.2,1.1-1,1c-0.2,0.1-0.2-0.2-0.5-0.1
			c0,0.5,0,1,0.3,1.5c-0.5,0.1-0.7,0.2-1,0.2c-0.5,0.1-0.7,0.2-1,0.2c0.3,1,0.5,0.9,1.7-0.1c0.3,0.2,0.3,0.5,0.5,0.7
			c-0.5,0.4-0.7,0.7-1.2,0.8c-0.5,0.1-0.7,0.4-0.5,1.1c-0.5,0.1-0.7,0.2-1.2,0.3c0.3,0.5,0.5,0.7,0.8,0.9c-0.5,0.1-1,0.5-1.5,0.6
			c0,0.5,0.8,1.1,0.3,1.8c-0.5,0.7-1.2,0.5-2,0.2c-0.2,0.3-0.5,0.6-0.7,0.7c-0.2,0.8-0.5,1.4-0.5,2.2c0,0,0.2-0.1,0.2,0.2
			c0,0.3-0.2,0.3-0.5,0.9c0.7-0.2,1.5-0.3,2-0.7c0.7-0.2,1,0,1.2,0.5c-0.2,0.8-0.5,1.4-0.7,2c0-1-0.8-1.1-1.5-1.2
			c0,0.3,0.2,0.2,0.3,0.5c0,0.3-0.2,0.6-0.5,0.9c0.7-0.2,1.2,0,1.7-0.1c0,0.3,0.3,0.2,0.3,0.5c0.3,0.5,0,0.8-0.5,1.1
			c-0.2,0.1-0.5,0.1-0.7,0.4c-0.2,0.1-0.2,0.1-0.2,0.1c-0.2,1.1,0.5,2-0.7,3c-0.5-0.4-1-0.8-1.5-1.2c0,0-0.2,0.3-0.5,0.4
			c0.3,0.2,0.5,0.4,0.8,0.6c0.2-0.1,0.5,0.1,0.5,0.4c-0.2,0.6-0.5,0.6-0.7,0.7c0-0.3-0.2,0.1-0.5,0.1c0,0.3,0,0.8,0,1.3
			c-1.2,0.3-0.5-1.2-1-1.3c-0.2,0.6-0.5,0.9-0.7,1.5c0,0.3,0,0.8,0.3,1c0.2-0.3,0.5-0.6,0.5-0.6c0.2-0.1,0.2-0.1,0.2-0.1
			c0,0.5,0,1,0,1.6c0.5,0.4,1,0.8,1.5,1.7c-0.2,0.1-0.5,0.1-0.5-0.1c-0.7,0.2-1.5,0.3-2,1c-0.2,0.3-0.5,0.4-0.7,0.7
			c0,0.3,0,0.5,0.3,1c0.2,0.2,0.5,0.7,0.3,1.2c0,0,0,0.3,0,0.5c0,0.3,0.2,0.2,0.3,0.5c-0.7,0.7-1.5,0.8-2.2,1.8
			c0.5-0.1,0.7-0.2,1-0.2c0,0.3,0,0.5,0,0.5c-0.2,0.1-0.5,0.1-0.7,0.2c0,0.1,0,0.2,0,0.3c1.2,1,1,1.3-0.5,2.4
			c-0.2,0.1-0.2,0.3-0.5,0.4c0.2,0.2,0.5,0.7,0.3,1c-0.5,1.1-0.5,2.2-1,3.1c-0.2,0.3-0.2,0.6-0.2,0.8c0,0,0.2,0.2,0.5,0.1
			c-1,0.2-1,1-1.2,1.8c0.5-0.1,0.7-0.2,1.2,0c-0.5,0.6,0.3,1,0.3,1.5c-0.2,0.1-0.5,0.1-0.7,0.4c-0.2,0.1-0.5,0.1-0.7,0.2
			c-0.2,0.3-0.5,0.4-0.7,0.7c0,0.3,0.3,0.5,0.3,0.7c0.2,0.2,0.5,0.4,0.7,0.6c0,0.5,0.3,0.7,0.3,1.2c-0.5,0.1-1,0.5-1.5,0.8
			c-0.5,0.4-0.7,0.9-1.2,1.6c-0.5,0.4-1-0.3-1.5,0.8c0.7-0.2,1.5-0.3,2-0.4c0.2-0.1,0.5-0.4,0.5-0.4c-0.3-0.7,0.5-1.1,1-1.5
			c0,0,0.2-0.3,0.5-0.6c0,0.5,0,0.8-0.2,1.4c0.7-0.7,1.5-1.1,1.2-1.8c0-0.3,0.5-0.6,0.7-0.9c-0.2-0.2-0.5-0.4-1-0.8
			c0.5-0.6,0.7-0.9,1.2-1.6c0.2-0.1,0.5,0.1,1,0.3c0-0.5,0-0.8,0-1.3c0.2-0.1,0.7-0.2,1-0.2c0,1,0.5,1.2,1.3,1.5
			c0.2-0.1,0.5,0.1,0.5,0.4c0.3,0.7,0.8,0.9,1.7,0.9c-0.2,0.6-0.2,1.1-0.2,1.6c0.5-0.1,1,0.3,1.7-0.7c0,1-0.2,1.4-1,2.3
			c0.5,0.4,0.8,0.9,1.2,1.3c-0.2,0.3-0.2,0.6-0.5,0.9c0.5,0.4,0.5,0.9,0.5,1.4c0,1,0.3,2,0.5,2.7c0,0.3,0.3,0.5,0.5,0.7
			c-0.2,0.3-0.5,0.9-1,1.3c-0.2,0-0.3,0.1-0.5,0.1c-0.5-0.4-0.5,0.1-1,0.2c0,0-0.2-0.2-0.3-0.7c-0.2,0.3-0.5,0.6-0.7,1.2
			c0,0,0.2-0.1,0.5,0.1c-0.2,0.3-0.2,0.3-0.5,0.6c0.2,0.2,0.5,0.1,1,0c-0.2,0.6-0.2,0.8-0.2,1.4c0.3,0.5,0.5,1.2,0.8,1.6
			c-0.5,0.6-0.7,0.4-0.7-0.1c0-0.2,0-0.3,0-0.5c-0.2-0.2-0.5-0.1-0.7-0.1c0,0.5-0.5,0.6-0.7,0.9c-0.5,0.1-0.5,0.6,0,1.3
			c1.2-0.8,1.7-0.7,2.2,0.5c0.5-0.4,0.7-0.7,0.7-1.2c0-0.3,0-0.5,0-0.5c0.2-0.6,0.5-1.2,1-1.8c0.7,0.3,0.7,1.4,0.5,1.9
			c-0.3,0.8-0.1,2.3-0.5,2.7c-0.4,0.5-2,1-2.7,1.2c0,0.3-0.2,0.3-0.2,0.3c0.2,0.2,0.5,0.1,0.5,0.4c0.2-0.1,0.7-0.4,1-0.5
			c0.2-0.1,0.5,0.1,0.5,0.7c-0.2,0.1-0.7-0.1-1,0c-1.2,0.8-1.5,0.6-1.7-0.6c0.2-0.3,1-0.5,0.5-1.2c-0.2,0.1-0.7,0.4-1.2,0.5
			c0.3,1,0.3,2,0.3,3.3c-0.7,0.4-1.5,0.9-2.5,1.4c0.2,0.2,0.3,0.5,0.3,0.5c0.7-0.4,1.7-1.2,2.5-0.6c-0.2,1.1-0.5,1.9-0.7,3
			c0,0.3,0.3,0.5,0.5,0.7c-0.5,0.4-0.7,0.2-1-0.3c-1,0.5-0.2,1.1-1,1.8c0.5,0.1,1,0.3,1.2,0.5c0,0,0,0.5,0,0.8
			c-0.2,0.1-0.5,0.1-1,0.2c0,1.3,0.3,1.5,1.7,1.4c0,0.3-0.2,0.8-0.2,1.1c0-0.3-0.2-0.2-0.3-0.5c-0.5,0.6-1,1.4-0.7,2
			c0.3,0.6,0.5,1.7-0.2,2.6c-0.5,0.4-0.5,1.2-0.5,1.9c-0.2-0.2-0.5-0.1-0.7-0.3c-0.2-0.2-0.5-0.7-0.8-1.1c0.5-0.1,1-0.2,1.2,0
			c0-0.3,0.2-0.6,0.2-0.8c0-0.5-0.3-1,0.2-1.6c0.2-0.1,0-0.8-0.3-1c-0.2-0.2-0.5-0.1-0.7-0.3c-0.5,0.1-1.2,0.3-2,1
			c0,0.3-0.5,0.1-0.7,0.2c-0.2,0.3-0.2,0.8,0,1c0.3,0.5,0.3,0.7-0.2,1.4c-0.7-0.3,0.2-1.6-0.8-1.6c0,0.3-0.2,0.3-0.7,1
			c0-0.8,0.2-1.4,0.2-1.9c0-0.3,1-0.7,1.5-0.6c0.5-0.1,0.7,0.1,1-0.5c-0.5-0.1-0.5-0.1-1.2-1.3c0,0.5,0,0.5,0,0.8c0,0,0,0.3,0,0.5
			c-0.2,0.1-0.7,0.2-1.2,0.3c0-1.3-0.3-1.2-1.2-1c0,0.5,0,0.8,0,1.3c0.2-0.1,0.5-0.1,1,0c-0.2,0.1-0.5,0.4-0.7,0.4
			c-0.2,0.1-0.5-0.4-1,0.5c0.2,0.2,0.5,0.4,1,0.6c-1,0.5-1.5-0.2-1.7-0.6c-0.2,0.1-0.2,0.1-0.2,0.1c-0.2,0.8-0.2,1.9-0.2,2.7
			c-0.2,0.3-0.5,0.4-0.7-0.1c-0.2-0.2-0.5-0.4-0.5-0.9c0-1.3-0.8-1.1-1.7-1.2c0,0.5,0,1,0,1.6c-0.2,0.1-0.2,0.1-0.2,0.1
			c-0.2-0.2-0.5-0.4-0.7-0.6c-0.5,0.9-0.5,2.2-1.7,2.7c-0.5-0.1-0.5-0.7-1-0.3c0,0-0.2,0.3,0,0.3c0.2,0.2,0.5,0.7,0.7,0.6
			c0.5,0.1,1,0,1.5-0.1c0,0.1,0,0.2,0,0.3c0,0.3,0,0.3,0,0.3c-0.5-0.1-1,0.7-1.2,0.8c-0.5-0.4-1,0.5-1.5,0.1c0.3,0.7-0.6,1-0.7,1.5
			c-0.2,0.8,0.8,1.9,1.7,2c-0.2,0.3-0.5,0.4-0.7,0.7c0,0.8,0.5,0.9,1.7,0.7c-0.2,0.8-0.5,1.4-0.5,2.2c-0.5-0.1-0.7-0.1-1-0.3
			c-0.7,0.7-0.2,2.1-1.5,2.7c0-0.5-0.3-1-0.3-1.5c1,0.3,0.7-1.2,1.7-1.4c-0.2-0.2-0.5-0.1-0.5-0.4c-0.2,0.6-0.7,0.9-1,1.3
			c-0.7-0.1-0.3-0.7-0.3-1c0.2-0.1,0.5-0.1,0.7-0.2c0.2-0.6-0.3-1.2-1.5-1.5c-0.5,0.4-0.5,0.9-0.5,1.4c0,0.3,0.1,0.5,0,0.8
			c-0.2,0.7-0.5,1.9-0.2,2.9c0.2,0.2,0,0.8-0.2,1.1c-0.2,0.3-0.5,0.6-1,0.7c-0.2,0.1-0.2-0.2-0.3-0.7c0-0.3,0-0.3-0.3-0.7
			c-0.5,1.2-0.9,2.1-1.2,2.9c-0.2,0.6-0.2,1.1,0.3,1.2c0.7,0.4,0.5,1.2,0.5,1.7c0-0.3-0.3-0.7-0.3-1c-0.7,0.4-1,0.7-1.5,0.6
			c-0.2,0.1-0.5,0.4-0.5,0.4c-0.7,1.2-1.5,2.1-1.9,3.3c-0.2,0.1-0.7,0.2-1,0.2c-0.5,0.6,0,0.5,0.3,0.7c-0.2,0.3-0.5,0.6-0.7,0.9
			c-0.2,0.1-0.5,0.1-0.7,0.2c0,0.3,0,0.5,0,0.5c0.5,0.2,0.7,0.6,1.2,0.8c0.2-0.1,0.5-0.1,0.7-0.2c0.5-0.1,0.7-0.4,0.7-0.4
			c0.7-0.7,1.2-1.3,1.7-2.2c0.3,0.5,0.5,0.7,1,1.1c0,0.8-0.7,1.5-1.2,2.1c-1.5-0.5-2.7,0.3-4.2,1.2c0,0.5,0.3,0.7,0.3,1.3
			c-0.5-0.2-0.7-0.1-1-0.3c-0.2,0.8,0.3,0.7,0.3,1.3c0,0.5-0.6,0.4-0.7,0.7c-0.2,0.7,0,1,1,1.1c0,0.8,0,1.8,0,2.9
			c-0.5,0.1-0.7,0.2-1.5,0.3c1.2,0.5,1.5,0.5,2.5-0.5c0.2-0.6-0.7-0.9,0-1.8c0.3,0.5,0.5,0.7,0.7,0.9c0,0,0.2-0.1,0.5-0.1
			c-0.3-0.7-0.5-1.5-0.8-2.4c0.2-0.1,0.5-0.4,0.7-0.4c0.3,0.5,0.3,0.7,0.3,1.2c0.2,0.2,0.7,0.4,1,0.3c0.2-0.1,0.5-0.1,0.7-0.4
			c0.5-0.9,0.7-0.9,1.2,0c-0.2,0.3-1,0.7-0.5,1.4c0.2-0.3,0.2-0.6,0.5-0.6c0.2,0.2,0.5,0.1,1,0.3c-0.2,0.3-0.2,0.6-0.5,1.2
			c-0.2-0.2-0.7-0.1-1-0.3c-0.5,0.6-0.7,1.5-0.2,2.1c0,0-0.2,0.3-0.2,0.8c-0.5-0.9-0.3-2.6-1.7-1.7c-0.5-0.4-0.7-0.6-1-0.8
			c-0.2,0.3-0.2,0.6-0.2,0.6c0.5,0.4,0.3,1,0.3,1.8c0.2-0.1,0.2-0.1,0.5-0.1c0.2-0.3,0.2-0.6,0.5-1.2c0.5,0.9,1,1.6,1.3,2.3
			c0.7-0.4,1-0.7,1.5-0.9c0.5-0.1,1,0.3,1.5,0.4c-0.5,0.1-0.7,0.4-1.2,0.5c0,0.3,0.3,0.5,0.3,1c-0.2,0.3-0.5,0.4-0.7,0.7
			c-0.5-0.1-0.7-0.1-1-0.3c-0.2,0.1-0.2,0.3-0.5,0.6c0.2-0.1,0.7-0.4,1,0c0,0.3,0.3,0.5,0.5,0.9c0.7-0.4,1.2,0,1.7-0.1
			c1-0.2,0.5,0.9,1,1.1c0.7-0.4,1.5-0.9,1.5-1.6c0-0.3,0.2-0.6,0.5-0.9c0.5-0.4,0.5-0.9,0.2-1.1c0-0.5,0.2-0.8,0.2-1.1
			c0-0.5,0-0.8,0.7-1.2c0.2-0.1,0.5-0.6,0.5-0.9c0-1-1-0.8-1.5-1.5c0,0,0,0-0.2,0.1c-0.7-0.1-0.7-0.4-0.3-1.2
			c0.5,0.1,0.7,0.4,1.5,0.2c0,0.3-0.2,0.6-0.2,0.6c2,0.1,2.5,0.7,1.5,3c-0.2,0.1-0.5-0.1-0.7-0.1c0.3,0.5-0.5,1.2,0,1.6
			c-0.2,1.1-0.2,2.1-1,3.1c-0.2,0.3-0.5,0.6-0.7,1c-0.5,0.9-0.7,1.7-1.2,2.6c-0.2,0.6-0.7,1.2-1.2,1.8c0,0,0,0-0.2,0.1
			c0-0.5-0.3-1-0.3-1.5c-0.5,0.4-0.5,0.6-0.5,0.6c0,0.3,0.4,0.5,0.5,0.7c0.3,0.5-0.2,2.1-0.5,3.2c-0.7,0.2-1.2,0.3-1.5,1.4
			c0,0.5-0.5,1.4-1,2.1c-0.7,1-1.7,1.7-1.9,3.1c-0.2,0.3-0.7,0.7-1,1c-0.2,0.6-0.7,0.9-0.7,1.5c0,0.3,0,0.5,0,0.5
			c-0.7,0.9-1.5,1.9-2.2,2.8c-0.5-0.2-0.7-0.6-0.7-0.9c-0.2-0.2-0.5-0.4-0.7-0.9c-1.2,0.3-1.2,1.6-1.9,2.5c-0.5-0.2-1.2-0.5-2,0.2
			c0-0.1,0-0.2,0-0.3c0-0.5,0.2-0.8,0.5-1.2c-0.7-0.1-1.2,0.3-1.7,1.2c-0.2-0.2-0.5-0.4-0.7-0.9c0,0.8-0.2,1.4-0.5,2.2
			c0.7-0.4,1.2-0.8,1.7-1.2c0,1,0,1-1.2,1.6c0,0.3,0,0.5,0,0.8c0.5-0.1,0.7,0.1,1.2,0c0.2-0.3,0.5-0.6,1-0.7
			c0.5-0.4,1.5,0.2,1.7,0.4c-0.5,0.1-1,0.2-1.7,0.6c0.2,0.2,0.5,0.2,0.7,0.4c-0.5,0.9-1.2,1.6-1.9,2c-0.7,0.2-1,0.5-1.5,0.8
			c-0.5,0.4-1.2,0.8-2,1.5c0.2-1.1,0.5-1.7,0.5-2.2c0.2-0.6,0.5-0.6,0.7-0.7c0,0.5,0.3,0.7,0.7,0.9c0.2-0.8-0.3-1-0.7-0.9
			c0-0.5,0-0.8-0.3-1c-0.5-0.2-0.7-0.4-1.2-0.5c-0.1,0-0.1,0-0.2,0.1c0.2,0.2,0.3,0.5,0.5,0.7c-1.2,0.3-1.5,0.1-2-0.9
			c0.2-0.6,0.2-0.8,1-1.3c0.2-0.3,1-0.7,0.5-1.4c-0.5,0.1-0.7,0.2-1.5,0.6c0.3,1-0.2,1.6-1.2,2.1c-0.7,0.2-0.7,0.7-0.5,1.4
			c0.2,0.2,0.3,0.5,0.3,0.7c-0.5,0.6-1,1.3-1.5,1.9c0.5,0.2,0.7,0.4,1,0.6c0,0.3,0,0.8,0.3,1c0.2,0.2,0.7,0.4,1.2,0.3
			c-0.2,1.6-0.5,1.9-1.2,2.1c-0.5-0.9-0.8-1.9-2-2c0.3,0.7,0.3,1.5,0.5,2.3c0,0,0.2-0.1,0.5-0.1c0,0,0,0,0,0.3c-0.5,0.1-1,0.7-1.2,0
			c-0.5,1.4-1.2,2.6-2.4,3.1c-0.2,0.3-0.5,0.1-1,0.2c0,0.3-0.5,0.6-0.2,1.1c0.2,0.2,0.2,0.2,0,0.5c-0.2,0.8-0.5,1.4,0.5,1.5
			c0.2-0.1,0.3,0.5,0.3,0.7c0,0.5-0.2,1.4-0.5,1.9c0,0.3-0.5,0.6-1,1.3c0.3,0.5,0.5,1,1,1.4c-0.5,0.4-1,0.7-1.7,1.4c0.2-0.1,0,0,0,0
			c0.3,1.5-0.9,1.7-1.7,2.2c-0.5,0.3-0.7,0.4-1.2,0.5c0-0.3-0.3-0.5-0.3-0.7c-0.2-0.2-0.7-0.4-1-0.6c0.2-0.3,0.5-0.4,0.7-0.7
			c-0.3-0.5-0.5-0.7-1-1.4c0,0-0.5,0.1-0.7,0.1c0,1.1,0,2.1,0,3.2c0.7-0.4,1.2-0.2,1.7,0.4c-0.2,0.3-0.2,0.8-0.7,0.7
			c0,0,0-0.3,0-0.5c-0.2,0-0.7-0.1-1-0.1c0,0.5-0.2,0.8-0.2,1.1c-0.1,0-0.1,0-0.2,0c0,0,0-0.3,0-0.5c-0.3-0.5-0.3-1-0.8-1.2
			c-0.2-0.2-0.3-0.5-0.5-1c0.5-0.1,0.7-0.1,1-0.2c0.2-0.6,0.2-1.1,0.2-1.6c0-0.3,0-0.5-0.3-0.7c-0.3-0.5-0.5-1,0.2-1.6
			c-0.5-0.4-0.7-0.6-1.2-0.8c-0.2,0.8-0.7,1.7-1.7,1.9c0.2-0.3,0.2-0.6,0.2-0.8c-0.5,0.1-1.2,0.2-1.7,0.3c0,0.3-0.2,0.6-0.2,0.8
			c0,0.3,0,0.5,0,0.5c-0.7,0.9-0.6,2.1-0.9,2.6c-0.2,0.3-1.2,0.8-1.7,1.6c0,0.3-0.7,0.4-1,1c-0.5,0.6-1.2,1.3-1.9,1.9
			c-0.2,0.3-0.7,0.7-1,1.2c-0.2,0.6-0.7,0.9-1.2,0.7c-0.2,0.6-1,1.2-0.2,2.2c0.5-0.6,1.2-0.7,2-0.6c0,1.1-0.7,0.9-1,1.2
			c-1,0.4-2,0.6-2.9,1.1c-0.2,0.3-0.5,0.4-0.5,0.6c-0.5,0.6-1,1-1.7,1.1c-1.7,0.8-3.4,1.4-5.1,1.9c-0.1,0-0.1,0-0.2,0
			c-1.2,1-2.7,1-3.9,2c0,0.3-0.2,0.3-0.5,0.3c-0.7,0.1-1.5,0.2-2.2,0.3c-1,0.4-2.2,0.3-3.4,0.5c-1.2,0.2-2.7,0.4-3.9,1.4
			c-0.2,0-0.5,0.1-1,0.4c-0.2,0-0.7,0.1-1.2,0.4c-1.2,1-2,0.8-2.5-0.5c-0.2-0.2-0.3-0.8-0.5-1c-0.5-0.7-0.6-0.8-1.5-0.3
			c-0.7,0.3-1.5,1-2.2,0.8c-1.2,0.4-2.5,0.4-3.7,0.2c-0.7-0.1-1.6,0.4-2.4,0.8c-0.5,0.2-1.2,0.4-2,0.5c-0.5,0.1-1,0.4-1.5,0.4
			c-0.1,0.1-0.1,0.2-0.2,0.3c-0.3-0.5-0.7-0.7-1.2-1.2c-0.1-0.1-0.1-0.1-0.2-0.2c-1,0.4-1.6-0.4-2.2-0.8c-0.5-0.4-1-0.7-1.7-0.6
			c-0.2,0-0.5,0-0.7,0.1c-0.8-1-1.6-0.4-2.2-0.1c-0.5,0.3-1,0.2-1.2,0.1c-0.9-0.3-2.7-0.6-3.5-2.1c-0.8-1.6-2-2.8-3-4.1
			c-0.8-1-1.8-2-2.3-3.3c-0.3-0.5-0.8-1-1.2-1.3c-1.5-1.2-2.3-2.5-3-4.4c-0.2-0.3-0.3-0.5-0.5-0.8c-1-1.3-1.8-2.3-2.5-3.9
			c-0.3-0.8-1-1.6-1.5-2.3c-0.6-0.8-0.5-2.4-1-3.5c-0.3-0.5-0.5-1.1-0.8-1.9c0,0-0.2,0-0.3-0.3c0-1.6-1.1-2.7-1.6-4.3
			c-0.6-2.3-1.3-5.1-1.9-7.5c0,0,0-0.3-0.3-0.5c-0.3-1.1-0.8-2.5-0.6-3.8c0.2-0.8-0.2-2-0.3-3c-0.2-1.2-0.3-2.7-0.6-4.3
			c0,0,0-0.3,0-0.5c-0.3-1.1-0.4-2.3-0.3-3.5c0.1-1.5,0.2-3.5,0.2-5.2c0-0.5-0.2-1.2-0.3-1.6c-0.2-1-0.1-3,0.4-4.3
			c0-0.8,0-1.4,0.2-2.2c0-0.8,0-1.6,0-2.2c0.2-1.4,0.7-2.5,0.7-3.8c0-1.1,0.1-2,0.2-3c0.1-1,0.2-2.2,0.4-3.3c0.5-2.2,0.9-4.1,1.4-6
			c0.2-1.1,0.4-2.4,0.7-3.5c0-0.3,0-0.3,0-0.5c0.2-0.5,0-1.1,0.2-1.6c0.5-1.6,1.1-3.3,1.6-4.9c0.4-1.3,0.7-2.5,1.2-3.8
			c0.2-0.8,0.7-1.6,1.2-2.7c0.2-0.5,0.5-1.1,0.7-1.9c0.5-1.4,0.9-2.7,1.4-4.1c0.2-0.5,0.2-1.4,0.5-2.2c0.2-0.5,0.5-1.1,0.7-1.6
			c0.5-1.1,1-1.9,1.4-3c0-0.3,0.2-0.5,0.2-0.8c0.2-0.3,0.5-0.6,0.5-1.1c0.5-0.6,0.7-0.8,1-1.4c0.7-1.9,1.5-4.2,2.1-5.7
			c0.3-0.8,0.7-1.6,0.9-2.5c0.5-1.4,0.9-2.7,1.4-3.8c0.7-1.6,1.4-3.3,1.9-4.9c0.1,0,0.1,0,0.2,0c-0.3-1.3,0.5-2,1.2-2.5
			c0.9-0.6,1.3-1.7,1.9-2.8c0.7-1.3,1.4-2.8,1.9-4.4c0.4-1.3,1.2-2.8,1.9-3.6c0-0.3,0.2-0.3,0.2-0.3c0-0.8,0.7-1.7,1.2-2.5
			c0.5-0.8,1-1.9,1.2-2.8c0-0.5,0.2-0.8,0.5-1.1c1.2-1.1,1.4-2.5,2.2-3.9c0.5-0.6,0.7-1.1,1.2-1.4c0.7-0.9,1.4-1.8,1.9-2.8
			c0.4-0.8,1.2-1.7,1.7-2.5c1-2.2,2.2-4.4,3.6-6.7c0.2-0.6,1-1.2,1.5-1.4c0.7-0.3,1.2-1,1.7-1.5c0.6-0.6,1.5-1.5,2.2-2.3
			c0.2-0.3,0.2-0.3,0.2-0.6c0.7-0.9,1.2-2,1.7-2.8c0.2-0.3,0.2-0.8,0.5-1.1c0.2-0.3,0.2-0.8,0.5-1.1c1.2-1.4,2.3-2.9,3.2-4
			c1.2-1.6,2.4-3.2,3.7-4.6c0.2-0.3,0.7-0.3,1.2-0.6c0.5-0.3,1.2-0.7,1.7-0.7c0.2-0.3,0.5-0.3,1-0.4c0.2,0,0.5,0,0.7,0.2
			c0,0.3,0,0.5-0.2,1.1c0,0.3-0.2,0.8-0.5,1.4c-0.7,1.4-0.7,3.3-1.7,4.4c-0.5,0.6-1,0.9-1.2,1.5c-1,0.9-1.5,2-1.2,3.6
			c0,0.3,0,0.8-0.2,1.4c0,0.3-0.2,0.6-0.5,1.1c0.3,0.2,0.3,0.8,0.5,1c0.2,0,0.5,0,0.7-0.1c0,0.8-0.2,1.6,0,2.1
			c0,0.3-0.2,0.6-0.2,0.8c0.5,0.5,0.5,0.5,0,1.6c-0.7,0.1-1.5,0.4-1.5,0.9c0,0.5-0.2,1.1,0.5,1.5c0.2-0.6,0.2-0.8,0.2-1.1
			c0.2-0.3,0.5-0.3,1-0.6c-0.2,0.8-0.5,1.1-0.7,1.7c0.8,1.5,0.8,1.8,0,2.4c0.5,0.7,0.5,1.5,0.5,2.3c0,1.3-0.5,2.5-0.9,3.8
			c-0.5,1.6-0.7,3.3-0.4,4.8c0,0.3,0,0.3,0,0.3c-0.7,0.6-1.2,1.2-1.7,2c-0.5,0.8-1,1.7-0.9,2.8c0,0.5-0.5,1.1-0.5,1.4
			c0.3,0.5,0.8,0.7,1,1c0.5-0.3,1-0.6,1.7-1c0.3,1,0.3,2.1,0.5,3.1c0,0.3,0,0.3,0,0.5c-1,0.6-0.7,1.9-0.9,3
			c-0.2,0.3-0.2,0.6-0.5,0.8c-1,0.4-1,1.2-1,2c0.3,0.2,0.5,0.2,0.5,0.5c0,0.5-1.7,0.7-2.7,0.3c0.5-0.6,1-0.4,1.5-0.1
			c-0.3-0.5-0.5-1-0.8-1.5c-0.7,0.3-1.7,0.4-2.5,0.5c-0.7,0.9-0.5,2.4-1.7,2.6c0.2,0,0.5,0,1,0.2c-0.5,0.6-1.2,1.2-1.7,1.8
			c0,0.3,0.3,0.5,0.3,1c-0.2,0.3-0.5,0.6-0.7,0.6c-0.2,0.3-0.2,0.8-0.2,1.1c-0.5,1.1-0.2,2.4-1.4,3.1c0,0,0,0.3,0.3,0.2
			c0.5,0,1.2-0.4,2-0.5c0.3,0.2,0.5,0.8,0.8,1.3c-0.2,0-0.5,0.3-0.7,0.1c-1-0.7-2-0.6-3.2,0.3c-0.8-0.7-1.3-1.2-1.8-2
			c0,1.1,0,1.1,0.5,1.8c-0.7,0.3-0.7,1.1-0.7,2.2c0.2,0,0.5-0.3,1-0.4c0.2,0,0.5,0,0.7,0.2c0.2-0.6,0.5-0.8,0.7-1.4
			c0,0,0.5-0.3,0.7-0.3c0,0,0.3,0.2,0.3,0.5c0,0.3-0.2,0.6-0.2,0.6c-0.5,0.6-1,0.9-1.7,1.2c0.3,0.5,0.3,1.3,0.5,1.8
			c0,0.5-0.5,1.1,0.3,1.8c-0.5,0.3-0.7,0.3-1.2,0.6c-0.2,0.3-0.5,0.6-1,0.9c0,0-0.3-0.2-0.7-0.2c0,0.3,0,0.3,0,0.5
			c0.3,0.2,0.5,0.8,1,1c0,0.3,0.3,0.5,0.3,0.8c-1,0.4-1,0.1-2-1.2c-0.5,0.3-0.7,0.6-0.7,1.4c0,1.1,0,1.1-1,1.4c0,0.3,0.3,0.5,0,0.8
			c0,0.3-0.5,0.6-0.7,0.9c0,0.3,0,0.8,0,1.1c-0.1,0-0.1,0-0.2,0c0-0.3,0-0.8,0-1.1c0,0,0,0-0.2,0c-0.2,0.6-0.5,1.1-0.7,1.4
			c-0.7,0.3-0.7,0.3-1,2c-0.2,0-0.7,0.3-1,0.3c-0.2,1.1-0.5,2.4-0.9,3.6c0.5,0.2,0.7,0.5,1.2,0.4c-0.7,0.9-0.7,2.2-1.7,2.3
			c0.5,1.3,0.3,2.7-0.4,3.8c-0.3-0.2-0.3-0.5-0.5-0.8c0,0.3,0,0.3,0,0.3c-0.2,0.6-0.4,1.1-0.2,1.6c0.3,0.7,0,1.6-0.5,2.2
			c-0.2,0.3-0.2,0.3-0.5,0.6c0.3,0.2,0.5,0.5,0.8,0.7c-0.2,0.6-0.7,0.9-0.7,1.1c-0.5,1.4-0.2,1.1-1.7,1.5c0,0.5-0.2,1.1-0.2,1.9
			c0,0.3,0.3,0.5,0.5,1c-0.5,0-1,0.1-1.2,0.1c-0.5,0.8,0,0.8,0.5,1c-0.5,1.1-0.5,1.1,0.5,2.1c-0.2,0-0.5,0.3-0.7,0.6
			c0,0.8,0,1.9,0,2.7c-0.5,0.3-1,0.6-1.5,0.9c-0.5,0-1,1.1-0.7,1.9c0.3,0.3,0.3,0.8,0.3,1.3c0,0.5,0.3,1.3,0.5,1.8
			c0,0.3,0.3,0.5,0.3,0.5c-0.7,0.3-1.2,0.6-2,0.7c0.5,0.5,0.8,1,0.5,1.6c-0.2,0.3,0.3,0.8,0.3,1.3c-0.2,0-1,0.1-1,0.3
			c0,0.5-0.7,1.1-0.5,1.9c0,0,0,0.5-0.2,0.8c-0.5,0.3-0.5,0.6-0.5,1.1c0,0.3,0.3,0.5,0.3,0.8c-0.2,0.8,0,1.3,0.8,1.6
			c0.3,0.3,0.3,0.3,0.5,0.5c-0.5,0.6-0.7,1.1-1.2,1.4c-0.5,0.6-0.7,0.6-1.5,0.9c0.5,0.5,0.8,0.8,1.2,0.7c0.5,0,0.5,0.5,0.5,1
			c-0.5,0-1,0.6-1.2,0.1c0,0.8,0,1.6,0.3,2.7c0,0.3,0.5,0.5,0.8,0.8c-0.2,0.3-0.5,0.8-0.7,1.1c-0.7,0.6-0.5,1.4-0.5,2.2
			c0,0.5,0,1.3,0,1.9c0.5,0,1.2-0.1,1.7-0.4c0.5,0.8,0.8,1.6,1.3,2.3c-0.2,0.3-0.2,0.6-0.5,0.8c-0.3-0.5-0.3-0.8-0.5-1
			c-0.1,0-0.1,0-0.2,0c-0.5,0.6-0.2,1.1,0.3,1.6c-0.2,0.3-0.5,0.8-0.7,1.1c0.7,0.5,1-0.3,1.5-0.7c0.5,0.5,0.3,1.1,0.3,1.6
			c0.3,0.2,0.5,0.2,0.7,0.5c0,0.3,0,0.5,0,0.5c-0.2,0.6-0.2,1.1,0.3,1.6c0.5,0.2,0,0.8-0.2,1.1c0.5,0.2,1-0.1,1.2,0.7
			c-0.2,0-0.7,0.1-1,0.1c0.3,0.8,1,1,0.5,1.8c-0.2,0-0.5,0.3-1,0.4c0.3,0.5,1,0.3,0.8,1c-0.2,0.5,0.5,0.8,0.5,1.3
			c-0.2,0.3-0.5,0.8-0.7,1.4c0.7-0.3,1-0.6,1.5-0.9c0,0,0,0,0,0.3c0,0-0.2,0-0.5,0.3c0,0.5,0.3,1.3-0.5,1.9c-0.2,0.3,0.3,0.8,0.5,1
			c0.2,0,0.5,0,0.7,0.2c-0.5,0.3-0.7,0.6-1.2,0.9c0.5,0.5,0.8,1.3,1,1.8c-1.2,0.9-1.2,1.2-0.5,2.5c-0.2,0.3-0.5,0.6-0.7,0.9
			c0.7,0.5,0.7,0.5,1.5-0.9c0.5,0,0.7,0.5,0.7,0.7c0.3,0.5,0.3,1.3,0,1.9c0,0-0.2,0.3-0.5,0.6c0.5,0.2,0.7,0.5,1.2,0.7
			c0.7-0.1,1,0.4,1.5,0.9c0.3,0.5,0.3,1,0.3,1.6c1-0.1,2-0.7,2.9-0.3c0.2-0.3,0.5-0.6,0.7-1.2c0.3,0.2,0.5,0.5,0.7,0.7
			c0,0.5-0.2,1.1-0.7,1.2c0,1.1,0.8,1.8-0.2,2.7c0.2,0,0.5-0.1,0.5-0.1c0.3,1,1.7,1.4,2,2.7c-0.2,0-0.2,0.3-0.5,0.9
			c0.2,0.2,0.5,0.5,0.7,0.7c-0.2,0.3-0.2,0.3-0.5,0.9c-0.2-0.2-0.5-0.2-1-0.2c0.2,0.2,0.3,0.8,0.5,0.7c0.5-0.1,1,1.2,1.7,0.3
			c0.2-0.6-0.8-1.3,0-2.1c-0.3-0.5-0.5-1-0.8-1.8c0.7-0.1,1-0.1,1.5,0.1c0-0.3,0-0.3,0-0.3c-0.5-0.2-0.7-0.2-1.2-0.4
			c-0.2,0-0.5-0.2-0.5-0.7c0.7,0.2,1.5,0.1,2.5,0c0,0.5-0.2,0.8-0.2,1.4c0.2-0.3,0.5-0.3,1-0.7c0.2,0.2,0.5,0.2,1,0.7
			c0,0.3-0.2,0.6-0.5,1.1c0.7-0.4,1-0.7,1.5-1c0.2,0.2,0.7,0.4,1,0.7c0.2-0.3,0.7-0.6,1.2-1c-0.2,0.8-0.5,1.7-0.5,2.2
			c0.2,0.2,0.7,0.7,1,0.9c0.2-0.3,0.7-0.6,1-0.9c0.2,0,0.5,0.2,0.5,0.5c0.7,0.2,1.5,0.1,2-0.5c1.4-2.1,3.4-3.9,5.1-5.8
			c0.2-0.3,0.5-0.6,0.5-0.9c0.7-1.7,2.2-3.2,3.1-5c0,0,0.2-0.3,0.5-0.3c1.2-0.7,1.9-1.9,2.4-3.3c0.2-0.3,0.5-0.6,0.7-0.9
			c1.2-1.5,2.2-3,3.4-4.5c0.2-0.3,0.2-0.6,0.5-0.9c0.7-1.4,1.9-2.4,2.9-3.6c0.5-0.6,1-1.2,1.2-1.8c0.5-0.9,1.2-2.1,1.9-3
			c1.9-1.9,3.1-4,4.3-6.3c0.7-1.4,1.4-2.6,2.2-4.1c1.2-2.1,2.2-4.3,3.4-6.4c1-1.7,1.7-3.2,2.6-5c0.5-0.9,1-2,1.4-2.9
			c0-0.3,0.2-0.6,0.2-0.6c0.7-0.9,1-1.8,1.2-2.6c0.5-1.7,1.2-3.6,2.2-5.1c1.5-2.1,2.9-4.5,3.9-6.8c0.2-0.6,0.7-1.2,1-1.8
			c0.7-1.7,1.7-3.5,2.4-5.2c0-0.1,0-0.2,0-0.3c1.2-1,1.3-2.4,1.7-3.5c0.3-1,0.7-2,1.2-3.1c0.2-0.6,0.2-1.4,0.5-1.9
			c0.5-1.1,1-2.3,1.4-3.4c0.2-0.6,0.5-0.9,0.5-1.1c0-1.3,0.5-2.5,0.7-3.5c0-0.3,0-0.3,0-0.3c1.2-1.5,1-3.1,1.4-4.5
			c0-0.3,0-0.8,0.2-0.8c0.7-1.7,0.9-3.6,1.2-5.2c0.2-0.3,0.2-0.6,0.2-1.1c0-0.8,0-1.6,0.5-2.2c0.2-0.3,0.5-0.6,0.5-0.9
			c-0.3-1.3,0.5-2.4,0.9-3.6c0.2-0.8,0.5-1.7,0.7-2.5c0.3-1,0.2-2.5,0.5-3.5c0.4-1.3,1-2.8,1.4-4.2c0.2-0.8,0.4-2,0.7-2.8
			c0.2-0.5,0.2-1.4,0.5-1.9c0.5-0.9,0.5-1.9,1.2-2.6c0-1.8,0.9-3.8,0.2-5.5c0-0.3,0-0.5,0-0.8c0.7-1.4,0.9-2.9,1.2-4.4
			c0.4-2.1,0.9-4.7,1.7-6.9c0.7-1.9,1.1-4,1.7-5.8c0.6-1.9,1.2-4.1,1.7-6.3c0.2-1.1,0.3-2.2,0.7-3c0.5-1.1,0.6-2.5,1-3.6
			c0.5-1.4,1-3.8,1.4-6c0-0.1,0-0.2,0-0.3c1-2.5,1.1-5.4,1.7-7.9c0.4-1.6,0.7-3.3,1.2-5.2c0-0.8,0-1.8,0.2-2.6
			c0.7-2.7,1.4-5.7,1.9-8.4c0.2-0.6,0.2-0.8,0.2-1.3c-0.5-0.4-1.2-0.3-1.7,0.1c-0.7,0.1-0.7,0.1-1.2-0.3c-0.5-0.2-1-0.3-1.5-0.2
			c-0.3-0.2-0.5,0.1-0.5,0.1c-0.3-0.2-0.5-0.2-1-0.1c0,0-0.3-0.2-0.5-0.2c-1,0.4-1.5-0.3-1.8-1.3c0,0,0,0-0.3-0.2
			c-0.5,0.6,0.3,0.7,0,1.3c0,0.3-0.2,0.3-0.5,0.6c-0.5-0.2-1-0.6-1.8-1c0,0.8-0.3,1.3-1,1.7c-0.5,0.3-1,0.4-1.5,0.5
			c-0.2,0-0.7,0.1-1,0.4c-0.5,0.3-1,1-2,0.9c-0.3-0.2-0.5,0.1-0.7,0.1c-0.5,0.3-1.2,0.7-2,0.9c-0.5,0.1-1.5,0.3-2,0.6
			c-0.7,0.4-1.2,0.2-2-0.2c0,0.5-0.2,0.8-0.2,1.3c-0.2,0.3-0.7,0.4-1,0.2c-0.5-0.2-1-0.1-1.5-0.3c-0.2,0.3-0.5,0.9-0.7,1.2
			c-0.5,0.3-0.7,0.6-1.2,1c-0.2,0-0.7-0.1-1.2-0.1c0,0-0.2,0.3-0.5,0.6c-0.5-0.2-1-0.4-1.5-0.3c-1.2,0.2-1.5,0-1.5-1.4
			c0,0,0.2,0,0.2-0.3c-0.7,0.1-0.2,0.6-0.5,0.9c-0.7,0.4-0.7,0.9-1,1.7c-0.5,1.1-1.5,1.3-2.5,0.9c-0.3-0.2-0.5-0.2-0.8-0.4
			c0,0.5,0,0.8-0.2,1.1c-0.2,0.3-0.5,0.3-1,0.4c0-0.5-0.3-1-0.3-1.5c-0.2,0-0.5,0.3-0.5,0.3c0.3,1.3,0.3,1.3-1,2
			c0,0.8,0.7-0.4,1,0.4c-0.7,0.1-1,0.7-1,1.5c-0.5-0.2-1-0.1-1.5-0.1c-0.5,0.9,0.3,2.1-0.5,3c-0.5-1,0.5-2.7-0.5-3.6
			c-0.7,0.6-1.2,1-1.7,1.6c0,0.3,0.3,0.5,0.5,0.7c-0.5,0.3-1,0.4-1.5,0.7c-0.2,0-0.2,0-0.3-0.2c-0.8-0.4-0.8-0.4-1.2,0.4
			c-0.1,0.1-0.1,0.2-0.2,0.3c-0.2,0.8-0.5,1.1-1.2,1c-1-0.4-1.7,0.2-2.7,0.3c-1,0.1-2,0.2-3,0.1c-0.2,0-0.5-0.2-0.8-0.4
			c-0.7,0.4-0.7,0.9-0.5,1.4c-0.7,0.6-0.7,0.6-1-0.7c-0.7,0.1-1.2,0.1-2,0c-0.2,0.8-0.7,1.1-1.5,1.2c0,0-0.2,0.3-0.7,0.6
			c-0.7-0.2-0.8-1-0.8-2c-0.5,0.1-0.7,0.1-1.2-0.1c-0.8-0.4-1.5-0.4-2.5-0.5c-0.2,0-0.5,0.1-0.7,0.1c-0.5-0.2-1-0.2-1.5-0.4
			c-0.5,0-0.7-0.2-1-0.4c-1.5-0.9-3.2-1.3-5-1.7c-0.2,0-0.7-0.2-1-0.2c-1-0.4-2-1.2-3.3-1.3c-1.2-0.2-2-0.8-3-1.4
			c-0.9-0.5-1.8-1.2-2.5-1.7c-0.3-0.2-0.5-0.2-0.8-0.5c-0.2,0-0.5-0.2-0.8-0.5c-0.3-0.2-0.8-0.7-1.3-1.5c0.2,0,0.5-0.6,0.7-0.9
			c0-0.3-0.3-0.8-0.5-1.3c1-0.3,1.2-1.2,1.2-2.2c0-0.3,0-0.5,0.2-0.5c1-0.6,2-1.6,3.2-2.1c0.9-0.4,2.3-0.9,3.2-1.6
			c0.7-0.5,1.5-1,2.5-1.5c1.2-0.7,2.7-1.4,4.2-2.2c1.2-0.7,2.2-1,3.5-1.6c0.5-0.3,1-0.4,1.5-0.4c1.7-1,3.8-1.8,5.7-2.7
			c2.7-1.2,5.7-2.5,8.7-3.6c2.2-0.8,4.5-1.4,6.7-2.1c1.4-0.5,3.1-0.9,4.5-1.4c1.9-0.7,4-1.7,6.2-2.4c1.4-0.5,3-0.9,4.5-1.7
			c0.5-0.1,1.2-0.2,1.7-0.3c1.2-0.4,2.6-1.1,3.7-1.3c1.9-0.4,3.7-1.9,5.7-2.4c1.7-0.5,3.3-1.3,5-1.8c1.2-0.4,2.6-1.1,3.7-1.4
			c2.1-0.5,4.2-1.8,6.5-1.9c0.5-0.1,1.3-0.5,1.7-0.8c0.7-0.4,1.2-0.7,2-0.9c0.7-0.1,1.2-0.2,2-0.6c1.7-0.8,3.7-1.7,5.5-2.3
			c2.2-0.7,4.5-1.3,6.5-2c1.5-0.5,2.7-1,4-1.5c0.5-0.1,0.7-0.1,1-0.5c1.5-0.6,3-1.4,4.5-1.9c1.7-0.6,3.7-1.5,5.7-2.4
			c1-0.5,2.3-0.7,3.2-1.2c0.7-0.4,1.2-0.8,2-0.9c3-1.4,6.2-2.6,9.4-3.8c0.5-0.4,1.2-0.5,1.7-0.6c1.5-0.3,3-1,4.5-1.8
			c1.7-0.9,3.5-1.8,5.2-2.2c1-0.2,1.7-0.6,2.7-1.1c0.2-0.1,0.5-0.1,0.7-0.2c0.5-0.1,1-0.5,1.5-0.8c0.7-0.7,1.8-0.9,2.7-1.4
			c1.2-0.6,2.5-0.9,3.7-1.4c1.5-0.6,2.7-1.1,4-0.9c0.2-0.1,0.7-0.2,1-0.2c1.5-1.1,3.2-1,4.7-1.6c0.7-0.2,1.5-0.6,2-0.7
			c1.5-0.6,3-1.2,4.5-1.8c0.2-0.1,0.5-0.1,0.7-0.2c0.5-0.6,1-1,1.5-1.1c1.7-0.4,3.6-1.2,5.2-1.3c0.9,0,2.4-0.5,3.2-0.8
			c0.9-0.3,2.4-0.9,3-1.2c0.2-0.1,0.5-0.4,0.7-0.4c0.2-0.1,0.5-0.1,0.7-0.2c0.2-0.6,1-0.8,1.5-0.9c0.7-0.2,1.5-0.4,2-0.7
			c2.5-1.1,4.7-1.9,7.2-2.8c0.5-0.1,0.7-0.2,1.2-0.3c1.7-0.2,3.5-1.1,5.2-2.1c1.7-0.9,3.6-1.6,5.5-2.4c1.2-0.5,3.1-1.1,4-1.5
			c0.5-0.2,1-0.3,1.5-0.4c0.2-0.1,0.5-0.1,0.7-0.2c2.2-1.6,4.8-2.4,7-3c0.9-0.3,1.7-0.7,2.5-0.4c0.5-0.1,1-0.3,1.2-0.6
			c0.7-0.4,1.2-1.1,2-1.8c0.2-0.3,0.5-0.9,1.2-0.8c0.2-0.1,0.5-0.1,0.7-0.2c0.2-0.1,0.5-0.4,0.7-0.2c1,0.2,2,0.5,3,0.7
			c0.5,0.4,1,0.5,2,0c0.2-0.3,0.7-0.4,1.2-0.6c1.5-0.4,3.1-0.7,4.5-0.9c1.9-0.3,3.9-0.9,5.7-1.2c1-0.2,2.2-0.6,3.5-0.7
			c1.2-0.1,2.6-0.5,3.7-0.7c0.9-0.1,1.7-0.2,2.5,0.1c0.7,0.3,1,1,1,1.7C304.6,91.1,304.8,91.8,304.8,92.5z M29.6,313.6
			c0.5,0.2,0.8,0.8,1.5,0.4c-0.5-0.5-0.8-0.8-1.2-1C29.9,313.3,29.6,313.4,29.6,313.6z M29.8,321.7c0.3,0.3,0.7,0.2,0.7,0.2
			c0.2-0.3,0.7-0.9,0.5-1.4C30.5,320.8,30.2,321.1,29.8,321.7z M30.6,312.5c1-0.3,0.7-0.6,0.2-1.1C30.8,311.7,30.8,311.9,30.6,312.5
			z M32.2,332.8c-0.2,0-0.5,0-0.7,0.1C31.7,332.3,31.9,332.3,32.2,332.8z M31.3,309.7c0,0.3,0.3,0.5,0.3,0.5c0,0.3,0.3,0.3,0.5,0.2
			C31.8,310.2,32,309.7,31.3,309.7z M32.2,307.8c0,0,0,0.3,0.3,0.3c0.2-0.3,0.7-0.6,1-0.9c0.3-0.3,0.2-0.8-0.5-1
			c-0.2,0.3-0.5,0.6-0.5,0.8C32.2,307.3,32.2,307.5,32.2,307.8z M34,308.7c-0.5,0-1,0.1-1.7-0.1c0.3,0.8,0.5,1,1,1
			C33.7,309.6,33.7,309,34,308.7z M33.8,340.2c0,0,0.2,0,0.3,0.2c0.3,0.2,0,0.5-0.2,0.8c0-0.3-0.3-0.2-0.3-0.2
			C33.5,340.8,33.8,340.5,33.8,340.2z M34.7,364.9c0,0,0,0-0.2-0.2c-0.2,0.3-0.2,0.3-0.5,0.6C34.4,365.7,34.7,365.4,34.7,364.9z
			 M34.6,360.8c0,0,0.2-0.3,0.2-0.6c0,0,0,0-0.2,0c0,0,0,0.3-0.2,0.6C34.5,360.8,34.5,360.8,34.6,360.8z M36.7,352.6
			c0.3,0.2,0.3,0.8,0.5,1c-0.5,0-0.5-0.5-1,0.1c-0.2-0.1-0.3-0.1-0.5-0.2c0-0.3,0-0.5,0.2-0.6C36.2,352.6,36.4,352.6,36.7,352.6z
			 M36.9,303.7c-0.2,0.6-0.5,0.8-0.7,1.1c0-0.3-0.3-0.5-0.3-1.1C36.1,303.8,36.4,303.7,36.9,303.7z M39.1,291.7
			c0.7-0.3,0.2-1.1,0.5-1.4C38.9,290.4,38.9,290.9,39.1,291.7z M41.7,375.4c0-0.3,0-0.3,0-0.5c0,0.3-0.2,0.3-0.2,0.6
			C41.7,375.4,41.7,375.4,41.7,375.4z M41.4,292.1c0,0.1,0,0.2,0,0.3c-0.2,0-0.2,0-0.5,0C41.1,292.1,41.1,292.1,41.4,292.1z
			 M42.2,373.5c0.2,0,0.5-0.1,0.7-0.3c-0.2,0-0.2,0-0.2-0.2c-0.2,0-0.2,0.3-0.5,0.3C42.2,373.3,42.2,373.4,42.2,373.5z M42.8,378.5
			c-0.5,0.3-0.2,0.8-0.2,1.1c0.2,0.2,0.5,0.2,0.7,0.5C43.5,379.3,43.3,378.8,42.8,378.5z M47.1,283.3c-0.2,0.3-0.5,0.3-1,0.6
			c0.3,0.5,0.3,0.8-0.2,1.1c0,0.3,0,0.5-0.2,0.8c0,0.3,0,0.5-0.2,1.1c-0.5-0.2-0.7-0.5-1-0.4c-0.2,0-0.5,0.3-0.5,0.3
			c-0.5-0.8-1-1.5-0.3-2.4c0.2-0.3,0.2-1.1,0-1.3c0-0.5-0.3-1-0.3-1.3c0.3,0.5,1.5,0.1,1.3,1.2c0.1,0,0.1,0,0.2,0
			c0.2-0.6,0.5-1.1,0.7-1.9c0.7,0.5,0.8,0.7,0.3,1.6C46.4,282.8,46.6,283,47.1,283.3z M44,289.7c-0.3-0.8-0.3-1-0.5-1.6
			c0.2,0,0.2,0,0.2,0C44,288.6,44.5,288.8,44,289.7z M45.1,370c0.3,0.5,1,1,0.5,1.8C44.6,371.6,45.3,370.5,45.1,370z M45.4,372.6
			c0-0.1,0-0.2,0-0.3c0.2-0.3,0.5-0.3,0.5-0.3c0.2,0.2,0.2,0.2,0.3,0.5C45.9,372.6,45.6,372.6,45.4,372.6z M47.6,268.2
			c0-0.8,0-1.3,0-1.9C46.9,267.2,46.9,267.8,47.6,268.2z M47.9,283.2c-0.3-0.2-0.5-0.5-0.5-0.5C47.9,282.1,47.9,282.1,47.9,283.2z
			 M47.4,284.8c0.7-0.1,0.7-0.1,0.5,1.6C46.9,286,47.9,285.1,47.4,284.8z M49.3,374c0.5-0.6-0.5-1.3,0.5-2.2c0.3,0.5,0.7,0.7,1,1.2
			C50.6,373.6,50.3,374.4,49.3,374z M49.5,274c0,0.3,0,0.3-0.2,0.3c-0.2,0-0.7,0.1-1.2,0.1C48.7,273.8,49,274,49.5,274z M48.9,271.1
			c0-0.5,0.2-1.1,0.2-1.4c-0.5-0.2-0.7-0.2-1,0.4C48.2,270.6,48.2,270.9,48.9,271.1z M49.3,264.3c0.7,0.5,0.7,0.2,1-0.4
			C50,264.3,49.8,264.3,49.3,264.3z M50.7,276.8c-0.5-0.5-0.8-0.7-1-1.2C50.2,275.8,51,275.7,50.7,276.8z M51.9,268.9
			c0.3,0.2,0.3,0.2,0.5,0.2c-0.2,0.3-0.2,0.6-0.5,0.6c-0.1,0-0.1,0-0.2,0C51.9,269.5,51.9,269.2,51.9,268.9z M53.1,271.5
			c-0.3-0.2-0.5-0.5-1-0.7c0.2-0.8,1-1.2,1.5-2c-0.2,0-0.5,0-0.7,0.1c-0.7-0.2-1-0.4-0.5-1.6c1.5,0.4,2.2,1.4,2.8,2.7
			C54.4,270.5,53.9,271.1,53.1,271.5z M54,265.8c0.5-0.3,0.5-0.8,1.2-0.7c0,0.5,0,0.8,0,1.3c-0.7,0.1-1.7,0.2-2.5,0.2
			c0,0,0.2-0.3,0.5-0.3C53.5,266.1,53.8,266.1,54,265.8z M54,263.4c0.1,0,0.1,0,0.2,0c-0.2,0.3-0.2,0.6-0.5,0.6
			c-0.1-0.1-0.2-0.1-0.3-0.2C53.7,263.7,53.7,263.4,54,263.4z M54.5,261.2c0.5-1.1,1.2-0.4,1.7-0.7
			C55.7,261.3,55.7,261.3,54.5,261.2z M54.7,262c0,0,0.2,0,0.2-0.3c0,0.3,0,0.5,0,0.5s0,0-0.2,0C54.7,262.1,54.7,262.1,54.7,262z
			 M56.7,263.6c0,0,0.2-0.3,0.5-0.6c-0.5-0.2-1.2-0.4-1.5-1.2c0.5,0,0.7,0.2,1.2,0.1c-0.3-1.3,0-2.4,0.9-3.3c0.3,1,0.9,1.9,1,2.8
			c0.1,0.9-0.5,1.9-0.4,3C57.7,264.3,57.2,264.1,56.7,263.6z M56,252.5c0,0.3,0,0.3,0,0.3c0.3,0.2,0.5,0.2,1,0.2
			c-0.3-0.2-0.3-0.5-0.5-0.5C56.5,252.2,56.3,252.5,56,252.5z M57.6,257.9c0.2-0.3,0.2-0.8,0.2-1.1c1-0.1,1.5,0.1,2.2,0
			C59.6,257.7,58.4,257.3,57.6,257.9z M79.1,200.6c-0.5-0.2,0-0.8,0-1.3c0.7-0.1,0.7-0.1,1,0.9C79.6,200.5,79.3,200.5,79.1,200.6z
			 M82,195.4c0,0-0.2,0-0.2,0.3c0,0.3,0.3,0.2,0.3,0.8C82.5,195.6,82.2,195.4,82,195.4z M90.3,385.4c-0.2,0.3-0.2,0.6-0.5,0.6
			c-0.5,0.1-1,0.2-0.7-0.7c0.2,0,0.5-0.1,0.7-0.1C90,385.2,90.1,385.5,90.3,385.4z M93.6,375c-0.2-0.2-0.5-0.2-0.7-0.1
			c-0.3-0.5,0.5-1.1-0.3-1c-0.2,1.1,0,1.3,0.8,1.4C93.6,375.3,93.6,375,93.6,375z M94.1,378.6c-0.2,0-0.5,0.1-0.5,0.1
			c0.2-0.8-0.5-0.7-0.8-1.2c0.7-0.1,1,0.1,1.5,0c0,0.3,0,0.5,0,0.8S94.1,378.6,94.1,378.6z M91.1,191.4c-0.2,0.3-0.2,0.6-0.5,0.9
			c0.1,0,0.1,0,0.2,0C91.1,191.9,91.1,191.6,91.1,191.4z M94.6,373.5c-0.2-0.2-0.3-0.5-0.5,0.1c-0.2,0,0,0.3,0,0.3
			C94.3,374.1,94.6,373.8,94.6,373.5z M99.5,372.8c-1,0.2-1.7-0.4-2.5-1.1c-0.2,0.3-0.7,0.7-1,1c-0.2,0-0.2,0.3-0.2,0.6
			c0,0.3,0.2,0.2,0.5,0.4c0.2,0,0.5-0.1,0.7,0.1c-1.7,1.4-1.5,1.3-1.2,2.9c0.2,0,0.5-0.1,0.7-0.1c0-0.8,0-1.3,0-1.8
			c0.2,0,0.5,0.2,0.7,0.1c0.5-0.1,0.7-0.9,1.2-0.8c0,1.1,0,2.1,0,3.2c0,0.3,0,0.5,0.3,0.7c0,0,0.2,0,0.5-0.1c-0.3-0.5-0.3-1-0.5-1.2
			c0-0.8,0.5-1.2,0.7-1.5c0.2-0.3,0.2-0.6,0.5-0.9C100,373.8,99.7,372.8,99.5,372.8z M94.7,200.6c-0.1,0-0.1,0-0.2,0
			c-0.2,0-0.3-0.2-0.3-0.5c0,0,0,0,0.2,0C94.5,200.4,94.5,200.4,94.7,200.6z M97.2,370.4c0.3,0.5,0.8,0.9,1.2,0.5
			c0.7-0.4,0.5-1.1,0.5-1.7C98.4,369.6,98,370.2,97.2,370.4z M97.9,368.9c0.7-0.4,1-0.7,0.7-1.7C98.4,367.8,98.2,368.3,97.9,368.9z
			 M99.2,368.9c0,0.3,0.2,0.2,0.2,0.2c0-0.3,0.2-0.3,0.2-0.6c0,0,0-0.3-0.2-0.2C99.4,368.6,99.2,368.9,99.2,368.9z M100,374.8
			c0.3,0.5,0.3,0.7,0.3,1C100.5,375.2,100.7,374.9,100,374.8z M101.4,373.2c-0.5,0.1-1,0.5-1,1C101,374.4,101.2,373.8,101.4,373.2z
			 M101.3,363.5c0,0-0.2,0-0.5,0.4c0.2,0.2,0.5,0.2,0.7,0.4C101.8,363.6,101.8,363.4,101.3,363.5z M104.3,362.9
			c-0.5-0.2-0.3-0.5-0.3-1c0-0.3,0-0.5-0.3-0.5c-0.7,0.1-0.7,0.9-1,1.2c0.5,0.4,1,0.9,1.5,1.3C104.3,363.4,104.3,363.2,104.3,362.9z
			 M107.1,357.8c-0.7,0.7-0.7,0.7-0.5,1.4C106.9,358.9,106.9,358.4,107.1,357.8z M108.1,355.5c0,0,0-0.3-0.2-0.2c0,0.3,0,0.5,0,0.8
			c0,0,0,0,0.2-0.1C108.1,355.8,108.1,355.5,108.1,355.5z M112.1,359.1c-0.2,0.3-0.5,0.6-0.7,0.4c-0.2,0.1-0.2-0.2-0.5-0.4
			C111.3,358.5,111.6,358.7,112.1,359.1z M110.7,185.9c-0.2,0-0.5,0.1-1,0.2c0-0.3,0.2-0.6,0.2-0.6c0.2,0,0.5-0.1,0.7-0.1
			C110.7,185.6,110.7,185.6,110.7,185.9z M115.7,350.5c-0.7,0.4-0.7,0.9-0.7,1.5C115.9,351.5,115.9,351.5,115.7,350.5z M118.9,351.4
			c0-0.3,0-0.8-0.3-1c0-0.3-0.3-0.5-0.3-0.5c-0.2-0.2-0.7,0.2-1,0.5c0,0,0,0.3,0,0.5c-0.5,0.1-0.7,0.2-1,0.2c0,1,1.2,1,1.3,2.1
			c0.2-0.3,0.7-0.4,1-0.7c-0.3-0.5-1-0.6-0.8-1.1C118.4,351.5,118.6,352,118.9,351.4z M117.2,355.2c0-0.3,0-0.5,0-0.8
			C117.4,354.6,117.7,354.8,117.2,355.2z M118.9,331.2c0.5-0.6,0-0.8-0.5-0.9C118.1,330.8,118.6,331,118.9,331.2z M120.7,340
			c-0.2,0.3-0.5,0.6-1,0.7c-0.5-0.2-0.7,0.2-0.7,0.7c-0.2,0.3-0.2,0.6-0.5,1.2c0,0,0,0,0,0.3c0.2-0.1,0.5-0.1,0.7,0.1
			c0.2-0.6,0.2-0.8,0.5-1.2c0.7,0.9,0.7,0.9,1.7,0.1C121,341.5,120.5,340.8,120.7,340z M125.5,344.9c-0.1-0.2-0.7-0.1-1-0.3
			c-0.2-0.2-0.3-0.7-0.5-1.2c0.2-0.1,0.5,0.2,1,0c0-0.3,0-0.5,0.2-0.8c0.2-0.1,0.5-0.1,0.7,0.1c-0.2,0.3-0.5,0.6-0.5,1.2
			c0.7-0.4,0.7-1.2,1.2-1.8c-0.5-0.7-1.5-0.2-2-0.6c-0.3-0.5-0.5-1.2-0.5-1.7c0.2-0.6,0.2-0.6-0.3-1.8c-0.5,0.9,0,2.1-1.9,2.5
			c0.5,0.2,0.7,0.4,1.2,0.5c-0.5,0.4-1,0.7-1.5,1.1c-0.2,0.3-0.7,0.9-1,1.5c0.5,0.4,0.5,0.7-0.2,1.1c0-0.3-0.2-0.2-0.5-0.4
			c-0.2,0.1-0.2,0.1-0.5,0.1c-0.2,0.3-0.5,0.6-0.7,0.9c0.5,0.2,1,0.3,1.5,0.5c0-0.3,0.2-0.3,0.5-0.6c0.3,0.5,0.3,0.7,0.5,0.9
			c0.7,0.1,1,0.6,1.2,1c0.5-0.1,1.2,0,1.7-0.1c0,0.3,0,0.5,0.3,0.7c0.7-0.9-0.5-1.2-0.5-1.7C124.7,345.9,125.7,345.5,125.5,344.9z
			 M118.9,329.1c0.5-0.1,1-0.2,1.2-0.8C119.6,328.2,119.1,328.5,118.9,329.1z M120.1,353.2c0,0.3,0.3,0.5,0.5,0.4
			c-0.5,0.4-0.7,0.4-1,0.7c-0.5-0.7,0-1.3,0.5-1.9C120.1,352.7,120.1,352.9,120.1,353.2z M121.3,349.5c-0.5,0.1-0.7-0.6-1.5,0.1
			C120.3,349.5,120.6,350.2,121.3,349.5z M122,324.2c-0.2,0.1-0.2,0.3-0.2,0.3c0.3,0.7,0.3,0.7-0.7,0.9c-0.2,0.1-0.5,0.4-0.7,0.4
			c0.3,0.7,0.3,1.5,1,1.9c0-0.8,0-1.3,0-2.1c0.5-0.1,0.7-0.2,1.2-0.3C122.5,324.4,122.5,324.4,122,324.2z M121.6,329.8
			c-0.4,0.6-0.5,0.9,0,1.3c0.2-0.1,0.3,0.5,0.3,0.7c0.2-0.1,0.2-0.1,0.5-0.1c0-0.3,0-0.5,0-1c1,0,1,0.8,0.8,1.7
			c0.2-0.1,0.5,0.2,0.7,0.4c0.5-0.4,0.2-1.3,0.7-0.9c0.5,0.4,0,1.3-0.2,1.9c-0.2,0.1-0.5,0.1-1,0.5c0.5,0.2,0.5,0.2,1.7-0.4
			c0-0.8,0.2-1.6,0-2.6c0-0.1,0-0.2,0-0.3c-0.2,0.1-0.2,0.3-0.5,0.4c-0.7-0.6-0.7-0.6,0-2.3c-0.5,0.4-1.1,0.8-1.7,0.4
			C122.1,328.8,122.1,329,121.6,329.8z M122.9,336.1c-0.5,0.1-0.7-0.1-1.2,0C121.9,336.8,122.2,336.8,122.9,336.1z M122.8,347.9
			c0,0-0.2-0.2-0.5-0.4c-0.2,0.8-0.2,1.4-0.5,2.2C122.5,349,122.8,348.4,122.8,347.9z M122.7,344.2c0,0-0.5,0.4-0.7,0.4
			c0.2-0.8,0.2-1.4,0.5-1.9C122.5,343.2,122.7,343.7,122.7,344.2z M122.7,338.7c-0.1,0.1-0.1,0.2-0.2,0.3c0,0.3,0.3,0.5,0.3,0.5
			c0.2-0.1,0.2-0.3,0.5-0.4C122.9,339,122.7,339,122.7,338.7z M123,344.7c0.3,0.5,0.5,0.4,1,0.8C123.2,345.7,123,345.7,123,344.7z
			 M123.6,337.2c0.5,0.2,0.7-0.4,0.7-0.7c-0.2-0.2-0.5-0.7-1.2-0.2C123.4,336.8,123.1,337.3,123.6,337.2z M123.3,179.3
			c-0.7-0.1-1.2,0-1.3-1.1c-0.5,0.9-0.2,1.3,0,1.8c0.2,0,0.7-0.4,1-0.4C123.3,179.3,123.3,179.3,123.3,179.3z M124.5,323.2
			c0,0.3,0,0.5,0,1C124.2,323.8,124,323.5,124.5,323.2z M124.4,336.5c0.3,0.5,0.5,0.7,0.8,1.4c0.2-1.1,0.7-1.2,1.5-1.1
			c-0.2,0.3-0.7,0.4-1,0.7c0.2,0.2,0.3,0.7,0.5,1.2c0.2-0.3,0.7-0.4,0.7-0.4c0.5,0.4,1,0.6,1.2,0.8c0,0.1,0,0.2,0,0.3
			c-0.2-0.2-0.5-0.1-0.7,0.4c0,0.3,0.3,0.5,0.5,0.4c0.2-0.1,0.2,0.2,0.5,0.4c0.2-0.6,0.5-1.2,0.5-1.4c0.2-0.6,0.5-0.9,0.7-1.5
			c-1.2,0.3-1.2,0-1.7-0.9c0-0.5-0.5-0.7-0.7-0.6C126.3,336.1,125.4,336.3,124.4,336.5z M126.3,311c-0.2-0.2-0.5-0.4-0.7-0.6
			c-0.2,0.3-0.2,0.6-0.5,0.9c-0.2,0.3-0.5,0.6,0,0.8c0.2,0.2,0.5,0.2,0.7-0.4C126.1,311.6,126.1,311.3,126.3,311z M125.1,339.5
			c0,0.5,0,0.8,0,1.3c0.2-0.3,0.2-0.6,0.2-1.1c0.5,0.4,0.7,0.9,1,1.3c0.1-0.1,0.1-0.2,0.2-0.3C126.9,339.4,125.9,339.6,125.1,339.5z
			 M126.1,319.4c-0.2,0.6-0.5,1.2-0.7,1.5C124.9,320.2,125.2,319.9,126.1,319.4z M125.4,315.7c0.2-0.3,0.5-0.9,1-0.5
			c0,0.3-0.2,0.8-0.5,1.4c-0.1,0-0.1,0-0.2,0.1C125.6,316.1,125.4,315.9,125.4,315.7z M126.9,321.3c0.2,0.2,0.5,0.4,0.5,0.7
			c0,0-0.2,0.3-0.2,0.6c-0.7-0.4-1.5-0.7-1.7-1.7c0.2,0.2,0.7,0.1,1.2,0.3c0-0.8,0-1,0-1.6c0.5-0.1,1,0,1,0.6
			C127.6,320.6,127.4,321,126.9,321.3z M126.7,344.4c-0.3-0.7-0.5-0.1-1,0C126.2,344.2,126.4,344.4,126.7,344.4z M126.3,334.8
			c0.3,0.5,0.5,0.7,0.5,0.9c1.2-1.1,1.5,0.2,2.2,0.3c0.5-0.6,0-1,0-1.6c0-0.5,0.2-0.8,0.2-1.4c-0.2,0.1-0.7,0.2-1.2,0.3
			C128,334.4,127.3,334.8,126.3,334.8z M126.5,332.4c0.2-0.1,0.2,0.2,0.2,0.2c0.2-0.1,0.2-0.3,0.5-0.4c-0.2,0.1-0.5-0.2-0.5-0.2
			C126.7,332.2,126.6,332.3,126.5,332.4z M126.7,325.8c0.2-0.1,0.5-0.1,0.7-0.2c-0.2-0.2-0.5-0.2-0.7-0.1
			C126.7,325.8,126.7,325.8,126.7,325.8z M132.3,319.1c0.1,0.2,0.7,0.1,0.7,0.4c0,0.3,0,0.5,0,1c0,0.3,0,0.5,0,0.8
			c0.3,0.5,0,0.5-0.5,0.6c0-0.5,0-0.8,0.2-1.1c-1-0.6-1.7,0.1-2.5,0c-0.7-0.9-0.7-0.9-2.2-0.3c0-0.3,0-0.3,1-1.5
			c0-0.3-0.3-0.5-0.3-1c0.2-0.1,0.5-0.4,0.7,0.1c0,0.5,0.3,1,0.3,1.5c0.2,0.2,0.5,0.4,0.7,0.4c0,0,0.5-0.4,0.5-0.6
			c0.2-0.6,0.2-0.8,0.2-1.4c0-0.3,0.2-0.8,0.2-1.4c0.2,0.2,0.3,0.5,0.5,0.7c0.2-0.6,0.7-0.9,1.2-1.6c0,0.8,0,1,0,1.6
			c0.2-0.1,0.5,0.1,0.7,0.1c0.3,0.5,0.3,1,0.3,1.5c0,0-0.2,0.3-0.7,0.7c0-0.8-0.3-1.5-0.3-2C132.3,318,132.1,318.5,132.3,319.1z
			 M130.3,314.3c0-0.3,0-0.5,0-0.8c0.7-0.2,1,0,1.2,0.5c0.2-0.1,0.7-0.4,1-0.7c0.5-0.1,1-0.2,1.2,0c-0.7,0.4-1.5,0.9-2.2,1.3
			c-0.2,0.1-0.2,0.3-0.5,0.4c0,0.3,0.3,0.5,0.3,0.7c0,0,0,0,0,0.3c-0.2-0.2-0.5-0.1-1,0c0-0.5,0-0.8,0.2-1.4c-0.5,0.4-1,0.7-1.5,1.1
			C129.3,314.5,129.8,314.7,130.3,314.3z M130,334.7c0,0.3-0.7,1,0,1c0.7-1.5,0.7-1.7-0.3-2C129.3,334.4,130,334.5,130,334.7z
			 M130.3,313.5c-0.2-0.2-0.2-0.2-0.7-0.4c0.5-0.4,0.7-0.7,1-1C131.2,312.5,130.3,313,130.3,313.5z M129.7,308.7
			c0-0.3,0.2-0.3,0.2-0.8c0.3,0.5,0.3,0.5,0.3,0.7C130,308.6,130,308.6,129.7,308.7z M131,331.1c-0.1,0-0.1,0-0.2,0.1
			c-0.3-0.5-0.5-0.9-0.5-1.5C130.7,330.1,131,330.6,131,331.1z M130.6,321.5c0,0.8,0.3,1.2,0.5,1.7
			C130.4,323.4,130.4,323.4,130.6,321.5z M132,309.8c-0.2,0.1-0.5-0.2-0.7-0.1c-0.2,0.1-0.5,0.4-0.7,0.4c0-0.8,0-0.8,0.7-1.7
			C132.2,308.9,132.2,308.9,132,309.8z M130.5,310.9c0.5-0.4,1-0.7,1.5-0.6C131.5,311.2,131.5,311.2,130.5,310.9z M131.2,329
			c-0.5-0.4-0.5-0.7-0.3-1.2C131.4,328.2,131.4,328.4,131.2,329z M131.9,326.5c-0.2,0.1-0.7-0.1-1,0c0-0.1,0-0.2,0-0.3
			c0.2-0.1,0.7-0.4,1-0.7c0.5,0.4,1.5,0.4,0.8,1.7C132.4,326.9,132.1,326.7,131.9,326.5z M131.4,304.9c-0.2,0.1-0.2,0.1-0.2-0.2
			c-0.2,0.3-0.5,0.4-0.2,0.8C131.2,305.2,131.2,305.2,131.4,304.9z M131.9,307.7c0-0.3,0-0.5,0-0.8c0.2-0.1,0.2-0.1,0.2-0.1
			C132.2,307.1,132.2,307.4,131.9,307.7z M133.1,322.6c-0.5,0.1-0.7,0.4-1,0.5c0-0.1,0-0.2,0-0.3
			C132.3,322.2,132.6,322.1,133.1,322.6z M133.6,306.3c0.5,0.4,0.5,0.4-0.2,1.1C133.4,307.1,133.7,306.5,133.6,306.3z M134.7,314.6
			c-0.5,0.1-1,0-1-0.6c0.1-0.1,0.1-0.2,0.2-0.3C134.5,313.6,134.7,314.1,134.7,314.6z M136.3,320.5c-0.7-0.1-1.5-0.2-2.2,0
			c0.2-0.3,0.2-0.6,0.5-0.9C135,320,136.3,319.2,136.3,320.5z M134.8,317.7c0-0.5,0-0.8,0-1.3C135.2,316.8,135.2,316.8,134.8,317.7z
			 M135.5,318.1c0,0.3-0.2,0.6-0.2,1.1c-0.5-0.4-0.5-0.9-0.5-1.4C135,317.7,135.3,317.6,135.5,318.1z M135.2,315.3
			c0.2-0.1,0.2-0.1,0.5,0.1c-0.1,0.1-0.1,0.2-0.2,0.3c-0.2,0.1-0.5-0.1-0.5-0.1C135.2,315.5,135.2,315.3,135.2,315.3z M137.3,297.6
			c-0.5,0.4-1,1-1.7,0.6c0-0.3-0.3-0.5-0.5-0.9c0.5,0.1,0.7,0.4,1,0.3c0.5-0.4,0.7-0.9,1.2-0.8C137.5,296.8,137.5,297.3,137.3,297.6
			z M135.1,304.6c0.5,0.1,0.5,0.4,1,0.6C135.1,305.7,135.1,305.4,135.1,304.6z M139.5,318.7c0,0.5-0.5,0.9-1,1.5
			c-0.3-0.5-0.3-1-0.3-1.2c0-0.8-0.5-0.7-1-0.8c-0.2-0.2-0.7-0.1-1.2,0c-0.8-1.1-0.8-1.1-0.3-1.8c0.2,0.2,0.5,0.4,0.5,0.7
			c0.7-0.2,0.5-0.6,0.7-1c0.2-0.3,0.7-0.7,1-1c0.3,0.5,0.3,1,0.3,1.5c-0.2,0.1-0.5,0.1-1,0.2c0,0.3,0.3,0.5,0.3,0.7
			c0.2-0.1,0.2-0.1,0.5-0.1c0-0.3,0.2-0.3,0.5-0.4c0,0.5,0,0.8,0,1C138.7,318.4,139.2,318.5,139.5,318.7z M135.4,309.2
			c0,0,0,0,0.2-0.1c0,0,0.2-0.1,0.5,0.1c-0.2,0.1-0.5,0.4-0.5,0.4C135.4,309.5,135.4,309.5,135.4,309.2z M137,322.9
			c0.5,0.7,0.5,0.7-0.5,2.2c-0.2-0.2-0.5-0.4-0.5-0.7C136.6,323.8,136.8,323.5,137,322.9z M136.9,308.4c0,0.1,0,0.2,0,0.3
			c-0.2,0.1-0.5,0.1-0.7,0.4c0-0.3,0-0.3,0-0.5C136.4,308.5,136.6,308.4,136.9,308.4z M137.1,309.9c0.3,0.5,0.5,0.9,1,1.3
			c-0.2,0.3-0.5,0.4-0.7,0.4C136.4,310.8,136.4,310.8,137.1,309.9z M137.7,320.4c0.2,0.2,0.3,0.7,0.5,1.4c-0.2,0.1-0.5,0.4-0.7,1
			c0-0.5,0-1,0-1.3c0-0.3,0-0.5-0.3-0.7c-0.5-0.4-0.5-0.9-0.3-1.8C137.5,319.2,137.7,319.6,137.7,320.4z M136.8,301.9
			c0.2-0.3,0.5-0.6,0.5-0.9c0.2,0.2,0.2,0.2,0.2,0.2C137.5,301.7,137.5,301.7,136.8,301.9z M137.3,297.6c0.2-0.1,0.5-0.1,0.5-0.1
			c0.5,0.4,1,0.6,1.7,0.9c-0.7,0.4-1.2,1.1-1.7,1.4c-0.2-0.2-0.5-0.4-0.5-0.7C138,298.5,137.5,298.1,137.3,297.6z M143.1,309.8
			c0.5,0.4,0.3,1,0.3,1.5c-1.2,0.6-2,1.2-1.9,2.5c0,0.5-0.2,0.8-0.5,1.2c-0.7,0.7-1,1.3-1,2c0.2-0.1,0,0.3-0.2,0.6
			c-1-0.8-1-1.8-0.5-3c-0.5-0.7-1.2-0.2-1.7-0.1c0-0.8,0-1,0.7-1.2c0,0.3,0.2,0.2,0.3,0.5c0.5-0.1,1,0,1.5-0.6
			c0.3,0.5,0.3,0.7,0.5,0.9c0.1,0,0.1,0,0.2-0.1c-0.3-0.5-0.3-1.2-0.5-1.7c0.5,0.1,0.7,0.3,1.2,0.5c0-0.3,0-0.3,0.2-0.6
			c-0.5-0.1-1,0-1.5-0.2c-0.2-0.2-0.3-0.5-0.7,0.2c0,0-0.2,0.1-0.5,0.1c0-0.3,0-0.8-0.3-1c0.7-0.4,1.2-0.5,2-1
			c0-0.5-0.3-0.7-0.3-1.2c0.5-0.4,0.7-0.4,1-0.5c0,0,0,0,0.2-0.1c0,0.8,1,0.8,0.8,1.6C142.6,310.2,142.8,310.1,143.1,309.8z
			 M138.4,310.4c0-0.3-0.3-0.5-0.5-0.7c0.7-0.2,1.2-0.3,1.7-0.4c0.1,0.1,0.1,0.1,0.2,0.2C139.4,309.9,138.9,310.3,138.4,310.4z
			 M138.9,313.1c-0.2,0.1-0.5,0.1-0.7,0.2c-0.3-0.7,0.2-0.8,0.7-1C138.9,312.6,138.9,312.9,138.9,313.1z M138.4,293.4
			c0.5,0.1,0.5,0.4,0,1C138.2,294,138,293.8,138.4,293.4z M138.4,292.7c-0.1,0-0.1,0-0.2,0.1c0-0.3,0.2-0.6,0.2-0.6s0,0,0.2-0.1
			C138.7,292.3,138.4,292.4,138.4,292.7z M138.8,307.9c0.2-0.1,0.5-0.4,0.7-0.7C139.6,308,139.6,308,138.8,307.9z M139.3,304.7
			c0.5-0.4,1-0.5,1.2-0.3c0.3,0.2,0.5,0.9-0.2,1.6C140.3,305.2,139.1,305.8,139.3,304.7z M139.2,296.1c0.5,0.1,1,0.3,1.5,0.4
			c-0.5,0.4-0.7,0.7-1,0.7C139.5,297.1,139.5,296.9,139.2,296.1z M140.5,298.7c0,0,0.5-0.1,0.7-0.2c0,0.5-0.2,1.1-0.2,1.6
			c-0.7,0.7-1,0.2-1.7-0.1C140,299.6,140.5,299.5,140.5,298.7z M140.7,293.7c-0.2,0.3-0.2,0.8-0.5,1.4c-0.3-0.7-0.3-1.2,0.2-1.4
			C140.5,293.7,140.6,293.7,140.7,293.7z M143.1,293.7c-0.2,0.3-0.2,0.6-0.5,0.9c-0.2,0.3-0.5,0.6-1,0.7c-0.5,0.4-0.7-0.1-0.7-0.9
			C141.9,294.7,142.2,293.4,143.1,293.7z M141.6,260c0,0.3,0,0.3-0.2,0.6c-0.2,0.1-0.2-0.2-0.5-0.4c0,0.8,0.3,1.5,0.3,2.3
			c1.2-1.1,2.2-1.8,3.7-2.6c-0.5-0.4-0.7-0.6-1-0.6c-0.7,0.2-0.2,0.8-0.7,1.2c-0.2-0.2-0.3-0.5-0.5-0.7
			C142.3,259.8,141.8,259.9,141.6,260z M142.1,311.1c0-0.5-0.3-0.7-0.3-1.2c-0.2,0.1-0.2,0.1-0.2,0.1
			C141.3,310.5,141.6,310.9,142.1,311.1z M141.5,303.7c0.5-0.4,0.2-1.4,1-1.5c0.5,0.7,0.3,1.5-0.2,2.4
			C142,304.3,141.8,304.1,141.5,303.7z M142.9,295.5c0,1.6-0.7,2.2-1.2,3.1C141.5,298,141.5,298,142.9,295.5z M141.9,293.2
			c0,0-0.2,0.1-0.2-0.2c0.2-0.6,0.2-0.8,0.5-1.4c0-0.3,0.2-0.3,0.5-0.4c0-0.3,0.2-0.1,0.2,0.2C142.9,291.6,142.1,292.9,141.9,293.2z
			 M142.5,255.3c-0.2,0.1-0.5,0.1-1,0.2C142,256,142,256,142.5,255.3z M142.2,299.9c0,0,0,0-0.2,0.1c0-0.3,0-0.3,0-0.5
			c0,0,0,0,0.2-0.1C142.2,299.3,142.2,299.6,142.2,299.9z M143.1,287.2c-0.5,0.6-0.5,1.2-0.7,1.5c-0.2,0.1-0.2,0.1-0.2,0.1
			c0.1,0.1,0.1,0.1,0.2,0.2C142.1,288.4,143.6,288.1,143.1,287.2z M143.2,299.4c0-0.5,0-0.8,0-1
			C143.7,298.5,143.7,298.5,143.2,299.4z M145.2,304.6c0,0-0.2,0.3-0.2,0.6c0,0-0.2,0.1-0.5,0.1c0,0-0.2-0.2-0.3-0.5
			c0.2-0.8-1.2-0.5-0.5-1.7c0.3,0.5,0.5,0.9,1.2,0.2C145,303.9,144.7,304.5,145.2,304.6z M143.7,295.6c0.2-0.3,0.5-0.6,0.7-1
			C144.4,295.5,144.4,295.5,143.7,295.6z M144.8,282.4c0-0.8-0.3-0.7-1-0.3C144.3,282.2,144.5,282.2,144.8,282.4z M144.3,262.5
			c-0.2,0.3-0.2,0.6-0.5,1.1C144.3,263,144.3,263,144.3,262.5z M144.9,294c0,0-0.2,0.1-0.5,0.1c-0.3-1.2,1-1.5,1.5-2.4
			c0.3,0.5,0.5,0.9-0.2,1.4C145.4,293.1,145.1,293.7,144.9,294z M144.8,260.3c-0.2,0.3-0.5,0.9,0,1.3
			C145,261,145.3,260.7,144.8,260.3z M145,284.6c0.7,0.1,0.7,0.1,1.2-1.6c-0.2,0.1-0.5,0.1-0.5,0.1
			C145.5,283.8,145.3,284.3,145,284.6z M149.1,293c-0.5,0.4-0.7,0.7-1,0.8c0,0.8-0.2,1.6-0.2,2.1c0,0.3,0.7,0.1,0.3,0.7
			c-0.5-0.1-0.7-0.3-1.5-0.4c0.3,0.5,0.3,0.7,0.3,1.2c-0.5,0.1-1,0.5-1.5,0.6c0-0.3,0-0.5,0-0.5c0.7-0.7,0.5-1.7,0.7-2.2
			c0-0.8,0-1.6,0.2-2.6c0.2,0.2,0.3,0.5,0.5,0.9c0.2-0.8,0.5-1.2,0.7-1.7c0.2,0.2,0.5,0.4,0.5,0.7C148.1,293,148.6,293.2,149.1,293z
			 M145.9,300.8c0.2-0.1,0.2-0.1,0.5-0.1c-0.2,0.3-0.2,0.6-0.2,0.8c-0.1,0-0.1,0-0.2,0.1C145.9,301.3,145.9,301.1,145.9,300.8z
			 M145.8,259.3c0.5,0.4,1,0.6,1.5,1c-0.3-0.5-0.3-0.7-0.3-1.2c-0.2,0.1-0.2,0.1-0.2,0.1C146.5,259.1,146.3,259.2,145.8,259.3z
			 M146.9,273.8c-0.2,0.6-0.5,0.9-0.7,1.2C146.4,274.7,146.9,274.6,146.9,273.8z M147.6,293.7c0-0.1,0-0.2,0-0.3
			c-0.5,0.6-0.7,1.2-1.2,1.8C147.1,295.1,147.4,294.8,147.6,293.7z M146.7,299.3c0,0.3,0,0.8,0,1c-0.1,0-0.1,0-0.2,0.1
			c0-0.3,0-0.3,0-0.5C146.4,299.7,146.4,299.7,146.7,299.3z M146.3,237.6c0.3,0.5,0.3,1,0.5,1.4c0-0.5,0-1,0-1.6
			C146.5,237.6,146.5,237.6,146.3,237.6z M146.6,244c-0.1,0.1-0.1,0.2-0.2,0.3c0,0.3,0.2,0.2,0.2,0.2c0.2-0.1,0.2-0.1,0.5-0.4
			C146.8,244.2,146.8,244,146.6,244z M147.1,270.7c0.2-1.1,0.2-1.1-0.5-0.9C146.9,270.2,147.1,270.4,147.1,270.7z M148.4,281
			c-0.7-0.3-1.2,0-1.7,0.4c0.3,0.7,0.5,1.2,0.8,1.6c0.2-0.6,0.5-0.9,0.7-1.5c0.3,0.5,0.5,0.9,0.8,1.4
			C149.2,281.9,149.2,281.3,148.4,281z M147.6,291.3c-0.7-0.3-0.7-0.9-0.8-1.4c0.7-0.2,1.5-0.3,2.2-0.5c0,0.3,0,0.3-0.2,0.3
			C148,289.9,147.8,290.5,147.6,291.3z M150.1,273.9c-0.5,0.9-0.7,1.7-1,2.3c-0.2-0.2-0.3-0.5-0.5-0.7c0-0.3,0-0.3-0.3-0.5
			c0.2-0.3,0.5-0.4,0.7-0.7c-0.3-0.5-0.5-0.1-0.7,0.2c0,0.8-0.5,1.2-1.5,1.4c1,0.3,1.5,0.7,2.2,1c-0.2,0.3-0.5,0.4-0.7,0.7
			c1,0.3,1-0.7,1.2-1.1c0.2-0.1,0-0.5,0.2-0.8c0,0,0.2-0.1,0.5,0.1C150.6,275,150.1,274.6,150.1,273.9z M147.1,264.7
			c0.5,0.4,0.7,0.6,1.2,0.2C148,264.2,147.5,264.6,147.1,264.7z M147.9,248.2c-0.2,0.3-0.2,0.6-0.2,0.6c-0.2,0.1-0.5-0.1-0.5-0.1
			s0.2-0.3,0.2-0.6C147.4,248,147.6,248.2,147.9,248.2z M147.7,254.2c0,0.3,0.2,0.2,0.5,0.7c0-0.3,0-0.5,0-0.5c0-0.3,0-0.3,0-0.5
			C147.9,254.1,147.9,254.1,147.7,254.2z M147.8,262.2c0.2,0.2,0.5,0.4,0.7,0.3c0,0.5,0,0.8,0,1c0.8,0.9,1.5,0.4,2.5-0.1
			c0.3,0.5,0.5,1.2,1.5,0.4c-0.5-0.7,0.7-1.2,0.7-2c-0.2-0.2-0.5-0.1-1,0c0-0.5,0-1,0-1.3c0.5-0.4,0.7-0.7,1.2-1.1
			c-0.3-0.5-0.5-0.7-0.7-0.6c-0.2-0.2-0.7-0.1-1.2-0.2c-0.2,1.4-0.2,1.4-1.2,1.6c0.2-0.8,0-1.3-0.8-1.9c-0.2,0.6-0.5,0.6-0.5,0.9
			c0,0.5,0,1,0,1.6c0,0.3,0.2,0.2,0.2,0.2c1,0,0.5,0.9,0.5,1.4c0.2,0.2,0,0.5-0.2,0.6C148.8,262,148.8,262,147.8,262.2z
			 M148.8,287.2c0-0.3,0-0.5-0.3-0.7c-0.2,0.3-0.5,0.6-0.5,0.9c0,0,0.2,0.2,0.5,0.1C148.6,287.3,148.7,287.3,148.8,287.2z
			 M148.2,230.2c0.1,0,0.1,0,0.2-0.1c0-0.3,0-0.5-0.3-0.5c0,0,0,0-0.2,0.1C148.2,229.9,148.2,230.2,148.2,230.2z M150.8,267.5
			c-0.2-0.2-0.5-0.4-0.5-0.1c-0.7,0.4-1.5,0.9-2,1.2c0.3,0.5,0.5,0.7,1,0.8c0-1,0.5-1.4,1.5-1.1C150.8,268,150.8,267.7,150.8,267.5z
			 M148.4,280c0.5,0.9,0.5,0.9,1.5-0.6C149.4,279.7,148.9,279.8,148.4,280z M148.5,237.1c0.2,0.2,0.3,0.5,0.5,0.9
			C149.3,237.2,149,237,148.5,237.1z M149.6,250.6c-0.2-0.2-0.7-0.4-0.3-1c0-0.3-0.3-0.7-0.5-0.9c0.2-0.1,0.5-0.4,0.7-0.4
			c0,1.3,1,1.6,1.5,2.3C150.6,251.2,150.1,250.8,149.6,250.6z M150.5,264.7c0-0.3,0-0.3,0-0.3c-0.2,0.1-0.7,0.2-1,0.2
			C149.8,264.6,150,264.5,150.5,264.7z M150.7,281c0.2-0.3,0.5-0.9,0.7-1.2c-0.3-0.5-0.5-0.4-1,0C150.2,280.1,149.9,280.6,150.7,281
			z M150.1,247.9c0.2-0.3,0.2-0.8,0.5-1.1c0.2-0.1,0.7-0.2,1.2-0.3c-0.2,0.6-0.2,0.8-0.5,1.4C150.8,248,150.6,248.1,150.1,247.9z
			 M150.3,245.3c0.2-0.1,0.5-0.1,1,0C150.8,245.7,150.6,245.7,150.3,245.3z M151.5,237c-0.5,0.4-0.7,0.4-0.7,0.4
			C150.7,236.9,150.7,236.9,151.5,237z M151.5,242.9c0.1,0.1,0.1,0.1,0.2,0.2c-0.2,0.3-0.2,0.3-0.5,0.6
			C151,243.3,151.3,243,151.5,242.9z M152,215.1c0,0.3-0.2,0.6-0.2,0.8c0.2,0.2,0.5,0.2,0.7,0.4C152.5,215.8,152.3,215.6,152,215.1z
			 M153.2,257.9c0,0.3,0,0.3,0.3,0.5c0.2-0.6,0.2-0.8-0.3-0.7C153.2,257.7,153.2,257.7,153.2,257.9z M154,266.5c0.1,0,0.1,0,0.2-0.1
			c0,0.3-0.2,0.6-0.2,0.8c-0.1-0.1-0.1-0.1-0.2-0.2C153.7,266.8,154,266.7,154,266.5z M154,264.1c0.7-0.4,1-0.7,0.5-1.4
			c-0.2,0.3-0.5,0.9-0.5,1.2C154,264,154,264,154,264.1z M156.2,211.3c0-0.8,0-1.3,0-1.8c-1-0.6-1.2,1-2,0.7
			c-0.2,0.6-0.5,1.1,0.3,1.2c0-0.3,0.2-0.3,0.5-0.6c0.2-0.3,0.2-0.6,0.7-0.9c0,0.8,0,1.3,0,2.1C156,211.6,156.2,211.3,156.2,211.3z
			 M156.5,217.7c-0.5,0.6-1.1,1.3-1.5,1.1c-0.2-0.2-0.5-0.9-0.8-1.4C155,217.3,155,217.3,156.5,217.7z M155.2,215.2
			c0-0.5,0-0.8,0-1.3c-0.5,0.6-0.5,0.6-0.7,0.9C154.7,215,154.7,215,155.2,215.2z M154.6,229c0.2,0.2,0.2,0.2,0.2,0.2
			c0,0.3,0,0.3,0,0.5c0,0-0.2,0.1-0.2-0.2C154.6,229.5,154.6,229.3,154.6,229z M154.7,209.1c0.2-0.1,0.2-0.1,0.2-0.1
			c0.2-0.6,0.2-0.8,0.5-1.4c0.2-0.3,0-0.5-0.7-0.4C154.7,207.8,154.7,208.6,154.7,209.1z M155.2,267.5c0-0.3,0-0.8,0.2-1.4
			C156,267.3,156,267.3,155.2,267.5z M156.6,226.3c-0.1,0-0.1,0-0.2,0.1c-0.5,0.1-0.3-1.2,0-2.3c0.3,0.7,0.5,1.2,0.8,1.9
			C156.8,225.9,156.8,226.2,156.6,226.3z M156.6,228.1c-0.1-0.1-0.1-0.1-0.2-0.2c0.5-0.4,0.7-0.4,1-0.7c0.2-0.1,0.2,0.2,0.5,0.4
			C157.6,228.1,156.8,227.7,156.6,228.1z M157.5,223.4c0.3,0.2,0.5,0.4,0.5,0.7c-0.2,0.3-0.5,0.4-0.7,0.4c-0.2,0.1-0.3-0.5-0.3-0.7
			c-0.3-0.2-1-0.3-0.5-0.9C157.3,222.7,157.3,222.7,157.5,223.4z M160.4,204.7c0,0-0.2-0.2-0.5,0.1c-0.2,0.1-0.5,0.4-0.7,0.7
			c-0.2-0.2-0.7-0.1-1.2,0c0.5-0.9,1-1.5,1.5-2.1c-1,0.5-0.8-1.1-1.7-0.9c0,0.5,0.3,1,0.3,1.2c-0.2,0.6-0.7,0.9-0.7,1.2
			c0.3,0.5-0.5,0.6-0.7,1.2c0.7-0.2,1-0.2,1,0.3c-0.2,0.6-0.5,0.9-0.7,1.2c0.3,0.2,0.5,0.4,0.8,0.6c0.5-0.4,0.5-0.6,0.7-0.7
			c0.5-0.4,1-0.7,1.2-0.8c0.7-0.4,0.5-1.1,1-1.5C160.4,205,160.4,204.9,160.4,204.7z M157.9,231.9c0,0.5,0,0.8,0.3,1
			c-0.5,0.1-0.7,0.2-1.2,0.5c0-0.3,0-0.8-0.3-1C157.1,232.1,157.6,232,157.9,231.9z M158.2,216.6c-0.7,0.2-1-0.3-1.2-0.8
			C158.2,215.5,158.2,215.5,158.2,216.6z M157.1,231.3c0.2,0.2,0.5,0.1,0.7,0.1c-0.1,0.1-0.1,0.2-0.2,0.3c0-0.3-0.2-0.2-0.5-0.1
			C157.1,231.6,157.1,231.6,157.1,231.3z M158.7,213.6c-0.2-0.2-0.3-0.5-0.5-0.4C158.7,212.8,158.9,212.8,158.7,213.6z M159.8,227.3
			c0.2,0.2,0.3,0.5,0.5,0.7c-1,0.7-1,0.7-1.7,0.1C159.1,227.8,159.3,227.7,159.8,227.3z M159.3,229.8c0,0.3,0,0.5-0.2,0.6
			C159.1,230.1,159.1,230.1,159.3,229.8z M159.9,213.9c-0.2,0.1-0.5,0.1-0.7,0.2c0-0.5,0-0.8,0.2-0.8
			C159.9,213.1,159.9,213.3,159.9,213.9z M159.5,218.6c0.1,0,0.1,0,0.2-0.1c0,0.3,0.3,0.5,0.3,0.7c-0.2,0.3-0.2,0.3-0.2,0.3
			C159.5,219.1,159.5,218.9,159.5,218.6z M160.9,210.3c0,0.3,0,0.5,0,0.8c-0.2,0.1-0.5-0.1-0.7-0.3
			C160.4,210.7,160.7,210.3,160.9,210.3z M161.9,211.1c0,0.3,0,0.5,0.3,0.7c-0.5,0.4-0.7,0.4-1.2,0.8c0-0.5,0-1,0-1.5
			c0.2-0.3,0.7-0.7,1-1C162.6,210.1,162.6,210.1,161.9,211.1z M160.9,211.1c0,0,0,0,0,0.3C160.9,211.2,160.9,211.2,160.9,211.1z
			 M160.9,211.1c0,0.1,0,0.2,0,0.3C160.9,211.1,160.9,211.1,160.9,211.1z M163,197.9c-0.5,0.4-0.7,0.4-1,0.7
			C162.8,199,162.8,199,163,197.9z M162.7,219.9c0.3,0.7,0.3,0.7-0.5,1.1C162.5,220.5,162.5,220.3,162.7,219.9z M162.6,209.4
			c0-0.3,0.2-0.6,0.2-0.8C163.1,208.7,163.1,209,162.6,209.4z M164.8,197.8c-0.2,0.3-0.7,0.4-1.2,0.8
			C164.5,198.6,164.5,198.6,164.8,197.8z M167.2,198.3c-0.3-0.5-0.3-0.7-0.3-1c-1.2,0-1.2,0-1.5,1.4c0.2-0.3,0.7-0.4,1.2-0.8
			c0,0.3,0.2,0.2,0.3,0.5C167.1,198.3,167.1,198.3,167.2,198.3z M165.9,209.4c0-0.3-0.3-0.5-0.3-0.7
			C166.1,208.8,166.1,209.1,165.9,209.4z M166.6,212.3c0,0,0.3,1-0.7,0.9c0.7-0.9-0.3-1.7,0.2-2.6
			C166.6,211,166.9,211.5,166.6,212.3z M167.5,200.3c0,0.3-0.2,0.3-0.2,0.6c0.3,0.2,0.8,0.6,1,0.8c-0.2,0.3-0.2,0.6-0.5,1.1
			c-0.3-1-0.8-1.4-1.7-1.1c-0.3-0.5-0.3-0.7,0-1.3c0.2-0.3,0.5-0.4,0.7-0.7c0,0,0.5-0.1,0.5,0.1C167.5,199.7,167.5,200,167.5,200.3z
			 M167.1,208.4c-0.2,0.1-0.5,0.1-0.7,0.2C166.6,208,166.8,207.9,167.1,208.4z M168.4,214c-0.7,0.2-1.2,0.3-1.7,0.7
			c0.2-0.8,0.7-1.2,1.2-1.3C167.9,213.3,168.1,213.8,168.4,214z M167.9,189.3c0-0.3-0.3-0.5-0.3-0.7c-0.1,0-0.1,0-0.2,0.1
			c0,0.3,0.3,0.5,0.3,0.7C167.8,189.4,167.8,189.4,167.9,189.3z M168.3,205.5c0,0,0,0,0.2,0.2c-0.2,0.3-0.2,0.8-0.5,1.1
			c-0.1,0-0.1,0-0.2,0.1C168.1,206.3,168.1,206.1,168.3,205.5z M169.3,200.6c0.3,0.5-0.2,0.8-0.5,1.1c-0.1-0.1-0.2-0.1-0.3-0.2
			C168.8,201.3,169,201,169.3,200.6z M169.5,166.1c0,0-0.2,0.3-0.5,0.6c0.1,0.1,0.2,0.1,0.3,0.2c0.2-0.3,0.5-0.4,0.5-0.6
			C169.7,166.3,169.7,166,169.5,166.1z M169.6,181.8c0,0.3,0,0.3-0.2,0.3c0.5,0.4,0.8,0.9,1.3,1.3c0.5-0.9,0.7-1.2,0.5-2.2
			c0,0-0.2,0.1-0.5-0.1c0,0.3-0.2,0.6-0.2,0.8C170.1,181.9,169.8,182,169.6,181.8z M173.5,174.2c0.5,0.4-0.2,0.8-0.5,1.4
			C172.5,174.7,173.3,174.5,173.5,174.2z M173.2,166.8c0-0.3,0-0.5,0-0.8C173.4,166.2,173.7,166.4,173.2,166.8z M173.2,172.2
			c0-0.1,0-0.2,0-0.3c0.3,0.2,0.5,0.1,0.8,0.6C173.2,172.7,173.2,172.4,173.2,172.2z M177.1,157.7c-0.5,1.4,0,2.6-0.7,3.8
			c-0.3-0.2-0.3-0.7-0.5-0.7c-0.5-0.1-0.5-0.7-0.8-0.9c-0.3-0.5,0-0.8,0.5-1.1c0,0,0-0.5,0-0.8c0.2-0.1,0.7-0.4,1-0.5
			C176.8,157.5,177.1,157.7,177.1,157.7z M176.4,162.2c0,0.3-0.5,0.4-0.7,0.4c0-0.5,0-0.8,0.5-0.9
			C176.1,161.8,176.4,162,176.4,162.2z M177.8,156c0.5,0.7,0.5,0.7-0.7,1.7C177.3,157.1,177.6,156.5,177.8,156z M178.6,156.3
			c0-0.3-0.3-0.5-0.5-0.7C179.1,155.2,178.8,155.8,178.6,156.3z M207.1,142.5c-0.5,0.1-1,0-1.5,0.1c0.3,0.7,0.3,1.2,1,1
			C206.9,143.3,206.9,143.1,207.1,142.5z M210.8,143.1c0,0.3,0.3,0.4,0.3,0.4c-0.2,0.8-0.5,1.6-0.7,2.2c0,0.3-0.5,0.4-0.7,0.4
			c-0.3-0.4-0.5-0.6-0.8-1.1C209.6,144.4,210.6,144.2,210.8,143.1z M212.3,142.7c0,0.5,0.3,1,0,1.3c0,0.5-0.5,0.9-1.2,1.1
			c0-0.1,0-0.2,0-0.3c0.2-0.3,0.7-0.9,0.7-1.5c0-0.3-0.5-0.6-0.5-0.9c0-0.3,0-0.3,0-0.3C211.8,142.4,212.1,142.5,212.3,142.7z
			 M221.8,135.1c-0.2,0.1-0.2,0.3-0.5,0.6c0,0,0,0.3,0,0.5c0,0,0,0.3,0,0.5c0.2-0.3,0.5-0.6,0.7-0.9c0,0.5,0,0.8,0,1.3
			C222.3,136.2,222.3,136.2,221.8,135.1z M229.5,134.1c0,0.5-0.2,0.8-0.5,1.4c0,0.3,0,0.3,0,0.3c-0.5,0.1-0.7,0.2-1.5,0.1
			c0.2-0.3,0.2-0.8,0.5-0.9C228.5,134.9,228.7,133.8,229.5,134.1z M232.2,133.7c0.2,0.2,0.5,0.4,0.7,0.6c-0.5,0.1-0.7,0.2-1,0
			C232,134.3,232.2,134,232.2,133.7z M234.2,130.7c0.5,0.4,0.7,0.6,0.5,0.9c-0.2,0.1-0.5-0.1-0.5-0.1
			C234.2,131.2,234.2,130.9,234.2,130.7z M236.7,131c0.2,0.2,0.3,0.4,0.3,0.7C236.4,131.9,236.4,131.9,236.7,131z M241.4,126.8
			c-0.2,0.6-0.5,0.9-0.7,1.4C240.6,127.5,240.6,127,241.4,126.8z M253.3,121c-0.2,0.3-0.5,0.4-1,0.5c-0.2-0.2-0.5-0.1-0.7-0.1
			c0-0.3,0-0.3,0-0.3c0.5-0.1,1-0.5,1.5-1.1C253.3,120.2,253.6,120.4,253.3,121z M254.6,120.9c0.2,0.2,0.3,0.4,0.3,0.4
			c-0.2,0.1-0.5,0.4-0.5,0.4c-0.2-0.2-0.5-0.4-0.7-0.6C254.1,121,254.3,121,254.6,120.9z M256.5,120.4c-0.2-0.2-0.5-0.4-0.7-0.6
			C256.5,119.4,256.5,119.6,256.5,120.4z M261,115.5c0.7-0.4,1,0,1.5,0.4C261.8,116.3,261.3,115.9,261,115.5z M293.1,98.6
			c0,0,0.2,0.2,0.2,0.4c0,0-0.2,0.1-0.5,0.4c0-0.2,0-0.5,0-0.7C292.9,98.6,292.9,98.6,293.1,98.6z M296.3,96.7
			c-0.2,0.1-0.7,0.2-1,0.3c0.2-0.8,0.2-0.8-0.5-0.6c0.2,0.2,0.5,0.4,0.5,0.6c0.2,0.2,0.5,0.1,0.7,0.3c0,0,0.2-0.1,0.5-0.4
			C296.3,97,296.3,96.7,296.3,96.7z M297.3,94.7c0-0.5,0.2-0.8,0.2-1.1C298.1,94,298.1,94.5,297.3,94.7z"/>
		<path class="st0" d="M294.1,165.1c0.5,1.3,0.7,1.8,0,2.7c-1.5,2.2-2,4.8-3.5,7.4c0.5,2.1,1.5,4-0.5,6.3c-0.5,0.1-1,0.3-1.5,0.2
			c-0.2,0.8-0.7,1.5-0.7,2.2c0,0.7-0.2,1.6-0.5,2.6c0,0.5,0,1.5,0.2,1.7c1.5,1.1,1,2.7,0.3,4.4c-0.2,0.6-0.5,1.4-0.5,1.9
			c0.2,1.9-0.7,3.9-1.2,5.6c-1,2.8-2,5.5-2.2,8.3c0,0.7-0.2,1.3-0.7,2.2c-0.7,1.2-1,2.3-0.7,3.2c0.4,1.3,0,2.7-0.7,3.9
			c-0.5,0.9-0.8,1.7-1,2.8c-0.3,1.5-0.6,3.2-1,4.5c-0.2,0.5-0.5,1.4,0.2,1.7c0.2-0.1,0.2,0.4,0.2,0.9c-0.2,2.6-0.4,5-0.7,7.4
			c-0.2,1.5-0.2,3.3,0.3,4.6c0.2,0.4,0,1.2,0,1.7c-0.2,0.3-0.7,1-1,1.5c1.2,1.6,0.5,3.8-0.2,6c0,0.2-0.5,0.9-0.7,1.2
			c-1,0.6-1.5,1.7-2,2.9c-0.5,1.3-1.2,2.6-2,4.1c0,0.5-0.2,1.1-0.2,1.3c0,0.2,0,0.2,0.2,0.2c0,0,0.2,0.2,0.5-0.2
			c0.2-0.6,0.7-1.2,1-2.1c0.2,0.2,0.5,0.3,0.5,0.3c-1.2,3.1-1.5,6.4-3.9,9.2c-1-0.2-1.2-0.4-0.7-1c0.2-0.6,0.5-0.9,0.7-1.5
			c0,0,0-0.2,0-0.7c-3,2.7-3.7,4.9-3.2,7.5c0.2,0.9,0.3,1.9,0.5,2.8c-0.5,0.9-1.3,1.9-1.7,2.8c-0.6,1.2-1.5,1.7-2.2,2.4
			c-0.8,0.8-1,2.1-2,2.9c-0.7,0.5-1.2,0.1-1.2-0.9c0,0,0-0.2,0-0.5c-0.5,1.4-1.1,2.7-1.2,3.6c-0.1,1.2-1,2.3-2,2.9
			c-0.7,0.4-1.2,1.1-1.7,1.8c-1.5,2-3.2,3.8-5.2,5.1c-1.2,0.6-2.7,1.6-3.7,2.9c-0.5,0.7-1.7,1.3-2.7,1.9c-2,1.4-3.7,2.7-5.9,3.4
			c-1.2,0.4-2.7,1.5-3.9,2.2c-0.9,0.6-2,0.8-2.9,0.9c-1.2,0.1-2.5,1.8-3.7,2.4c-0.2,0.1-0.7,0-1-0.2c-0.5-0.1-1-0.2-1.5,0.5
			c-1.2,0.9-2.7,1.4-3.7,1.9c-0.7,0.3-1.2,0.6-1.7,1c-2.7,2.3-5.6,3.5-8.3,5.3c-0.5,0.4-1.2,0.6-2,0.8c0,0-0.2-0.4-0.7-0.5
			c1.2-0.9,2.2-1.1,3.2-1.7c0.8-0.6,2-0.8,2.9-1.4c1-0.6,2-1.4,2.7-2.1c0-1-0.5-0.9-0.7-0.8c-3.4,0.3-6.6-0.3-9.6-1.2
			c-0.7-0.3-1.5-0.3-2.2-0.4c-1.7,0-3.4,0.3-5.2,0.2c-0.7,0.2-1.2,0.1-1.7-0.3c-2-0.7-4-1.4-5.7-2.4c-1.7-1-3.4-2.3-4.5-3.9
			c-0.8-1.2-1.7-2.6-2.7-3.8c-0.2-0.2-0.5-0.6-0.7-0.8c-0.7,0.2-0.7,1-0.5,1.2c0.3,1.5,0.8,2.9,1,4.3c0.8,2.6,2,4.6,3.3,6.5
			c0.2,0.4,0.3,1,0.5,1.1c-0.7,0.2-1-0.5-1.5-0.6c-2.2-3.2-4.1-6.9-4.5-11c-0.3-2.7-0.3-5.6-1-7.9c-0.3-1,0-2.1,0-3.1
			c-0.1-2.6-0.7-5.9-1.1-8.4c-0.2-1.2-0.4-2.3-0.3-3.5c0.1-1.4,0.2-2.9-0.5-4c0.5-1.9,0-3.3,0.2-5.2c0.2-2.1,0.2-4.2,0.2-6.2
			c0-2.8,0.9-5.4,1.9-8.2c0.5-1.4,1.2-2.9,1.7-4.3c0.2-0.6,0.5-1.2,0.7-2c1.2-5.7,3.9-11.5,6.1-17.2c0.5-1.4,1.2-2.9,1.5-4.5
			c0.7-3,2.4-6,3.4-8.8c0.7-1.5,1.8-3,2.4-4.5c0.8-1.6,1.4-3.3,2.2-4.9c0.7-1.4,1.4-2.9,2.2-4.1c1-1.6,1.5-3.7,2.4-5.7
			c0.5-0.9,1-1.8,1.5-2.7c1-1.5,1.7-3.2,2.2-4.9c1-3.1,1.7-5.8,3.9-8.4c0-0.3,0.2-0.6,0.2-0.8c0.7-3,3-5.3,4.4-8
			c0.2-0.6,0.5-0.9,0.7-1.5c1.7-1,3.5-1.2,5-0.5c0.7,0.3,1.5,0.6,2.2,0.9c2,0.7,3.7,1.5,5.7,2.3c1.2,0.4,2.2,0.9,2.7,2.3
			c0,1.3,1.2,1.7,2.5,2.1c0.5,0.4,1.2,0.4,1.7,0.8c2,1,2.2,2.4,1.3,4.9c-0.2,0.6-0.5,1.1-0.7,1.5c0,0.3-0.2,0.3-0.2,0.6
			c-1.2,2.9-2.2,5.9-3.4,8.8c0,0.3,0,0.5,0,0.8c0,2.3-1.2,4.6-2,6.8c0,0.3,0,0.3,0,0.3c-1.7,1.5-1.7,3.5-2.5,5.2
			c0,0.5-0.2,0.8-0.5,1.4c-1,2-2,4.3-3.2,6.5c-0.2,0.6-0.5,1.5-0.7,2.2c-0.2,0.6-0.5,1.1-0.7,1.7c-1.2,1.6-1.5,3.2-2,4.9
			c-0.2,0.8-0.5,1.7-0.7,2.5c-0.5,2.2-2,4.1-2.7,6.3c-0.2,0.6-0.5,0.9-0.5,1.4c-0.5,2.2-1.5,4.5-2.2,6.5c-0.2,0.3-0.2,0.3-0.2,0.3
			c-1.5,3.5-2.7,6.8-3.4,10.1c0,0.5-0.2,1.1-0.5,1.4c-1.7,2.5-2.4,5.5-3.7,8.2c-0.2,0.6,0,1.3,0,1.8c0,0.8-0.2,1.6-0.7,2.2
			c-1,0.8-0.9,1.8-0.7,2.5c0.3,0.9,0.8,1.8-0.2,3.1c0,0.3,0,0.5,0,0.5c0.5,1.6,0.1,3.4,0,5.1c-0.1,2,0.2,4.4,0.3,6.3
			c0.1,1.2,0.3,2.2,0.3,3.5c0,1,0.3,1.7,0.5,2.7c0.8,1.8,0.8,1.8-0.7,4.3c0.8,2.1,2.7,3,3.7,4.5c1.5,0.1,2.7-0.8,3.9-1.7
			c2.2-1.4,4.4-3.1,6.6-5c4.2-3,7.6-7.1,10.3-11.7c1.7-2.5,3.3-5,4.7-7.5c1.3-2.3,2.2-4.4,3.2-6.8c1.2-2.9,2.2-5.7,3.2-8.8
			c0.7-1.5,1-2.8,1.5-4.2c0-0.3,0-0.5,0-0.5c1.5-4.5,2.9-8.7,4.4-13.1c0-0.3,0.2-0.6,0.2-0.6c2.5-3.5,2.9-7.1,3.9-10.4
			c0.2-1.1,0-2.3,0.2-3.1c0.3-1,1-2.1,1.5-2.9c0.5-1.1,1.2-2.2,1.5-3.2c0.4-1.6,1-3.5,1.2-5.4c0.2-0.6,0-1.2,0.5-1.9
			c0.7-1.7,1.1-3.4,1.5-5.2c0.3-1.7,0.9-3.6,1.5-5.4c0.4-1.4,0.2-2.6,1.5-3.9c0,0,0.2-0.6,0.2-0.8c0.5-1.4,1.1-4.6,1.7-7
			c0.5-2.1,1.7-4.2,1.7-6.5c0-1,0.7-2.5,1.2-3.6c1.5-3.4,2.7-6.5,3.5-10c0.2-1.3,1-2.5,1.5-3.7c0.2-0.3,0.5-0.9,0.7-1.5
			c0.7-2.4,2-4.8,3-7.1c0.2-0.6,0.5-1.1,0.7-1.7c1.2-2.1,1.2-2.1,1.2-4.1c0-0.2,0.2-0.6,0.2-0.6c2-1.5,3-3.8,4.2-5.6
			c1-1.5,2-3,3.2-4.6c0.7-1.2,1.7-2.2,2.7-3.2c0.7-0.7,1.5-1.4,2-2.5c0.5-1.1,1.5-1.9,2.7-2c0,0.5,0,1,0,1.2c0,1,0,2-0.2,3.5
			c-1.2,1.8-1.5,4.1-2.5,6.4c0,0.5,0.2,0.9,0.2,1.2c1,0.2,1.5-0.2,2-0.8c0.6-0.7,1-1.3,1.7-2c0-0.2,0.2-0.3,0.5-0.4
			c1,1.5-1,4.1-0.5,4.8c0.2,0.3,1.2,0.6,2,0.9c-0.5,2.6-0.7,4.9-1.2,7.3c0.5,0.1,0.7,0.3,1.2,0.4c-0.7,2.7-0.7,5.4-2.7,7.7
			c-1.5-0.3-0.2-2.4-1.5-3c-0.7,1.7-0.7,2.9-0.7,4.4c-0.7,0.7-1.2,1.6-1.7,2.2c-0.5,0.6-0.7,1.5-1.2,2.1c-0.7,1.2-1,2.3-0.7,3.4
			c0.2,0.2,0.7,0.5,1.2,0.6c0.2,0.2,0.7-0.5,1-0.8c0.7-0.5,1-1.3,1.2-2.1C293.4,167.3,293.6,166.2,294.1,165.1z M212.7,294.1
			c0.2-0.1,0.2-0.1,0.2-0.3C212.9,293.9,212.8,294,212.7,294.1z M274.7,252.8c0-0.2,0-0.5-0.2-0.7c-0.2,0.3-0.7,0.7-0.7,1
			c0,0.2,0,0.5,0.2,0.4C274.2,253.7,274.7,253.3,274.7,252.8z M276.4,236.8c-1,0.6-1,1.3-1.2,2.1c0,0,0.2,0.4,0.5,0.3
			c0,0,0.5-0.2,0.5-0.4C276.6,238.2,276.9,237.4,276.4,236.8z M278.1,244.5c0-0.2-0.2-0.4-0.5-0.3c-0.5-0.1-0.5,0.4-0.5,0.6
			c0,0.2,0.2,0.4,0.5,0.3C277.9,245.1,277.9,244.8,278.1,244.5z M283.3,231.7c0.5-1.1,1-2,1-2.5c-0.2-1.4,0.7-3-0.3-4.1
			c-0.5,0.6-1.2,1.4-1.5,1.7C282.8,228.4,283,230.1,283.3,231.7z M285.2,223.4c0.2-0.3,0.2-0.3,0.5-0.6c-0.2,0.1-0.2,0.1-0.2,0.1
			s-0.2,0.1-0.5,0.2C285,223.3,285.2,223.2,285.2,223.4z M289.4,162.7c0.7-1.2,0.7-1.9,0-2.7c-2.5,1.4-2.2,3.1-2,5.5
			C288.2,164.3,288.9,163.3,289.4,162.7z M290.4,189.7c-0.2,0.3-0.5,0.9-0.7,1.5c0.2-0.1,0.2-0.1,0.2-0.1
			C290.2,190.5,290.2,190,290.4,189.7z M291.2,187.5c-0.7,0.5-0.7,1-0.7,1.7C290.7,188.6,290.9,188,291.2,187.5z M290.4,189.7
			c0-0.2,0-0.2,0-0.5C290.4,189.2,290.4,189.4,290.4,189.7z M295.1,163.8c0.2-0.1,0.2-0.3,0.7-0.7c-0.5,0.1-0.7,0-0.7,0
			c-0.2,0.1-0.2,0.3-0.5,0.6C294.9,163.9,295.1,164.1,295.1,163.8z"/>
		<path class="st0" d="M402.2,135.1c0.2,0.9,0.2,1.6,0,2.6c-0.3,1-0.5,1.8-0.5,2.8c-0.5,2-1.3,4.1-2.5,5.9c-0.5,1.1-0.7,2.1-0.5,3.2
			c0.3,1.3,0,2.9-0.8,4.5c-0.7,1.4-0.7,2.9-1,4.3c-0.2,1,0.7,1,1,1.7c-0.2,0.3-0.7,0.4-1,0.5c-1.3,3.2-2.5,6.1-3.8,9.4
			c-0.5,0.8-0.8,1.6-1,2.7c-0.8,2.1-2,4.4-3,6.5c-0.3,0.8-0.7,1.4-0.5,1.8c0.3,0.7-0.3,1.5-0.8,2.1c-1.5,0.9-2.2,2-2.2,3.5
			c0,0.2-0.3,0.5-0.5,1.1c-0.7,1.4-1.5,2.9-2,4.4c-0.5,1.3,0.5,2.3,2,1.6c0.2-0.1,0.7-0.2,1.2-0.3c0,0.2,0.2,0.4,0.2,0.7
			c-0.5,1.3-1.2,2.7-1.8,4.1c-0.3,0.8,0,1.7-1,2.4c-0.3,0.8-0.5,1.6-0.5,2.3c0.5,1.1,0,2.4-0.5,3.7c-0.2,0.3-0.5,0.9-0.5,1.3
			c0.2,1.1,0,2.6-0.3,3.9c-0.2,0.3,0,0.7-0.3,1.3c-0.2,0.3-0.7,0.5-1.2,0.8c0.2,0.2,0.2,0.7,0.5,0.8c0,0.2,0.2,0.4,0.5,0.8
			c-1,0.3-2.1,0.7-2.5,1.2c-0.3,0.3-0.3,1-0.5,1.6c0,0.2,0.2,0.4,0.2,0.4c0.5,1.5,0,3.1-1,4.6c-0.5,0.9-0.7,1.7-0.8,2.6
			c0,1-0.5,2.1-0.8,3.3c-0.5-0.1-0.2-0.6-0.2-0.9c0.3-1.3,0.5-2.3,0-3.4c-0.2-0.4,0-1,0-1.4c0-0.5,0.3-1,0.3-1.8
			c-0.7,0.7-1.2,1.3-1.2,2.3c0,0.7-0.2,1.8-0.5,2.6c-0.3,0.9-1,2-0.5,2.8c-0.5,0.9-0.7,1.8-1,2.5c-0.4,0.8-0.7,1.4-0.3,2
			c0,0-0.2,0.6-0.3,0.8c-0.5,0.4-1,0.8-1.2,1.1c-0.5,1.1-0.5,2.1-1,3.4c0,0.2-0.5,0.6-1,1c0.2,1.1-0.5,2.8-0.3,4.2c0,0,0,0-0.2,0.1
			c-1,1.5-1,3.2-1.7,4.6c0,0,0,0-0.2,0.1c-0.2,0.1-0.5-0.1-0.5-0.3c0-0.5-0.2-0.9-0.2-1.4c-1,1-2.2,1.6-2.5,3.2
			c0,0.2-0.2,0.6-0.5,0.6c-1,0.8-1,1.8-1,2.7c0,0.5,0.2,0.6,0.2,1.1c-0.2,0.6-0.5,1.4-0.7,2.2c-0.7,0.2-1.4,0.9-1.5,1.7
			c-0.1,0.7-0.9,1.4-1.5,1.9c-0.7,0.6-1.7,1.5-2.7,2.1c-0.5-0.1-0.5-0.3-0.5-0.8c0-1.9,0.3-4,0.3-5.9c0-1.9-0.2-3.8-0.2-5.7
			c0-1.2,0-2.4,0-3.9c0-0.5,0.3-1.3,0.5-1.8c0.2-0.6,0.3-1,0-1.7c0-0.1,0-0.1,0-0.2c0-2.9,0-5.6,1-8.5c0.5-1.6,0.8-3.1,1.5-4.6
			c0.2-0.3,0.2-0.6,0.3-1c0.8-3.6,1.5-7.2,2.5-10.9c0-0.7,0.5-1.4,0.7-2.2c-0.2-0.2-0.2-0.4-0.5-0.6c-0.7-0.7-1-1.6-0.2-3.1
			c0.2-0.3,0.2-0.8,0.3-1c-0.2-0.7-0.2-1.4,0-2.2c0.5-2.8,1-5.7,1.3-8.1c0.2-1.7,0.5-3.6,0.8-5.1c0.6-4.1,1.3-8.3,2-12.7
			c0-0.5,0-0.7,0-1.2c-1.5,0.9-2.4,1.9-2.7,3.4c-0.4,1.8-1.5,4.1-2.5,5.8c-1.3,2.3-1.7,4.5-2,6.4c-0.2,1-0.3,1.8-0.5,2.6
			c0,0.2-0.2,0.8-0.5,1.1c-0.4,0.5-1.7,0.7-2.7,1.3c-0.7,0.9-1.5,2.1-2.2,3.1c-1,0.3-1.7-0.2-2.7-0.4c-0.5,0.9-1.2,1.6-2,2.5
			c-0.2-0.2-0.2-0.4-0.5-0.6c-0.7,0.2-1.2,0.6-2,0.8c-0.5,0.1-1,0.1-1.5,0c-1,0.5-2.2,2.2-2.5,2c-0.3-0.2-0.5-1.8-0.7-2.7
			c-0.3-1.3-1-1.7-2.2-2c-1,1.3-2,2.3-3.2,3.6c0,0.5-0.2,1.3-0.3,2c-0.7,0.5-1,0.1-1.5,0c-1-0.7-2.2-1.1-3.5-1.2c-0.4,0-1-0.2-0.7-1
			c0.2-0.3,0.5-0.4,1-0.8c0-0.2,0.2-0.8,0-1c-0.2-0.4-0.5-0.8-0.5-1.6c0-0.2-0.2-0.4-0.7-0.5c-0.2-0.2-0.5,0.4-0.7,0.7
			c-0.1,0-0.1,0-0.2,0.1c-0.5-0.6-1-1.5-1.2-2.3c-0.2-0.6-0.6-1.1-1-1.7c-0.5-0.7-1.1-1.8-1.2-2.6c-0.2-1.3-1-2.4-1.7-3.4
			c-0.2-0.4-0.2-0.7-0.2-1.2c0-0.5-0.2-0.9-0.5-1.3c0-0.5-0.2-0.7-0.5-1.1c0-0.5,0-1-0.2-1.2c-0.2-0.4-0.5-0.8-1-0.7
			c-0.7,0.2-1,0.8-1.2,1.3c-1,2.3-1.2,4.5-2,6.7c0,0.2,0,0.5-0.2,0.8c-0.2,0.8-1,1.8-1.2,2.8c0,0.7-0.2,1.8-0.5,2.6
			c-1,2-1.7,3.7-2.5,5.7c0,0.2-0.2,0.6-0.2,0.6c-1,0.8-1,1.8-1.2,2.6c-0.5,1.1-0.4,2.3-1,3.3c-0.5,0.8-0.7,2.2-1.2,3.1
			c0,0.2-0.2,0.6-0.2,0.8c0,1.5-1,2.3-1.7,3.5c-0.5,0.6-1,1.3-1.7,2.3c0.2,0.7,0.5,1.1,0.5,1.6c0,0.5-0.2,1.1-0.5,1.4
			c-0.2,0.6-0.5,0.9-1,0.8c-0.5-0.1-0.7,0.5-0.7,1c0.2,0.4,0.2,0.7,0.2,1.2c0.2,0.2,0.5,0.1,0.7,0c0,0.2,0.2,0.7,0,0.7
			c-0.7,1-1,1.8-0.5,2.6c-0.2,2-0.7,4.2-2.2,6.4c-0.5,0.6-1,1.3-1,1.8c0,1-0.7,1.5-1,2.3c-0.2,0.3-1,0.6-1.5,0.7c0-0.7,0-1,0-1.5
			c0.2-1.3,0.5-2.6,0.7-3.7c0-0.5,0-1-0.2-1.4c-0.5-0.8-0.3-1.9,0-3c0.2-0.8,0.5-1.9,0.5-2.6c0.2-0.1,0-0.5-0.2-0.4
			c-0.2,0.1-0.5,0.2-0.5,0.4c-0.5,1.1-0.7,2.3-1,3.3c-0.2,0.5-0.2,1.1-0.5,1.9c0,0.2-0.2,0.3-0.2,0.6c-0.2,2.5-1.2,5.1-2.2,7.6
			c-0.5,1.4-0.5,2.9-1,4.5c-0.2-0.4-0.5-0.6-0.5-1.1c-0.2-0.4,0-1.2,0-1.7c0-0.5-0.2-0.7-0.7-0.5c-0.5,0.2-0.5,0.7-0.5,0.9
			c0,2-0.7,3.9-0.7,5.7c0,0.5-0.5,1.1-0.7,1.7c-0.5,0.9-0.5,1.7,0,2c0.5,0.3-0.2,1.6-0.2,2.1c-0.2,0.1-0.7,0.2-1,0.1
			c-0.7,1.7-2,5.3-1,7.3c0.1,0.1,0.5,0.1,1,0.2c-0.2,0.6-0.2,1.1-0.5,1.9c-0.2-0.2-0.5-0.1-0.7-0.3c-0.5,0.4-0.5,0.9-0.5,1.4
			c0,1.7-1.2,3.1-1.7,4.8c0,0-0.5,0.2-0.7,0.2c0,0.2-0.2,0.6-0.2,0.6c0.7,2-0.7,4.2-0.5,6.1c0,0.2-0.2,0.6-0.5,0.7
			c-0.5,0.2-0.5,0.7-0.7,1c-0.2,1.1-0.5,1.9-0.7,3c-0.5-0.1-1-0.2-1.5-0.3c0-0.5,0-0.7,0-1.2c0-1.2,0.2-2.8,0-4
			c-0.2-1.2,0-2.5,0.2-3.8c0-0.7,0.2-1.6,0-2.2c-0.3-0.9-0.2-1.7,0-2.7c0.3-1.5,0.2-3.3,0.2-4.8c0-0.5,0-1,0.2-1.6
			c0-0.5,0.2-0.8,0-1.2c-0.2-2.4,0.5-4.6,1-7.3c0.5-2.9,1.4-5.7,1.5-8.4c0.1-1.2,1-2,1-3c0-0.7-0.3-1.7,0-2.7
			c0.4-1.6,0.5-3.4,1.2-5.1c0.2-0.3,0.2-0.6,0.2-0.8c-0.2-2.4,0.4-5,0.7-7.4c0.4-3.2,1.7-7.5,2-11.3c0.2-0.6,0.2-1.3,0.7-2
			c0.2-0.3,0.2-0.6,0.2-0.8c0.5-2.4,1-5,1.5-7.6c0-0.2,0-0.5,0-0.5c-1-1.2,0.2-2.8,0.2-4.3c0-0.2,0.2-0.6,0.5-0.9c1-1,1-2,1.5-3.2
			c0.7-3.2,1.7-6.4,2.5-9.6c0.2-1.1,0.5-1.9,0.7-2.9c0-0.2,0-0.5,0-0.5c-0.7-1-0.1-2.3,0.2-3.5c0.4-1.6,1.1-3.3,1.5-4.9
			c0.6-2.6,1.2-5.5,2-8.5c0.2-0.6,0.4-0.9,0.5-1.4c0.4-1.7,0.9-4.6,1.5-6.8c0.8-2.9,1.5-5.8,2.2-8.5c0.2-1.1,0.5-1.9,1-2.7
			c0-0.2,0.2-0.6,0.5-0.6c1.5-0.9,2.9-1.4,4.2-1.7c1.6-0.3,3.5-0.7,5-0.4c0.2,0.2,0.7,0,1,0c2-0.3,3.5,0.3,4,1.6
			c0.5,1.3,1.2,1.4,2.5,0.8c0.2,0.4,0.5,0.8,1,1.2c0.7,1,1.7,1.7,3.5,1.7c1,0,1.9,0.5,2.5,1c0.8,0.7,1.7,1.7,3,2.1
			c1.2,0.4,2,0.9,1.5,2.5c0.7,0.5,1.7,0.7,1.7,1.7c0.7,1,1.5,1.8,2,3.1c0.7,2,1.5,4,2.2,5.9c0,0.2,0,0.5-0.2,0.8
			c-0.5,1.1-0.1,1.9,0.5,1.8c0.9-0.1,1.5,0.4,1.7,1c0.2,0.4,0.5,1.1,0.7,1.7c0.5-0.1,0.7-0.5,1-0.8c0.7-0.9,1.7-1.9,2.5-2.9
			c0.8-1,1.8-2.4,2.7-3.2c0.7-0.6,1.5-1.6,2-2.3c1.5-2.1,2.7-4.2,4.2-6.3c0.2-0.3,0.7-0.9,1.2-1.6c3.5-3.4,6.2-7,9.2-10.7
			c1.5-1.9,3-3.5,4.5-5.3c0.7-0.7,1.2-1.5,1.5-2.6c0.3-1,1-2,2-2.7c0.7-0.4,1.2-1,1.5-1.8c0.2-0.3,0.3-0.5,0.5-0.9
			c1-0.5,1.2-1,1.5-1.8c0.5-1.1,1-1.1,1.7-0.7c0.6,0.3,1.4,0.4,2.2-0.1c0.5-0.3,1.2-0.6,1.7-0.7c0.5-0.4,0.7-0.4,1-0.3
			c0.7,0.3,1.5,0.1,2.2-0.3c0.7-0.4,1.7-0.9,2.5-1.1c1.7-0.2,3.2-0.1,4.7,0c0.7,0.1,1,0.5,1,0.9c2,0,1.9,1.1,2.7,1.7
			c0.6,0.5,3.7-1.2,5.2,0.1c0,0.5-0.3,1-0.3,1.5C402.2,134.4,401.9,134.9,402.2,135.1z M292.9,246.3c-0.5,0.4-0.5,0.6-0.5,1.1
			c0.1,0.1,0.1,0.1,0.2,0.2c0.1-0.1,0.1-0.2,0.2-0.3C292.9,247.1,292.9,246.6,292.9,246.3z M294.6,237.6c-0.5,0.4-0.7,0.5-0.7,0.7
			c-0.2,1.1-0.2,1.8-0.2,2.8c0,0.2,0,0.2,0.2,0.2c0.1,0,0.1,0,0.2-0.1C294.6,240.1,294.6,238.9,294.6,237.6z M299.6,226.5
			c-0.5,0.9-0.5,0.9-0.2,1.6C299.8,227.4,299.8,227.1,299.6,226.5z M315.1,209.2c-1.5,4.4-3,9-4,13.5c-0.2,1.1-0.5,2.4-0.7,3.7
			c-0.3,1.7-0.6,3.4-1.2,5.3c-0.6,1.7-0.5,3.6-1.2,5.6c0,0.7,0,1,0.7,1.2c0.2-0.1,0.7,0,1.2,0.1c0-0.5,0.2-0.8,0.2-1.1
			c-0.2-0.7,0-1.5,0.5-2.1c0.7-1.5,1-2.8,2-3.8c0.2-0.3,0.2-0.8,0.5-1.4c0-0.5,0.2-1.3,0.5-2.1c0.2-0.8,0.5-1.9,0.7-2.9
			c0.2-1.1,0.3-2.1,0.5-3.1c0.3-1.3,0.7-2.4-0.2-3.4c0-0.2,0-0.5,0-0.7c0-1.5,1-3,1.5-4.1c1-2,1-3.7,0.3-5.5c0-0.2,0-0.7-0.5-0.6
			C315.6,208.3,315.4,208.6,315.1,209.2z M333.4,205.9c0-0.2-0.2-0.4-0.5-0.3c-0.2-0.2-0.5-0.1-1,0.1c0.2,0.4,0.2,0.7,0.2,0.9
			c0.2,0.4,0.7,0.3,1-0.1C333.4,206.4,333.6,205.8,333.4,205.9z M367.5,242c0-0.2,0-0.5-0.2-0.7c0-0.2-0.5,0.4-0.5,0.6
			c0,0.5,0,0.7,0,1.7C367.2,242.8,367.5,242.2,367.5,242z M376.9,218.2c0,0.5-0.2,0.6-0.3,0.8c0.1,0.1,0.1,0.1,0.2,0.2
			c0,0,0,0,0-0.2C376.9,218.9,376.9,218.7,376.9,218.2z M379.7,202c-0.5,0.4-1,0.5-1.2,0.8c0.2,0.7,0.5,1.3,1,1.9
			C380.2,203.6,380,202.9,379.7,202z M383,184.5c-0.5,0.1-0.7,0.2-0.7,0.4c-0.5,1.3-1.2,2.9-1.5,4c-0.4,1.3-0.3,2.7-0.8,4.1
			c-0.2,0.3,0,0.7,0.2,1.6c0.5-1.8,1.1-3.6,1-4.8c-0.1-0.9,0.3-2.1,1-2.9C382.9,186.2,382.8,185.6,383,184.5z M383.5,196.4
			c0,0.2,0,0.2,0,0.5c0.1-0.1,0.1-0.2,0.2-0.3c0-0.2,0-0.2,0-0.5C383.5,196.4,383.5,196.4,383.5,196.4z M388,178.2
			c-1-0.5-1.7,0.5-2.2,1.1c-0.7,0.9-1,2.2-0.5,3c1-0.8,1.7-1.4,2.5-2.1C387.8,179.4,388,178.9,388,178.2z M386.3,170.5
			c0,0.2,0.2,0.2,0.2,0.4c0.2-0.1,0.5-0.4,0.5-0.4c0-0.2-0.2-0.4-0.2-0.4S386.6,170.2,386.3,170.5z M390,172.8
			c-0.1-0.1-0.1-0.1-0.2-0.2c0-0.2-0.2-0.2-0.5-0.1c0,0.5-0.3,0.8-0.5,1.3c0.2-0.1,0.2,0.2,0.5,0.1
			C389.5,173.7,389.8,173.1,390,172.8z M393.1,160.8c-0.2-0.2-0.2-0.4-0.5-0.3c-0.5-0.1-0.5,0.4-0.7,0.7c0,0.2,0.2,0.4,0.5,0.3
			C392.6,161.1,392.8,161.1,393.1,160.8z M395,161.7c-1.5,1.3-1.2,2-1,2.9C394.8,163.9,394.8,163,395,161.7z M395.6,151.3
			c-0.5,0.6-0.7,0.9-0.7,1.1c-0.2,0.3-0.3,0.5,0,0.7c0,0.2,0.2,0.2,0.2,0.2c0.2-0.3,0.5-0.6,0.5-0.8
			C395.6,152.2,395.6,152,395.6,151.3z"/>
		<path class="st0" d="M493.9,125.4c0,0.5-0.3,1-0.5,1.2c-0.3,1-0.5,1.9-0.8,2.9c-1,0.2-1.2,0.2-1-0.3c0-0.7,0-1.2,0-1.9
			c0,0-0.2-0.2-0.5-0.4c-0.2,0.1-0.3,0.2-0.5,0.3c-0.2,0-0.3,0.3-0.3,0.3c-0.8,1.5-1.5,2.8-2,4.3c-0.3,0.5-0.3,1.2-0.5,1.7
			c0,0.2,0,0.7-0.3,0.7c-0.7,0.6-0.8,1.3-1,2.3c-0.8,2.7-1.3,5.5-2.6,8.3c-0.8,1.1-1,2.7-1.5,3.7c-0.4,0.8-1.3,1.8-2,2.4
			c-0.7,0.6-1.3,1.4-2,2c-0.3,0.3-0.5,0.8-0.8,1.3c-0.8,1.8-2,3.2-3,4.5c-0.5,0.6-1,1.1-1.3,1.6c-0.3,0.5-0.4,1,0,1.4
			c0.5,0.5,0.1,1.1-0.5,1.7c-0.5,0.5-0.8,1.3-1.5,1.5c0-0.2,0-0.5,0-0.5c0.3-0.5,0.3-0.7-0.2-0.9c-0.5,0.1-0.5,0.3-0.7,0.8
			c-0.3,0.5,0,0.7,0.5,0.8c-0.5,0.6-1,0.9-1.5,1.5c-1,0.9-2.2,1.8-2.7,3.1c-1,0.2-1.7,0.4-2.7,0.6c-0.5,0.6-1,1.1-1.5,1.7
			c-0.2,0.3-0.7,0.9-1,0.9c-1.2,0-2.1,1.1-3,1.8c-1,0.8-1.9,1.5-3,2c-0.9,0.5-2.2,1.9-3.2,2.8c-1.5,1.7-3.2,3.1-5,4.6
			c-0.5-0.4,0.8-1.3-0.2-1.8c-0.5,0.6-1,0.9-1.2,1.5c-0.7,0.6-1,1.4-2,1.6c-0.2,0.1-0.7,0.6-1,0.9c-0.5,0.6-1.2,1.2-1.7,1.8
			c-0.2,0.1-0.7,0.4-1,0.5c-1.5-0.4-2.5,1.3-4,1.4c-0.7,0.4-1.2,0.8-1.7,1.4c-1,0.7-1.7,1.1-2.7,1.6c-0.7,0.2-1.7,0.7-2.2,1.5
			c-0.5,0.4-1.2,0.8-1.7,0.9c-1.2,0.8-2.5,1.6-3.2,2.7c-0.3,0.8-0.5,1.5-0.8,2.6c-0.7,0-1.2,0.1-2,0.3c-0.5,0.1-1,0.3-1.7,0.4
			c0.7-0.9,1.2-1.5,1.7-2.3c0.2-0.3,0.3-0.5,0-0.7c0-0.2-0.5-0.3-0.7-0.3c-0.2,0.3-0.7,0.4-1,0.7c-0.7,0.7-1.2,1.3-2,1.7
			c-1,1-1,1.7,0,2.6c-0.2,0.3-0.5,0.6-0.7,0.7c-0.7,0.7-1,1.2-1.2,1.7c0,0.5-0.3,1.3-0.3,1.7c-0.3,0.8,0,1.4-0.3,2
			c-0.3,0.5-0.7,1.1-1,1.7c-0.3,0.5-0.5,1.1-0.5,1.6c0.2,1.4-0.3,2.7-1,4.1c-0.5,1-0.7,2.4-1.3,3.7c-0.4,1.1-0.5,2.3-0.8,3.5
			c-0.2,1-0.3,1.7-1.2,2.5c-0.2,0.3-0.5,0.6-0.5,0.8c-0.3,0.8-0.5,1.6-0.8,2.3c0.2,0.2,0.5,0.3,1,0.4c-0.3,0.8-0.5,1.3-0.8,1.9
			c-0.5,1.1-0.8,1.9-1,2.9c0,0.5-0.5,1.1-0.7,1.4c-1,1-1.2,1.8-1.5,2.8c-0.5,2-1,4.1-1.8,6.5c0,0.2-0.3,0.8-0.5,1.1
			c-1,1-1.2,2.7-1.7,3.8c-0.4,0.8-0.8,2.1-1.7,2.9c0-0.7,0-1.2,0-1.9c-1.2,0.6-1.2,0.6-0.8,2.1c0.2-0.1,0.5-0.1,0.7-0.2
			c0,0.1,0,0.1,0,0.2c0-0.1,0-0.1,0-0.2c-0.5,0.9-1.2,1.3-1.5,2.3c-0.7,1.2-1.5,2.3-2.2,4c-0.2-0.9,0.5-2.1-0.5-2.5
			c-0.7,1.2-0.8,2.1-1,2.9c-0.5,1.1-1,2-2.2,2.6c0.2-0.6,0.3-1-0.2-1.6c0,0.2-0.2,0.3-0.2,0.6c-0.5,0.6-0.5,1.6-1,2.2
			c-0.2,0.6-1.2,0.8-1.5,1.4c-0.5,1.1-0.9,2.3-1.2,3.2c-0.4,1-0.6,2.1-1,3.2c-0.3,0.9-0.5,1.8-1.5,2.6c-0.5,0.6-0.7,1.2-1,1.7
			c-0.7,0.2-1.2,0.4-1.7,0.8c-0.5,0.2-0.7,0.9-1.5,0.7c-0.7-1.7-0.7-3.9-0.5-6.1c0.3-2.2,0.3-4.4,0.5-6.4c0-0.7,0.3-1.3,0.3-1.8
			c0.5-1.6,0.8-3.1,1-4.9c0.2-0.3,0.3-0.8,0.5-1.1c1.2-2.5,1.5-4.8,2.3-7.4c0.3-0.8,0.3-1.5,0.5-2.3c1.3-4.4,2.5-9,3.8-13.3
			c1.2-3.9,2-7.8,3.3-11.7c0.5-1.6,1.2-3.5,1.5-5.2c0.5-2.7,1.5-5.8,2.3-8.5c1.1-3.9,2.3-7.8,3.3-11.6c0.5-2,1-3.8,1.5-5.9
			c0.3-0.5,0.3-1,0.8-1.9c0.3-0.5,0.5-1.3,0.5-2c0.3-1.3,0.8-2.3,1.3-3.9c0,0-0.2-0.4-0.2-0.9c1-1.5,1.5-3.3,2-5
			c0-1.2,0.5-2.5,1-3.6c0.8-2.1,1.3-3.9,2-6c0-0.2,0.3-0.8,0.3-1c-0.5-1.5,0.3-2.9,0.5-4.4c1-3.6,2.7-7.1,3.8-10.4
			c0.8-2.4,1.5-5.4,2.3-7.9c-0.7-1.5-1.2-3-1.9-4.5c-0.5-0.6-0.3-1.4,0-2.1c0.3-0.7,0.5-1.3,0.8-1.8c1.8-2.3,3-4.8,5.3-6.9
			c0.5-0.4,0.8-1.4,1-2.1c1-3.1,2-6.2,3.1-9.5c0.5-1.5,1.5-3.2,3.5-3.6c0.2-0.1,0.8-0.7,1.2-1c0.9-0.5,2.1-1,3-0.7
			c0.9,0.3,2.4,0.8,3.5,1.1c0.9,0.3,2.2,0.3,3.2-0.7c0.8-0.7,1.7-1.5,2.7-2c2-0.9,4-1.8,6-2.2c0.2-0.1,0.5-0.3,0.7-0.6
			c2.5-1.7,5-2.4,7.5-3.1c3-0.8,5.7-1.1,8.7-1.6c2.2-0.4,4.5-0.6,6.7-0.7c2.2-0.2,4.8,0.2,6.9,0.2c1.4,0,3,0.4,4.4,1.1
			c1,0.5,1.7,1.1,2.2,2.2c0.5,1.1,1.5,2.1,2.4,3.1c0.5,0.6,0.7,1.3,1.2,1.9c1,0.5,1.5,1.8,2.7,2.4c1,0.1,1,1,1,1.7
			c0.2,0.9,0.2,1.8,0.5,2.7c0.5-0.1,1-0.2,1.5-0.2c-0.3,1.2-0.4,2.3-0.3,3c0.1,1,0.4,2.1,0.5,2.9C493.8,124,494,124.7,493.9,125.4z
			 M395.7,241.5c0,0,0-0.2,0-0.5c-0.2,0.3-0.5,0.4-0.5,0.6c0,0.2,0,0.5,0,0.7C395.5,242.1,395.7,241.7,395.7,241.5z M399.5,225.9
			c-1.2,1.3-2,2-2,2.7c0,1.7-1,3.4-1.5,5.2c0,0.2,0,0.2,0.2,0.4c1-0.5,1.5-1.4,1.7-2.4c0.3-1.2,0.5-2.5,1.3-3.9
			C399.5,227.5,399.5,226.8,399.5,225.9z M397.5,234.1c-0.5,1.1-1.5,2.6-1.3,4.4c0.7-1.6,1.4-2.9,1.7-3.8
			C398.1,234.1,398.2,233.9,397.5,234.1z M403.3,217c0-0.2,0-0.5,0-0.7c-0.5-0.8-1-1.6-1.5-2.7c-1.7,1.9-1,3.9-2,5.8
			c0.2,0.2,0.5,0.1,0.7,0.3c-0.5,0.9-1.1,1.5-1.2,2.3c-0.3,1.4-1,2.9-2.2,4.2c-0.2,0.3-0.5,1.1,0.2,1.4c0.5-0.6,0.7-1.2,1-1.7
			c0.2-0.3,0.7-0.7,1.2-0.8c1.2-0.1,1.7-0.8,2-2C401.9,221.2,402.7,219,403.3,217z M402.3,239.6c0,0.1,0,0.1,0,0.2
			C402.3,239.7,402.3,239.7,402.3,239.6z M405.9,221.2c0.3-0.5,0.7-1.2,0.8-1.6c0.3-0.8,0.2-1.9,0.5-2.8c0.4-1,0.8-2.2,1-2.9
			c0.1-0.5,0.5-1.1,0.5-1.8c0-0.5,0-1,0-1.4c-0.2,0.1-0.5,0.1-0.5,0.1c-0.5,1.1-0.9,2.4-1.5,3.3c-0.8,1.2-1,2.4-0.8,3.3
			c0.2,0.2,0,0.5,0,0.5c-0.8,1.6-1,2.2-2.5,3.5c0.7,0.5,0.2,1.4,0,2.1c-0.3,0.8-0.5,1.8,0,2.6c1.2-1.1,2.2-2,2-3.4
			C405.4,222.3,405.9,221.7,405.9,221.2z M404.9,232.7c0-0.2-0.2-0.4-0.2-0.6c-1,1.5-1.2,2.5-1,3.4c0.2-0.1,0.2-0.1,0.2-0.1
			C404.6,234.4,404.8,233.7,404.9,232.7z M403.8,213.2c0,0,0.2-0.1,0.2-0.3c0.5-1.3,1.3-2.7,1.5-4c0.2-0.3,0-0.7,0-1.2
			C404.3,209.5,403.5,211.9,403.8,213.2z M409.6,220.2c0-0.5,0-0.7-0.2-1.1c-0.2-0.4-0.5-0.8-0.7-1.5c-1,1.7,0,2.6,0,3.8
			c-1.2,1.3-1.7,2.9-2.7,4.3c1-0.3,1.5-0.4,2.2-0.6C408.9,223.5,409.4,221.9,409.6,220.2z M407.3,206.1c0,0,0,0.2,0,0.5
			c0.2-0.1,0.5-0.4,0.5-0.4s0-0.2-0.2-0.4C407.5,205.8,407.3,205.9,407.3,206.1z M410.6,186.4c0,0-0.2,0.1-0.5,0.1
			c-1,0.5-1.2,0.8-1.2,2.2c1-0.5,1.5-1.1,1.7-1.6C410.9,186.9,410.6,186.7,410.6,186.4z M412.6,184c-0.2,0.1-0.2,0.1-0.2,0.1
			s-0.2,0.1-0.2,0.3c0.1,0,0.1,0,0.2-0.1C412.4,184.3,412.4,184.3,412.6,184z M414.4,174.3c0-0.2-0.2-0.4-0.2-0.7
			c0,0-0.2,0.1-0.5,0.4c-0.7,0.9-1.2,2-1.3,2.9c0,0,0,0.2,0.2,0.2C413.4,176,413.9,175.2,414.4,174.3z M418.9,199.2
			c0,0,0-0.2-0.2-0.2c0,0,0,0-0.2,0.1c0,0.2,0,0.2,0.2,0.4C418.6,199.5,418.6,199.3,418.9,199.2z M466.1,117.9
			c-0.2,0-0.5,0.1-0.7,0.1c-1.5,0-3.1,0.2-4.5,0.6c-1.2,0.3-2.2,0.4-3.2,1.3c-0.3,0.3-0.5,0.1-0.7,0.1c-0.7-0.3-1.2,0.2-1.7,0.6
			c-0.5,0.6-1,1.3-1.3,1.7c-0.3,0.3-0.8,1.1-1.2,0.7c-1-0.3-1.5,0.3-2,0.9c-0.5,0.6-0.8,1.4-1.3,1.9c-0.6,0.6-1.5,1.5-1.8,2.5
			c-1,1.6-2,3-3.8,4.1c-0.5,0.1-0.7,0.6-0.8,1.1c0,0.7,0,1.5,0.2,2.1c0.2,0.4,0.2,0.7,0,1.2c-0.3,0.9-0.8,1.8-1,2.8
			c-0.3,0.3-0.5,0.8-0.5,1.3c0.2,1.6-0.4,3.8-1.3,4.7c-1,1.1-1.7,1.1-1,2.6c0,0.2,0,0.2,0,0.5c-1,1.2-1,1.2-1,2.8
			c-0.8,1.6-1.6,3-2.3,4.3c-0.8,1.5-1.8,3.2-3,4.5c-1.2,1.2-1.5,2.5-2.3,3.8c-0.2,0.3,0,0.5,0,0.9c0.5-0.6,1-0.9,1.5-1.3
			c0,0.7,0,1.4,0.7,1.7c-0.5,1.3-1,2.8-1.5,4.1c-0.2,0.3-0.5,0.8-0.7,0.9c-1.7,0.7-2.2,2.3-2.7,3.5c-0.6,1.3-1.5,2.5-2.5,3.4
			c-0.2,0.3-0.5,0.6-0.5,0.6c0,0.2,0,0.5,0.2,0.6c0.1,0,0.1,0,0.2-0.1c0.2-0.1,0.5-0.4,0.7-0.4c0.7-1.1,1.7-2.1,2.7-2.8
			c1-0.7,1.6-1.8,2-2.8c0.3-1,0.8-2.1,1.3-3.1c1.5,0.6,0,2.1,0.7,3.1c1-0.5,2-1.4,2.5-2.2c0.8-1.4,2-2.6,3-3.8
			c4-3.3,8-6.5,11.4-10.1c1.7-1.8,3.2-3.7,4.5-5.9c2-3.7,4.5-7.3,6.1-11.3c1-1.1,1.3-2.1,1.5-3.1c0.8-1.3,1-2.8,1.8-4.1
			c1.8-3.1,2.3-6.3,3.1-9.7c0.3-0.7,0.4-1.8,0.5-2.7C467.7,118.7,467.4,117.9,466.1,117.9z M434.4,152.5c0.2-0.1,0.7-0.4,1-0.7
			c0.2-0.1,0.5-0.3,0.5-0.6c0-1.2,0.1-2.5,0.3-3.4c0.1-0.4,0-0.7-0.7-0.5c-1,1.2-1,2.8-1.5,4.4C433.9,152.1,433.9,152.3,434.4,152.5
			z M436.7,145.6c1-0.9,1.1-1,1.3-1.7c0.3-1.1,1.1-3.2,0.8-3.5c-0.2-0.2-1.2,0.5-1.5,1c-0.3,0.5-0.5,1.3-1,1.9
			C435.7,144.4,435.9,145,436.7,145.6z M452.2,122.3c0.1,0.1,0.1,0.1,0.2,0.2c0,0,0.2-0.1,0.5-0.3c0,0-0.2-0.2-0.2-0.4
			C452.5,122,452.5,122,452.2,122.3z"/>
		<path class="st1" d="M511.3,214.2c0,0.3,0,0.6,0,1.2c0,0.3,0,0.9-0.3,1.5c0.3-0.1,0.3,0.5,0,0.9c-0.3,0.3-0.6,0.7-1,1
			c0,0.6,0,0.9,0,1.2c-0.3,0.3-0.3,0.3-0.3,0.6c-0.3-0.2-0.3-0.2-0.6-0.5c-0.6,0.1-0.9,0.5-1.6,1.2c-0.3,0.6-0.6,1-1.3,1.7
			c0,0.3-0.3,0.3,0.3,0.5c0,0.1,0,0.2,0,0.3c0,0.3-0.3,0.3-0.3,0.3c0,0.3-0.3,0.4-0.3,0.6c0,0.3,0,0.9,0.3,1.1c0,0.1,0,0.2,0,0.3
			c-0.3,0.4-0.3,0.6-0.3,0.9c-0.3,0.6-0.3,0.9-1,1.3c-0.3,0.4-0.3,0.9-0.6,1.3c-1,0.8-1.6,1.5-2.9,2c0,0,0,0.3-0.3,0.4
			c-0.1,0-0.2,0-0.3,0.1c-0.3-0.2-0.6-0.2-0.9-0.1c0,0.6,0,1.2-1,1.1c-0.6,0.7-1.3,0.5-1.9,0.7c-0.3,0.4-0.3,0.7-0.6,1
			c0,0,0,0.3-0.3,0.7c0-0.3-0.3-0.5-0.6-0.5c0,1.2,0,2.1,0,3.3c-0.3-0.2-0.9,0.2-1.6,0.6c0,0.3-0.3,1-0.6,1.3
			c-0.3,0.1-0.3,0.4-0.6,0.4c-0.3,0.4-0.6,0.1-0.6-0.2c0.3-0.4,1-1.1,1-1.7c0.3-0.4,0.6-0.7,1-1.1c-0.3-0.5,0.3-1,1-1.4
			c-0.1,0-0.2,0-0.3,0.1c0-0.3,0.3-0.7,0.3-1c0-0.3,0-0.6,0-0.9c0-0.3-0.3-0.5-0.9-0.4c-0.3,0.1-0.9-0.1-1.3-0.1
			c-0.3,0.1-0.3,0.1-0.3,0.1c-0.6,0.4-1,0.8-1.6,1.2c0-0.3,0-0.6,0.3-1c0.3-0.1,0.3-0.4,0-0.6c-0.3,0.4-0.3,0.4-0.3,0.7
			c-0.3,0.1-0.3,0.1-0.3,0.1c-0.3,0.1-0.3,0.1-0.3-0.2c-0.3,0.1-0.3-0.2-0.6-0.5c-0.3,0.1-0.4,0.1-0.6,0.1c0,0.3-0.9,0.2-0.6,0.7
			c0.3,0.2,0,0.6-0.3,0.7c-0.3,0.4-0.3,0.7-0.6,1c-0.3,0.1-0.3-0.2-0.3-0.5c0.3-0.4,0.3-0.7,0-0.9c-0.3-0.2-0.3-0.2-0.6-0.5
			c0-0.6,0.1-0.9,0.3-1.5c0.4-0.9,0.3-1-0.3-1.4c-0.3,0.1-0.3,0.1-0.6-0.2c0,0.3-0.3,0.7,0,0.9c0,0.3,0,0.3,0,0.6
			c-0.6,0.4-0.6,0.7-0.6,1.3c0,0.3-0.3,0.7-0.3,1c0,0.3,0.3,0.5,0.3,0.8c-0.3,0.4-0.3,1-0.3,1.3c-0.3,0.7,0,0.9,0,1.2
			c0,0.3,0,0.6,0.3,0.8c0,0.6,0,1.5,0,2.1c0,0.3,0,0.6,0,0.9c-0.3,0.4-0.3,0.7,0,0.6c0.3-0.1,0.3,0.2,0.6,0.2c0,0.3,0,0.9,0.6,0.8
			c0.6-0.1,1.3,0,1.3-0.9c0.3-0.1,0.3-0.1,0.3-0.1s0.3,0.2,0.3,0.5c0,0.3,0,0.3-0.6,0.4c0,0-0.3,0.4-0.3,0.7
			c-0.3,0.1-0.6,0.1-0.6,0.1c-0.3-0.2-0.6-0.2-0.9-0.4c-0.1,0.1-0.2,0.2-0.3,0.4c-0.3-0.2-0.3-0.2-0.3-0.5c0-0.6-0.3-1.1-0.9-1
			c0.6-0.7,0.3-1.6,0.3-2.1c-0.3-0.2-0.3-0.5,0-1.2c0-0.3-0.3-0.5-0.6-1.1c-0.3-0.2-0.3-0.8-0.3-1.1c0.3-0.4,0.3-0.7,0.3-1
			c0-0.3,0-0.9,0.6-1.3c-0.3,0.1-0.3,0.1-0.6,0.1c-0.1-0.1-0.2-0.1-0.3-0.2c0-0.3,0.3-0.4,0.3-0.4c0.3-0.4,0.3-0.1,0.3-0.7
			c0-0.1,0-0.2,0-0.3c0.6-0.7,0.6-1.3,0.7-1.9c0-0.3-0.3-0.8,0.3-1.3c0.3-0.1,0.3-0.7,0.3-1c0.3-0.4,0.6-0.4,0.6-0.7
			c0,0,0-0.6-0.9-0.4c0.6-0.7,1-1.4,1.3-2c0.4-0.9,0.3-1.8,0.4-2.7c0-0.6,0-0.9-0.9-1c-0.9-0.1-1.6-1.2-1.9-2c0-0.3,0.3-1,0.6-1.3
			c1.3-0.8,2.5-1.1,3.8-1.9c0-0.9,0.3-1.5,1.3-2.3c0.3-0.4,0.3-0.7,0-0.9c0-0.3,0-0.6,0.3-1c0.3-0.4,0.3-0.7,0.6-1
			c0-0.1,0-0.2,0-0.3c-0.6-0.8-0.3-1.1,0.6-1.3c0.3,1.4,0.3,1.4-0.3,1.5c0,0.3,0,0.6,0,0.6c0.3-0.1,0.6,0.2,0.6-0.1
			c0.3-0.1,0.6-0.4,0.6-0.4c0-0.6,0.3-0.9,0.6-1.3c0.3-0.1,0.3-0.4,0.3-0.4s0,0-0.3,0.1c-0.3-0.2-0.3-0.2-0.6-0.2
			c-0.6,0.1-0.6-0.2-0.3-0.8c0.3,0.2,0.3,0.2,0.3,0.2c0.3-0.1,0.3,0.2,0.3,0.2c0.3-0.1,0.3-0.4,0.3-0.4c0-0.3,0.3-0.7,0.6-1
			c0.3-0.1,0.3-0.4,0.3-0.9c0.3,0.5,0.3,0.8,0.6,1.1c0.6-0.7,1-1.4,1-2.2c0,0,0,0,0.3-0.1c0,0.3,0,0.9,0.3,1.1
			c0.6-0.4,0.3-0.9,0.6-1.3c0.3-0.1,0.3-0.4,0.3-0.4c0.3-0.1,0.3,0.2,0.3,0.2c0.3,0.5,0,0.9,0.9,0.4c0,0.1,0,0.2,0,0.3
			c0.3-0.1,0.6,0.2,0.9-0.2c0-0.3,0-0.3,0-0.3c0.9,0.1,1.9-0.3,2.8-0.2c0,0,0.3-0.1,0.3,0.2c0.3-0.1,0.6-0.1,0.6,0.2
			c0.3-0.1,0.6-0.1,0.6-0.1c0.1-0.1,0.2-0.2,0.3-0.3c0-0.6,0.3-0.9-0.3-1.1c0-0.3,0-0.6,0-0.6c0.1,0,0.2,0,0.3-0.1
			c0.1,0.2,0.2,0.3,0.3,0.5c0.3-0.1,0.6-0.1,0.6,0.2c0,0.6,0.3,0.8,0.6,1.1c0,0.3,0,0.3,0,0.6c0,0.3,0.3,0.5,0.6,0.8
			c0.6,0.2,0.9,1,0.6,1.7c0,0.3,0,0.6,0.6,0.8c0.9,0.4,1.9,0.9,2.8,1.6c0.3,0.2,0.6,0.5,0.9,0.7C511,213.1,511.3,213.6,511.3,214.2z
			 M490.5,240.4c0.3,0.2,0,0.9-0.6,1c0,0-0.3,0.1-0.6,0.1c0,0.3-0.6,0.4-0.9,0.5c0-0.3,0.3-0.4,0.3-0.4c0.3-0.7,0-1.2,0-2.1
			c-0.3,0.4-0.3,0.7-0.6,1.3c-0.3-0.8-0.6-1.4-0.6-2.2c0-0.3,0.3-0.7,0.6-1c-0.3-0.2-0.3-0.8-0.6-1.4c0.1-0.1,0.2-0.2,0.3-0.4
			c0.3,0.2,0.3,0.2,0.6,0.2c0,0.3,0,0.3-0.3,0.7c0.3,0.2,0.6,0.2,0.6,0.8c-0.3,1,0,1.8,0.9,2.2C489.9,240,490.2,240.2,490.5,240.4z
			 M491.8,235.7c0,0.3-0.3,0.4-0.3,0.7c0-0.3-0.3-0.2-0.3-0.2c0-0.3,0-0.6,0.3-0.7c0-0.3,0.3-1,0.6-0.7
			C491.8,235.4,491.8,235.4,491.8,235.7z M493.1,237c-0.3-0.2-0.3-0.5-0.3-0.8c0-0.3,0.3-0.4,0.6-0.1c0,0.1,0,0.2,0,0.3
			c0,0,0,0,0.3,0.2C493.4,236.6,493.4,236.9,493.1,237z M496.8,238.6c-0.3,0.1-0.3-0.2-0.6-0.5C496.8,238,496.8,238,496.8,238.6z
			 M497.9,206.2c0-0.6,0.3-0.6,0.6-0.7c0.3-0.1,0.6-0.1,0.9-0.2c0,0,0,0,0.3-0.1c-0.3,0.4-0.6,0.7-1,1.1
			C498.5,206.7,497.9,206.5,497.9,206.2z M499.3,237.5c-0.3,0.4-0.6,0.4-0.9,0.5c0.3-0.4,0-0.9,0.6-1
			C499.3,236.9,499.3,237.5,499.3,237.5z M587.5,8c-0.6-0.3-1.3-0.3-1.9-0.3c-0.7,0.6-1.3,1.1-0.7,2c-0.7,0.6-1.3,1.4-1.3,2.3
			c0,0.1,0,0.2,0,0.3c0.6,0.9,0,1.7-0.4,2.6c0,0.9-0.4,1.4-1,2c0,0.3,0,0.9,0,1.1c-0.3,0.9-0.4,1.7-0.7,2.6c0,0.6,0,1.1-0.4,1.7
			c0,0,0,0,0,0.3c-1,0.8-1,2-1.3,2.9c0,0.3,0,0.6-0.3,0.6c-0.3,0.3-0.7,0.9-1,1.4c0,0.1,0,0.2,0,0.3c-0.3,0.3-0.7,0.9-0.7,1.1
			c-0.3,0.3-0.3,0.9-0.7,1.1c0,0.3,0,0.6,0,0.6c-0.3,0.6-0.7,1.1-0.7,1.4c0,0.6,0,0.9,0,1.2c0,0.3-0.3,0.6-0.3,0.6
			c-0.3,0.6-0.7,0.9-0.7,1.4c-0.7,0.9-1,1.7-1.3,2.9c0,0.6-0.7,0.9-0.7,1.4c-0.7,1.2-0.9,2.6-1.3,3.2c-0.4,0.6-0.7,1.4-1,2
			c-0.3,0.6-0.7,1.2-1,1.5c-0.7,0.6-1,1.2-1.3,1.7c0,0.3,0,0.6,0,0.9c-0.6,0.6-0.7,1.2-1,1.7c0,0.3,0,0.6-0.3,0.9
			c0,0.3-0.3,0.3-0.3,0.6c0,0.3-0.3,0.9-0.7,1.2c-0.3,0.6-0.7,1.5-1,2c-0.4,0.8-0.4,1.7-1.3,2.6c-0.6,0.6-0.3,1.5-1,2.1
			c-0.3,0-0.3,0.3-0.3,0.3c-0.6,0.6-1.3,1.2-1.3,2.1c-0.3,0.6-0.7,0.9-1,1.2c0,0,0,0.3-0.3,0.3c-0.3,0-0.3,0.3-0.6,0.6
			c0,0.6-0.3,1.5-1,1.8c0,0.3,0,0.9-0.3,1.2c-0.3,0.6-0.4,1.2-0.7,1.8c-0.4,0.8-1,1.8-1,2.6c0,0.3-0.3,0.6-0.6,0.6
			c-0.3,0.3-0.3,0.9-1,0.6c-0.1,0.1-0.2,0.2-0.3,0.3c0,0.9-0.6,1.9-1,2.9c-0.2,0.6-1,1.5-1.6,2.4c0,0.3-0.3,0.9-0.3,1.5
			c0,0-0.3,0.3-0.3,0.6c0,0.1,0,0.2,0,0.3c-0.3,0.3-0.3,0.6-0.7,0.9c-0.3,0.3-0.6,0.6-0.7,0.9c0,0.3,0,0.6-0.3,0.6
			c-0.6,0.3-1,1.2-1.3,1.8c-0.4,0.8-1,1.8-1.3,2.7c-0.3,0.3-0.3,0.3-0.6,0.6c0,0.3,0,0.9,0,1.2c0,0.3,0,0.6-0.3,0.9
			c-0.3,0-0.3,0.6-0.7,0.9c0,0.3-0.3,0.9-0.7,1.2c-0.3,0.3-0.6,0.6-0.7,1.2c0,0.1,0,0.2,0,0.3c-1,0.4-0.7,1.2-1,1.5
			c0,0.3,0,0.6,0,0.9c0.3,0,0.6,0.2,0.3,0.6c0,0.3,0.3,0.6,0.3,0.6c-0.3,0.3-1,0.7-0.7,1.5c0,0-0.3,0-0.3,0.3c0-0.3,0-0.3,0-0.3
			c-0.3-0.3-0.3-0.3-0.3-0.6c-0.3,0.3-0.3,0.3-0.3,0.3c-0.7,0.9-1,1.8-1.3,2.7c0.1,0.1,0.2,0.2,0.3,0.3c-0.3,0.3-0.6,0.3-1,0.7
			c0,0.3-0.3,0.6-0.3,0.9c0,0.6,0,1.5,0,2.3c-0.1,0.1-0.2,0.2-0.3,0.3c-0.3,0.3-0.6,0.6-0.7,0.9c-0.3-0.3-0.3-0.3-0.3-0.6
			c-0.3,0.3-0.3,0.6-0.7,0.9c-0.3,0.9-0.3,1.5-0.7,2.1c0,0-0.3,0-0.3,0.3c0,0,0,0.3,0,0.6c0.6,0.2,0.3,0.6,0,1.2
			c0-0.3-0.3-0.3-0.6-0.5c0,0.3,0,0.6,0,0.9c-0.3,0.3-0.6,0.6-0.7,0.9c0,0.3,0,0.3,0,0.3c0.1,0,0.2,0,0.3,0c0-0.6,0.3-0.6,0.6-0.3
			c0,0.3-0.3,0.3-0.6,0.3c0.3,0.8-0.3,1.8-1.3,1.9c-0.3,0.3-0.6,0.6-0.6,0.9c-0.3,0.6-1,1.6-1,2.4c0,0.9-0.6,1.9-1,2.7
			c-0.3,0.6-0.7,1.2-0.7,1.5c0,0.9-0.7,1.2-0.7,1.5c0,0.3,0,0.6,0,0.9c0-0.1,0-0.2,0-0.3c-0.6,0.7-0.7,1.5-0.7,2.4
			c0,0,0.3,0,0.3,0.3c0,0.1,0,0.2,0,0.3c-0.6,0.1-0.3,0.6-0.3,1.2c-0.3,0.9-0.7,1.8-1.6,2.8c-0.3,0.3-0.7,1.5-1,2.2
			c0,0.6,0,1.2-0.3,1.5c0,0.3,0,0.3,0,0.3c-0.3,0-0.3,0-0.6,0.4c0.3,0,0.3,0,0.3,0.3c0.1,0,0.2,0,0.3,0c-0.1,0.1-0.2,0.2-0.3,0.3
			c-0.6,0.1-0.6,0.4-0.7,1.2c0.3,0.5,0.3,0.8-0.3,1.2c-0.3,0-0.3,0-0.3,0c0,0.3,0.3,0.5-0.3,0.9c0,0-0.3,0.3-0.6,0.7
			c-0.1-0.1-0.2-0.2-0.3-0.3c-0.3,0.6-0.6,1-0.3,1.5c0.3,0.3,0,0.6,0,0.9c-0.3-0.3-0.3-0.5-0.6-0.5c-0.3-0.3-0.6,0.1-0.6,0.4
			c0,0.9,0,1.8-0.7,2.4c-0.3,0.3-0.3,0.9-0.7,1.5c0,0.6,0,1.2-1,1.6c-0.6,0.1-0.6,0.7-1,1.3c0,0.3,0,0.6,0,0.9
			c-0.6,0.7-0.6,1,0.3,1.7c0-0.6,0.3-0.9,0.3-1.5c-0.3,0-0.3,0-0.6,0.1c0.3-0.3-0.3-1.1,0.6-1c0.3,0.3,0.3,0,0.6-0.4
			c0.3,0,0.3-0.3,0.6-0.4c0.3,0,0.6-1,0.3-1.2c0,0,0-0.3,0-0.9c0.3,0.3,0.6,0.2,0.9,0.5c0-0.3,0-0.3,0-0.6c-0.3,0-0.3,0-0.6,0.1
			c0,0,0-0.3,0.3-0.3c0,0,0.3,0,0.6-0.1c0,0.1,0,0.2,0,0.3c-0.3,0.9-0.3,1.5-0.7,2.1c-0.3,0.3-0.6,0.7-1,1c-0.6,1-0.6,1,0,1.8
			c-0.3,0.3-0.6,0.7-1,1c0,0.3-0.3,0.3-0.6,0.4c0,0-0.3-0.3-0.3-0.5c0,0,0,0,0-0.3c-0.6,0.7-1,1.3-0.7,2.1c0,0,0,0,0.3,0
			c0.1-0.1,0.2-0.2,0.3-0.3c-0.3,0.6,0.3,1.1,0,1.5c0,0.3,0,0.6,0,0.6c-0.1,0-0.2,0-0.3,0c-0.3-0.3-0.3-0.8-0.6-1.4
			c-0.3,0.9-0.3,1.8-0.4,2.7c0.1,0,0.2,0,0.3,0c0,0,0.3,0.3,0.3,0.5c-0.3-0.3-0.6-0.2-0.6-0.2c-1.3,1.1-1.9,2.3-2,3.8
			c0-0.3,0-0.3,0.3-0.6c0.6,0.2,0,1.2,0.3,1.4c-0.3,0-0.6,0.1-0.9,0.1c0.3,0.5,0.3,0.8,0.3,1.1c0,0.3,0.3,0.2,0.3,0.5
			c0-0.3,0.3-0.6,0.3-0.6c-0.3-0.8,0.3-0.9,0.6-0.7c0.3,0,0.3,0,0.3,0c-0.3,0.6-0.6,1-0.7,1.3c-0.3,0.9-0.7,1.6-1.3,2.2
			c-0.1,0.1-0.2,0.2-0.3,0.3c0,0-0.3,0-0.3-0.2c0-0.2,0-0.4,0-0.6c0.6-0.4,0.6-0.7,0.7-1.3c-0.3-0.2,0-0.3,0-0.6s-0.3-0.5-0.6-0.5
			c0,0.6,0,0.9-0.7,1.3c-0.6,0.4-0.7,1.9,0,2.4c0,0.3,0.3,0.2,0.3,0.5c0.3,0.2,0,0.6-0.3,0.9c-0.6,0.7-1.3,1.4-1,2.5
			c0,0,0,0.3-0.3,0.3c-0.1-0.1-0.2-0.1-0.3-0.2c0,0,0-0.3-0.3-0.5c0,0.6-0.3,1.2-0.3,1.8c0,0,0.3,0,0.6-0.1
			c-0.3,0.3-0.3,0.3-0.3,0.3c-0.3,0-0.6,0.4-0.6,0.4c0,0.6,0.3,0.8-0.3,0.9c0,0,0,0.3,0,0.6c0,0.3-0.3,0.6-0.6,0.7
			c0,0,0,0.3,0.3,0.5c0,0-0.3,0-0.6,0.4c0,0.3,0,0.3,0,0.6c-0.3,0.3-0.3,0.9-0.7,1.3c0,0.6-0.3,0.9-0.3,1.2c0,0.6-0.3,1.2,0,1.8
			c0.3,0.5-0.3,1.2-0.7,1.9c-0.3,0.3-0.6,1-0.7,1.9c0,0.6-0.3,1.5-0.7,2.2c-0.3,0.3-0.6,1-0.6,1.3c-0.1,0.1-0.2,0.2-0.3,0.3
			c-0.3,0.3-0.6,0.7-0.6,0.7c-0.6,0.7-1.3,1.1-1.6,1.7c-0.3,0.3-0.6,0.7-0.6,1c-0.6,0.7-1,0.7-1.6,0.9c-0.3,0.1-0.6,0.7-1,0.5
			c0-0.3,0-0.6,0-0.9c-0.1-0.1-0.2-0.1-0.3-0.2c-0.6-0.2-0.3-0.5-0.3-0.8c0.3-1.2,0.3-2.1,0.4-3c0.3-1.5,1-2.9,1.3-4.4
			c0.3-1.2,0.7-2.8,1-4.3c0-0.3,0.3-0.9,0.3-1.2c0.7-1.6,1.1-2.9,1.6-4.1c0.8-1.9,1-4,1.7-6.2c0.3-0.3,0-0.9,0-1.2
			c0-0.3,0.3-0.3,0.3-0.6c0.3-0.3,0.6-0.4,0.6-0.7c0-0.6,0-1.2,0.3-1.8c0-0.3,0-0.6,0-0.9s0-0.9,0.7-1.3c0.3-0.3,0.3-0.9,0.3-1.5
			c0.3-0.9,0.7-1.9,1-2.8c0.3-0.9,1-1.9,1.3-2.8c0-0.3,0-0.3,0-0.6c0-0.9,0.3-1.5,1-2.2c0.3-0.6,0.3-1.5,0.3-2.1c0-0.3,0-0.3,0-0.6
			c0-0.3,0.3-0.6,0.6-0.1c0-0.6,0-0.9,0-1.5c0,0,0.6-0.4,0.6-0.7c0,0,0,0-0.3-0.3c0.6-0.4,0.6-0.7,0.3-1.2c0,0,0-0.3,0.3-0.3
			c0.3-0.6,0.3-0.9,0.7-1.6c0-0.1,0-0.2,0-0.3c0.6-0.4,0.3-0.9,0-1.5c0.3,0.3,0.3,0.3,0.3,0.3c0.3-0.6,0.7-1.3,0.7-1.8
			c0-0.6,0.4-1.2,0.7-1.8c0.4-0.8,0.7-1.6,0.7-2.4c0-0.6,0-0.9-0.6-1.1c0-0.3,0-0.6,0-0.9c0-0.3,0-0.6,0.3-0.9c0,0,0-0.3,0.3-0.9
			c0.3,0.3,0.6,0.8,1.2,1c0,0,0.3,0,0.3-0.3c-0.3-0.3-0.6-0.5-0.9-0.8c0.3-0.9,0.3-1.5,0.4-2.4c0.3-0.6,0.7-1.5,1-2.2
			c0-0.6,0-1.2,0.3-1.8c0,0.6,0.3,0.8,0.3,1.1c0.6-0.7,1-1.3,1-1.9c0-0.9,0-1.5,0.4-2.4c0,0.3,0,0.3,0.3,0.5c0-0.6,0.3-0.9,0.7-1.5
			c0.3,0,0.3,0,0.6-0.1c0,0,0-0.3,0-0.6c0.3,0,0.3,0,0.6-0.1c0-0.3,0-0.6,0-0.9c0.3,0,0.6-0.4,1-0.4c0,0.3-0.3,0.9-0.3,1.2
			c0,0-0.3,0-0.6,0.4c0,0.3,0,0.6-0.3,0.9c-0.6,0.4-0.6,0.7-0.3,1.2c0.3,0.6,0.3,1.1-0.3,1.8c0,0.3,0,0.6-0.3,0.9c0,0.3,0,0.9-0.6,1
			c0-0.3,0-0.6,0-1.2c-0.3,0.3-0.6,1-0.7,1.2c0,0.6,0.3,0.8,0.6,0.8c0,0.6,0,0.9-0.7,1.3c0,0,0,0.3,0,0.6c0,0,0,0.3,0.3,0.5
			c0-0.6,0.3-0.9,0.7-1.3c0.3-0.6,0.7-1.2,1-1.9c0.3-0.6,0.3-1.5,0.7-2.1c0.3-0.6,0.7-1.2,0.7-1.8c0.3-1.2,0.7-2.4,1.3-3.4
			c0.3-0.6,0.7-1.5,0.7-2.1c0.3-0.3,0-0.6,0-0.6c-0.3,0-0.6,0.4-0.6,0.4c-0.3,0.6-0.3,0.9-0.7,1.5c0,0-0.3,0-0.6,0.1
			c0-0.3,0-0.6-0.3-0.6c0.6-1,1.3-1.9,1-3c0,0.3,0.3,0.6,0.6,0.8c0,0,0,0,0.3,0c0-0.3-0.3-0.8-0.3-1.1c0-0.6,0-0.9,0-1.5
			c0-0.3,0-0.3,0.3-0.6c0.3,0.3,0.3,0.6,0.6,0.5c0.3-0.3,0.3-0.3,0.6-0.7c0-0.1,0-0.2,0-0.3c0-0.9,0.7-1.5,1-2.2
			c0-0.6,0-0.9-0.3-1.4c0,0.3,0,0.3,0,0.6c0,0.3,0,0.6,0,0.6c0,0.9,0,0.9-1,0.7c0.3-0.9,0.3-1.5,0.7-2.4c0-0.3,0.3-0.3,0.6-0.7
			c0,0,0.3,0,0.6-0.4c1-0.4,1-0.7,1-1.3c-0.3,0-0.6-0.2-0.6-0.2c0.3-0.6,0.3-0.9,0.7-1.5c0.3-0.6,1-1,1.3-1.6c0-0.3,0.3-0.9,0.3-1.2
			c-0.3-0.3,0-0.6,0-0.9c0-0.3,0-0.6,0.3-0.9c-0.3,0.3-0.6,0.4-1,0.7c0-0.3-0.3-0.6-0.3-0.8c0,0,0.3-0.3,0.6-0.4
			c0.3,0,0.6-0.1,0.3-0.6c0.1-0.1,0.2-0.2,0.3-0.3c1-0.4,0.7-0.9,0.7-1.2c0-0.6,0-0.9,0.3-1.2c-0.3-0.8,0.3-1.2,0.7-1.8
			c0,0,0,0,0-0.3c0,0,0.3,0,0.3-0.3c-0.1-0.1-0.2-0.2-0.3-0.3c-0.1,0.1-0.2,0.2-0.3,0.3c-0.1,0.1-0.2,0.2-0.3,0.3
			c-0.3,0-0.3-0.3-0.3-0.3c0-0.3,0.3-0.6,0.3-0.6c0.6-0.3,1-0.7,1-1.3c-0.6-0.5,0-0.9,0.3-1.5c0-0.3,0.3-0.3,0.3-0.3
			c0.3-0.3,0.6-0.3,0.6-0.3c0.6-0.1,0.6,0.2,0.6,0.5c-0.3,0.3-0.3,0.6-0.6,0.6c-0.3,0-0.3,0-0.6,0.3c-0.3,0.3,0,0.6,0,0.6
			c0.3,0.6,0,0.9-0.3,1.5c0,0,0,0.3,0.3,0.6c0.3-0.6,0.7-0.9,1-1.5c0-0.6,0.3-1.2,0.7-1.8c0.3-0.6-0.3-0.9,0.3-1.5
			c-0.1,0-0.2,0-0.3,0c-0.3,0-0.6,0.1-1,0.1c0,0,0-0.3,0.3-0.6c0-0.3,0-0.6,0.3-0.9c0,0,0.3,0.3,0.6,0.2c0,0,0.3,0.3,0.3,0.6
			c0.6-0.6,0.3-1.2,0.3-1.8c-0.1,0.1-0.2,0.2-0.3,0.3c0.3,0.3,0,0.6-0.3,0.9c-0.3-0.3-0.3-0.3-0.6-0.5c0.3-0.3,0.6-0.6,1-0.7
			c0.3,0,0.3-0.6,0.7-0.9c0.3-0.3,0.3-0.6,0.3-0.9c-0.3,0,0-0.3,0-0.3c0-0.3,0.3-0.3,0.3-0.3c0-0.6,0.3-0.9,0.3-1.5
			c-0.1,0-0.2,0-0.3,0c0-0.3,0-0.6,0-0.9c0.3,0,0.6-0.3,0.9,0.2c0-0.3,0-0.6,0.3-0.6c0-0.6,0.3-1.5,0.7-2.1c0-0.3,0-0.6,0-0.9
			c0.3-0.6,0.7-0.9,0.7-1.5c0-0.3,0.3-0.3,0.3-0.6c0.1-0.1,0.2-0.2,0.3-0.3c0.3-0.6,0.3-1.2,0.7-1.8c0.3-0.6,0.7-1.2,0.7-1.8
			c0.3-0.6,0.3-0.9,0.3-1.5c0-0.1,0-0.2,0-0.3c0.6-0.6,0.7-0.9,0.3-1.5c-0.3-0.3,0-1.5,0.3-1.5c0.3,0,0.3,0,0.6,0
			c0-0.3,0-0.9,0.3-1.2c-1-0.2-0.9-0.5-0.6-1.1c0.3,0.3,0.3,0.3,0.6,0.3c0-0.6,0.7-1.2,0.4-1.8c0-0.3,0.3-0.9,0.3-1.2
			c0.6-0.3,0.3-0.9,0.7-1.5c0-0.3,0-0.9,0.3-1.2c1-1.2,1.6-2.7,2-4.5c0.3-0.3,0-0.6,0-0.9c0.3,0,0.3-0.3,0.3-0.3
			c0.6-0.3,0.7-0.9,0.7-1.2c0.3-0.9,0.7-1.5,1-2.4c0.3-0.9,0.7-1.8,0.7-2.6c0-0.3,0.3-0.3,0.3-0.6c0.3-0.6,0.7-0.9,1-1.5
			c-0.3-0.3-1,0-0.9-0.5c0-0.6,0.3-1.2,1-1.5c0,0,0,0,0.3,0c0-0.3,0.3-0.6,0.7-0.9c0-0.3,0.3-0.3,0-0.6c-0.3,0-0.3-0.3-0.3-0.6
			c0.1,0,0.2,0,0.3,0c1-0.3,1.3-0.3,1.3-1.2c0.3-0.6,0.3-0.9,0.7-1.5c-0.3,0-0.6,0-1,0c0-0.3,0-0.6,0-0.9c0,0,0,0-0.3,0.3
			c0-0.3,0.3-0.6,0.3-0.9c1-0.3,0.3,0.9,0.9,0.8c0.3-0.3,0.3-0.3,0.3-0.6c0.7-1.2,1-2.4,2-3.5c0.7-0.9,0.7-2.2,1.3-2.9
			c0.5-0.6,0.7-1.5,1-2.1c0.4-0.8,0.7-1.5,1-2.3c0.3-0.9,0.7-2,1.3-2.9c0-0.6,0.3-1.2,0.3-1.5c0.7-0.9,1-1.8,1.3-2.3
			c0-0.1,0-0.2,0-0.3c0.3-0.3,0.3-0.6,0.7-1.2c0.3-0.6,0.7-1.2,1-1.7c0-0.1,0-0.2,0-0.3c0-0.1,0-0.2,0-0.3c0.3-0.6,0.7-1.2,1-1.7
			c0.4-0.8,0.7-2,1.3-2.9c0-0.3,0.3-0.6,0.3-0.9c0,0,0.3,0,0.3-0.3c-0.3-0.6,0.3-0.9,0.7-1.2c0.3-0.6,0.3-1.2,0-1.7
			C569,7.4,569,7.1,569,7.1c0.7-0.6,1-1.2,1.6-1.4c1-0.6,1.9-0.6,3.2-0.6c0,0,0.3,0,0.3-0.3c0.3,0,1,0,1.3,0c0.3,0,0.3,0,0.6-0.3
			c0.6,0,1-0.3,1.6-0.3c0.6,0,1.3-0.3,1.9-0.3c0.6,0,1.3,0,2.2,0.6c0.3,0,0.6,0,1.3,0.3c0.3,0.3,0.6,0.3,1.3,0.6c0,0,0.3,0,0.6,0
			c0.3,0,0.6-0.3,1,0c0,0,0.3,0,0.3,0.3c-0.1,0.1-0.2,0.2-0.3,0.3c0,0.3,0,0.6,0,0.9c0.3,0,0.6-0.3,1,0C587.2,7.1,587.2,7.4,587.5,8
			z M501.7,205.6c-0.3,0.1-0.6-0.2-0.6-0.5c0-0.3,0.6-0.7,1-0.8c0.9,0.1,0.9,0.4,0.9,1C502.6,205.4,502,205.5,501.7,205.6z
			 M501.5,236.8c-0.3,0.4-0.6,0.4-0.9,0.2c0.3-0.4,0.6-0.7,1-1.1C501.9,236.2,501.8,236.5,501.5,236.8z M502.5,235.5
			c0.3-0.1,0.6-0.1,0.9-0.2c0,0.3,0,0.3-1,1.4c-0.3-0.2-0.3-0.5-0.3-0.8C502.2,235.8,502.2,235.5,502.5,235.5z M504.1,235.2
			c-0.6-0.5,0-0.9,0.3-1.2C504.7,234.2,504.7,234.5,504.1,235.2z M506.3,232.1c-0.3,0.4-0.6,0.7-0.6,1c-0.3,0.4-0.3,0.4-0.6,0.4
			c0,0,0-0.3,0-0.6c0-0.3,0.3-0.6,0.3-1.2c0.3-0.1,0.6-0.1,0.6-0.1C506,231.9,506.3,231.8,506.3,232.1z M506.3,209.8
			c0-0.3,0-0.6-0.3-1.1C505.7,209,506,209.8,506.3,209.8z M506.8,221.2c-0.6,0.1-0.9,0.5-0.6,1C506.5,221.8,506.5,221.5,506.8,221.2
			z M509.2,150.2c0.3-0.3,0-0.6,0-0.9c0-0.3-0.3-0.5,0-0.6c0.6-0.4,0.6,0.2,0.6,0.5c0,0.6-0.3,1.8-1.3,2
			C508.8,150.8,509.2,150.5,509.2,150.2z M508.9,229.3c0,0.6,0,1.2-1,1c0.3-0.6,0.3-0.9,0.7-1.6C508.9,229,509.2,229.3,508.9,229.3z
			 M510.2,147.1c0,0.6,0,0.9,0,1.2C509.8,148,509.5,147.8,510.2,147.1z M510.2,147.4c0.3-0.9,0.3-1.2,0.7-1.9
			C511.1,145.8,510.8,146.7,510.2,147.4z M512.7,167.6c0,0.3,0,0.9,0,1.2C513,168.7,513.3,168.4,512.7,167.6z M519.8,156.6
			c0.3,0.3-0.7,1.6-0.7,2.4c-0.3-0.3-0.3-0.3-0.6-0.2c-0.3,0-0.3,0.3-0.6,0.7c-0.3,0.9-0.3,1.5-0.7,2.4c-0.3-0.5-0.6-0.8-0.6-1.4
			c0,0,0-0.3,0.3-0.3c-0.3-1.1-0.3-1.4,1-1.9c0,0,0-0.3,0.3-0.6c0,0.3,0.3,0.3,0.3,0.5c0.3,0.3,0.3,0.3,0.6-0.1
			c0.3-0.6,0.3-0.9,0-1.5c-0.3,0-0.3,0.3-0.6,0.4C518.5,156.5,519.4,156.3,519.8,156.6z M519.9,129.4c0-0.6-0.3-0.8-0.3-1.4
			c-0.6,0.1-0.3,0.6-0.3,0.9C519,129.2,519.6,129.4,519.9,129.4z M520.2,131.1c-0.1-0.1-0.2-0.2-0.3-0.3c-0.3,0.3-0.3,0.9-0.7,1.5
			c0.3,0,0.6-0.1,0.6-0.4C519.9,131.7,520.2,131.4,520.2,131.1z M519.5,154.3c0-0.3,0-0.9-0.3-1.1c0.6-0.1,1.3-0.2,1.3,0.1
			C520.5,153.9,520.2,154.3,519.5,154.3z M520.5,154.5c0,0.3,0,0.6,0.3,0.8C520.1,155.4,520.1,154.8,520.5,154.5z M521.4,120.4
			c0-1.2,1-1.9,1.3-2.8c0.3,0,0.3-0.3,0.6-0.4c-0.3,0.9-0.3,1.5-0.4,2.1c-1,0.1-1.3,0.7-1,1.6C521.3,121,521.4,120.7,521.4,120.4z
			 M522.1,152c0.1,0,0.2,0,0.3,0c0,0.3,0,0.9-0.6,1C521.8,152.6,522.1,152.3,522.1,152z M523.2,144.2c0,0.3,0,0.6-0.3,0.9
			C522.2,144.9,522.2,144.6,523.2,144.2z M524.4,148.7c0.3,0.8-0.3,1.5-0.7,2.4C523.4,150.6,523.7,149.4,524.4,148.7z M527.9,106.8
			c0.3-0.3,0.3-0.6,0.3-0.9c0,0,0,0,0.3,0c0,0.3,0,0.6,0,0.6C528.6,106.8,528.2,106.8,527.9,106.8z M530.8,125.8
			c0,0.6,0,0.9-0.3,1.2C530.1,126.5,530.1,126.2,530.8,125.8z M531.8,123.7c0.6,0.5,0,1.2-0.7,1.8c-0.1-0.1-0.2-0.2-0.3-0.3
			c0-0.3,0-0.3,0.3-0.6c0,0,0.3-0.3,0-0.3C531.1,123.7,531.4,123.7,531.8,123.7z M532.4,121.3c0,0.6,0,1.2,0.3,1.7
			c-0.3,0-0.3,0-0.6,0.1c0-0.3-0.3-0.6-0.3-0.8c0-0.3,0.3-0.6,0.3-0.9C532.1,121.3,532.1,121.3,532.4,121.3z M533.8,117.3
			c0.3,0.3,0.3,0.3,0.6,0.5c-0.3,0-0.6,0.1-1,0.1c0,0,0-0.3,0-0.6C533.8,117.3,533.8,117.3,533.8,117.3z M535,116.9
			c0,0.1,0,0.2,0,0.3c-0.3,0-0.9-0.5-0.9-0.8c0.3,0,0.3,0,0.3,0c0.3,0,0.6-0.1,0.6,0.2C535,116.7,535,116.8,535,116.9z M544.9,95.4
			c-0.3,0-0.6,0-0.6,0c0-0.6,0-0.9,0.3-1.2C545.3,94.8,545.3,94.8,544.9,95.4z M549.9,84.6c0.3,0.3,0.6,0.5,0.3,0.9
			c-0.3,0.6-1,1.2-0.7,1.8c0,0.3-0.3,0.3-0.3,0.6c-0.9-0.8-0.3-1.4,0-2.3c0,0,0.3,0.3,0.6,0.3C549.9,85.5,549.9,84.9,549.9,84.6z
			 M552.3,41c0-0.3,0-0.6,0-0.6s0.3,0,0.3-0.3c0.1,0,0.2,0,0.3,0c0,0.3,0,0.3,0,0.3C552.7,40.7,552.7,40.7,552.3,41z M553.2,44.1
			c-0.3-0.3-0.3-0.3-0.3-0.3c0,0.3-0.6,0-0.6,0.6c0,0.3,0,0.6,0,0.9c0.1,0,0.2,0,0.3,0C552.6,45,552.9,44.4,553.2,44.1z M553.7,37.2
			c-0.3-0.3-0.6-0.6-0.6-0.6c0.3-0.3,0.7-0.9,1-0.9c0.6,0,0.6-0.3,1-0.9c0.3,0,0.3-0.3,0.3-0.9c0.3-0.9,0.4-1.8,0.7-2.9
			c0,0,0,0,0,0.3c0.3,0,0.3,0,0.6,0c-0.3-0.3-0.3-0.3-0.3-0.3c0-0.1,0-0.2,0-0.3c0-0.6,0.3-0.9,0.3-1.5c0.1-0.1,0.2-0.2,0.3-0.3
			c0.6,0.6,0.6,1.7,0,2c0,0.3-0.3,0.6-0.7,0.9c0,0,0,0,0,0.3c0,0.3-0.3,0.9,0.3,1.4c0,0.3,0,0.6-0.3,0.9c-0.3,0-0.3,0.6-0.3,0.9
			c0,0.3,0,0.6-0.6,0.6c-0.3-0.3-1,0.3-1,0.6c0,0.3,0,0.6-0.3,0.3C554,36.9,553.7,36.9,553.7,37.2z M553.9,40c-0.3,0.3-0.6,0-1,0
			c0-0.3,0-0.6,0.6-0.3c0.3,0,0.3-0.3,0.6-0.3c0,0,0.3,0.3,0.3,0.6C554.6,40,554.3,40,553.9,40z M556.1,27.5c0,0,0-0.3,0.3-0.3
			c0,0,0,0.3,0.3,0.3c0,0.3-0.3,0.6-0.3,0.3C556.1,27.8,556.1,27.8,556.1,27.5z M557.6,66.9c-0.3,0.3-1,0.3-1.3,0.6
			c0.3,0.3,0.6,0.3,1.3,0.5C557.5,67.7,557.6,67.4,557.6,66.9z M557.4,27.5c0-0.6-0.3-1.4,0.7-1.8c-0.6-0.6-0.6-0.9,0-1.2
			c0-0.3,0-0.3,0-0.3c0.3-0.6,0.3-0.6,0.6-0.6c0,0.3,0.3,0.9-0.3,1.2c-0.3,0-0.3,0.3-0.3,0.6c0,0.3,0.3,0.3,0.6,0.6
			c0,0-0.3,0-0.3,0.3c-0.3,0.3-0.7,0.6-0.7,1.2c0.3,0,0,0,0,0.3C557.4,27.5,557.4,27.5,557.4,27.5z M558.8,21.9c0-0.3,0-0.3,0-0.3
			c0-0.3,0.3-0.6,0.3-0.6c0-0.6,0.3-0.9,0.7-0.9c0.3,0,0.3,0,0.3,0c0.3,0,0.3-0.3,0.3-0.3c0.3-0.3,0.3-0.3,0-0.6c0,0-0.3-0.6,0-0.6
			c0.7-0.6,0.3-0.9,0-1.4c0.6-0.3,0.7-0.6,1-0.9c0-0.3,0-0.6,0-1.2c0.1-0.1,0.2-0.2,0.3-0.3c0.3,0,1,0,1.3,0c0.3,0,0.6,0.3,0.6,0.6
			c0,0-0.3,0.3-0.6,0.3c-0.6,0.3-1,0.9-1,1.8c0.3,0.3,0.3,0.6,0,0.9c0,0.3-0.3,0.3-0.7,0.6c0,0.1,0,0.2,0,0.3c0.3,0.3,0,0.3,0,0.6
			c-0.3,0.6-1,0.9-1.6,0.9c0,0.1,0,0.2,0,0.3c-0.3,0.3-0.3,0.6-0.3,0.9C559.4,21.9,559.1,21.9,558.8,21.9z M559.7,23.1
			c0,0-0.3,0.3-0.3,0.6c-0.3-0.3-0.3-0.6-0.3-0.9c0-0.1,0-0.2,0-0.3C559.4,22.8,559.7,22.8,559.7,23.1z M565.4,8.8
			c0.3,0.3,0.3,0.6,0.6,0.9C565.4,9.7,565.4,9.4,565.4,8.8z M575.9,28.4c0-0.6,0-0.9,0-1.2c-0.3,0-0.6,0-1,0
			c0.3,0.6,0.3,0.9,0.6,1.2C575.7,28.4,575.8,28.4,575.9,28.4z M576.9,25.8c-0.3,0-0.6,0-0.6,0c-0.3,0.3-0.3,0.6-0.7,0.6
			C576.6,26.7,576.9,26.4,576.9,25.8z M588.8,8.3c-0.3,0-0.3,0-0.3,0c-0.3-0.3-0.3-0.6-0.3-0.9c0.1,0,0.2,0,0.3,0
			C588.5,7.7,588.8,8,588.8,8.3z"/>
	</g>
</g>
</svg>
